<svg id="Layer_1" data-name="Layer 1" xmlns="http://www.w3.org/2000/svg" xmlns:xlink="http://www.w3.org/1999/xlink" viewBox="0 0 437.99 897.05"><defs><style>.cls-1,.cls-27{fill:none;}.cls-2{clip-path:url(#clip-path);}.cls-3{fill:#90ee90;}.cls-4{clip-path:url(#clip-path-2);}.cls-5{fill:#65ce95;}.cls-6{fill:#5dc187;}.cls-7{clip-path:url(#clip-path-3);}.cls-8{fill:#b4fab4;}.cls-9{fill:#085f63;}.cls-10{fill:#49beb7;}.cls-11{fill:#a2f8a2;}.cls-12{clip-path:url(#clip-path-4);}.cls-13{fill:#ffe41f;}.cls-14{fill:#232323;}.cls-15{fill:#333;}.cls-16{fill:#ccc;}.cls-17{fill:#efefef;}.cls-18{fill:#f4c500;}.cls-19{fill:#dbdbdb;}.cls-20{fill:#ea952f;}.cls-21{fill:#f2b800;}.cls-22{fill:#353535;}.cls-23{clip-path:url(#clip-path-5);}.cls-24{fill:#acfcac;}.cls-25{clip-path:url(#clip-path-6);}.cls-26{clip-path:url(#clip-path-7);}.cls-27{stroke:#cfffcf;stroke-miterlimit:10;stroke-width:1.1px;stroke-dasharray:5.52 5.52;}</style><clipPath id="clip-path" transform="translate(11 21.02)"><rect class="cls-1" width="375" height="812"/></clipPath><clipPath id="clip-path-2" transform="translate(11 21.02)"><rect class="cls-1" x="288.1" y="293.06" width="54" height="129"/></clipPath><clipPath id="clip-path-3" transform="translate(11 21.02)"><rect class="cls-1" x="77.29" y="288.97" width="54" height="129"/></clipPath><clipPath id="clip-path-4" transform="translate(11 21.02)"><rect class="cls-1" x="69.5" y="325.14" width="236" height="126"/></clipPath><clipPath id="clip-path-5" transform="translate(11 21.02)"><rect class="cls-1" x="278.77" y="126.73" width="68" height="32"/></clipPath><clipPath id="clip-path-6" transform="translate(11 21.02)"><rect class="cls-1" x="38" y="113.73" width="61" height="29"/></clipPath><clipPath id="clip-path-7" transform="translate(11 21.02)"><rect class="cls-1" x="298.49" y="-43.12" width="96.55" height="179.07" transform="translate(10.9 144.38) rotate(-23.88)"/></clipPath></defs><g class="cls-2"><rect class="cls-3" x="11" y="21.02" width="375" height="812"/><g class="cls-4"><path class="cls-5" d="M340.44,389.91c-.83-2.54-2-5-2.3-7.67s.16-5.53-.64-8.14c-.61-2-1.91-3.68-2.43-5.67a23,23,0,0,1-.36-4.91c-.18-5.51-2.23-10.84-2.32-16.35s1.67-11.19-.47-16.22c-1.06-2.5-3-4.62-3.65-7.26-.44-1.86-.16-3.85-.76-5.67-.71-2.2-2.59-3.84-3.46-6a14.37,14.37,0,0,1-.81-4.33c-.3-3.75-.61-7.48-.91-11.23a4.77,4.77,0,0,0-.67-2.47c-1.19-1.59-3.92-1-5.14.55s-1.41,3.66-1.71,5.61c-.8,5.07-2.7,9.88-4.21,14.79a66.48,66.48,0,0,0-3.17,17.6,12,12,0,0,1-.75,5c-.63,1.28-1.75,2.3-2.25,3.64-1.06,2.82.85,6.39-.92,8.83-1.46,2-4.68,2.09-6.09,4.13s-.25,5.42-1.94,7.38c-.56.65-1.37,1.06-1.91,1.74-1.75,2.25.63,5.56-.09,8.3a10.86,10.86,0,0,1-1.37,2.61,13.56,13.56,0,0,0,3.75,17.43L290,394.39c-2.27,2-2.33,5.66-1,8.37s3.84,4.64,6.23,6.52l10.37,8.11a23.19,23.19,0,0,0,6.19,3.86c3.37,1.22,7.11.83,10.67.3,6.12-.9,12.82-2.53,16.31-7.59a17.7,17.7,0,0,0,2.55-6.37A34,34,0,0,0,340.44,389.91Z" transform="translate(11 21.02)"/><path class="cls-6" d="M311.91,340.06a2.77,2.77,0,0,1,.64,3.18c-5.14,9.56-4.5,19.75,3.22,28.66,6.43,7,2.57,18.47,1.28,28.66,6.43-11.46,14.79-24.2,6.43-38.21-1.93-2.55,0-7,1.29-10.19,3.21-7.64-5.15-12.74-9-18.47-1.29-2.55,5.78-3.19,7.07-6.37,1.93-5.1-2.57-8.28-5.14-12.1s2.57-10.19,0-14c-1.05-2.07-2.27-1.16-3.18.51-.91,4.51-2.57,8.84-3.93,13.24-.51,1.65-1,3.33-1.38,5,.3,2,.57,4,.78,6.07C310,329.87,305.48,337.51,311.91,340.06Z" transform="translate(11 21.02)"/></g><g class="cls-7"><path class="cls-5" d="M129.64,385.82c-.83-2.54-2-5-2.3-7.67s.16-5.53-.65-8.14c-.6-2-1.9-3.68-2.42-5.67a22.3,22.3,0,0,1-.36-4.91c-.18-5.51-2.23-10.84-2.33-16.35s1.68-11.19-.46-16.22c-1.07-2.5-3-4.62-3.66-7.26-.43-1.86-.16-3.85-.75-5.67-.71-2.19-2.59-3.84-3.46-6a14.37,14.37,0,0,1-.81-4.33q-.45-5.61-.91-11.23a4.68,4.68,0,0,0-.68-2.47c-1.18-1.59-3.91-1-5.13.55s-1.41,3.66-1.71,5.62c-.8,5.06-2.7,9.87-4.22,14.78a66.46,66.46,0,0,0-3.16,17.6,11.85,11.85,0,0,1-.76,5c-.62,1.28-1.74,2.3-2.24,3.64-1.06,2.82.85,6.39-.93,8.83-1.46,2-4.68,2.09-6.08,4.13s-.25,5.42-1.94,7.39c-.56.65-1.38,1.05-1.91,1.73-1.75,2.25.62,5.56-.1,8.3a10.64,10.64,0,0,1-1.36,2.61,13.56,13.56,0,0,0,3.75,17.43l-5.89,2.81c-2.28,2-2.33,5.67-1,8.37s3.83,4.65,6.22,6.52l10.38,8.11a23.19,23.19,0,0,0,6.19,3.86c3.37,1.23,7.11.83,10.67.3,6.12-.9,12.81-2.53,16.31-7.58a18,18,0,0,0,2.55-6.38A34.13,34.13,0,0,0,129.64,385.82Z" transform="translate(11 21.02)"/><path class="cls-6" d="M101.11,336a2.79,2.79,0,0,1,.64,3.18c-5.14,9.56-4.5,19.75,3.21,28.67,6.43,7,2.58,18.47,1.29,28.66,6.43-11.47,14.79-24.21,6.43-38.22-1.93-2.55,0-7,1.28-10.19,3.22-7.64-5.14-12.74-9-18.47-1.28-2.55,5.79-3.18,7.08-6.37,1.92-5.09-2.58-8.28-5.15-12.1s2.57-10.19,0-14c-1-2.07-2.27-1.15-3.17.51-.91,4.51-2.58,8.84-3.93,13.24-.51,1.65-1,3.33-1.38,5,.3,2,.57,4.05.77,6.07C99.18,325.78,94.68,333.42,101.11,336Z" transform="translate(11 21.02)"/></g><path class="cls-8" d="M384,445.46V806.79C384,845,358.33,876,326.65,876H46.35C14.66,876-11,845-11,806.79V443.53S155.86,342.06,384,445.46Z" transform="translate(11 21.02)"/><path class="cls-9" d="M336.77,362.31c-4.06,9.85-8.68,29.55-6.81,66.94a5.75,5.75,0,0,0,5.75,5.46h12.78a5.74,5.74,0,0,0,5.74-5.46c1.87-37.39-2.74-57.09-6.81-66.94A5.76,5.76,0,0,0,336.77,362.31Z" transform="translate(11 21.02)"/><path class="cls-10" d="M349.36,410.31a.87.87,0,0,0-1.21.15L343,417.09V399.61l6.09-8.13a.83.83,0,0,0-.17-1.2.86.86,0,0,0-1.21.17L343,396.73V373.4a.88.88,0,0,0-1.75,0v23.33l-4.71-6.28a.86.86,0,0,0-1.21-.17.84.84,0,0,0-.18,1.2l6.1,8.13v49.61a.88.88,0,0,0,1.75,0V419.89l6.53-8.37A.88.88,0,0,0,349.36,410.31Z" transform="translate(11 21.02)"/><path class="cls-9" d="M32.68,345.25C28.61,355.1,24,374.8,25.87,412.2a5.73,5.73,0,0,0,5.74,5.45H44.39a5.73,5.73,0,0,0,5.74-5.45c1.88-37.4-2.74-57.1-6.8-66.95A5.77,5.77,0,0,0,32.68,345.25Z" transform="translate(11 21.02)"/><path class="cls-10" d="M45.25,393.26a.87.87,0,0,0-1.21.14L38.87,400V382.55l6.1-8.12a.87.87,0,0,0-1.39-1l-4.71,6.27V356.34a.87.87,0,0,0-1.74,0v23.33l-4.71-6.27a.87.87,0,1,0-1.39,1l6.1,8.12v49.62a.87.87,0,0,0,1.74,0V402.85l6.54-8.37A.87.87,0,0,0,45.25,393.26Z" transform="translate(11 21.02)"/><path class="cls-9" d="M289.61,348.63c-3.39,8.19-7.23,24.6-5.66,55.74a4.79,4.79,0,0,0,4.79,4.54h10.65a4.79,4.79,0,0,0,4.79-4.54c1.57-31.14-2.27-47.55-5.66-55.74A4.84,4.84,0,0,0,289.61,348.63Z" transform="translate(11 21.02)"/><path class="cls-10" d="M300.1,388.62a.73.73,0,0,0-1,.13l-4.3,5.52V379.72l5.08-6.76a.73.73,0,0,0-1.16-.87l-3.92,5.23V357.87a.73.73,0,0,0-1.46,0v19.44l-3.92-5.23a.71.71,0,0,0-1-.15.72.72,0,0,0-.15,1l5.08,6.75V421a.73.73,0,0,0,1.46,0V396.6l5.43-7A.71.71,0,0,0,300.1,388.62Z" transform="translate(11 21.02)"/><path class="cls-9" d="M66.55,342c-3.39,8.19-7.23,24.61-5.67,55.74a4.8,4.8,0,0,0,4.8,4.54H76.33a4.8,4.8,0,0,0,4.79-4.54c1.56-31.13-2.28-47.55-5.67-55.74A4.82,4.82,0,0,0,66.55,342Z" transform="translate(11 21.02)"/><path class="cls-10" d="M77,382a.73.73,0,0,0-1,.13l-4.31,5.52V373.1l5.09-6.76a.73.73,0,0,0-1.17-.87l-3.92,5.23V351.26a.73.73,0,1,0-1.45,0V370.7l-3.92-5.23a.73.73,0,1,0-1.16.87l5.08,6.76v41.32a.73.73,0,0,0,1.45,0V390l5.44-7A.73.73,0,0,0,77,382Z" transform="translate(11 21.02)"/><circle class="cls-11" cx="255.82" cy="117.76" r="9"/><circle class="cls-11" cx="264.82" cy="139.76" r="5"/><circle class="cls-11" cx="140.82" cy="134.76" r="5"/><rect class="cls-1" x="173.82" y="130.76" width="52" height="52"/><g class="cls-12"><rect class="cls-1" x="80.47" y="408.75" width="236.11" height="63.56"/><path class="cls-13" d="M249.18,366.51s-1.23-3.56,0-4.79,6.32-2,9.09-.78,2.66,5,1.34,6.46-5.77,2.89-7,3.12S249.18,366.51,249.18,366.51Z" transform="translate(11 21.02)"/><path d="M149.19,426.47,94.8,405.77V381.06l73.88,12.16Z" transform="translate(11 21.02)"/><path class="cls-14" d="M168.4,395.93a3.76,3.76,0,0,1,1-.14c4.84,0,8.77,9.65,8.77,21.54s-3.93,21.55-8.77,21.55l-14.19,1v-43.1Z" transform="translate(11 21.02)"/><path class="cls-15" d="M155.2,439.87c4.84,0,8.76-9.64,8.76-21.54s-3.92-21.55-8.76-21.55-8.77,9.65-8.77,21.55S150.36,439.87,155.2,439.87Z" transform="translate(11 21.02)"/><path class="cls-16" d="M154.36,433.1c2.85,0,5.16-6.61,5.16-14.77s-2.31-14.78-5.16-14.78-5.17,6.62-5.17,14.78S151.51,433.1,154.36,433.1Z" transform="translate(11 21.02)"/><path class="cls-17" d="M153.29,423.79c1.05,0,1.91-2.44,1.91-5.46s-.86-5.47-1.91-5.47-1.92,2.45-1.92,5.47S152.23,423.79,153.29,423.79Z" transform="translate(11 21.02)"/><path class="cls-14" d="M255.58,391a3.76,3.76,0,0,1,1-.14c4.84,0,8.77,9.65,8.77,21.54s-3.93,21.55-8.77,21.55l-14.19,1V391.81Z" transform="translate(11 21.02)"/><path class="cls-15" d="M242.38,434.9c4.84,0,8.76-9.64,8.76-21.54s-3.92-21.55-8.76-21.55-8.77,9.65-8.77,21.55S237.54,434.9,242.38,434.9Z" transform="translate(11 21.02)"/><path class="cls-16" d="M241.54,428.13c2.85,0,5.17-6.61,5.17-14.77s-2.32-14.78-5.17-14.78-5.17,6.61-5.17,14.78S238.68,428.13,241.54,428.13Z" transform="translate(11 21.02)"/><path class="cls-17" d="M240.47,418.82c1.05,0,1.91-2.45,1.91-5.46s-.86-5.47-1.91-5.47-1.92,2.45-1.92,5.47S239.41,418.82,240.47,418.82Z" transform="translate(11 21.02)"/><path class="cls-14" d="M112.55,384a2.4,2.4,0,0,1,.75-.12c3.65,0,6.63,8.07,6.63,18s-3,18-6.63,18l-10.73.83V384.73Z" transform="translate(11 21.02)"/><path class="cls-15" d="M102.57,420.79c3.66,0,6.63-8.07,6.63-18s-3-18-6.63-18-6.63,8.08-6.63,18S98.91,420.79,102.57,420.79Z" transform="translate(11 21.02)"/><path class="cls-16" d="M101.94,415.12c2.16,0,3.91-5.54,3.91-12.36s-1.75-12.37-3.91-12.37S98,395.93,98,402.76,99.78,415.12,101.94,415.12Z" transform="translate(11 21.02)"/><path class="cls-17" d="M101.12,407.33c.8,0,1.45-2.05,1.45-4.57s-.65-4.58-1.45-4.58-1.44,2.05-1.44,4.58S100.32,407.33,101.12,407.33Z" transform="translate(11 21.02)"/><path class="cls-14" d="M192.69,336.49l-7.26-11.35H151l-2.06,11.35Z" transform="translate(11 21.02)"/><path class="cls-18" d="M285.2,426s-3.1,3.34-13.31,4.34S202.46,436,189.14,436a92.11,92.11,0,0,1-25.07-3.78s-2.39-22.6-4.88-30.27-9.82-8.68-12.32-3.51-2.33,20.7,0,28.88c-15.31-6.17-39.1-13.35-39.1-13.35s-1.66-18.53-4.66-24.7-6.57-4.52-7.24-.59,0,19.53,0,19.53l-3.24-2.76s-.84-32.05-.84-35.56,14.48-11.18,14.48-11.18,11.64-14.53,18.3-18.53,14.47-4.85,33.11-5.34,38.44.33,47.26,0,21.79,9.51,30.95,16.86,16.91,15.86,19.69,17.19,21.85,12.86,24.4,16.44,4.44,9.82,5.22,20.84S286.08,423.18,285.2,426Z" transform="translate(11 21.02)"/><path class="cls-13" d="M142.72,338.82a26.5,26.5,0,0,0-13.64-.81c6-2.19,13.94-2.8,28.62-3.19,18.64-.51,38.43.33,47.25,0,3.65-.15,8,1.47,12.52,3.92-.52.64-2.18,1.08-4.7,1.08-4,0-44.67.75-54.07.75S147.05,340.83,142.72,338.82Z" transform="translate(11 21.02)"/><path class="cls-13" d="M159,377.77c-.89-2,.63-7.95.63-7.95l87.77-.87a15.37,15.37,0,0,0,6.32-1.39,11.32,11.32,0,0,0,1.89,1.31,206.3,206.3,0,0,1,21.17,13.5c-.27,2.34-2.51,5.22-12,5.08-15.87-.22-63.68,2.9-73.88,2.9s-12.42-.56-20-4.34S159.86,379.78,159,377.77Z" transform="translate(11 21.02)"/><path class="cls-17" d="M202,405.77s-7.73-13.2-9.9-13.61-22.62-1.41-26.46-4.09c3.74,10,5.49,10.93,13.4,13.19S202,405.77,202,405.77Z" transform="translate(11 21.02)"/><path class="cls-19" d="M190.41,394.83c-1.79-.35-16.23-1.1-23.26-2.87-.49-1.12-1-2.4-1.56-3.89,3.83,2.67,24.29,3.67,26.46,4.09s9.9,13.61,9.9,13.61l-3.6-.58C195.9,401.26,191.88,395.12,190.41,394.83Z" transform="translate(11 21.02)"/><path class="cls-20" d="M165.6,388.07c1.41,1,5.09,1.74,9.28,2.33l1.53,10.09C170.64,398.66,168.89,396.89,165.6,388.07Z" transform="translate(11 21.02)"/><path class="cls-17" d="M279.77,385.76a17.55,17.55,0,0,1,1.47,2.54c-.32,11.25-13.56,13.63-13.56,13.63,1-8.57.56-10.24,5.88-13.41,3.14-1.87,3.92-3.69,4-4.85A13,13,0,0,1,279.77,385.76Z" transform="translate(11 21.02)"/><path class="cls-19" d="M280.52,387.92a12.9,12.9,0,0,0-2.17-2.11c-.12,1.18-.9,3-4,4.85-4.79,2.86-4.92,4.49-5.61,11-.64.17-1,.24-1,.24,1-8.57.56-10.24,5.88-13.41,3.14-1.87,3.92-3.69,4-4.85a12.18,12.18,0,0,1,2.17,2.1,18,18,0,0,1,1.47,2.53c0,.23,0,.44-.05.65A12.24,12.24,0,0,0,280.52,387.92Z" transform="translate(11 21.02)"/><path class="cls-20" d="M277.6,383.67a12.05,12.05,0,0,1,2.16,2.1,17,17,0,0,1,1.47,2.53,12.24,12.24,0,0,1-2.1,6.65,26,26,0,0,0-2.83-8.61A4.9,4.9,0,0,0,277.6,383.67Z" transform="translate(11 21.02)"/><path class="cls-14" d="M259.5,393.22l-50.16,2.16a2.19,2.19,0,0,0-1.5,3.7L214.3,406a2.16,2.16,0,0,0,1.7.69l41.3-1.89a2.19,2.19,0,0,0,2-1.5l2.39-7.16A2.2,2.2,0,0,0,259.5,393.22Z" transform="translate(11 21.02)"/><path class="cls-14" d="M265.24,417.84l-53.86,2.72a3.4,3.4,0,0,0-3,4.58l.85,2.31a3.36,3.36,0,0,0,3.37,2.21l52.64-3a3.36,3.36,0,0,0,3.13-2.78l.37-2A3.39,3.39,0,0,0,265.24,417.84Z" transform="translate(11 21.02)"/><path class="cls-14" d="M199.62,427.3s-8.32-12.85-24.12-10.51C177.16,426,178.79,425.39,199.62,427.3Z" transform="translate(11 21.02)"/><path class="cls-14" d="M273.5,423.71s.67-9.6,10.32-12.43C283.48,419.79,282.82,421.62,273.5,423.71Z" transform="translate(11 21.02)"/><path class="cls-14" d="M144.13,347c4.08,7.27,3.08,25.77,3.08,25.77l-18.8-5.26c1.21-11.39,6.34-22,8.25-25.67A11.91,11.91,0,0,1,144.13,347Z" transform="translate(11 21.02)"/><path class="cls-14" d="M109.06,362.08s6.43-13.46,16-18.47a17,17,0,0,1,9.5-2.12c-4.79,7.1-8.37,18.74-10,24.91Z" transform="translate(11 21.02)"/><path class="cls-14" d="M217.42,342,151,343.05s.89,19.19,8.32,28.13c23.18,0,82.41-1.64,86.74-1.75s5.44-1.45,3-3.45-21.63-18.7-24.62-21.14S219.2,342,217.42,342Z" transform="translate(11 21.02)"/><path class="cls-21" d="M99.4,362.74c11.31,3.64,47.23,15.2,56.91,18.93,11.54,4.45,11.54,26.49,13.31,39.12a21.8,21.8,0,0,0,9.06,14.49,91.67,91.67,0,0,1-14.61-3.08s-2.39-22.6-4.88-30.27-9.82-8.68-12.32-3.51-2.33,20.7,0,28.88c-15.31-6.17-39.1-13.35-39.1-13.35s-1.66-18.53-4.66-24.7-6.57-4.52-7.24-.59,0,19.53,0,19.53l-3.24-2.76s-.84-32.05-.84-35.56C91.81,368.07,95.66,365.15,99.4,362.74Z" transform="translate(11 21.02)"/><path class="cls-13" d="M282,391.81a13,13,0,0,1-1.38,3.51c-.14.28-.32.54-.48.81a5.57,5.57,0,0,1-.52.78l-.55.75-.62.7a17.76,17.76,0,0,1-5.92,4.33c-4.46,2.13-9.51,2.43-14.53,2.92s-10.05.74-15.09,1-10.09.51-15.13.67-10.1.34-15.14.41c-2.52,0-5,.07-7.53,0-1.24,0-2.45-.11-3.72-.22s-2.51-.22-3.76-.35a118.25,118.25,0,0,1-14.86-2.41,50,50,0,0,1-7.17-2.24,19.57,19.57,0,0,1-6.42-3.88l1.33,1.39,1.48,1.21,1.62,1c.54.34,1.12.61,1.69.92A48,48,0,0,0,182.4,406c2.45.74,4.93,1.37,7.42,1.9s5,.94,7.53,1.31,5,.71,7.64.84,5.1.16,7.64.18c5.08,0,10.15-.11,15.22-.27,10.13-.41,20.26-1,30.35-2.26,2.53-.35,5-.65,7.57-1.2l1.9-.44c.62-.17,1.24-.41,1.85-.61.31-.1.62-.19.93-.31l.89-.41a13,13,0,0,0,1.76-.85,18.35,18.35,0,0,0,5.9-5A14.74,14.74,0,0,0,282,391.81Z" transform="translate(11 21.02)"/><path class="cls-13" d="M99.61,362.61l54.75,18.33L96.31,364.85C97.36,364.08,98.49,363.32,99.61,362.61Z" transform="translate(11 21.02)"/><path class="cls-13" d="M145.33,417.83,106.9,406.3l38.69,14.16Z" transform="translate(11 21.02)"/><path class="cls-13" d="M150.07,372.71s-3.5-.41-4-1.63.44-7.35-5.28-7.24-11-.06-12.09,2.28,1.67,7.46,6,8.07,10.2-.66,10.86.39.89,2.61,2.33,2.61,2.39-.39,2.78-1.61S150.36,372.76,150.07,372.71Z" transform="translate(11 21.02)"/><path class="cls-22" d="M201.47,342.25l15.95-.25c1.78,0,4,.39,7,2.84S246.59,364,249,366c2.28,1.87,1.46,3.16-2.18,3.41-12.82-3.27-38.73-9.9-38.69-10A110.71,110.71,0,0,0,201.47,342.25Z" transform="translate(11 21.02)"/><path class="cls-22" d="M203.78,358.75c-10.09-1.45-20-3.56-20-3.56s4.13-9.58,11.51-12.84l3.45-.06A57.25,57.25,0,0,1,203.78,358.75Z" transform="translate(11 21.02)"/></g><g class="cls-23"><path class="cls-24" d="M331,158.73a20.81,20.81,0,0,0,3.1-11,21.13,21.13,0,1,0-39.16,11Z" transform="translate(11 21.02)"/><path class="cls-24" d="M304,158.73a12.5,12.5,0,0,0,.52-3.58,12.87,12.87,0,0,0-25.74,0,13.31,13.31,0,0,0,.51,3.59Z" transform="translate(11 21.02)"/><path class="cls-24" d="M346.14,158.73a10.65,10.65,0,0,0,.63-3.58,10.83,10.83,0,0,0-21.66,0,10.92,10.92,0,0,0,.63,3.59Z" transform="translate(11 21.02)"/></g><g class="cls-25"><path class="cls-24" d="M84.84,142.73a19,19,0,1,0-32.35,0Z" transform="translate(11 21.02)"/><path class="cls-24" d="M60.63,142.73a11.55,11.55,0,1,0-22.16,0Z" transform="translate(11 21.02)"/><path class="cls-24" d="M98.43,142.73a9.71,9.71,0,1,0-18.85-3.25,10,10,0,0,0,.56,3.25Z" transform="translate(11 21.02)"/></g><g class="cls-26"><path class="cls-27" d="M277.46-20.54A66.42,66.42,0,0,1,300.23,1c3.31,5.12,6,10.93,5.93,17s-3.29,12.46-9,14.74c-3.37,1.36-7.87.82-9.79-2.27-1.8-2.9-.6-6.94,1.89-9.28s5.93-3.36,9.27-4.1A85.44,85.44,0,0,1,367,31.82C373.1,36.35,379,42.56,379.1,50.15a20.92,20.92,0,0,1-3.49,11.08c-9.44,15.4-50.34,11.21-53,29-1.84,12.44,13.46,20.4,23.32,22.1,26.67,4.61,54.19.14,81-3.93" transform="translate(11 21.02)"/></g></g></svg>