<svg width="26" height="27" viewBox="0 0 26 27" fill="none" xmlns="http://www.w3.org/2000/svg">
<path fill-rule="evenodd" clip-rule="evenodd" d="M4.37877 0.693883C4.2082 0.711034 4.04659 0.77888 3.9151 0.888841C3.78379 0.998992 3.68851 1.14592 3.64181 1.31096L0.515048 12.4666C0.496372 12.5329 0.4857 12.6013 0.483413 12.6701C0.29913 13.1978 0.193359 13.7616 0.193359 14.351V21.1832C0.194122 21.4096 0.285025 21.6262 0.445681 21.7858C0.606527 21.9453 0.823971 22.0345 1.0504 22.0335H1.90417V23.7428C1.90417 25.1469 3.06135 26.3041 4.46549 26.3041C5.86963 26.3041 7.02681 25.1469 7.02681 23.7428V22.0335H18.9816V23.7428C18.9816 25.1469 20.1353 26.3073 21.5395 26.3073C22.9438 26.3073 24.1058 25.1469 24.1058 23.7428V22.0335H24.9564C25.1816 22.0328 25.3973 21.9428 25.5567 21.7835C25.716 21.6242 25.806 21.4084 25.8067 21.1832V14.351C25.8067 13.7677 25.7036 13.2098 25.5233 12.6867C25.5224 12.6124 25.5117 12.5385 25.4917 12.4666L22.3666 1.31098C22.315 1.13202 22.2062 0.974804 22.057 0.863506C21.9075 0.752017 21.7259 0.692561 21.5396 0.693892H4.46751C4.43797 0.692368 4.40843 0.692368 4.37908 0.693892L4.37877 0.693883ZM5.11589 2.39475H20.8907L22.9619 9.76696C22.2762 9.42469 21.5061 9.22669 20.6891 9.22669H13.1402C13.0901 9.21831 13.0394 9.2145 12.9885 9.21507C12.9472 9.21602 12.906 9.21983 12.8652 9.22669H5.31788C4.50128 9.22669 3.73133 9.42489 3.04509 9.76696L5.11589 2.39475ZM14.6957 3.2453C14.4739 3.25197 14.2635 3.34459 14.1088 3.50372L10.6937 6.91384C10.5279 7.0724 10.4326 7.29099 10.4297 7.52026C10.4267 7.74971 10.5162 7.97078 10.678 8.13332C10.8398 8.29607 11.0603 8.38679 11.2898 8.38507C11.5192 8.38336 11.7382 8.28941 11.8977 8.12437L15.3128 4.70776C15.4756 4.54672 15.5668 4.32718 15.5661 4.09831C15.5655 3.86943 15.4729 3.65027 15.3094 3.49018C15.1457 3.3301 14.9246 3.24262 14.6957 3.247L14.6957 3.2453ZM8.71442 4.09737C8.49317 4.10442 8.28335 4.19704 8.12917 4.35579L6.41992 6.06333C6.20362 6.27964 6.11919 6.59487 6.19828 6.89023C6.27756 7.18562 6.50835 7.4164 6.80373 7.49567C7.09912 7.57476 7.41435 7.49034 7.63062 7.27403L9.33817 5.56478C9.50473 5.40393 9.59868 5.1821 9.59868 4.95036C9.59868 4.71881 9.50435 4.49698 9.33759 4.33613C9.17084 4.17528 8.94595 4.08917 8.71442 4.09737ZM18.9631 4.09737C18.7413 4.10404 18.5307 4.19666 18.3762 4.35579L16.6686 6.06333C16.508 6.22399 16.4178 6.44163 16.4178 6.66878C16.4178 6.89575 16.508 7.11358 16.6686 7.27403C16.8291 7.4345 17.0467 7.52483 17.2739 7.52483C17.5008 7.52483 17.7187 7.4345 17.8791 7.27403L19.5867 5.56478C19.7532 5.40393 19.8474 5.1821 19.8472 4.95036C19.8472 4.71881 19.753 4.49698 19.5863 4.33613C19.4195 4.17528 19.1945 4.08917 18.9631 4.09737ZM5.31738 10.9359H8.03214L9.39949 17.768H1.90092V14.3512C1.90092 13.8751 1.99678 13.4231 2.16773 13.0137C2.17077 13.0097 2.16944 13.013 2.17268 13.0088C2.20679 12.9636 2.23652 12.915 2.26111 12.8638C2.64702 12.0695 3.32125 11.4548 4.152 11.1495C4.2692 11.1076 4.38755 11.0687 4.51047 11.0394C4.57412 11.0239 4.6372 11.0079 4.70238 10.9961C4.90248 10.9605 5.1062 10.9361 5.31753 10.9361L5.31738 10.9359ZM9.77301 10.9359H12.1493V17.768H11.1404L9.77301 10.9359ZM13.8568 10.9359H16.2331L14.8657 17.768H13.8568V10.9359ZM17.974 10.9359H20.6888C20.8995 10.9359 21.1044 10.9604 21.3039 10.9959C21.3714 11.0081 21.4368 11.0247 21.5025 11.0409C21.6207 11.0693 21.7348 11.1058 21.8476 11.1459C22.6816 11.4504 23.3581 12.0669 23.7452 12.8635C23.7698 12.9148 23.7995 12.9634 23.8336 13.0085C23.8369 13.0127 23.8355 13.0112 23.8386 13.0152C24.0095 13.4246 24.1054 13.8749 24.1054 14.351V17.7678H16.6068L17.974 10.9359ZM5.31719 11.7928C3.91285 11.7928 2.75928 12.9464 2.75928 14.3509C2.75928 15.7555 3.91285 16.9089 5.31719 16.9089C6.72172 16.9089 7.88192 15.7555 7.88192 14.3509C7.88192 12.9464 6.72172 11.7928 5.31719 11.7928ZM20.6885 11.7928C19.284 11.7928 18.1238 12.9464 18.1238 14.3509C18.1238 15.7555 19.284 16.9089 20.6885 16.9089C22.0929 16.9089 23.2481 15.7555 23.2481 14.3509C23.2481 12.9464 22.0929 11.7928 20.6885 11.7928ZM5.31719 13.5004C5.79896 13.5004 6.17437 13.8693 6.17437 14.3509C6.17437 14.8325 5.79894 15.2013 5.31719 15.2013C4.8356 15.2013 4.46683 14.8325 4.46683 14.3509C4.46683 13.8694 4.83559 13.5004 5.31719 13.5004ZM20.6885 13.5004C21.1701 13.5004 21.5389 13.8693 21.5389 14.3509C21.5389 14.8325 21.1701 15.2013 20.6885 15.2013C20.2068 15.2013 19.8313 14.8325 19.8313 14.3509C19.8313 13.8694 20.2068 13.5004 20.6885 13.5004ZM1.90063 19.4753H24.1051V20.3257H1.90063V19.4753ZM20.6885 22.0333H22.3976V23.7425C22.3976 24.2302 22.0267 24.5995 21.5388 24.5995C21.0512 24.5995 20.6885 24.2302 20.6885 23.7425L20.6885 22.0333ZM3.6111 22.035H5.31865V23.7425C5.31865 24.2302 4.95256 24.5963 4.46487 24.5963C3.97719 24.5963 3.6111 24.2302 3.6111 23.7425V22.035Z" fill="black"/>
</svg>
