<svg id="Layer_1" data-name="Layer 1" xmlns="http://www.w3.org/2000/svg" xmlns:xlink="http://www.w3.org/1999/xlink" viewBox="0 0 438.01 897"><defs><style>.cls-1,.cls-29{fill:none;}.cls-2{clip-path:url(#clip-path);}.cls-3{fill:#90ee90;}.cls-4{clip-path:url(#clip-path-2);}.cls-5{fill:#65ce95;}.cls-6{fill:#5dc187;}.cls-7{clip-path:url(#clip-path-3);}.cls-8{fill:#b4fab4;}.cls-9{fill:#085f63;}.cls-10{fill:#49beb7;}.cls-11{fill:#fff;}.cls-12{fill:#a2f8a2;}.cls-13{fill:#baeeba;}.cls-14{clip-path:url(#clip-path-4);}.cls-15{fill:#ffe41f;}.cls-16{fill:#232323;}.cls-17{fill:#333;}.cls-18{fill:#ccc;}.cls-19{fill:#efefef;}.cls-20{fill:#f4c500;}.cls-21{fill:#dbdbdb;}.cls-22{fill:#ea952f;}.cls-23{fill:#f2b800;}.cls-24{fill:#353535;}.cls-25{clip-path:url(#clip-path-5);}.cls-26{fill:#acfcac;}.cls-27{clip-path:url(#clip-path-6);}.cls-28{clip-path:url(#clip-path-7);}.cls-29{stroke:#cfffcf;stroke-miterlimit:10;stroke-width:1.1px;stroke-dasharray:5.52 5.52;}.cls-30{clip-path:url(#clip-path-8);}</style><clipPath id="clip-path" transform="translate(10.73 22.02)"><rect class="cls-1" x="0.27" y="-1" width="375" height="812"/></clipPath><clipPath id="clip-path-2" transform="translate(10.73 22.02)"><rect class="cls-1" x="288.37" y="292.06" width="54" height="129"/></clipPath><clipPath id="clip-path-3" transform="translate(10.73 22.02)"><rect class="cls-1" x="77.56" y="287.97" width="54" height="129"/></clipPath><clipPath id="clip-path-4" transform="translate(10.73 22.02)"><rect class="cls-1" x="69.77" y="324.14" width="236" height="126"/></clipPath><clipPath id="clip-path-5" transform="translate(10.73 22.02)"><rect class="cls-1" x="279.04" y="125.73" width="68" height="32"/></clipPath><clipPath id="clip-path-6" transform="translate(10.73 22.02)"><rect class="cls-1" x="38.27" y="112.73" width="61" height="29"/></clipPath><clipPath id="clip-path-7" transform="translate(10.73 22.02)"><rect class="cls-1" x="298.77" y="-44.09" width="96.55" height="179.07" transform="translate(11.31 144.38) rotate(-23.88)"/></clipPath><clipPath id="clip-path-8" transform="translate(10.73 22.02)"><rect class="cls-1" x="165.96" y="114.77" width="43.89" height="42.3"/></clipPath></defs><g class="cls-2"><rect class="cls-3" x="11" y="21.02" width="375" height="812"/><g class="cls-4"><path class="cls-5" d="M340.71,388.91c-.83-2.54-2-5-2.3-7.67s.16-5.53-.64-8.14c-.61-2-1.91-3.68-2.43-5.67a22.43,22.43,0,0,1-.36-4.91c-.18-5.51-2.23-10.84-2.32-16.35s1.67-11.19-.47-16.22c-1.06-2.5-3-4.62-3.65-7.26-.44-1.86-.16-3.85-.76-5.67-.71-2.2-2.59-3.84-3.46-6a14.49,14.49,0,0,1-.81-4.33c-.3-3.75-.61-7.48-.91-11.23a4.87,4.87,0,0,0-.67-2.47c-1.19-1.59-3.92-1-5.14.55s-1.41,3.66-1.71,5.61c-.8,5.07-2.7,9.88-4.21,14.79a66.74,66.74,0,0,0-3.17,17.6,12,12,0,0,1-.75,5c-.63,1.28-1.75,2.3-2.25,3.64-1.06,2.82.85,6.39-.92,8.83-1.46,2-4.68,2.09-6.09,4.13s-.25,5.42-1.94,7.38c-.56.65-1.37,1.06-1.91,1.74-1.75,2.25.63,5.56-.09,8.3a11,11,0,0,1-1.37,2.61,13.56,13.56,0,0,0,3.75,17.43l-5.86,2.79c-2.27,2-2.33,5.66-1,8.37s3.84,4.64,6.23,6.52l10.37,8.11a22.82,22.82,0,0,0,6.19,3.86c3.37,1.22,7.11.83,10.67.3,6.12-.9,12.82-2.53,16.31-7.59a17.92,17.92,0,0,0,2.55-6.37A34,34,0,0,0,340.71,388.91Z" transform="translate(10.73 22.02)"/><path class="cls-6" d="M312.18,339.06a2.79,2.79,0,0,1,.64,3.18c-5.14,9.56-4.5,19.75,3.22,28.66,6.43,7,2.57,18.47,1.28,28.66,6.43-11.46,14.79-24.2,6.43-38.21-1.93-2.55,0-7,1.29-10.19,3.21-7.64-5.15-12.74-9-18.47-1.29-2.55,5.78-3.19,7.07-6.37,1.93-5.1-2.57-8.28-5.14-12.1s2.57-10.19,0-14c-1.05-2.07-2.27-1.16-3.18.51-.91,4.51-2.57,8.84-3.93,13.24-.51,1.65-1,3.33-1.38,5,.3,2,.57,4,.78,6.07C310.27,328.87,305.75,336.51,312.18,339.06Z" transform="translate(10.73 22.02)"/></g><g class="cls-7"><path class="cls-5" d="M129.91,384.82c-.83-2.54-2-5-2.3-7.67s.16-5.53-.65-8.14c-.6-2-1.9-3.68-2.42-5.67a22.43,22.43,0,0,1-.36-4.91c-.18-5.51-2.23-10.84-2.33-16.35s1.68-11.19-.46-16.22c-1.07-2.5-3-4.62-3.66-7.26-.43-1.86-.16-3.85-.75-5.67-.71-2.19-2.59-3.84-3.46-6a14.49,14.49,0,0,1-.81-4.33q-.45-5.61-.91-11.23a4.67,4.67,0,0,0-.68-2.47c-1.18-1.59-3.91-1-5.13.55s-1.41,3.66-1.71,5.62c-.8,5.06-2.7,9.87-4.22,14.78a66.72,66.72,0,0,0-3.16,17.6,11.84,11.84,0,0,1-.76,5c-.62,1.28-1.74,2.3-2.24,3.64-1.06,2.82.85,6.39-.93,8.83-1.46,2-4.68,2.09-6.08,4.13s-.25,5.42-1.94,7.39c-.56.65-1.38,1.05-1.91,1.73-1.75,2.25.62,5.56-.1,8.3a10.63,10.63,0,0,1-1.36,2.61,13.56,13.56,0,0,0,3.75,17.43l-5.89,2.81c-2.28,2-2.33,5.67-1,8.37s3.83,4.65,6.22,6.52L95,412.32a23.19,23.19,0,0,0,6.23,3.86c3.37,1.23,7.11.83,10.67.3,6.12-.9,12.81-2.53,16.31-7.58a18,18,0,0,0,2.55-6.38A34.1,34.1,0,0,0,129.91,384.82Z" transform="translate(10.73 22.02)"/><path class="cls-6" d="M101.38,335a2.79,2.79,0,0,1,.64,3.18c-5.14,9.56-4.5,19.75,3.21,28.67,6.43,7,2.58,18.47,1.29,28.66C113,384,121.31,371.28,113,357.27c-1.93-2.55,0-7,1.28-10.19,3.22-7.64-5.14-12.74-9-18.47-1.28-2.55,5.79-3.18,7.08-6.37,1.92-5.09-2.58-8.28-5.15-12.1s2.57-10.19,0-14c-1-2.07-2.27-1.15-3.17.51-.91,4.51-2.58,8.84-3.93,13.24-.51,1.65-1,3.33-1.38,5,.3,2,.57,4.05.77,6.07C99.45,324.78,95,332.42,101.38,335Z" transform="translate(10.73 22.02)"/></g><path class="cls-8" d="M384.27,444.46V805.79C384.27,844,358.6,875,326.92,875H46.62c-31.69,0-57.35-31-57.35-69.19V442.53S156.13,341.06,384.27,444.46Z" transform="translate(10.73 22.02)"/><path class="cls-9" d="M337,361.31c-4.06,9.85-8.68,29.55-6.81,66.94a5.75,5.75,0,0,0,5.75,5.46h12.78a5.75,5.75,0,0,0,5.74-5.46c1.87-37.39-2.74-57.09-6.81-66.94a5.76,5.76,0,0,0-10.65,0Z" transform="translate(10.73 22.02)"/><path class="cls-10" d="M349.63,409.31a.87.87,0,0,0-1.21.15l-5.15,6.63V398.61l6.09-8.13a.83.83,0,0,0-.13-1.17h0a.88.88,0,0,0-1.21.16h0l-4.75,6.26V372.4a.88.88,0,0,0-1-.78h0a.87.87,0,0,0-.78.78v23.33l-4.71-6.28a.85.85,0,0,0-1.19-.18h0a.84.84,0,0,0-.2,1.17h0l6.1,8.13v49.61a.88.88,0,0,0,1,.79h0a.87.87,0,0,0,.78-.78v-29.3l6.53-8.37A.88.88,0,0,0,349.63,409.31Z" transform="translate(10.73 22.02)"/><path class="cls-9" d="M33,344.25c-4.07,9.85-8.68,29.55-6.81,67a5.73,5.73,0,0,0,5.74,5.45H44.66a5.73,5.73,0,0,0,5.74-5.45c1.88-37.4-2.74-57.1-6.8-67a5.77,5.77,0,0,0-10.65,0Z" transform="translate(10.73 22.02)"/><path class="cls-10" d="M45.52,392.26a.87.87,0,0,0-1.21.14L39.14,399V381.55l6.1-8.12a.87.87,0,0,0-1.39-1l-4.71,6.27V355.34a.87.87,0,1,0-1.74,0h0v23.33l-4.71-6.27a.87.87,0,0,0-1.58.74h0a.72.72,0,0,0,.18.25l6.1,8.12v49.62a.87.87,0,1,0,1.74,0V401.85l6.54-8.37a.87.87,0,0,0-.16-1.22Z" transform="translate(10.73 22.02)"/><path class="cls-9" d="M289.88,347.63c-3.39,8.19-7.23,24.6-5.66,55.74a4.79,4.79,0,0,0,4.79,4.54h10.65a4.79,4.79,0,0,0,4.79-4.54c1.57-31.14-2.27-47.55-5.66-55.74a4.84,4.84,0,0,0-8.91,0Z" transform="translate(10.73 22.02)"/><path class="cls-10" d="M300.37,387.62a.74.74,0,0,0-1,.13l-4.3,5.52V378.72l5.08-6.76a.74.74,0,0,0-.27-1,.73.73,0,0,0-.89.13l-3.92,5.23V356.87a.73.73,0,1,0-1.46,0h0v19.44l-3.92-5.23a.72.72,0,0,0-1-.17h0a.72.72,0,0,0-.15,1l5.08,6.75V420a.73.73,0,0,0,1.46,0h0v-24.4l5.43-7A.71.71,0,0,0,300.37,387.62Z" transform="translate(10.73 22.02)"/><path class="cls-9" d="M66.82,341c-3.39,8.19-7.23,24.61-5.67,55.74a4.8,4.8,0,0,0,4.8,4.54H76.6a4.8,4.8,0,0,0,4.79-4.54C83,365.59,79.11,349.17,75.72,341a4.82,4.82,0,0,0-8.9,0Z" transform="translate(10.73 22.02)"/><path class="cls-10" d="M77.27,381a.74.74,0,0,0-1,.13L72,386.63V372.1l5.09-6.76a.73.73,0,0,0-.21-1,.72.72,0,0,0-1,.14L72,369.7V350.26a.73.73,0,0,0-1.45-.17.49.49,0,0,0,0,.17V369.7l-3.92-5.23a.74.74,0,0,0-1-.19.72.72,0,0,0-.24.92.71.71,0,0,0,.1.14l5.08,6.76v41.32a.73.73,0,0,0,1.45,0V389l5.44-7A.75.75,0,0,0,77.27,381Z" transform="translate(10.73 22.02)"/><circle class="cls-11" cx="198.82" cy="156.76" r="52"/><circle class="cls-12" cx="255.82" cy="117.76" r="9"/><circle class="cls-13" cx="154.82" cy="188.76" r="9"/><circle class="cls-12" cx="264.82" cy="139.76" r="5"/><circle class="cls-12" cx="140.82" cy="134.76" r="5"/><circle class="cls-11" cx="168.82" cy="208.76" r="5"/><rect class="cls-1" x="173.82" y="130.76" width="52" height="52"/><g class="cls-14"><rect class="cls-1" x="80.47" y="408.75" width="236.11" height="63.56"/><path class="cls-15" d="M249.45,365.51s-1.23-3.56,0-4.79,6.32-2,9.09-.78,2.66,5,1.34,6.46-5.77,2.89-7,3.12S249.45,365.51,249.45,365.51Z" transform="translate(10.73 22.02)"/><path d="M149.46,425.47l-54.39-20.7V380.06L169,392.22Z" transform="translate(10.73 22.02)"/><path class="cls-16" d="M168.67,395a3.72,3.72,0,0,1,1-.14c4.84,0,8.77,9.65,8.77,21.54s-3.93,21.55-8.77,21.55l-14.19,1V395.78Z" transform="translate(10.73 22.02)"/><path class="cls-17" d="M155.47,438.87c4.84,0,8.76-9.64,8.76-21.54s-4-21.55-8.76-21.55-8.77,9.65-8.77,21.55S150.63,438.87,155.47,438.87Z" transform="translate(10.73 22.02)"/><path class="cls-18" d="M154.63,432.1c2.85,0,5.16-6.61,5.16-14.77s-2.31-14.78-5.16-14.78-5.17,6.62-5.17,14.78S151.78,432.1,154.63,432.1Z" transform="translate(10.73 22.02)"/><path class="cls-19" d="M153.56,422.79c1.05,0,1.91-2.44,1.91-5.46s-.86-5.47-1.91-5.47-1.92,2.45-1.92,5.47S152.5,422.79,153.56,422.79Z" transform="translate(10.73 22.02)"/><path class="cls-16" d="M255.85,390a3.72,3.72,0,0,1,1-.14c4.84,0,8.77,9.65,8.77,21.54s-3.93,21.6-8.77,21.6l-14.19,1V390.81Z" transform="translate(10.73 22.02)"/><path class="cls-17" d="M242.65,433.9c4.84,0,8.76-9.64,8.76-21.54s-3.92-21.55-8.76-21.55-8.77,9.65-8.77,21.55S237.81,433.9,242.65,433.9Z" transform="translate(10.73 22.02)"/><path class="cls-18" d="M241.81,427.13c2.85,0,5.17-6.61,5.17-14.77s-2.32-14.78-5.17-14.78-5.17,6.61-5.17,14.78S239,427.13,241.81,427.13Z" transform="translate(10.73 22.02)"/><path class="cls-19" d="M240.74,417.82c1,0,1.91-2.45,1.91-5.46s-.86-5.47-1.91-5.47-1.92,2.45-1.92,5.47S239.68,417.82,240.74,417.82Z" transform="translate(10.73 22.02)"/><path class="cls-16" d="M112.82,383a2.36,2.36,0,0,1,.75-.12c3.65,0,6.63,8.07,6.63,18s-3,18-6.63,18l-10.73.83v-36Z" transform="translate(10.73 22.02)"/><path class="cls-17" d="M102.84,419.79c3.66,0,6.63-8.07,6.63-18s-3-18-6.63-18-6.63,8.08-6.63,18S99.18,419.79,102.84,419.79Z" transform="translate(10.73 22.02)"/><path class="cls-18" d="M102.21,414.12c2.16,0,3.91-5.54,3.91-12.36s-1.75-12.37-3.91-12.37-3.94,5.59-3.94,12.37S100.05,414.12,102.21,414.12Z" transform="translate(10.73 22.02)"/><path class="cls-19" d="M101.39,406.33c.8,0,1.45-2.05,1.45-4.57s-.65-4.58-1.45-4.58-1.44,2.05-1.44,4.58S100.59,406.33,101.39,406.33Z" transform="translate(10.73 22.02)"/><path class="cls-16" d="M193,335.49l-7.26-11.35H151.27l-2.06,11.35Z" transform="translate(10.73 22.02)"/><path class="cls-20" d="M285.47,425s-3.1,3.34-13.31,4.34S202.73,435,189.41,435a92.15,92.15,0,0,1-25.07-3.78s-2.39-22.6-4.88-30.27-9.82-8.68-12.32-3.51-2.33,20.7,0,28.88C131.83,420.13,108,413,108,413s-1.66-18.53-4.66-24.7-6.57-4.52-7.24-.59,0,19.53,0,19.53l-3.24-2.76s-.84-32.05-.84-35.56,14.48-11.18,14.48-11.18,11.64-14.53,18.3-18.53,14.47-4.85,33.11-5.34,38.44.33,47.26,0,21.79,9.51,30.95,16.86,16.91,15.86,19.69,17.19,21.85,12.86,24.4,16.44,4.44,9.82,5.22,20.84S286.35,422.18,285.47,425Z" transform="translate(10.73 22.02)"/><path class="cls-15" d="M143,337.82a26.44,26.44,0,0,0-13.64-.81c6-2.19,13.94-2.8,28.62-3.19,18.64-.51,38.43.33,47.25,0,3.65-.15,8,1.47,12.52,3.92-.52.64-2.18,1.08-4.7,1.08-4,0-44.67.75-54.07.75S147.32,339.83,143,337.82Z" transform="translate(10.73 22.02)"/><path class="cls-15" d="M159.27,376.77c-.89-2,.63-8,.63-8l87.77-.79a15.35,15.35,0,0,0,6.32-1.39,10.79,10.79,0,0,0,1.89,1.31,208.86,208.86,0,0,1,21.17,13.5c-.27,2.34-2.51,5.22-12,5.08-15.87-.22-63.68,2.9-73.88,2.9s-12.42-.56-20-4.34S160.13,378.78,159.27,376.77Z" transform="translate(10.73 22.02)"/><path class="cls-19" d="M202.27,404.77s-7.73-13.2-9.9-13.61-22.62-1.41-26.46-4.09c3.74,10,5.49,10.93,13.4,13.19S202.27,404.77,202.27,404.77Z" transform="translate(10.73 22.02)"/><path class="cls-21" d="M190.68,393.83c-1.79-.35-16.23-1.1-23.26-2.87-.49-1.12-1-2.4-1.56-3.89,3.83,2.67,24.29,3.67,26.46,4.09s9.9,13.61,9.9,13.61l-3.6-.58C196.17,400.26,192.15,394.12,190.68,393.83Z" transform="translate(10.73 22.02)"/><path class="cls-22" d="M165.87,387.07c1.41,1,5.09,1.74,9.28,2.33l1.53,10.09C170.91,397.66,169.16,395.89,165.87,387.07Z" transform="translate(10.73 22.02)"/><path class="cls-19" d="M280,384.76a17.3,17.3,0,0,1,1.47,2.54c-.32,11.25-13.56,13.63-13.56,13.63,1-8.57.56-10.24,5.88-13.41,3.14-1.87,3.92-3.69,4-4.85A13.25,13.25,0,0,1,280,384.76Z" transform="translate(10.73 22.02)"/><path class="cls-21" d="M280.79,386.92a13.54,13.54,0,0,0-2.17-2.11c-.12,1.18-.9,3-4,4.85-4.79,2.86-4.92,4.49-5.61,11-.64.17-1,.24-1,.24,1-8.57.56-10.24,5.88-13.41,3.14-1.87,3.92-3.69,4-4.85a12,12,0,0,1,2.17,2.1,17.73,17.73,0,0,1,1.47,2.53,2.81,2.81,0,0,1,0,.65A11.12,11.12,0,0,0,280.79,386.92Z" transform="translate(10.73 22.02)"/><path class="cls-22" d="M277.87,382.67a12.27,12.27,0,0,1,2.16,2.1,17.73,17.73,0,0,1,1.47,2.53,12.26,12.26,0,0,1-2.1,6.65,26,26,0,0,0-2.83-8.61A4.91,4.91,0,0,0,277.87,382.67Z" transform="translate(10.73 22.02)"/><path class="cls-16" d="M259.77,392.22l-50.16,2.16a2.2,2.2,0,0,0-2.11,2.27,2.24,2.24,0,0,0,.61,1.43l6.46,6.9a2.18,2.18,0,0,0,1.7.69l41.3-1.89a2.19,2.19,0,0,0,2-1.5l2.39-7.16a2.2,2.2,0,0,0-1.36-2.8h0A2.34,2.34,0,0,0,259.77,392.22Z" transform="translate(10.73 22.02)"/><path class="cls-16" d="M265.51,416.84l-53.86,2.72a3.39,3.39,0,0,0-3.21,3.56,3,3,0,0,0,.21,1l.85,2.31a3.37,3.37,0,0,0,3.37,2.21l52.64-3a3.36,3.36,0,0,0,3.13-2.78l.37-2a3.38,3.38,0,0,0-2.63-4h0A3.85,3.85,0,0,0,265.51,416.84Z" transform="translate(10.73 22.02)"/><path class="cls-16" d="M199.89,426.3s-8.32-12.85-24.12-10.51C177.43,425,179.06,424.39,199.89,426.3Z" transform="translate(10.73 22.02)"/><path class="cls-16" d="M273.77,422.71s.67-9.6,10.32-12.43C283.75,418.79,283.09,420.62,273.77,422.71Z" transform="translate(10.73 22.02)"/><path class="cls-16" d="M144.4,346c4.08,7.27,3.08,25.77,3.08,25.77l-18.8-5.26c1.21-11.39,6.34-22,8.25-25.67A11.93,11.93,0,0,1,144.4,346Z" transform="translate(10.73 22.02)"/><path class="cls-16" d="M109.33,361.08s6.43-13.46,16-18.47a17,17,0,0,1,9.5-2.12c-4.79,7.1-8.37,18.74-10,24.91Z" transform="translate(10.73 22.02)"/><path class="cls-16" d="M217.69,341l-66.42,1.07s.89,19.19,8.32,28.13c23.18,0,82.41-1.64,86.74-1.75s5.44-1.45,3-3.45-21.63-18.7-24.62-21.14S219.47,341,217.69,341Z" transform="translate(10.73 22.02)"/><path class="cls-23" d="M99.67,361.74c11.31,3.64,47.23,15.2,56.91,18.93,11.54,4.45,11.54,26.49,13.31,39.12A21.77,21.77,0,0,0,179,434.28a92.11,92.11,0,0,1-14.61-3.08s-2.39-22.6-4.88-30.27-9.82-8.68-12.32-3.51-2.33,20.7,0,28.88C131.83,420.13,108,413,108,413s-1.66-18.53-4.66-24.7-6.57-4.52-7.24-.59,0,19.53,0,19.53l-3.24-2.76s-.84-32.05-.84-35.56C92.08,367.07,95.93,364.15,99.67,361.74Z" transform="translate(10.73 22.02)"/><path class="cls-15" d="M282.27,390.81a13.09,13.09,0,0,1-1.38,3.51c-.14.28-.32.54-.48.81a5.88,5.88,0,0,1-.52.78l-.55.75-.62.7a17.84,17.84,0,0,1-5.92,4.33c-4.46,2.13-9.51,2.43-14.53,2.92s-10,.74-15.09,1-10.09.51-15.13.67-10.1.34-15.14.41c-2.52,0-5,.07-7.53,0-1.24,0-2.45-.11-3.72-.22s-2.51-.22-3.76-.35A118.55,118.55,0,0,1,183,403.71a48.8,48.8,0,0,1-7.17-2.24,19.54,19.54,0,0,1-6.42-3.88l1.33,1.39,1.48,1.21,1.62,1c.54.34,1.12.61,1.69.92a47.59,47.59,0,0,0,7.1,2.89c2.45.74,4.93,1.37,7.42,1.9s5,.94,7.53,1.31,5,.71,7.64.84,5.1.16,7.64.18c5.08,0,10.15-.11,15.22-.27,10.13-.41,20.26-1,30.35-2.26,2.53-.35,5-.65,7.57-1.2l1.9-.44c.62-.17,1.24-.41,1.85-.61.31-.1.62-.19.93-.31l.89-.41a13,13,0,0,0,1.76-.85,18.33,18.33,0,0,0,5.9-5A14.74,14.74,0,0,0,282.27,390.81Z" transform="translate(10.73 22.02)"/><path class="cls-15" d="M99.88,361.61,154.63,380l-58-16.13C97.63,363.08,98.76,362.32,99.88,361.61Z" transform="translate(10.73 22.02)"/><path class="cls-15" d="M145.6,416.83,107.17,405.3l38.69,14.16Z" transform="translate(10.73 22.02)"/><path class="cls-15" d="M150.34,371.71s-3.5-.41-4-1.63.44-7.35-5.28-7.24-11-.06-12.09,2.28,1.67,7.46,6,8.07,10.2-.66,10.86.39.89,2.61,2.33,2.61,2.39-.39,2.78-1.61A3.16,3.16,0,0,0,150.34,371.71Z" transform="translate(10.73 22.02)"/><path class="cls-24" d="M201.74,341.25l15.95-.25c1.78,0,4,.39,7,2.84S246.86,363,249.27,365s1.46,3.16-2.18,3.41c-12.82-3.27-38.73-9.9-38.69-10A111.76,111.76,0,0,0,201.74,341.25Z" transform="translate(10.73 22.02)"/><path class="cls-24" d="M204.05,357.75c-10.09-1.45-20-3.56-20-3.56s4.13-9.58,11.51-12.84l3.45-.06A57.21,57.21,0,0,1,204.05,357.75Z" transform="translate(10.73 22.02)"/></g><g class="cls-25"><path class="cls-26" d="M331.27,157.73a20.86,20.86,0,0,0,3.1-11,21.13,21.13,0,1,0-39.16,11Z" transform="translate(10.73 22.02)"/><path class="cls-26" d="M304.27,157.73a12.4,12.4,0,0,0,.52-3.58,12.87,12.87,0,0,0-25.74,0,13.59,13.59,0,0,0,.51,3.59Z" transform="translate(10.73 22.02)"/><path class="cls-26" d="M346.41,157.73a10.83,10.83,0,1,0-20.4,0Z" transform="translate(10.73 22.02)"/></g><g class="cls-27"><path class="cls-26" d="M85.11,141.73a19,19,0,1,0-32.35,0Z" transform="translate(10.73 22.02)"/><path class="cls-26" d="M60.9,141.73a11.55,11.55,0,1,0-22.16,0Z" transform="translate(10.73 22.02)"/><path class="cls-26" d="M98.7,141.73a9.71,9.71,0,1,0-18.29,0Z" transform="translate(10.73 22.02)"/></g><g class="cls-28"><path class="cls-29" d="M277.73-21.54A66.45,66.45,0,0,1,300.5,0c3.31,5.12,6,10.93,5.93,17s-3.29,12.46-9,14.74c-3.37,1.36-7.87.82-9.79-2.27-1.8-2.9-.6-6.94,1.89-9.28s5.93-3.36,9.27-4.1a85.44,85.44,0,0,1,68.47,14.75c6.1,4.53,12,10.74,12.1,18.33a20.85,20.85,0,0,1-3.49,11.08c-9.44,15.4-50.34,11.21-53,29-1.84,12.44,13.46,20.4,23.32,22.1,26.67,4.61,54.19.14,81-3.93" transform="translate(10.73 22.02)"/></g><g class="cls-30"><path class="cls-3" d="M209.85,116.61,188,153.27a7.46,7.46,0,0,1-12.59.64l-.16-.22a100.21,100.21,0,0,0-7.21-9.22,8.2,8.2,0,0,1-2-6.68c.5-3.35,2.35-6.52,8.51-1.56,10.28,8.28,8.4,9.72,8.4,9.72-3.4.2,25.48-37.34,26.61-30.3" transform="translate(10.73 22.02)"/></g></g></svg>