<svg width="375" height="812" viewBox="0 0 375 812" fill="none" xmlns="http://www.w3.org/2000/svg">
<g clip-path="url(#clip0_100_14637)">
<mask id="mask0_100_14637" style="mask-type:luminance" maskUnits="userSpaceOnUse" x="0" y="0" width="375" height="812">
<path d="M375 0H0V812H375V0Z" fill="white"/>
</mask>
<g mask="url(#mask0_100_14637)">
<path d="M375 0H0V812H375V0Z" fill="#90EE90"/>
<mask id="mask1_100_14637" style="mask-type:luminance" maskUnits="userSpaceOnUse" x="288" y="293" width="55" height="130">
<path d="M342.095 293.06H288.095V422.06H342.095V293.06Z" fill="white"/>
</mask>
<g mask="url(#mask1_100_14637)">
<path d="M340.442 389.909C339.613 387.368 338.481 384.89 338.141 382.24C337.794 379.534 338.301 376.712 337.498 374.101C336.893 372.133 335.588 370.419 335.074 368.426C334.656 366.834 334.772 365.165 334.714 363.522C334.534 358.012 332.483 352.681 332.386 347.166C332.284 341.707 334.064 335.982 331.924 330.95C330.856 328.447 328.882 326.332 328.265 323.689C327.828 321.829 328.105 319.836 327.513 318.021C326.799 315.823 324.922 314.18 324.048 312.04C323.488 310.677 323.36 309.18 323.244 307.709C322.942 303.964 322.633 300.225 322.331 296.48C322.26 295.621 322.17 294.71 321.656 294.009C320.473 292.417 317.74 292.99 316.519 294.557C315.297 296.124 315.111 298.219 314.809 300.174C314.011 305.238 312.108 310.053 310.597 314.957C308.836 320.677 307.601 326.581 307.434 332.561C307.389 334.243 307.408 336.001 306.676 337.517C306.052 338.803 304.933 339.822 304.432 341.16C303.371 343.981 305.28 347.548 303.506 349.987C302.046 351.987 298.825 352.083 297.424 354.121C295.958 356.254 297.173 359.535 295.482 361.503C294.923 362.152 294.106 362.56 293.573 363.241C291.824 365.49 294.196 368.795 293.476 371.54C293.225 372.489 292.615 373.305 292.113 374.152C288.763 379.769 290.493 387.801 295.861 391.578L289.972 394.393C287.696 396.399 287.645 400.055 289.014 402.755C290.384 405.449 292.846 407.405 295.238 409.277C298.697 411.978 302.149 414.685 305.608 417.385C307.531 418.888 309.498 420.417 311.8 421.251C315.175 422.474 318.911 422.079 322.472 421.551C328.593 420.646 335.286 419.016 338.784 413.965C340.095 412.067 340.835 409.838 341.33 407.59C342.596 401.755 342.294 395.59 340.442 389.909Z" fill="#65CE95"/>
<path d="M311.909 340.058C312.552 340.695 313.195 341.968 312.552 343.242C307.408 352.796 308.051 362.987 315.767 371.903C322.196 378.909 318.338 390.374 317.052 400.564C323.482 389.1 331.84 376.362 323.482 362.35C321.553 359.802 323.482 355.344 324.768 352.159C327.982 344.516 319.624 339.421 315.767 333.689C314.481 331.141 321.553 330.504 322.839 327.32C324.768 322.224 320.267 319.04 317.695 315.218C315.124 311.397 320.267 305.028 317.695 301.206C316.654 299.143 315.426 300.053 314.519 301.722C313.613 306.225 311.948 310.556 310.591 314.957C310.083 316.613 309.62 318.288 309.215 319.976C309.511 322.001 309.781 324.027 309.987 326.046C309.98 329.867 305.48 337.51 311.909 340.058Z" fill="#5DC187"/>
</g>
<mask id="mask2_100_14637" style="mask-type:luminance" maskUnits="userSpaceOnUse" x="77" y="288" width="55" height="130">
<path d="M131.292 288.972H77.292V417.972H131.292V288.972Z" fill="white"/>
</mask>
<g mask="url(#mask2_100_14637)">
<path d="M129.64 385.821C128.81 383.28 127.679 380.802 127.338 378.153C126.991 375.446 127.499 372.624 126.695 370.013C126.091 368.045 124.786 366.332 124.271 364.338C123.853 362.746 123.969 361.077 123.911 359.434C123.731 353.925 121.68 348.594 121.584 343.078C121.481 337.62 123.262 331.894 121.121 326.862C120.054 324.359 118.08 322.245 117.463 319.602C117.025 317.742 117.302 315.748 116.71 313.933C115.997 311.736 114.119 310.092 113.245 307.952C112.686 306.589 112.557 305.093 112.441 303.621C112.139 299.876 111.83 296.138 111.528 292.393C111.458 291.533 111.367 290.622 110.853 289.921C109.67 288.329 106.938 288.902 105.716 290.469C104.495 292.036 104.308 294.131 104.006 296.087C103.209 301.15 101.306 305.965 99.7947 310.869C98.033 316.589 96.7986 322.493 96.6315 328.474C96.5864 330.155 96.6057 331.913 95.8728 333.429C95.2491 334.715 94.1304 335.734 93.629 337.072C92.5681 339.894 94.4776 343.46 92.7031 345.9C91.2437 347.899 88.0226 347.995 86.621 350.033C85.1551 352.167 86.3702 355.447 84.6793 357.415C84.12 358.065 83.3034 358.472 82.7698 359.154C81.021 361.402 83.3934 364.708 82.6734 367.453C82.4226 368.402 81.8118 369.217 81.3103 370.064C77.9607 375.682 79.6902 383.713 85.0586 387.49L79.1694 390.305C76.8934 392.311 76.842 395.967 78.2114 398.668C79.5809 401.362 82.0433 403.317 84.435 405.19C87.894 407.89 91.3465 410.597 94.8055 413.298C96.7279 414.801 98.6953 416.329 100.997 417.164C104.372 418.386 108.108 417.992 111.67 417.463C117.79 416.559 124.483 414.928 127.981 409.877C129.292 407.979 130.032 405.75 130.527 403.502C131.793 397.668 131.491 391.502 129.64 385.821Z" fill="#65CE95"/>
<path d="M101.106 335.97C101.749 336.607 102.392 337.881 101.749 339.155C96.6056 348.708 97.2486 358.899 104.964 367.816C111.393 374.822 107.536 386.286 106.25 396.477C112.679 385.012 121.037 372.274 112.679 358.262C110.75 355.714 112.679 351.256 113.965 348.071C117.18 340.428 108.821 335.333 104.964 329.601C103.678 327.053 110.75 326.416 112.036 323.232C113.965 318.137 109.464 314.952 106.893 311.131C104.321 307.309 109.464 300.94 106.893 297.118C105.851 295.055 104.623 295.966 103.717 297.634C102.81 302.137 101.145 306.468 99.7881 310.869C99.2802 312.525 98.8173 314.2 98.4123 315.888C98.708 317.914 98.978 319.939 99.1838 321.958C99.1774 325.78 94.6768 333.422 101.106 335.97Z" fill="#5DC187"/>
</g>
<path d="M384 445.462V806.788C384 845.033 358.335 876.025 326.653 876.025H46.3466C14.6648 875.999 -11 845.008 -11 806.788V443.534C-11 443.534 155.862 342.063 384 445.462Z" fill="#B4FAB4"/>
<path d="M336.773 362.31C332.707 372.158 328.092 391.855 329.963 429.252C330.109 432.31 332.642 434.707 335.708 434.707H342.098H348.488C351.554 434.707 354.087 432.31 354.233 429.252C356.104 391.855 351.489 372.158 347.423 362.31C345.47 357.563 338.742 357.563 336.773 362.31Z" fill="#085F63"/>
<path d="M349.359 410.312C348.988 410.022 348.44 410.087 348.149 410.457L342.986 417.087V399.611L349.085 391.484C349.376 391.098 349.295 390.567 348.908 390.278C348.52 389.988 347.988 390.068 347.697 390.455L342.986 396.73V373.397C342.986 372.914 342.598 372.528 342.114 372.528C341.63 372.528 341.243 372.914 341.243 373.397V396.73L336.531 390.455C336.241 390.068 335.708 389.988 335.321 390.278C334.934 390.567 334.853 391.098 335.143 391.484L341.243 399.611V449.222C341.243 449.705 341.63 450.091 342.114 450.091C342.598 450.091 342.986 449.705 342.986 449.222V419.887L349.521 411.519C349.795 411.149 349.731 410.602 349.359 410.312Z" fill="#49BEB7"/>
<path d="M32.6753 345.254C28.6089 355.102 23.9939 374.799 25.8657 412.197C26.0109 415.254 28.5443 417.652 31.6103 417.652H38.0003H44.3903C47.4562 417.652 49.9896 415.254 50.1348 412.197C52.0067 374.799 47.3916 355.102 43.3253 345.254C41.3728 340.507 34.6439 340.507 32.6753 345.254Z" fill="#085F63"/>
<path d="M45.2457 393.256C44.8746 392.967 44.3259 393.031 44.0355 393.401L38.8718 400.031V382.555L44.9714 374.429C45.2618 374.043 45.1812 373.511 44.7939 373.222C44.4066 372.932 43.8741 373.013 43.5837 373.399L38.8718 379.675V356.341C38.8718 355.859 38.4846 355.472 38.0005 355.472C37.5164 355.472 37.1291 355.859 37.1291 356.341V379.675L32.4173 373.399C32.1268 373.013 31.5943 372.932 31.207 373.222C30.8198 373.511 30.7391 374.043 31.0295 374.429L37.1291 382.555V432.167C37.1291 432.649 37.5164 433.036 38.0005 433.036C38.4846 433.036 38.8718 432.649 38.8718 432.167V402.847L45.4071 394.479C45.6975 394.093 45.633 393.546 45.2457 393.256Z" fill="#49BEB7"/>
<path d="M289.613 348.63C286.224 356.821 282.384 373.235 283.949 404.373C284.078 406.915 286.192 408.911 288.742 408.911H294.067H299.392C301.941 408.911 304.055 406.915 304.184 404.373C305.749 373.235 301.909 356.821 298.52 348.63C296.858 344.688 291.259 344.688 289.613 348.63Z" fill="#085F63"/>
<path d="M300.101 388.619C299.779 388.377 299.327 388.426 299.085 388.747L294.776 394.267V379.72L299.859 372.961C300.101 372.639 300.037 372.189 299.714 371.947C299.391 371.706 298.94 371.77 298.698 372.092L294.776 377.322V357.867C294.776 357.465 294.454 357.143 294.05 357.143C293.647 357.143 293.324 357.465 293.324 357.867V377.306L289.403 372.076C289.161 371.754 288.709 371.69 288.386 371.931C288.064 372.173 287.999 372.623 288.241 372.945L293.324 379.704V421.028C293.324 421.43 293.647 421.752 294.05 421.752C294.454 421.752 294.776 421.43 294.776 421.028V396.6L300.214 389.632C300.473 389.311 300.408 388.86 300.101 388.619Z" fill="#49BEB7"/>
<path d="M66.5465 342.022C63.1579 350.213 59.3174 366.626 60.8826 397.764C61.0117 400.307 63.1256 402.302 65.6752 402.302H71.0002H76.3252C78.8747 402.302 80.9886 400.307 81.1177 397.764C82.6829 366.626 78.8424 350.213 75.4538 342.022C73.7756 338.063 68.1763 338.063 66.5465 342.022Z" fill="#085F63"/>
<path d="M77.0189 381.994C76.6962 381.753 76.2443 381.801 76.0023 382.123L71.6939 387.642V373.095L76.7769 366.337C77.0189 366.015 76.9543 365.564 76.6316 365.323C76.3089 365.081 75.8571 365.146 75.615 365.468L71.6939 370.698V351.258C71.6939 350.856 71.3712 350.534 70.9677 350.534C70.5643 350.534 70.2416 350.856 70.2416 351.258V370.698L66.3205 365.468C66.0784 365.146 65.6266 365.081 65.3039 365.323C64.9811 365.564 64.9166 366.015 65.1586 366.337L70.2416 373.095V414.419C70.2416 414.822 70.5643 415.144 70.9677 415.144C71.3712 415.144 71.6939 414.822 71.6939 414.419V389.992L77.1319 383.024C77.39 382.702 77.3255 382.252 77.0189 381.994Z" fill="#49BEB7"/>
<path d="M188 188C216.719 188 240 164.719 240 136C240 107.281 216.719 84 188 84C159.281 84 136 107.281 136 136C136 164.719 159.281 188 188 188Z" fill="white"/>
<path d="M244.815 105.733C249.786 105.733 253.815 101.704 253.815 96.7334C253.815 91.7628 249.786 87.7334 244.815 87.7334C239.844 87.7334 235.815 91.7628 235.815 96.7334C235.815 101.704 239.844 105.733 244.815 105.733Z" fill="#A2F8A2"/>
<path d="M143.815 176.733C148.786 176.733 152.815 172.704 152.815 167.733C152.815 162.762 148.786 158.733 143.815 158.733C138.844 158.733 134.815 162.762 134.815 167.733C134.815 172.704 138.844 176.733 143.815 176.733Z" fill="#BAEEBA"/>
<path d="M253.815 123.733C256.576 123.733 258.815 121.494 258.815 118.733C258.815 115.972 256.576 113.733 253.815 113.733C251.054 113.733 248.815 115.972 248.815 118.733C248.815 121.494 251.054 123.733 253.815 123.733Z" fill="#A2F8A2"/>
<path d="M129.815 118.733C132.576 118.733 134.815 116.494 134.815 113.733C134.815 110.972 132.576 108.733 129.815 108.733C127.054 108.733 124.815 110.972 124.815 113.733C124.815 116.494 127.054 118.733 129.815 118.733Z" fill="#A2F8A2"/>
<path d="M157.815 192.733C160.576 192.733 162.815 190.494 162.815 187.733C162.815 184.972 160.576 182.733 157.815 182.733C155.054 182.733 152.815 184.972 152.815 187.733C152.815 190.494 155.054 192.733 157.815 192.733Z" fill="white"/>
<mask id="mask3_100_14637" style="mask-type:luminance" maskUnits="userSpaceOnUse" x="69" y="325" width="237" height="127">
<path d="M305.5 325.138H69.5V451.138H305.5V325.138Z" fill="white"/>
</mask>
<g mask="url(#mask3_100_14637)">
<path d="M249.175 366.51C249.175 366.51 247.954 362.948 249.175 361.723C250.396 360.498 255.498 359.719 258.272 360.944C261.046 362.169 260.933 365.95 259.606 367.402C258.272 368.846 253.84 370.291 252.619 370.517C251.398 370.737 249.175 366.51 249.175 366.51Z" fill="#FFE41F"/>
<path d="M149.192 426.469L94.8008 405.765V381.06L168.678 393.218L149.192 426.469Z" fill="black"/>
<path d="M168.403 395.93C168.727 395.838 169.059 395.788 169.391 395.788C174.232 395.788 178.156 405.439 178.156 417.335C178.156 429.23 174.232 438.881 169.391 438.881L155.198 439.872V396.772L168.403 395.93Z" fill="#232323"/>
<path d="M155.198 439.872C160.039 439.872 163.964 430.226 163.964 418.326C163.964 406.426 160.039 396.78 155.198 396.78C150.357 396.78 146.433 406.426 146.433 418.326C146.433 430.226 150.357 439.872 155.198 439.872Z" fill="#333333"/>
<path d="M154.358 433.103C157.212 433.103 159.524 426.487 159.524 418.326C159.524 410.165 157.212 403.549 154.358 403.549C151.505 403.549 149.192 410.165 149.192 418.326C149.192 426.487 151.505 433.103 154.358 433.103Z" fill="#CCCCCC"/>
<path d="M153.286 423.792C154.342 423.792 155.199 421.345 155.199 418.326C155.199 415.307 154.342 412.86 153.286 412.86C152.23 412.86 151.374 415.307 151.374 418.326C151.374 421.345 152.23 423.792 153.286 423.792Z" fill="#EFEFEF"/>
<path d="M255.583 390.959C255.907 390.867 256.239 390.818 256.571 390.818C261.412 390.818 265.336 400.469 265.336 412.364C265.336 424.259 261.412 433.91 256.571 433.91L242.378 434.902V391.809L255.583 390.959Z" fill="#232323"/>
<path d="M242.379 434.902C247.22 434.902 251.144 425.255 251.144 413.355C251.144 401.456 247.22 391.809 242.379 391.809C237.538 391.809 233.613 401.456 233.613 413.355C233.613 425.255 237.538 434.902 242.379 434.902Z" fill="#333333"/>
<path d="M241.539 428.133C244.392 428.133 246.705 421.517 246.705 413.355C246.705 405.194 244.392 398.578 241.539 398.578C238.685 398.578 236.373 405.194 236.373 413.355C236.373 421.517 238.685 428.133 241.539 428.133Z" fill="#CCCCCC"/>
<path d="M240.466 418.822C241.522 418.822 242.378 416.374 242.378 413.355C242.378 410.336 241.522 407.889 240.466 407.889C239.41 407.889 238.553 410.336 238.553 413.355C238.553 416.374 239.41 418.822 240.466 418.822Z" fill="#EFEFEF"/>
<path d="M112.55 384.013C112.797 383.935 113.044 383.893 113.299 383.893C116.954 383.893 119.925 391.965 119.925 401.927C119.925 411.89 116.961 419.962 113.299 419.962L102.571 420.79V384.728L112.55 384.013Z" fill="#232323"/>
<path d="M102.571 420.79C106.231 420.79 109.198 412.716 109.198 402.756C109.198 392.795 106.231 384.721 102.571 384.721C98.9113 384.721 95.9443 392.795 95.9443 402.756C95.9443 412.716 98.9113 420.79 102.571 420.79Z" fill="#333333"/>
<path d="M101.936 415.118C104.096 415.118 105.846 409.583 105.846 402.756C105.846 395.928 104.096 390.393 101.936 390.393C99.7768 390.393 98.0264 395.928 98.0264 402.756C98.0264 409.583 99.7768 415.118 101.936 415.118Z" fill="#CCCCCC"/>
<path d="M101.125 407.33C101.924 407.33 102.571 405.282 102.571 402.756C102.571 400.229 101.924 398.181 101.125 398.181C100.325 398.181 99.6777 400.229 99.6777 402.756C99.6777 405.282 100.325 407.33 101.125 407.33Z" fill="#EFEFEF"/>
<path d="M192.687 336.488L185.425 325.138H150.985L148.931 336.488H192.687Z" fill="#232323"/>
<path d="M285.203 425.966C285.203 425.966 282.098 429.308 271.893 430.306C261.688 431.305 202.455 435.985 189.144 435.985C175.834 435.985 164.069 432.197 164.069 432.197C164.069 432.197 161.684 409.603 159.186 401.927C156.687 394.252 149.369 393.246 146.871 398.422C144.372 403.598 144.542 419.119 146.871 427.304C131.563 421.13 107.772 413.95 107.772 413.95C107.772 413.95 106.107 395.42 103.115 389.246C100.122 383.071 96.5441 384.735 95.8736 388.658C95.2102 392.581 95.8736 408.186 95.8736 408.186L92.6272 405.432C92.6272 405.432 91.7944 373.378 91.7944 369.873C91.7944 366.368 106.269 358.686 106.269 358.686C106.269 358.686 117.914 344.163 124.569 340.156C131.224 336.148 139.044 335.312 157.682 334.817C176.321 334.321 196.117 335.15 204.939 334.817C213.761 334.484 226.732 344.333 235.886 351.676C245.039 359.018 252.802 367.536 255.576 368.868C258.349 370.206 277.426 381.726 279.98 385.309C282.535 388.892 284.42 395.13 285.196 406.147C285.972 417.165 286.085 423.183 285.203 425.966Z" fill="#F4C500"/>
<path d="M142.721 338.824C137.378 337.111 132.713 337.253 129.079 338.01C135.056 335.815 143.017 335.213 157.696 334.817C176.335 334.314 196.131 335.15 204.953 334.817C208.602 334.675 212.97 336.29 217.473 338.739C216.951 339.377 215.292 339.823 212.773 339.823C208.778 339.823 168.099 340.573 158.699 340.573C149.298 340.573 147.047 340.828 142.721 338.824Z" fill="#FFE41F"/>
<path d="M158.967 377.775C158.078 375.771 159.602 369.816 159.602 369.816L247.368 368.953C247.368 368.953 250.819 369.009 253.692 367.558C254.454 368.181 255.096 368.634 255.576 368.868C257.799 369.937 270.481 377.541 276.748 382.37C276.48 384.714 274.236 387.589 264.786 387.454C248.921 387.235 201.114 390.35 190.909 390.35C180.704 390.35 178.488 389.791 170.943 386.01C163.406 382.229 159.856 379.779 158.967 377.775Z" fill="#FFE41F"/>
<path d="M201.954 405.765C201.954 405.765 194.219 392.574 192.052 392.163C189.892 391.745 169.426 390.747 165.594 388.07C169.334 398.089 171.084 399.003 178.989 401.262C186.893 403.513 201.954 405.765 201.954 405.765Z" fill="#EFEFEF"/>
<path d="M190.415 394.832C188.615 394.485 174.176 393.735 167.153 391.958C166.659 390.839 166.151 389.557 165.594 388.07C169.419 390.74 189.885 391.745 192.052 392.163C194.212 392.581 201.954 405.765 201.954 405.765C201.954 405.765 200.535 405.552 198.354 405.191C195.905 401.262 191.883 395.116 190.415 394.832Z" fill="#DBDBDB"/>
<path d="M165.601 388.07C167.013 389.055 170.689 389.812 174.875 390.4L176.406 400.49C170.64 398.656 168.89 396.886 165.601 388.07Z" fill="#EA952F"/>
<path d="M279.769 385.762C280.284 386.491 280.778 387.334 281.236 388.297C280.919 399.548 267.679 401.927 267.679 401.927C268.674 393.36 268.237 391.689 273.558 388.516C276.699 386.647 277.482 384.834 277.602 383.666C278.618 384.502 279.38 385.224 279.769 385.762Z" fill="#EFEFEF"/>
<path d="M280.517 387.915C280.136 387.376 279.366 386.654 278.35 385.812C278.23 386.987 277.447 388.793 274.306 390.662C269.521 393.515 269.394 395.151 268.695 401.686C268.06 401.856 267.679 401.927 267.679 401.927C268.674 393.36 268.237 391.689 273.558 388.516C276.699 386.647 277.482 384.834 277.602 383.666C278.625 384.502 279.387 385.224 279.769 385.769C280.284 386.498 280.778 387.341 281.236 388.304C281.229 388.531 281.208 388.743 281.194 388.955C280.968 388.58 280.75 388.233 280.517 387.915Z" fill="#DBDBDB"/>
<path d="M277.595 383.666C278.619 384.502 279.381 385.224 279.762 385.769C280.277 386.498 280.771 387.341 281.23 388.304C281.152 391.002 280.334 393.183 279.134 394.953C278.661 391.979 277.807 389.083 276.304 386.343C277.214 385.295 277.525 384.367 277.595 383.666Z" fill="#EA952F"/>
<path d="M259.5 393.218L209.343 395.378C207.465 395.455 206.555 397.714 207.839 399.081L214.297 405.97C214.734 406.437 215.355 406.692 215.998 406.664L257.305 404.774C258.208 404.731 258.999 404.136 259.288 403.272L261.68 396.107C262.16 394.648 261.031 393.147 259.5 393.218Z" fill="#232323"/>
<path d="M265.237 417.837L211.382 420.563C209.096 420.677 207.585 422.985 208.376 425.137L209.23 427.453C209.745 428.855 211.114 429.747 212.603 429.662L265.237 426.624C266.797 426.532 268.096 425.385 268.371 423.842L268.738 421.838C269.133 419.685 267.418 417.724 265.237 417.837Z" fill="#232323"/>
<path d="M199.625 427.304C199.625 427.304 191.304 414.453 175.496 416.789C177.161 425.966 178.791 425.392 199.625 427.304Z" fill="#232323"/>
<path d="M273.502 423.714C273.502 423.714 274.165 414.113 283.82 411.281C283.481 419.792 282.818 421.625 273.502 423.714Z" fill="#232323"/>
<path d="M144.132 347.003C148.211 354.267 147.209 372.769 147.209 372.769L128.408 367.508C129.615 356.122 134.746 345.494 136.658 341.841C140.356 342.747 143.017 345.013 144.132 347.003Z" fill="#232323"/>
<path d="M109.057 362.084C109.057 362.084 115.493 348.617 125.028 343.611C128.528 341.77 131.753 341.239 134.534 341.487C129.742 348.589 126.157 360.229 124.477 366.404L109.057 362.084Z" fill="#232323"/>
<path d="M217.424 341.997L150.978 343.052C150.978 343.052 151.867 362.24 159.299 371.176C182.482 371.211 241.715 369.54 246.041 369.427C250.368 369.314 251.476 367.983 249.034 365.979C246.592 363.975 227.403 347.279 224.41 344.836C221.418 342.386 219.202 341.968 217.424 341.997Z" fill="#232323"/>
<path d="M99.3953 362.743C110.715 366.375 146.631 377.938 156.306 381.669C167.845 386.123 167.845 408.158 169.617 420.79C170.626 427.963 175.051 432.6 178.685 435.277C170.238 434.179 164.069 432.197 164.069 432.197C164.069 432.197 161.684 409.603 159.186 401.927C156.687 394.252 149.369 393.246 146.871 398.422C144.372 403.598 144.542 419.119 146.871 427.304C131.563 421.13 107.772 413.95 107.772 413.95C107.772 413.95 106.107 395.42 103.115 389.246C100.122 383.071 96.5441 384.735 95.8736 388.658C95.2102 392.581 95.8736 408.186 95.8736 408.186L92.6272 405.432C92.6272 405.432 91.7944 373.378 91.7944 369.873C91.8085 368.068 95.6619 365.15 99.3953 362.743Z" fill="#F2B800"/>
<path d="M281.985 391.809C281.703 393.048 281.216 394.223 280.602 395.321C280.46 395.597 280.277 395.859 280.122 396.128C279.966 396.397 279.797 396.659 279.6 396.907L279.049 397.658L278.435 398.358C276.784 400.214 274.744 401.679 272.507 402.692C268.046 404.816 263 405.121 257.983 405.609C252.965 406.013 247.926 406.353 242.887 406.6C237.848 406.869 232.802 407.11 227.756 407.266C222.71 407.471 217.664 407.613 212.625 407.677C210.105 407.719 207.586 407.747 205.087 407.684C203.852 407.648 202.638 407.57 201.368 407.457C200.112 407.358 198.863 407.238 197.613 407.11C192.617 406.572 187.634 405.871 182.751 404.703C180.309 404.129 177.909 403.393 175.58 402.465C173.272 401.524 170.993 400.362 169.165 398.585L170.485 399.966L171.974 401.177L173.59 402.217C174.133 402.557 174.712 402.826 175.277 403.138C177.563 404.292 179.97 405.198 182.405 405.97C184.854 406.707 187.331 407.337 189.822 407.868C192.32 408.392 194.833 408.81 197.352 409.178C199.886 409.532 202.37 409.886 204.988 410.02C207.55 410.148 210.091 410.183 212.632 410.204C217.713 410.211 222.78 410.091 227.847 409.928C237.982 409.518 248.109 408.916 258.201 407.67C260.728 407.323 263.24 407.018 265.767 406.473L267.665 406.027C268.294 405.857 268.908 405.623 269.522 405.425C269.832 405.319 270.143 405.227 270.446 405.106L271.342 404.703C271.935 404.427 272.549 404.207 273.1 403.846C275.386 402.593 277.447 400.9 279 398.819C280.552 396.758 281.681 394.344 281.985 391.809Z" fill="#FFE41F"/>
<path d="M99.6068 362.608L154.358 380.94L96.311 364.853C97.3555 364.081 98.4918 363.323 99.6068 362.608Z" fill="#FFE41F"/>
<path d="M145.332 417.83L106.904 406.296L145.593 420.464L145.332 417.83Z" fill="#FFE41F"/>
<path d="M150.067 372.712C150.067 372.712 146.574 372.302 146.016 371.077C145.459 369.852 146.461 363.734 140.744 363.84C135.028 363.947 129.763 363.784 128.655 366.12C127.547 368.457 130.321 373.576 134.647 374.192C138.973 374.808 144.852 373.527 145.515 374.582C146.179 375.637 146.405 377.194 147.844 377.194C149.284 377.194 150.23 376.805 150.618 375.58C151.013 374.355 150.364 372.755 150.067 372.712Z" fill="#FFE41F"/>
<path d="M201.467 342.251L217.424 341.997C219.195 341.968 221.418 342.386 224.41 344.836C227.403 347.286 246.592 363.975 249.034 365.979C251.313 367.848 250.495 369.137 246.846 369.392C234.03 366.12 208.115 359.486 208.164 359.358C206.336 352.703 203.005 345.445 201.467 342.251Z" fill="#353535"/>
<path d="M203.782 358.749C193.69 357.305 183.774 355.188 183.774 355.188C183.774 355.188 187.903 345.615 195.278 342.351L198.729 342.294C199.844 344.595 202.801 351.223 203.782 358.749Z" fill="#353535"/>
</g>
<mask id="mask4_100_14637" style="mask-type:luminance" maskUnits="userSpaceOnUse" x="278" y="126" width="69" height="33">
<path d="M346.766 126.733H278.766V158.733H346.766V126.733Z" fill="white"/>
</mask>
<g mask="url(#mask4_100_14637)">
<path d="M330.976 158.733C332.946 155.536 334.079 151.783 334.079 147.76C334.087 136.144 324.629 126.733 312.954 126.733C301.279 126.733 291.821 136.144 291.821 147.76C291.821 151.783 292.961 155.536 294.923 158.733H330.976Z" fill="#ACFCAC"/>
<path d="M303.99 158.733C304.325 157.591 304.508 156.393 304.508 155.147C304.508 148.077 298.743 142.341 291.637 142.341C284.532 142.333 278.766 148.069 278.766 155.139C278.766 156.385 278.958 157.591 279.284 158.725H303.99V158.733Z" fill="#ACFCAC"/>
<path d="M346.136 158.733C346.535 157.607 346.766 156.401 346.766 155.147C346.766 149.196 341.917 144.38 335.944 144.38C329.971 144.38 325.115 149.196 325.115 155.139C325.115 156.401 325.346 157.607 325.745 158.725H346.136V158.733Z" fill="#ACFCAC"/>
</g>
<mask id="mask5_100_14637" style="mask-type:luminance" maskUnits="userSpaceOnUse" x="38" y="113" width="61" height="30">
<path d="M99 113.733H38V142.733H99V113.733Z" fill="white"/>
</mask>
<g mask="url(#mask5_100_14637)">
<path d="M84.8353 142.733C86.6023 139.836 87.6183 136.434 87.6183 132.789C87.6254 122.262 79.141 113.733 68.6679 113.733C58.1948 113.733 49.7104 122.262 49.7104 132.789C49.7104 136.434 50.7335 139.836 52.4934 142.733H84.8353Z" fill="#ACFCAC"/>
<path d="M60.6273 142.733C60.9278 141.698 61.0923 140.612 61.0923 139.483C61.0923 133.076 55.9201 127.877 49.5461 127.877C43.1722 127.87 38 133.069 38 139.476C38 140.605 38.1717 141.698 38.465 142.726H60.6273V142.733Z" fill="#ACFCAC"/>
<path d="M98.4349 142.733C98.7926 141.712 99.0001 140.619 99.0001 139.483C99.0001 134.09 94.6506 129.725 89.2924 129.725C83.9343 129.725 79.5776 134.09 79.5776 139.476C79.5776 140.619 79.7851 141.712 80.1428 142.726H98.4349V142.733Z" fill="#ACFCAC"/>
</g>
<mask id="mask6_100_14637" style="mask-type:luminance" maskUnits="userSpaceOnUse" x="266" y="-55" width="162" height="203">
<path d="M354.653 -54.9964L266.375 -15.9046L338.879 147.825L427.157 108.733L354.653 -54.9964Z" fill="white"/>
</mask>
<g mask="url(#mask6_100_14637)">
<path d="M277.461 -20.5447C286.62 -15.324 294.498 -7.88085 300.227 0.970089C303.538 6.09052 306.192 11.901 306.157 18.006C306.121 24.1111 302.873 30.4729 297.214 32.7508C293.837 34.1077 289.344 33.5703 287.423 30.4838C285.616 27.5828 286.82 23.5446 289.312 21.2019C291.804 18.8592 295.242 17.8422 298.584 17.1043C322.085 11.9308 347.718 17.4454 367.014 31.8235C373.096 36.3528 378.958 42.5604 379.097 50.1452C379.174 54.0731 377.657 57.8831 375.609 61.2276C366.175 76.6301 325.272 72.4396 322.634 90.2458C320.79 102.687 336.088 110.651 345.946 112.35C372.619 116.956 400.142 112.488 426.905 108.421" stroke="#CFFFCF" stroke-width="1.1033" stroke-miterlimit="10" stroke-dasharray="5.52 5.52"/>
</g>
</g>
<path fill-rule="evenodd" clip-rule="evenodd" d="M198.047 126.738C189.65 136.447 182.285 144.413 181.681 144.441C181.077 144.468 177.579 142.007 173.906 138.972C166.312 132.695 165.929 132.587 162.715 135.815C159.448 139.094 160.353 141.223 169.785 152.462C181.844 166.83 180.756 167.39 199.512 137.132C213.995 113.768 216.595 108.801 214.232 109.006C213.728 109.049 206.445 117.029 198.047 126.738Z" fill="#94EC98"/>
</g>
<defs>
<clipPath id="clip0_100_14637">
<rect width="375" height="812" fill="white"/>
</clipPath>
</defs>
</svg>
