<svg width="27" height="27" viewBox="0 0 27 27" fill="none" xmlns="http://www.w3.org/2000/svg">
<circle cx="13.7539" cy="13.7792" r="12.8418" fill="#F4F6F8"/>
<path d="M11.7971 9.81964C11.4228 9.81964 11.1122 10.1188 11.1122 10.4796V10.7624H10.2317C9.85739 10.7624 9.54688 11.0616 9.54688 11.4223V17.0788C9.54688 17.4396 9.85739 17.7388 10.2317 17.7388H17.2761C17.6504 17.7388 17.9609 17.4396 17.9609 17.0788V11.4223C17.9609 11.0616 17.6504 10.7624 17.2761 10.7624H16.3956V10.4796C16.3956 10.1188 16.0851 9.81964 15.7107 9.81964C15.3364 9.81964 15.0259 10.1188 15.0259 10.4796V10.7624H12.4821V10.4796C12.4821 10.1188 12.1716 9.81964 11.7972 9.81964H11.7971ZM11.7971 10.3853C11.8564 10.3853 11.895 10.4225 11.895 10.4796V11.6109C11.895 11.6681 11.8564 11.7052 11.7971 11.7052C11.7378 11.7052 11.6992 11.6681 11.6992 11.6109V10.4796C11.6992 10.4225 11.7378 10.3853 11.7971 10.3853ZM15.7106 10.3853C15.7699 10.3853 15.8085 10.4225 15.8085 10.4796V11.6109C15.8085 11.6681 15.7699 11.7052 15.7106 11.7052C15.6513 11.7052 15.6128 11.6681 15.6128 11.6109V10.4796C15.6128 10.4225 15.6513 10.3853 15.7106 10.3853ZM10.2317 11.3281H11.1122V11.6109C11.1122 11.9716 11.4227 12.2708 11.797 12.2708C12.1714 12.2708 12.4819 11.9716 12.4819 11.6109V11.3281H15.0257V11.6109C15.0257 11.9716 15.3362 12.2708 15.7105 12.2708C16.0849 12.2708 16.3954 11.9716 16.3954 11.6109V11.3281H17.2759C17.3351 11.3281 17.3738 11.3652 17.3738 11.4224V12.4595H10.1337V11.4224C10.1337 11.3653 10.1723 11.3281 10.2316 11.3281H10.2317ZM10.1338 13.025H17.3738V17.0789C17.3738 17.136 17.3353 17.1732 17.276 17.1732H10.2316C10.1724 17.1732 10.1338 17.136 10.1338 17.0789V13.025H10.1338Z" fill="black" stroke="black" stroke-width="0.3"/>
</svg>
