<svg width="37" height="19" viewBox="0 0 37 19" fill="none" xmlns="http://www.w3.org/2000/svg">
<path d="M36.1933 0.375H1.09719C0.676033 0.375 0.395264 0.655769 0.395264 1.07692V17.9231C0.395264 18.3442 0.676033 18.625 1.09719 18.625H36.1933C36.6145 18.625 36.8953 18.3442 36.8953 17.9231V1.07692C36.8953 0.655769 36.6145 0.375 36.1933 0.375ZM35.4914 17.2212H1.79911V1.77885H35.4914V17.2212Z" fill="black"/>
<path d="M3.90493 13.0096C5.0982 13.0096 6.0107 13.9221 6.0107 15.1154C6.0107 15.5365 6.29146 15.8173 6.71262 15.8173H30.578C30.9992 15.8173 31.2799 15.5365 31.2799 15.1154C31.2799 13.9221 32.1924 13.0096 33.3857 13.0096C33.8069 13.0096 34.0876 12.7288 34.0876 12.3077V6.6923C34.0876 6.27115 33.8069 5.99038 33.3857 5.99038C32.1924 5.99038 31.2799 5.07788 31.2799 3.88461C31.2799 3.46346 30.9992 3.18269 30.578 3.18269H6.71262C6.29146 3.18269 6.0107 3.46346 6.0107 3.88461C6.0107 5.07788 5.0982 5.99038 3.90493 5.99038C3.48377 5.99038 3.203 6.27115 3.203 6.6923V12.3077C3.203 12.7288 3.48377 13.0096 3.90493 13.0096ZM4.60685 7.32403C6.0107 7.04326 7.06358 5.99038 7.34435 4.58653H29.9463C30.227 5.99038 31.2799 7.04326 32.6838 7.32403V11.676C31.2799 11.9567 30.227 13.0096 29.9463 14.4135H7.34435C7.06358 13.0096 6.0107 11.9567 4.60685 11.676V7.32403Z" fill="black"/>
<path d="M34.0876 3.88461C34.0876 4.27223 33.7733 4.58653 33.3856 4.58653C32.998 4.58653 32.6837 4.27223 32.6837 3.88461C32.6837 3.49699 32.998 3.18269 33.3856 3.18269C33.7733 3.18269 34.0876 3.49699 34.0876 3.88461Z" fill="black"/>
<path d="M4.60685 3.88461C4.60685 4.27223 4.29255 4.58653 3.90493 4.58653C3.5173 4.58653 3.203 4.27223 3.203 3.88461C3.203 3.49699 3.5173 3.18269 3.90493 3.18269C4.29255 3.18269 4.60685 3.49699 4.60685 3.88461Z" fill="black"/>
<path d="M34.0876 15.1154C34.0876 15.503 33.7733 15.8173 33.3856 15.8173C32.998 15.8173 32.6837 15.503 32.6837 15.1154C32.6837 14.7278 32.998 14.4135 33.3856 14.4135C33.7733 14.4135 34.0876 14.7278 34.0876 15.1154Z" fill="black"/>
<path d="M4.60685 15.1154C4.60685 15.503 4.29255 15.8173 3.90493 15.8173C3.5173 15.8173 3.203 15.503 3.203 15.1154C3.203 14.7278 3.5173 14.4135 3.90493 14.4135C4.29255 14.4135 4.60685 14.7278 4.60685 15.1154Z" fill="black"/>
</svg>
