<svg width="26" height="26" viewBox="0 0 26 26" fill="none" xmlns="http://www.w3.org/2000/svg">
<circle cx="12.542" cy="12.89" r="12.5" fill="#F4F6F8"/>
<path d="M7.4375 11.3587C7.4375 11.5785 7.57809 11.7735 7.78648 11.8429L12.1379 13.2935L13.5883 17.6451C13.6579 17.8535 13.8529 17.994 14.0727 17.994C14.2924 17.994 14.4874 17.8534 14.557 17.6451L17.6194 8.45779C17.6804 8.27439 17.6327 8.07217 17.4959 7.93545C17.3592 7.79882 17.1574 7.75111 16.9736 7.81219L7.78656 10.8746C7.57809 10.9441 7.4375 11.1391 7.4375 11.3588L7.4375 11.3587ZM16.328 9.10323L14.0727 15.8696L12.9451 12.4863L9.56203 11.3586L16.328 9.10323Z" fill="black"/>
</svg>
