<svg id="Layer_1" data-name="Layer 1" xmlns="http://www.w3.org/2000/svg" viewBox="0 0 42.6 43"><path d="M5.1,0H37.5a5,5,0,0,1,5.1,5.2h0V37.8A5,5,0,0,1,37.5,43H5.1A5.1,5.1,0,0,1,0,37.8H0V5.2A5.1,5.1,0,0,1,5.1,0Z" transform="translate(0)" fill="#f4f6f8"/><path d="M19.9,5.2a6.6,6.6,0,0,0-5,4.7V14c0,1.6-.1,3.2-.2,4.8a18.7,18.7,0,0,0-.2,5.3l-.7.3c-2.7,1-3.1,1.3-3.8,2.2s-.8,1.2-.8,6.3,0,4.5.4,4.7,23,.2,23.3,0,.5,0,.5-4.6,0-5-.8-6.2-1.1-1.3-3.1-2.1-1.5-.5-1.4-.8a38.4,38.4,0,0,0-.2-5.9c-.2-1.3-.2-1.6.1-2a2,2,0,0,0-.1-1.7c-.1-.2-.1-.4-.1-1.7a9.5,9.5,0,0,0-.4-3,6.7,6.7,0,0,0-4.5-4.3,9.4,9.4,0,0,0-2.9-.1" transform="translate(0)" fill="#94eb94" stroke="#94eb94" fill-rule="evenodd"/><path d="M19.8,5.2a6.4,6.4,0,0,0-5,5.3,21.7,21.7,0,0,0-.1,3.6,32.6,32.6,0,0,1-.1,3.9,24.1,24.1,0,0,0-.2,6,5.4,5.4,0,0,0,3.1,3.8c.5.3.7.4,1,.2s.1-.2.1-1.9V24.3l1.1,1.1c1.5,1.6,1.4,1.6,3,0l1.1-1v1.7c0,1.9,0,2,.4,2a7.6,7.6,0,0,0,3-2.3c1-1.4,1.1-2.8.6-7.4-.2-1.7-.2-2,.1-2.5a1.9,1.9,0,0,0,0-1.5c-.2-.3-.2-.3-.2-2a7,7,0,0,0-.6-3.5,6.6,6.6,0,0,0-7.2-3.7m3.3,6.6a7.8,7.8,0,0,1-3.6,2.6h-.3v1.6a5,5,0,0,0,.2,2.1,4.7,4.7,0,0,0,2.8,2.9H23a5.1,5.1,0,0,0,2.3-2.3c.5-.9.5-1,.5-3.2v-2l-.5-.3a4,4,0,0,1-1.5-1.4c-.2-.6-.3-.6-.6-.1M12.2,25a4.3,4.3,0,0,0-2.7,2.3c-.4,1-.4,1-.4,5.7v4.2l.2.2.3.3H13v-3c0-3.7.1-3.4-1-3.4h-.7V29.6c0-1.9,0-2,.5-3A4.2,4.2,0,0,1,12.9,25c.2-.3.4-.4.3-.4l-1,.4m8.3,3.4a.6.6,0,0,0,.1.8.1.1,0,0,1,.1.1c.8.2,1.6-.3,1.1-.8a1.5,1.5,0,0,0-1.3,0m0,2.2a.9.9,0,0,0,0,.7c.1.1.2.2.7.2s.5,0,.6-.2a.5.5,0,0,0,0-.7h0a1.3,1.3,0,0,0-1.2,0m8.9.8c-.2.2-.2.3-.2,3.2v3H31c2.5,0,2.2.3,2.3-3.5V31.4H29.6v.2m-8.9,1.3a.4.4,0,0,0-.2.4c0,.4.2.5.8.5s1-.4.6-.8a.9.9,0,0,0-1.2,0m.1,2.1a.4.4,0,0,0-.2.7.1.1,0,0,0,.1.1,1.3,1.3,0,0,0,1.2,0,.5.5,0,0,0,0-.7,1.4,1.4,0,0,0-1.1-.1" transform="translate(0)" fill="#ffcebe" fill-rule="evenodd"/><path d="M20,5.2A6.3,6.3,0,0,0,14.9,10v4.2a30.8,30.8,0,0,1-.2,4.5,22.6,22.6,0,0,0-.1,5.2,5.8,5.8,0,0,0,3,3.8c.6.4.8.4,1,.2h.1V20.6l-.3-.2A4.5,4.5,0,0,1,16.7,18a7.1,7.1,0,0,1-.1-1.4c0-1.6,0-1.7,1-1.7a8.5,8.5,0,0,0,5.6-3.2c.4-.4.5-.4.7,0a2.8,2.8,0,0,0,2.2,1.7,2.2,2.2,0,0,1,1.3.4l.3.2V12.2a6.3,6.3,0,0,0-.6-3.5,6.6,6.6,0,0,0-4.4-3.4,5.7,5.7,0,0,0-2.6-.1m7.4,11.3a1.6,1.6,0,0,1-1.2.4c-.4,0-.4,0-.4.2a4.4,4.4,0,0,1-1.5,3l-.6.6v7.1h.1c.3.3.4.2,1.3-.3a5.9,5.9,0,0,0,2.7-3.5,16.2,16.2,0,0,0,0-4.4c0-.6-.1-1.3-.1-1.9a3.3,3.3,0,0,0-.2-1.2v-.1" transform="translate(0)" fill="#9c5c5c" stroke="#9c5c5c" fill-rule="evenodd"/><path d="M20.4,5.1a6.7,6.7,0,0,0-5.5,4.8,27,27,0,0,0-.2,4.1c0,2-.1,3.7-.1,4a29.1,29.1,0,0,0-.2,5.9,6,6,0,0,0,3,3.8c.8.5,1.1.4,1.1-.3V27l-.4-.3a5.6,5.6,0,0,1-1.4-2.5,18.5,18.5,0,0,1,0-4.7,3.8,3.8,0,0,0,0-1.5,4.7,4.7,0,0,1-.2-1.6V15.2h.2l.2-.2V12.8a12.3,12.3,0,0,1,.2-2.7,6.2,6.2,0,0,1,4.8-4.8h0a3.8,3.8,0,0,0-1.5,0" transform="translate(0)" fill="#845454" stroke="#845454" fill-rule="evenodd"/><path d="M19.3,14.5v3.2l.5,2.7,3,1.1.7-.7.4-.4,1-1.1.7-1.3V13.5s-1.2-.2-1.4-.8a2.9,2.9,0,0,0-1-1.2" transform="translate(0)" fill="#ffcebe" fill-rule="evenodd"/></svg>