<svg width="375" height="136" viewBox="0 0 375 136" fill="none" xmlns="http://www.w3.org/2000/svg">
<g clip-path="url(#clip0_1276_421)">
<g clip-path="url(#clip1_1276_421)">
<g opacity="0.7">
<path d="M78.6456 84.2081C78.7246 84.2562 78.7766 84.3392 78.7901 84.4326L81.0791 101.088C81.0954 101.201 81.0488 101.312 80.9592 101.383L67.6608 111.674C67.5713 111.744 67.4515 111.759 67.3456 111.717L51.7582 105.352C51.6551 105.311 51.5799 105.215 51.5636 105.102L49.2746 88.4469C49.2583 88.3344 49.3049 88.2225 49.3944 88.1522L62.6928 77.861C62.7824 77.7908 62.9022 77.7761 63.0061 77.8191L78.5935 84.1833C78.6144 84.191 78.6306 84.1982 78.6456 84.2081ZM80.4268 100.994L78.1878 84.7019L62.9402 78.476L49.9315 88.5417L52.1705 104.833L67.4181 111.059L80.4268 100.994Z" fill="url(#paint0_linear_1276_421)"/>
<path d="M80.3947 84.8264C80.4806 84.8808 80.5371 84.9755 80.5431 85.0785L81.4233 102.942C81.429 103.057 81.3736 103.163 81.2783 103.224L66.2304 112.897C66.1351 112.958 66.0142 112.965 65.9132 112.912L49.9851 104.721C49.884 104.668 49.8186 104.567 49.8136 104.455L48.9334 86.5911C48.9276 86.4769 48.9831 86.3705 49.0783 86.3093L64.1263 76.6363C64.2216 76.5751 64.3424 76.569 64.4435 76.622L80.3716 84.8129C80.3797 84.8165 80.3878 84.8201 80.3947 84.8264ZM80.7803 102.791L79.9179 85.2939L64.3144 77.2718L49.5733 86.7464L50.4357 104.243L66.0392 112.265L80.7803 102.791Z" fill="url(#paint1_linear_1276_421)"/>
<path d="M66.0715 75.4865L82.1924 85.6437C82.2871 85.7037 82.3442 85.8116 82.34 85.923L81.616 104.936C81.6125 105.049 81.5469 105.153 81.446 105.205L64.6018 114.063C64.5009 114.115 64.381 114.112 64.2855 114.05L48.1646 103.893C48.0699 103.833 48.0127 103.725 48.017 103.613L48.741 84.6003C48.7445 84.487 48.8101 84.3834 48.911 84.3312L65.7551 75.4736C65.8541 75.4222 65.9741 75.4254 66.0715 75.4865ZM81.6996 86.0815L65.8894 76.1208L49.3692 84.807L48.6593 103.454L64.4695 113.415L80.9897 104.728L81.6996 86.0815Z" fill="url(#paint2_linear_1276_421)"/>
<path d="M67.8779 74.4164C67.8868 74.4219 67.8929 74.4263 67.8998 74.4326L84.0434 86.6909C84.1326 86.7597 84.18 86.8714 84.1671 86.9838L81.6362 107.067C81.6214 107.18 81.5482 107.275 81.4443 107.32L62.7724 115.146C62.6685 115.19 62.5472 115.172 62.4588 115.105L46.3152 102.847C46.2261 102.778 46.1787 102.666 46.1915 102.554L48.7225 82.4706C48.7373 82.3574 48.8104 82.2621 48.9144 82.2177L67.5862 74.3918C67.6811 74.3531 67.7901 74.3628 67.8779 74.4164ZM83.5136 87.0847L67.6613 75.0483L49.3267 82.7313L46.8423 102.452L62.6927 114.489L81.0274 106.806L83.5136 87.0847Z" fill="url(#paint3_linear_1276_421)"/>
<path d="M69.8915 73.4508C69.9065 73.4607 69.9215 73.4706 69.936 73.4852L85.9075 87.9731C85.9903 88.0488 86.0279 88.1643 86.0031 88.2746L81.46 109.325C81.4359 109.437 81.3558 109.526 81.2454 109.56L60.7309 116.122C60.6232 116.157 60.5063 116.132 60.4207 116.056L44.4493 101.568C44.3665 101.492 44.3288 101.377 44.3537 101.266L48.8968 80.2157C48.9216 80.1054 49.001 80.0144 49.1113 79.981L69.6259 73.4184C69.7145 73.3866 69.8137 73.4 69.8915 73.4508ZM85.345 88.3168L69.6447 74.0741L49.4793 80.5251L45.0142 101.219L60.7138 115.459L80.8791 109.008L85.345 88.3168Z" fill="url(#paint4_linear_1276_421)"/>
<path d="M72.1138 72.6128C72.1369 72.6263 72.1576 72.6453 72.1771 72.6669L87.7592 89.5014C87.8357 89.584 87.8628 89.7013 87.8287 89.8107L81.0617 111.697C81.0275 111.807 80.9398 111.887 80.8284 111.912L58.4792 116.964C58.3678 116.989 58.2537 116.955 58.1764 116.87L42.5943 100.035C42.5178 99.9529 42.4907 99.8356 42.5248 99.7262L49.2918 77.8397C49.326 77.7302 49.4137 77.6495 49.5252 77.6246L71.8743 72.5726C71.9588 72.5536 72.0449 72.5676 72.1138 72.6128ZM87.1686 89.7954L71.8356 73.2303L49.8437 78.2033L43.1849 99.7415L58.5179 116.307L80.5098 111.334L87.1686 89.7954Z" fill="url(#paint5_linear_1276_421)"/>
<path d="M74.5491 71.9308C74.5792 71.9506 74.6068 71.9759 74.6312 72.0045L89.5837 91.2892C89.6539 91.3787 89.6686 91.4985 89.6263 91.6043L80.4239 114.173C80.3817 114.279 80.2843 114.352 80.1738 114.367L56.0208 117.651C55.9076 117.665 55.7964 117.62 55.7281 117.53L40.7756 98.2456C40.7054 98.1561 40.6908 98.0363 40.733 97.9304L49.9355 75.3618C49.9777 75.256 50.0751 75.1828 50.1856 75.1673L74.3385 71.884C74.4109 71.8741 74.4872 71.8919 74.5491 71.9308ZM88.9678 91.5346L74.24 72.5377L50.4509 75.7709L41.3869 97.9996L56.1147 116.997L79.9057 113.763L88.9678 91.5346Z" fill="url(#paint6_linear_1276_421)"/>
<path d="M77.1917 71.4333C77.2298 71.4568 77.2631 71.491 77.2894 71.5302L91.3469 93.3556C91.4081 93.4508 91.4142 93.5717 91.363 93.6719L79.5197 116.737C79.4686 116.838 79.3663 116.904 79.252 116.909L53.3511 118.149C53.2388 118.154 53.1305 118.1 53.0693 118.005L39.0118 96.1792C38.9506 96.084 38.9445 95.9631 38.9956 95.8629L50.8409 72.7968C50.892 72.6965 50.9943 72.6304 51.1086 72.6245L77.0095 71.3846C77.0736 71.3824 77.1366 71.4007 77.1917 71.4333ZM90.7139 93.5449L76.8556 72.0283L51.3201 73.2511L39.6428 95.9906L53.5011 117.507L79.0366 116.284L90.7139 93.5449Z" fill="url(#paint7_linear_1276_421)"/>
<path d="M80.0396 71.153C80.0866 71.182 80.1248 71.2233 80.1509 71.2737L93.0231 95.7066C93.0753 95.8075 93.0721 95.9274 93.0102 96.0229L78.3195 119.369C78.2603 119.465 78.1516 119.52 78.0382 119.517L50.4734 118.43C50.36 118.427 50.2584 118.361 50.205 118.262L37.3328 93.8296C37.2806 93.7287 37.2838 93.6087 37.3458 93.5133L52.0384 70.1669C52.0995 70.0695 52.2063 70.015 52.3197 70.0185L79.8845 71.105C79.9389 71.1065 79.9926 71.124 80.0396 71.153ZM92.3758 95.8409L79.673 71.7327L52.4742 70.6602L37.9782 93.696L50.681 117.804L77.8797 118.877L92.3758 95.8409Z" fill="url(#paint8_linear_1276_421)"/>
<path d="M83.0814 71.118C83.1353 71.1533 83.1785 71.2017 83.2044 71.2634L94.5804 98.3515C94.6248 98.4554 94.6083 98.5759 94.5403 98.667L76.8053 122.048C76.7373 122.139 76.6248 122.185 76.5123 122.172L47.4014 118.465C47.2882 118.451 47.1929 118.377 47.1486 118.273L35.7726 91.1854C35.7282 91.0815 35.7447 90.961 35.8128 90.8699L53.5477 67.4886C53.6158 67.3975 53.7283 67.352 53.8407 67.3648L82.9516 71.0716C82.9989 71.0781 83.0433 71.0946 83.0814 71.118ZM93.9245 98.4286L82.6895 71.6784L53.9415 68.0182L36.4278 91.1063L47.6628 117.857L76.4108 121.517L93.9245 98.4286Z" fill="url(#paint9_linear_1276_421)"/>
<path d="M86.31 71.3653C86.372 71.4042 86.4197 71.4642 86.4428 71.536L95.9871 101.298C96.0217 101.406 95.9952 101.524 95.9202 101.608L74.9569 124.745C74.8812 124.827 74.7657 124.865 74.6534 124.841L44.1459 118.215C44.0364 118.192 43.9466 118.11 43.912 118.002L34.3678 88.2398C34.3331 88.1321 34.3596 88.0144 34.4346 87.9296L55.3986 64.7955C55.4744 64.7127 55.5898 64.6751 55.7021 64.6992L86.2096 71.3254C86.243 71.3306 86.2781 71.3462 86.31 71.3653ZM95.3266 101.317L85.894 71.9035L55.7454 65.3544L35.0287 88.2166L44.4613 117.63L74.6099 124.179L95.3266 101.317Z" fill="url(#paint10_linear_1276_421)"/>
<path d="M89.7078 71.9239C89.7787 71.9684 89.8282 72.039 89.8484 72.1208L97.2018 104.55C97.2266 104.661 97.192 104.775 97.1074 104.852L72.7455 127.428C72.6629 127.504 72.5436 127.532 72.4361 127.497L40.7196 117.647C40.6121 117.612 40.5295 117.525 40.5046 117.413L33.15 84.9872C33.1252 84.8758 33.1598 84.7617 33.2444 84.6845L57.6063 62.109C57.6889 62.0325 57.8082 62.0046 57.9157 62.0395L89.6322 71.8903C89.6577 71.8984 89.6847 71.9104 89.7078 71.9239ZM96.544 104.511L89.2703 72.4413L57.9041 62.6979L33.8117 85.0243L41.0854 117.094L72.4516 126.838L96.544 104.511Z" fill="url(#paint11_linear_1276_421)"/>
<path d="M93.2572 72.8326C93.3369 72.8826 93.3901 72.963 93.4024 73.059L98.19 108.106C98.2063 108.218 98.1597 108.33 98.0701 108.401L70.1602 130.067C70.0706 130.138 69.9508 130.152 69.845 130.11L37.1474 116.73C37.0435 116.687 36.9691 116.592 36.9528 116.48L32.1652 81.433C32.1489 81.3206 32.1955 81.2086 32.285 81.1384L60.195 59.4716C60.2845 59.4014 60.4044 59.3867 60.5102 59.4289L93.2078 72.809C93.2259 72.8155 93.2421 72.8227 93.2572 72.8326ZM97.5369 108.01L92.7986 73.3245L60.4389 60.0834L32.8187 81.5247L37.557 116.21L69.9167 129.451L97.5369 108.01Z" fill="url(#paint12_linear_1276_421)"/>
<path d="M96.9346 74.124C97.0204 74.1783 97.077 74.2731 97.0829 74.3761L98.9074 111.963C98.9124 112.075 98.8577 112.183 98.7625 112.245L67.1735 132.621C67.0783 132.682 66.9574 132.688 66.8564 132.635L33.4456 115.426C33.3473 115.374 33.2792 115.272 33.2742 115.16L31.4497 77.5735C31.4447 77.4612 31.4994 77.3528 31.5946 77.2916L63.1816 56.9162C63.2769 56.855 63.3977 56.8489 63.4987 56.9019L96.9103 74.1131C96.9203 74.116 96.9284 74.1196 96.9346 74.124ZM98.2644 111.811L96.4597 74.5908L63.3728 57.5482L32.0927 77.7252L33.8974 114.945L66.9823 131.989L98.2644 111.811Z" fill="url(#paint13_linear_1276_421)"/>
<path d="M66.8998 54.4958L100.713 75.833C100.807 75.8929 100.865 76.0009 100.861 76.1142L99.3078 116.118C99.3043 116.231 99.238 116.333 99.1398 116.386L63.7728 135.051C63.6719 135.103 63.5519 135.1 63.4565 135.038L29.6435 113.701C29.5488 113.641 29.4917 113.533 29.4952 113.419L31.0485 73.4157C31.052 73.3024 31.1183 73.2008 31.2165 73.1474L66.5808 54.4817C66.6825 54.4315 66.8032 54.4366 66.8998 54.4958ZM100.219 76.2735L66.7158 55.1309L31.6755 73.6251L30.1363 113.263L63.6393 134.405L98.6795 115.911L100.219 76.2735Z" fill="url(#paint14_linear_1276_421)"/>
<path d="M70.7046 52.2491C70.7134 52.2547 70.7196 52.259 70.7265 52.2653L104.58 78.0146C104.669 78.0834 104.717 78.1951 104.704 78.3076L99.3477 120.56C99.3329 120.673 99.2597 120.768 99.1558 120.813L59.9457 137.316C59.8417 137.36 59.7177 137.34 59.6301 137.276L25.777 111.528C25.6859 111.46 25.6405 111.348 25.6533 111.235L31.0096 68.983C31.0244 68.8698 31.0976 68.7745 31.2015 68.7302L70.4116 52.2272C70.507 52.1839 70.616 52.1935 70.7046 52.2491ZM104.05 78.4065L70.4879 52.881L31.6158 69.243L26.3053 111.13L59.8679 136.658L98.7408 120.298L104.05 78.4065Z" fill="url(#paint15_linear_1276_421)"/>
<path d="M74.9416 50.2185C74.9566 50.2284 74.9724 50.2402 74.9862 50.2529L108.476 80.6794C108.559 80.7551 108.597 80.8705 108.572 80.9808L98.9764 125.262C98.9516 125.372 98.8715 125.461 98.7638 125.496L55.6808 139.351C55.5731 139.386 55.4562 139.361 55.3707 139.285L21.8805 108.858C21.7977 108.782 21.7601 108.667 21.7849 108.557L31.3785 64.2764C31.4033 64.1661 31.4834 64.0771 31.5911 64.0425L74.6741 50.1868C74.7654 50.1562 74.8619 50.1684 74.9416 50.2185ZM107.912 81.0238L74.6936 50.8445L31.959 64.5865L22.4415 108.51L55.6598 138.69L98.3943 124.948L107.912 81.0238Z" fill="url(#paint16_linear_1276_421)"/>
<path d="M79.6219 48.4599C79.6458 48.4754 79.6657 48.4923 79.6852 48.514L112.355 83.8646C112.432 83.9472 112.459 84.0644 112.425 84.1738L98.1497 130.211C98.1175 130.32 98.0278 130.402 97.9163 130.426L50.9743 141.117C50.8629 141.141 50.748 141.105 50.6715 141.022L18.0013 105.672C17.9248 105.589 17.8977 105.472 17.9318 105.362L32.2063 59.3229C32.2385 59.2142 32.3282 59.1327 32.4397 59.1079L79.3817 48.4178C79.4643 48.3995 79.551 48.4154 79.6219 48.4599ZM111.765 84.1585L79.3437 49.0773L32.7582 59.6866L18.5919 105.378L51.013 140.459L97.5985 129.85L111.765 84.1585Z" fill="url(#paint17_linear_1276_421)"/>
<path d="M84.7443 47.0301C84.7743 47.0499 84.8039 47.0744 84.8264 47.1039L116.169 87.596C116.237 87.6862 116.254 87.8053 116.211 87.9092L96.8154 135.38C96.7724 135.484 96.6778 135.558 96.5653 135.574L45.8251 142.551C45.7126 142.568 45.6006 142.521 45.5304 142.432L14.1881 101.939C14.1198 101.849 14.1033 101.73 14.1463 101.626L33.5414 54.1558C33.5844 54.0519 33.6791 53.9775 33.7916 53.9612L84.5318 46.9841C84.6061 46.9734 84.6823 46.9912 84.7443 47.0301ZM115.555 87.8407L84.4352 47.637L34.0589 54.5641L14.8001 101.696L45.9197 141.899L96.296 134.972L115.555 87.8407Z" fill="url(#paint18_linear_1276_421)"/>
<path d="M90.3074 45.9897C90.3455 46.0131 90.3789 46.0473 90.4051 46.0865L119.866 91.906C119.927 92.0012 119.933 92.122 119.882 92.2223L94.9223 140.732C94.8712 140.832 94.7689 140.898 94.6566 140.903L40.2361 143.594C40.1238 143.599 40.0154 143.544 39.9542 143.449L10.4916 97.6303C10.4304 97.5351 10.4243 97.4142 10.4754 97.314L35.4331 48.805C35.4843 48.7047 35.5865 48.6386 35.6989 48.6335L90.1193 45.9432C90.1866 45.9375 90.2516 45.9551 90.3074 45.9897ZM119.233 92.0953L89.9693 46.5853L35.9154 49.2559L11.1245 97.441L40.388 142.951L94.4412 140.278L119.233 92.0953Z" fill="url(#paint19_linear_1276_421)"/>
<path d="M96.2953 45.4032C96.3423 45.4322 96.3805 45.4735 96.4066 45.5239L123.38 96.8137C123.432 96.9146 123.429 97.0346 123.367 97.13L92.4186 146.228C92.3586 146.323 92.2506 146.38 92.1372 146.377L34.215 144.183C34.1009 144.178 33.9981 144.114 33.9459 144.013L6.97271 92.7233C6.92053 92.6224 6.92571 92.5017 6.98568 92.407L37.934 43.3088C37.9939 43.2141 38.1019 43.1569 38.2153 43.1605L96.1375 45.354C96.1946 45.3568 96.2483 45.3742 96.2953 45.4032ZM122.734 96.9473L95.9326 45.9814L38.3764 43.8018L7.62279 92.5901L34.4246 143.556L91.98 145.734L122.734 96.9473Z" fill="url(#paint20_linear_1276_421)"/>
<path d="M102.699 45.3342C102.753 45.3695 102.797 45.4198 102.822 45.4796L126.651 102.337C126.695 102.441 126.679 102.562 126.61 102.651L89.2579 151.816C89.1899 151.907 89.0774 151.953 88.9649 151.94L27.786 144.246C27.6728 144.232 27.5775 144.159 27.5332 144.055L3.70446 87.1968C3.66009 87.0929 3.67653 86.9723 3.7446 86.8812L41.0967 37.7161C41.1648 37.625 41.2773 37.5795 41.3898 37.5923L102.569 45.2858C102.617 45.2942 102.661 45.3108 102.699 45.3342ZM125.995 102.415L102.307 45.8946L41.4913 38.2477L4.36111 87.1216L28.0489 143.642L88.8649 151.289L125.995 102.415Z" fill="url(#paint21_linear_1276_421)"/>
<path d="M109.491 45.8573C109.553 45.8962 109.601 45.9563 109.624 46.0281L129.605 108.496C129.64 108.603 129.613 108.721 129.538 108.806L85.3945 157.448C85.3188 157.531 85.2033 157.568 85.0937 157.545L20.9688 143.72C20.8585 143.695 20.7675 143.616 20.7341 143.505L0.753078 81.0378C0.718462 80.9302 0.744965 80.8125 0.819943 80.7277L44.9638 32.0857C45.0396 32.0028 45.155 31.9652 45.2646 31.9881L109.388 45.8163C109.425 45.8246 109.46 45.8382 109.491 45.8573ZM128.944 108.517L109.074 46.3983L45.3102 32.6492L1.41359 81.0194L21.283 143.138L85.049 156.886L128.944 108.517Z" fill="url(#paint22_linear_1276_421)"/>
<path d="M116.639 47.0409C116.71 47.0853 116.76 47.1559 116.781 47.2397L132.162 115.294C132.186 115.406 132.15 115.521 132.067 115.597L80.7749 163.056C80.6923 163.132 80.575 163.159 80.4656 163.125L13.7923 142.529C13.6856 142.496 13.6022 142.407 13.5773 142.296L-1.80368 74.241C-1.82854 74.1296 -1.79198 74.0148 -1.70935 73.9383L49.5829 26.4797C49.6656 26.4032 49.7828 26.3761 49.8923 26.4102L116.566 47.0065C116.591 47.0146 116.616 47.0274 116.639 47.0409ZM131.501 115.255L116.202 47.5583L49.8788 27.0694L-1.1459 74.2796L14.1535 141.976L80.4764 162.465L131.501 115.255Z" fill="url(#paint23_linear_1276_421)"/>
<path d="M124.105 48.958C124.184 49.008 124.238 49.0884 124.25 49.1845L134.238 122.734C134.255 122.847 134.208 122.959 134.118 123.027L75.3595 168.568C75.27 168.639 75.1502 168.653 75.0444 168.611L6.29972 140.602C6.19389 140.56 6.12068 140.462 6.10514 140.352L-3.88324 66.8018C-3.89953 66.6894 -3.85291 66.5774 -3.76263 66.5092L54.9956 20.9678C55.0851 20.8975 55.2049 20.8829 55.3088 20.9259L124.057 48.9317C124.074 48.9409 124.09 48.9481 124.105 48.958ZM133.587 122.637L123.646 49.4499L55.2375 21.5804L-3.2321 66.899L6.7089 140.086L75.1176 167.956L133.587 122.637Z" fill="url(#paint24_linear_1276_421)"/>
<path d="M131.842 51.6831C131.93 51.7367 131.984 51.8322 131.988 51.9359L135.754 130.809C135.759 130.921 135.704 131.03 135.609 131.091L69.1157 173.909C69.0205 173.971 68.8996 173.977 68.7993 173.926L-1.46056 137.869C-1.56083 137.818 -1.62698 137.715 -1.63277 137.601L-5.39861 58.7278C-5.4044 58.6135 -5.34892 58.5071 -5.25369 58.4459L61.2396 15.6276C61.3348 15.5664 61.4557 15.5603 61.556 15.6114L131.816 51.6683C131.827 51.6731 131.835 51.6768 131.842 51.6831ZM135.113 130.657L131.364 52.1487L61.4308 16.2597L-4.75562 58.8795L-1.00681 137.388L68.9265 173.277L135.113 130.657Z" fill="url(#paint25_linear_1276_421)"/>
<path d="M139.787 55.2862C139.882 55.3462 139.939 55.4541 139.935 55.5675L136.611 139.506C136.608 139.619 136.541 139.721 136.443 139.774L62.0044 178.989C61.9035 179.042 61.7828 179.036 61.6881 178.977L-9.42979 134.25C-9.52449 134.19 -9.58163 134.082 -9.57811 133.969L-6.2539 50.0303C-6.25037 49.9169 -6.18408 49.8153 -6.08585 49.762L68.3528 10.5468C68.4537 10.4946 68.5737 10.4978 68.6692 10.5597L139.787 55.2862ZM135.985 139.298L139.295 55.726L68.489 11.1933L-5.62566 50.237L-8.93507 133.811L61.8702 178.342L135.985 139.298Z" fill="url(#paint26_linear_1276_421)"/>
<path d="M76.6539 5.84937C76.662 5.85298 76.6689 5.85928 76.6758 5.86559L147.893 59.8577C147.984 59.9258 148.029 60.0382 148.016 60.1507L136.709 148.801C136.694 148.914 136.621 149.009 136.517 149.054L53.993 183.711C53.8891 183.756 53.7712 183.741 53.6774 183.671L-17.5374 129.678C-17.6285 129.61 -17.6739 129.498 -17.6611 129.385L-6.35378 40.7355C-6.33899 40.6223 -6.26582 40.527 -6.16188 40.4826L76.3622 5.82477C76.459 5.78533 76.568 5.79499 76.6539 5.84937ZM147.365 60.2508L76.4392 6.48052L-5.7469 40.9974L-17.0095 129.285L53.916 183.056L136.102 148.539L147.365 60.2508Z" fill="url(#paint27_linear_1276_421)"/>
<path d="M85.5492 1.5958C85.5642 1.60572 85.5792 1.61563 85.593 1.62825L156.06 65.4518C156.144 65.5267 156.18 65.6429 156.158 65.7544L135.953 158.659C135.928 158.769 135.848 158.858 135.74 158.893L45.0703 187.973C44.9626 188.007 44.8429 187.982 44.7601 187.906L-25.7057 124.084C-25.7905 124.009 -25.8261 123.893 -25.804 123.782L-5.59876 30.8774C-5.57391 30.7671 -5.49383 30.6781 -5.38615 30.6435L85.2836 1.56341C85.3749 1.53282 85.4722 1.54698 85.5492 1.5958ZM155.499 65.7993L85.3039 2.22304L-5.01864 31.1922L-25.1446 123.737L45.05 187.313L135.373 158.344L155.499 65.7993Z" fill="url(#paint28_linear_1276_421)"/>
<path d="M95.3744 -2.08732C95.3975 -2.0738 95.4182 -2.05488 95.437 -2.0352L164.196 72.1373C164.273 72.2199 164.3 72.3391 164.266 72.4465L134.239 169.033C134.205 169.142 134.117 169.223 134.006 169.248L35.2182 191.662C35.1068 191.687 34.992 191.65 34.9154 191.568L-33.8421 117.399C-33.9186 117.316 -33.9465 117.197 -33.9116 117.09L-3.88314 20.503C-3.85094 20.3943 -3.76125 20.3128 -3.64982 20.2879L95.1377 -2.12631C95.2176 -2.14579 95.3036 -2.13179 95.3744 -2.08732ZM163.607 72.4351L95.097 -1.46791L-3.33128 20.8666L-33.253 117.101L35.2569 191.004L133.685 168.67L163.607 72.4351Z" fill="url(#paint29_linear_1276_421)"/>
<path d="M106.126 -5.07814C106.156 -5.05831 106.186 -5.03382 106.208 -5.00439L172.198 79.9765C172.268 80.066 172.284 80.1851 172.24 80.2916L131.461 179.871C131.417 179.975 131.323 180.049 131.21 180.066L24.4402 194.66C24.327 194.675 24.2157 194.63 24.1475 194.54L-41.8436 109.56C-41.9138 109.47 -41.9285 109.35 -41.8862 109.245L-1.10586 9.66704C-1.06285 9.56318 -0.968215 9.48876 -0.855744 9.47245L105.914 -5.12417C105.988 -5.13479 106.064 -5.11705 106.126 -5.07814ZM171.583 80.2193L105.817 -4.4712L-0.587664 10.0772L-41.2289 109.317L24.5367 194.007L130.944 179.458L171.583 80.2193Z" fill="url(#paint30_linear_1276_421)"/>
<path d="M117.798 -7.25248C117.837 -7.22905 117.87 -7.19481 117.896 -7.15561L179.95 89.0231C180.011 89.1183 180.017 89.2391 179.966 89.3394L127.515 191.091C127.464 191.192 127.362 191.258 127.25 191.263L12.7433 196.837C12.631 196.842 12.5226 196.787 12.4614 196.692L-49.5922 100.513C-49.6534 100.418 -49.6595 100.297 -49.6084 100.197L2.84344 -1.55774C2.89456 -1.65799 2.99685 -1.72415 3.10917 -1.7292L117.613 -7.30241C117.68 -7.30343 117.745 -7.28779 117.798 -7.25248ZM179.317 89.2124L117.462 -6.65953L3.32453 -1.10416L-48.9592 100.324L12.896 196.196L127.035 190.64L179.317 89.2124Z" fill="url(#paint31_linear_1276_421)"/>
<path d="M130.368 -8.47583C130.415 -8.44684 130.453 -8.40554 130.48 -8.35508L187.322 99.3276C187.376 99.4278 187.371 99.5485 187.31 99.6459L122.288 202.621C122.228 202.716 122.12 202.773 122.009 202.769L0.144243 198.059C0.0308834 198.056 -0.0707269 197.99 -0.124117 197.891L-56.9665 90.2087C-57.0206 90.1085 -57.0154 89.9879 -56.9542 89.8905L8.06726 -13.0848C8.12723 -13.1795 8.23521 -13.2367 8.34857 -13.2332L130.212 -8.52574C130.268 -8.52226 130.321 -8.50483 130.368 -8.47583ZM186.675 99.462L130.004 -7.89684L8.50582 -12.5903L-56.3191 90.0743L0.351846 197.433L121.85 202.127L186.675 99.462Z" fill="url(#paint32_linear_1276_421)"/>
</g>
</g>
<g clip-path="url(#clip2_1276_421)">
<g opacity="0.7">
<path d="M279.325 86.2081C279.246 86.2562 279.194 86.3392 279.181 86.4326L276.892 103.088C276.875 103.201 276.922 103.312 277.011 103.383L290.31 113.674C290.399 113.744 290.519 113.759 290.625 113.717L306.213 107.352C306.316 107.311 306.391 107.215 306.407 107.102L308.696 90.4469C308.712 90.3344 308.666 90.2225 308.576 90.1522L295.278 79.861C295.188 79.7908 295.069 79.7761 294.965 79.8191L279.377 86.1833C279.356 86.191 279.34 86.1982 279.325 86.2081ZM277.544 102.994L279.783 86.7019L295.031 80.476L308.039 90.5417L305.8 106.833L290.553 113.059L277.544 102.994Z" fill="url(#paint33_linear_1276_421)"/>
<path d="M277.576 86.8264C277.49 86.8808 277.434 86.9755 277.428 87.0785L276.547 104.942C276.542 105.057 276.597 105.163 276.692 105.224L291.74 114.897C291.836 114.958 291.956 114.965 292.057 114.912L307.986 106.721C308.087 106.668 308.152 106.567 308.157 106.455L309.037 88.5911C309.043 88.4769 308.988 88.3705 308.892 88.3093L293.844 78.6363C293.749 78.5751 293.628 78.569 293.527 78.622L277.599 86.8129C277.591 86.8165 277.583 86.8201 277.576 86.8264ZM277.19 104.791L278.053 87.2939L293.656 79.2718L308.397 88.7464L307.535 106.243L291.932 114.265L277.19 104.791Z" fill="url(#paint34_linear_1276_421)"/>
<path d="M291.899 77.4865L275.778 87.6437C275.684 87.7037 275.626 87.8116 275.631 87.923L276.355 106.936C276.358 107.049 276.424 107.153 276.525 107.205L293.369 116.063C293.47 116.115 293.59 116.112 293.685 116.05L309.806 105.893C309.901 105.833 309.958 105.725 309.954 105.613L309.23 86.6003C309.226 86.487 309.161 86.3834 309.06 86.3312L292.216 77.4736C292.117 77.4222 291.997 77.4254 291.899 77.4865ZM276.271 88.0815L292.081 78.1208L308.601 86.807L309.311 105.454L293.501 115.415L276.981 106.728L276.271 88.0815Z" fill="url(#paint35_linear_1276_421)"/>
<path d="M290.093 76.4164C290.084 76.4219 290.078 76.4263 290.071 76.4326L273.927 88.6909C273.838 88.7597 273.791 88.8714 273.804 88.9838L276.335 109.067C276.349 109.18 276.422 109.275 276.526 109.32L295.198 117.146C295.302 117.19 295.423 117.172 295.512 117.105L311.655 104.847C311.745 104.778 311.792 104.666 311.779 104.554L309.248 84.4706C309.233 84.3574 309.16 84.2621 309.056 84.2177L290.384 76.3918C290.29 76.3531 290.181 76.3628 290.093 76.4164ZM274.457 89.0847L290.309 77.0483L308.644 84.7313L311.128 104.452L295.278 116.489L276.943 108.806L274.457 89.0847Z" fill="url(#paint36_linear_1276_421)"/>
<path d="M288.079 75.4508C288.064 75.4607 288.049 75.4706 288.035 75.4852L272.063 89.9731C271.98 90.0488 271.943 90.1643 271.968 90.2746L276.511 111.325C276.535 111.437 276.615 111.526 276.725 111.56L297.24 118.122C297.347 118.157 297.464 118.132 297.55 118.056L313.521 103.568C313.604 103.492 313.642 103.377 313.617 103.266L309.074 82.2157C309.049 82.1054 308.97 82.0144 308.859 81.981L288.345 75.4184C288.256 75.3866 288.157 75.4 288.079 75.4508ZM272.626 90.3168L288.326 76.0741L308.491 82.5251L312.956 103.219L297.257 117.459L277.092 111.008L272.626 90.3168Z" fill="url(#paint37_linear_1276_421)"/>
<path d="M285.857 74.6128C285.834 74.6263 285.813 74.6453 285.794 74.6669L270.211 91.5014C270.135 91.584 270.108 91.7013 270.142 91.8107L276.909 113.697C276.943 113.807 277.031 113.887 277.142 113.912L299.491 118.964C299.603 118.989 299.717 118.955 299.794 118.87L315.376 102.035C315.453 101.953 315.48 101.836 315.446 101.726L308.679 79.8397C308.645 79.7302 308.557 79.6495 308.446 79.6246L286.096 74.5726C286.012 74.5536 285.926 74.5676 285.857 74.6128ZM270.802 91.7954L286.135 75.2303L308.127 80.2033L314.786 101.742L299.453 118.307L277.461 113.334L270.802 91.7954Z" fill="url(#paint38_linear_1276_421)"/>
<path d="M283.422 73.9308C283.392 73.9506 283.364 73.9759 283.339 74.0045L268.387 93.2892C268.317 93.3787 268.302 93.4985 268.344 93.6043L277.547 116.173C277.589 116.279 277.686 116.352 277.797 116.367L301.95 119.651C302.063 119.665 302.174 119.62 302.243 119.53L317.195 100.246C317.265 100.156 317.28 100.036 317.238 99.9304L308.035 77.3618C307.993 77.256 307.896 77.1828 307.785 77.1673L283.632 73.884C283.56 73.8741 283.484 73.8919 283.422 73.9308ZM269.003 93.5346L283.731 74.5377L307.52 77.7709L316.584 99.9996L301.856 118.997L278.065 115.763L269.003 93.5346Z" fill="url(#paint39_linear_1276_421)"/>
<path d="M280.779 73.4333C280.741 73.4568 280.708 73.491 280.681 73.5302L266.624 95.3556C266.563 95.4508 266.557 95.5717 266.608 95.6719L278.451 118.737C278.502 118.838 278.604 118.904 278.719 118.909L304.62 120.149C304.732 120.154 304.84 120.1 304.901 120.005L318.959 98.1792C319.02 98.084 319.026 97.9631 318.975 97.8629L307.13 74.7968C307.079 74.6965 306.976 74.6304 306.862 74.6245L280.961 73.3846C280.897 73.3824 280.834 73.4007 280.779 73.4333ZM267.257 95.5449L281.115 74.0283L306.651 75.2511L318.328 97.9906L304.47 119.507L278.934 118.284L267.257 95.5449Z" fill="url(#paint40_linear_1276_421)"/>
<path d="M277.931 73.153C277.884 73.182 277.846 73.2233 277.82 73.2737L264.948 97.7066C264.895 97.8075 264.899 97.9274 264.961 98.0229L279.651 121.369C279.71 121.465 279.819 121.52 279.933 121.517L307.497 120.43C307.611 120.427 307.712 120.361 307.766 120.262L320.638 95.8296C320.69 95.7287 320.687 95.6087 320.625 95.5133L305.932 72.1669C305.871 72.0695 305.764 72.015 305.651 72.0185L278.086 73.105C278.032 73.1065 277.978 73.124 277.931 73.153ZM265.595 97.8409L278.298 73.7327L305.496 72.6602L319.992 95.696L307.29 119.804L280.091 120.877L265.595 97.8409Z" fill="url(#paint41_linear_1276_421)"/>
<path d="M274.889 73.118C274.835 73.1533 274.792 73.2017 274.766 73.2634L263.39 100.351C263.346 100.455 263.362 100.576 263.43 100.667L281.165 124.048C281.233 124.139 281.346 124.185 281.458 124.172L310.569 120.465C310.682 120.451 310.778 120.377 310.822 120.273L322.198 93.1854C322.242 93.0815 322.226 92.961 322.158 92.8699L304.423 69.4886C304.355 69.3975 304.242 69.352 304.13 69.3648L275.019 73.0716C274.972 73.0781 274.927 73.0946 274.889 73.118ZM264.046 100.429L275.281 73.6784L304.029 70.0182L321.543 93.1063L310.308 119.857L281.56 123.517L264.046 100.429Z" fill="url(#paint42_linear_1276_421)"/>
<path d="M271.661 73.3653C271.599 73.4042 271.551 73.4642 271.528 73.536L261.984 103.298C261.949 103.406 261.976 103.524 262.051 103.608L283.014 126.745C283.089 126.827 283.205 126.865 283.317 126.841L313.825 120.215C313.934 120.192 314.024 120.11 314.059 120.002L323.603 90.2398C323.638 90.1321 323.611 90.0144 323.536 89.9296L302.572 66.7955C302.496 66.7127 302.381 66.6751 302.269 66.6992L271.761 73.3254C271.728 73.3306 271.693 73.3462 271.661 73.3653ZM262.644 103.317L272.077 73.9035L302.225 67.3544L322.942 90.2166L313.509 119.63L283.361 126.179L262.644 103.317Z" fill="url(#paint43_linear_1276_421)"/>
<path d="M268.263 73.9239C268.192 73.9684 268.143 74.039 268.122 74.1208L260.769 106.55C260.744 106.661 260.779 106.775 260.863 106.852L285.225 129.428C285.308 129.504 285.427 129.532 285.535 129.497L317.251 119.647C317.359 119.612 317.441 119.525 317.466 119.413L324.821 86.9872C324.846 86.8758 324.811 86.7617 324.726 86.6845L300.364 64.109C300.282 64.0325 300.163 64.0046 300.055 64.0395L268.339 73.8903C268.313 73.8984 268.286 73.9104 268.263 73.9239ZM261.427 106.511L268.7 74.4413L300.067 64.6979L324.159 87.0243L316.885 119.094L285.519 128.838L261.427 106.511Z" fill="url(#paint44_linear_1276_421)"/>
<path d="M264.714 74.8326C264.634 74.8826 264.581 74.963 264.568 75.059L259.781 110.106C259.764 110.218 259.811 110.33 259.901 110.401L287.811 132.067C287.9 132.138 288.02 132.152 288.126 132.11L320.823 118.73C320.927 118.687 321.002 118.592 321.018 118.48L325.806 83.433C325.822 83.3206 325.775 83.2086 325.686 83.1384L297.776 61.4716C297.686 61.4014 297.566 61.3867 297.461 61.4289L264.763 74.809C264.745 74.8155 264.729 74.8227 264.714 74.8326ZM260.434 110.01L265.172 75.3245L297.532 62.0834L325.152 83.5247L320.414 118.21L288.054 131.451L260.434 110.01Z" fill="url(#paint45_linear_1276_421)"/>
<path d="M261.036 76.124C260.95 76.1783 260.894 76.2731 260.888 76.3761L259.063 113.963C259.058 114.075 259.113 114.183 259.208 114.245L290.797 134.621C290.892 134.682 291.013 134.688 291.114 134.635L324.525 117.426C324.623 117.374 324.691 117.272 324.697 117.16L326.521 79.5735C326.526 79.4612 326.471 79.3528 326.376 79.2916L294.789 58.9162C294.694 58.855 294.573 58.8489 294.472 58.9019L261.06 76.1131C261.05 76.116 261.042 76.1196 261.036 76.124ZM259.706 113.811L261.511 76.5908L294.598 59.5482L325.878 79.7252L324.073 116.945L290.988 133.989L259.706 113.811Z" fill="url(#paint46_linear_1276_421)"/>
<path d="M291.071 56.4958L257.258 77.833C257.163 77.8929 257.106 78.0009 257.11 78.1142L258.663 118.118C258.666 118.231 258.733 118.333 258.831 118.386L294.198 137.051C294.299 137.103 294.419 137.1 294.514 137.038L328.327 115.701C328.422 115.641 328.479 115.533 328.475 115.419L326.922 75.4157C326.919 75.3024 326.852 75.2008 326.754 75.1474L291.39 56.4817C291.288 56.4315 291.168 56.4366 291.071 56.4958ZM257.752 78.2735L291.255 57.1309L326.295 75.6251L327.834 115.263L294.331 136.405L259.291 117.911L257.752 78.2735Z" fill="url(#paint47_linear_1276_421)"/>
<path d="M287.266 54.2491C287.257 54.2547 287.251 54.259 287.244 54.2653L253.39 80.0146C253.301 80.0834 253.254 80.1951 253.267 80.3076L258.623 122.56C258.638 122.673 258.711 122.768 258.815 122.813L298.025 139.316C298.129 139.36 298.253 139.34 298.341 139.276L332.194 113.528C332.285 113.46 332.33 113.348 332.317 113.235L326.961 70.983C326.946 70.8698 326.873 70.7745 326.769 70.7302L287.559 54.2272C287.464 54.1839 287.355 54.1935 287.266 54.2491ZM253.921 80.4065L287.483 54.881L326.355 71.243L331.665 113.13L298.103 138.658L259.23 122.298L253.921 80.4065Z" fill="url(#paint48_linear_1276_421)"/>
<path d="M283.029 52.2185C283.014 52.2284 282.998 52.2402 282.985 52.2529L249.494 82.6794C249.412 82.7551 249.374 82.8705 249.399 82.9808L258.994 127.262C259.019 127.372 259.099 127.461 259.207 127.496L302.29 141.351C302.398 141.386 302.515 141.361 302.6 141.285L336.09 110.858C336.173 110.782 336.211 110.667 336.186 110.557L326.592 66.2764C326.567 66.1661 326.487 66.0771 326.38 66.0425L283.297 52.1868C283.205 52.1562 283.109 52.1684 283.029 52.2185ZM250.059 83.0238L283.277 52.8445L326.012 66.5865L335.529 110.51L302.311 140.69L259.576 126.948L250.059 83.0238Z" fill="url(#paint49_linear_1276_421)"/>
<path d="M278.349 50.4599C278.325 50.4754 278.305 50.4923 278.285 50.514L245.615 85.8646C245.539 85.9472 245.512 86.0644 245.546 86.1738L259.821 132.211C259.853 132.32 259.943 132.402 260.054 132.426L306.996 143.117C307.108 143.141 307.223 143.105 307.299 143.022L339.969 107.672C340.046 107.589 340.073 107.472 340.039 107.362L325.764 61.3229C325.732 61.2142 325.642 61.1327 325.531 61.1079L278.589 50.4178C278.506 50.3995 278.42 50.4154 278.349 50.4599ZM246.206 86.1585L278.627 51.0773L325.213 61.6866L339.379 107.378L306.958 142.459L260.372 131.85L246.206 86.1585Z" fill="url(#paint50_linear_1276_421)"/>
<path d="M273.226 49.0301C273.196 49.0499 273.167 49.0744 273.144 49.1039L241.802 89.596C241.734 89.6862 241.717 89.8053 241.76 89.9092L261.155 137.38C261.198 137.484 261.293 137.558 261.405 137.574L312.146 144.551C312.258 144.568 312.37 144.521 312.44 144.432L343.783 103.939C343.851 103.849 343.867 103.73 343.824 103.626L324.429 56.1558C324.386 56.0519 324.292 55.9775 324.179 55.9612L273.439 48.9841C273.365 48.9734 273.288 48.9912 273.226 49.0301ZM242.416 89.8407L273.535 49.637L323.912 56.5641L343.171 103.696L312.051 143.899L261.675 136.972L242.416 89.8407Z" fill="url(#paint51_linear_1276_421)"/>
<path d="M267.663 47.9897C267.625 48.0131 267.592 48.0473 267.566 48.0865L238.105 93.906C238.044 94.0012 238.038 94.122 238.089 94.2223L263.048 142.732C263.1 142.832 263.202 142.898 263.314 142.903L317.735 145.594C317.847 145.599 317.955 145.544 318.016 145.449L347.479 99.6303C347.54 99.5351 347.546 99.4142 347.495 99.314L322.538 50.805C322.486 50.7047 322.384 50.6386 322.272 50.6335L267.851 47.9432C267.784 47.9375 267.719 47.9551 267.663 47.9897ZM238.738 94.0953L268.001 48.5853L322.055 51.2559L346.846 99.441L317.583 144.951L263.529 142.278L238.738 94.0953Z" fill="url(#paint52_linear_1276_421)"/>
<path d="M261.675 47.4032C261.628 47.4322 261.59 47.4735 261.564 47.5239L234.591 98.8137C234.539 98.9146 234.542 99.0346 234.604 99.13L265.552 148.228C265.612 148.323 265.72 148.38 265.833 148.377L323.756 146.183C323.87 146.178 323.973 146.114 324.025 146.013L350.998 94.7233C351.05 94.6224 351.045 94.5017 350.985 94.407L320.037 45.3088C319.977 45.2141 319.869 45.1569 319.755 45.1605L261.833 47.354C261.776 47.3568 261.722 47.3742 261.675 47.4032ZM235.236 98.9473L262.038 47.9814L319.594 45.8018L350.348 94.5901L323.546 145.556L265.991 147.734L235.236 98.9473Z" fill="url(#paint53_linear_1276_421)"/>
<path d="M255.271 47.3342C255.218 47.3695 255.174 47.4198 255.148 47.4796L231.32 104.337C231.275 104.441 231.292 104.562 231.361 104.651L268.713 153.816C268.781 153.907 268.893 153.953 269.006 153.94L330.185 146.246C330.298 146.232 330.393 146.159 330.438 146.055L354.266 89.1968C354.311 89.0929 354.294 88.9723 354.226 88.8812L316.874 39.7161C316.806 39.625 316.693 39.5795 316.581 39.5923L255.402 47.2858C255.354 47.2942 255.31 47.3108 255.271 47.3342ZM231.976 104.415L255.663 47.8946L316.479 40.2477L353.61 89.1216L329.922 145.642L269.106 153.289L231.976 104.415Z" fill="url(#paint54_linear_1276_421)"/>
<path d="M248.479 47.8573C248.417 47.8962 248.37 47.9563 248.346 48.0281L228.365 110.496C228.331 110.603 228.357 110.721 228.432 110.806L272.576 159.448C272.652 159.531 272.767 159.568 272.877 159.545L337.002 145.72C337.112 145.695 337.203 145.616 337.237 145.505L357.218 83.0378C357.252 82.9302 357.226 82.8125 357.151 82.7277L313.007 34.0857C312.931 34.0028 312.816 33.9652 312.706 33.9881L248.582 47.8163C248.546 47.8246 248.511 47.8382 248.479 47.8573ZM229.027 110.517L248.897 48.3983L312.661 34.6492L356.557 83.0194L336.688 145.138L272.922 158.886L229.027 110.517Z" fill="url(#paint55_linear_1276_421)"/>
<path d="M241.331 49.0409C241.261 49.0853 241.211 49.1559 241.19 49.2397L225.809 117.294C225.784 117.406 225.821 117.521 225.903 117.597L277.196 165.056C277.278 165.132 277.396 165.159 277.505 165.125L344.178 144.529C344.285 144.496 344.369 144.407 344.393 144.296L359.774 76.241C359.799 76.1296 359.763 76.0148 359.68 75.9383L308.388 28.4797C308.305 28.4032 308.188 28.3761 308.078 28.4102L241.405 49.0065C241.38 49.0146 241.355 49.0274 241.331 49.0409ZM226.47 117.255L241.769 49.5583L308.092 29.0694L359.117 76.2796L343.817 143.976L277.494 164.465L226.47 117.255Z" fill="url(#paint56_linear_1276_421)"/>
<path d="M233.866 50.958C233.786 51.008 233.733 51.0884 233.721 51.1845L223.732 124.734C223.716 124.847 223.763 124.959 223.853 125.027L282.611 170.568C282.701 170.639 282.821 170.653 282.926 170.611L351.671 142.602C351.777 142.56 351.85 142.462 351.866 142.352L361.854 68.8018C361.87 68.6894 361.824 68.5774 361.733 68.5092L302.975 22.9678C302.886 22.8975 302.766 22.8829 302.662 22.9259L233.914 50.9317C233.897 50.9409 233.881 50.9481 233.866 50.958ZM224.383 124.637L234.324 51.4499L302.733 23.5804L361.203 68.899L351.262 142.086L282.853 169.956L224.383 124.637Z" fill="url(#paint57_linear_1276_421)"/>
<path d="M226.129 53.6831C226.041 53.7367 225.987 53.8322 225.983 53.9359L222.217 132.809C222.212 132.921 222.266 133.03 222.362 133.091L288.855 175.909C288.95 175.971 289.071 175.977 289.171 175.926L359.431 139.869C359.532 139.818 359.598 139.715 359.603 139.601L363.369 60.7278C363.375 60.6135 363.32 60.5071 363.224 60.4459L296.731 17.6276C296.636 17.5664 296.515 17.5603 296.415 17.6114L226.155 53.6683C226.144 53.6731 226.136 53.6768 226.129 53.6831ZM222.858 132.657L226.607 54.1487L296.54 18.2597L362.726 60.8795L358.978 139.388L289.044 175.277L222.858 132.657Z" fill="url(#paint58_linear_1276_421)"/>
<path d="M218.184 57.2862C218.089 57.3462 218.032 57.4541 218.035 57.5675L221.36 141.506C221.363 141.619 221.429 141.721 221.528 141.774L295.966 180.989C296.067 181.042 296.188 181.036 296.283 180.977L367.4 136.25C367.495 136.19 367.552 136.082 367.549 135.969L364.225 52.0303C364.221 51.9169 364.155 51.8153 364.057 51.762L289.618 12.5468C289.517 12.4946 289.397 12.4978 289.302 12.5597L218.184 57.2862ZM221.986 141.298L218.676 57.726L289.482 13.1933L363.596 52.237L366.906 135.811L296.101 180.342L221.986 141.298Z" fill="url(#paint59_linear_1276_421)"/>
<path d="M281.317 7.84937C281.309 7.85298 281.302 7.85928 281.295 7.86559L210.078 61.8577C209.987 61.9258 209.942 62.0382 209.954 62.1507L221.262 150.801C221.277 150.914 221.35 151.009 221.454 151.054L303.978 185.711C304.082 185.756 304.199 185.741 304.293 185.671L375.508 131.678C375.599 131.61 375.645 131.498 375.632 131.385L364.324 42.7355C364.31 42.6223 364.237 42.527 364.133 42.4826L281.609 7.82477C281.512 7.78533 281.403 7.79499 281.317 7.84937ZM210.606 62.2508L281.531 8.48052L363.718 42.9974L374.98 131.285L304.055 185.056L221.869 150.539L210.606 62.2508Z" fill="url(#paint60_linear_1276_421)"/>
<path d="M272.421 3.5958C272.406 3.60572 272.391 3.61563 272.378 3.62825L201.911 67.4518C201.826 67.5267 201.791 67.6429 201.813 67.7544L222.018 160.659C222.043 160.769 222.123 160.858 222.231 160.893L312.9 189.973C313.008 190.007 313.128 189.982 313.211 189.906L383.676 126.084C383.761 126.009 383.797 125.893 383.775 125.782L363.569 32.8774C363.545 32.7671 363.465 32.6781 363.357 32.6435L272.687 3.56341C272.596 3.53282 272.498 3.54698 272.421 3.5958ZM202.472 67.7993L272.667 4.22304L362.989 33.1922L383.115 125.737L312.921 189.313L222.598 160.344L202.472 67.7993Z" fill="url(#paint61_linear_1276_421)"/>
<path d="M262.596 -0.0873211C262.573 -0.0737999 262.552 -0.0548763 262.534 -0.0352022L193.775 74.1373C193.698 74.2199 193.67 74.3391 193.705 74.4465L223.732 171.033C223.766 171.142 223.854 171.223 223.965 171.248L322.752 193.662C322.864 193.687 322.979 193.65 323.055 193.568L391.813 119.399C391.889 119.316 391.917 119.197 391.882 119.09L361.854 22.503C361.822 22.3943 361.732 22.3128 361.621 22.2879L262.833 -0.126312C262.753 -0.14579 262.667 -0.131789 262.596 -0.0873211ZM194.364 74.4351L262.874 0.53209L361.302 22.8666L391.224 119.101L322.714 193.004L224.286 170.67L194.364 74.4351Z" fill="url(#paint62_linear_1276_421)"/>
<path d="M251.844 -3.07814C251.814 -3.05831 251.785 -3.03382 251.762 -3.00439L185.773 81.9765C185.703 82.066 185.686 82.1851 185.731 82.2916L226.51 181.871C226.553 181.975 226.648 182.049 226.76 182.066L333.531 196.66C333.644 196.675 333.755 196.63 333.823 196.54L399.814 111.56C399.885 111.47 399.899 111.35 399.857 111.245L359.077 11.667C359.034 11.5632 358.939 11.4888 358.826 11.4724L252.057 -3.12417C251.983 -3.13479 251.906 -3.11705 251.844 -3.07814ZM186.388 82.2193L252.153 -2.4712L358.558 12.0772L399.2 111.317L333.434 196.007L227.027 181.458L186.388 82.2193Z" fill="url(#paint63_linear_1276_421)"/>
<path d="M240.172 -5.25248C240.134 -5.22905 240.101 -5.19481 240.075 -5.15561L178.021 91.0231C177.96 91.1183 177.954 91.2391 178.005 91.3394L230.455 193.091C230.507 193.192 230.609 193.258 230.721 193.263L345.227 198.837C345.34 198.842 345.448 198.787 345.509 198.692L407.563 102.513C407.624 102.418 407.63 102.297 407.579 102.197L355.127 0.442262C355.076 0.342007 354.974 0.27585 354.862 0.270798L240.357 -5.30241C240.29 -5.30343 240.226 -5.28779 240.172 -5.25248ZM178.654 91.2124L240.509 -4.65953L354.646 0.895838L406.93 102.324L345.075 198.196L230.936 192.64L178.654 91.2124Z" fill="url(#paint64_linear_1276_421)"/>
<path d="M227.602 -6.47583C227.556 -6.44684 227.517 -6.40554 227.491 -6.35508L170.649 101.328C170.595 101.428 170.6 101.548 170.661 101.646L235.683 204.621C235.742 204.716 235.85 204.773 235.962 204.769L357.826 200.059C357.94 200.056 358.041 199.99 358.095 199.891L414.937 92.2087C414.991 92.1085 414.986 91.9879 414.925 91.8905L349.903 -11.0848C349.843 -11.1795 349.735 -11.2367 349.622 -11.2332L227.758 -6.52574C227.703 -6.52226 227.649 -6.50483 227.602 -6.47583ZM171.296 101.462L227.967 -5.89684L349.465 -10.5903L414.29 92.0743L357.619 199.433L236.121 204.127L171.296 101.462Z" fill="url(#paint65_linear_1276_421)"/>
</g>
</g>
</g>
<defs>
<linearGradient id="paint0_linear_1276_421" x1="59.1953" y1="79.1894" x2="71.1587" y2="110.345" gradientUnits="userSpaceOnUse">
<stop stop-color="white" stop-opacity="0.5"/>
<stop offset="1" stop-color="#EAFFED" stop-opacity="0"/>
</linearGradient>
<linearGradient id="paint1_linear_1276_421" x1="58.9731" y1="78.6079" x2="71.3827" y2="110.926" gradientUnits="userSpaceOnUse">
<stop stop-color="white" stop-opacity="0.5"/>
<stop offset="1" stop-color="#EAFFED" stop-opacity="0"/>
</linearGradient>
<linearGradient id="paint2_linear_1276_421" x1="58.7951" y1="78.144" x2="71.5619" y2="111.392" gradientUnits="userSpaceOnUse">
<stop stop-color="white" stop-opacity="0.5"/>
<stop offset="1" stop-color="#EAFFED" stop-opacity="0"/>
</linearGradient>
<linearGradient id="paint3_linear_1276_421" x1="58.6696" y1="77.8156" x2="71.6891" y2="111.722" gradientUnits="userSpaceOnUse">
<stop stop-color="white" stop-opacity="0.5"/>
<stop offset="1" stop-color="#EAFFED" stop-opacity="0"/>
</linearGradient>
<linearGradient id="paint4_linear_1276_421" x1="58.1643" y1="76.5039" x2="72.1925" y2="113.037" gradientUnits="userSpaceOnUse">
<stop stop-color="white" stop-opacity="0.5"/>
<stop offset="1" stop-color="#EAFFED" stop-opacity="0"/>
</linearGradient>
<linearGradient id="paint5_linear_1276_421" x1="57.4272" y1="74.5866" x2="72.9263" y2="114.95" gradientUnits="userSpaceOnUse">
<stop stop-color="white" stop-opacity="0.5"/>
<stop offset="1" stop-color="#EAFFED" stop-opacity="0"/>
</linearGradient>
<linearGradient id="paint6_linear_1276_421" x1="56.691" y1="72.6605" x2="73.6684" y2="116.874" gradientUnits="userSpaceOnUse">
<stop stop-color="white" stop-opacity="0.5"/>
<stop offset="1" stop-color="#EAFFED" stop-opacity="0"/>
</linearGradient>
<linearGradient id="paint7_linear_1276_421" x1="55.9556" y1="70.7463" x2="74.4031" y2="118.788" gradientUnits="userSpaceOnUse">
<stop stop-color="white" stop-opacity="0.5"/>
<stop offset="1" stop-color="#EAFFED" stop-opacity="0"/>
</linearGradient>
<linearGradient id="paint8_linear_1276_421" x1="55.2342" y1="68.872" x2="75.1217" y2="120.664" gradientUnits="userSpaceOnUse">
<stop stop-color="white" stop-opacity="0.5"/>
<stop offset="1" stop-color="#EAFFED" stop-opacity="0"/>
</linearGradient>
<linearGradient id="paint9_linear_1276_421" x1="54.5361" y1="67.0579" x2="75.8169" y2="122.479" gradientUnits="userSpaceOnUse">
<stop stop-color="white" stop-opacity="0.5"/>
<stop offset="1" stop-color="#EAFFED" stop-opacity="0"/>
</linearGradient>
<linearGradient id="paint10_linear_1276_421" x1="53.8784" y1="65.3434" x2="76.4772" y2="124.197" gradientUnits="userSpaceOnUse">
<stop stop-color="white" stop-opacity="0.5"/>
<stop offset="1" stop-color="#EAFFED" stop-opacity="0"/>
</linearGradient>
<linearGradient id="paint11_linear_1276_421" x1="53.2665" y1="63.7512" x2="77.0866" y2="125.785" gradientUnits="userSpaceOnUse">
<stop stop-color="white" stop-opacity="0.5"/>
<stop offset="1" stop-color="#EAFFED" stop-opacity="0"/>
</linearGradient>
<linearGradient id="paint12_linear_1276_421" x1="52.7208" y1="62.3269" x2="77.6356" y2="127.212" gradientUnits="userSpaceOnUse">
<stop stop-color="white" stop-opacity="0.5"/>
<stop offset="1" stop-color="#EAFFED" stop-opacity="0"/>
</linearGradient>
<linearGradient id="paint13_linear_1276_421" x1="52.2524" y1="61.1057" x2="78.1042" y2="128.431" gradientUnits="userSpaceOnUse">
<stop stop-color="white" stop-opacity="0.5"/>
<stop offset="1" stop-color="#EAFFED" stop-opacity="0"/>
</linearGradient>
<linearGradient id="paint14_linear_1276_421" x1="51.8767" y1="60.1263" x2="78.479" y2="129.406" gradientUnits="userSpaceOnUse">
<stop stop-color="white" stop-opacity="0.5"/>
<stop offset="1" stop-color="#EAFFED" stop-opacity="0"/>
</linearGradient>
<linearGradient id="paint15_linear_1276_421" x1="51.6134" y1="59.4449" x2="78.7431" y2="130.098" gradientUnits="userSpaceOnUse">
<stop stop-color="white" stop-opacity="0.5"/>
<stop offset="1" stop-color="#EAFFED" stop-opacity="0"/>
</linearGradient>
<linearGradient id="paint16_linear_1276_421" x1="50.58" y1="56.7505" x2="79.7769" y2="132.787" gradientUnits="userSpaceOnUse">
<stop stop-color="white" stop-opacity="0.5"/>
<stop offset="1" stop-color="#EAFFED" stop-opacity="0"/>
</linearGradient>
<linearGradient id="paint17_linear_1276_421" x1="49.0367" y1="52.7311" x2="81.3192" y2="136.803" gradientUnits="userSpaceOnUse">
<stop stop-color="white" stop-opacity="0.5"/>
<stop offset="1" stop-color="#EAFFED" stop-opacity="0"/>
</linearGradient>
<linearGradient id="paint18_linear_1276_421" x1="47.4868" y1="48.694" x2="82.8701" y2="140.842" gradientUnits="userSpaceOnUse">
<stop stop-color="white" stop-opacity="0.5"/>
<stop offset="1" stop-color="#EAFFED" stop-opacity="0"/>
</linearGradient>
<linearGradient id="paint19_linear_1276_421" x1="45.9462" y1="44.6816" x2="84.4112" y2="144.855" gradientUnits="userSpaceOnUse">
<stop stop-color="white" stop-opacity="0.5"/>
<stop offset="1" stop-color="#EAFFED" stop-opacity="0"/>
</linearGradient>
<linearGradient id="paint20_linear_1276_421" x1="44.4325" y1="40.7463" x2="85.92" y2="148.791" gradientUnits="userSpaceOnUse">
<stop stop-color="white" stop-opacity="0.5"/>
<stop offset="1" stop-color="#EAFFED" stop-opacity="0"/>
</linearGradient>
<linearGradient id="paint21_linear_1276_421" x1="42.9744" y1="36.944" x2="87.3802" y2="152.588" gradientUnits="userSpaceOnUse">
<stop stop-color="white" stop-opacity="0.5"/>
<stop offset="1" stop-color="#EAFFED" stop-opacity="0"/>
</linearGradient>
<linearGradient id="paint22_linear_1276_421" x1="41.5935" y1="33.3438" x2="88.7646" y2="156.19" gradientUnits="userSpaceOnUse">
<stop stop-color="white" stop-opacity="0.5"/>
<stop offset="1" stop-color="#EAFFED" stop-opacity="0"/>
</linearGradient>
<linearGradient id="paint23_linear_1276_421" x1="40.3142" y1="30.0146" x2="90.0429" y2="159.521" gradientUnits="userSpaceOnUse">
<stop stop-color="white" stop-opacity="0.5"/>
<stop offset="1" stop-color="#EAFFED" stop-opacity="0"/>
</linearGradient>
<linearGradient id="paint24_linear_1276_421" x1="39.1679" y1="27.0307" x2="91.1882" y2="162.505" gradientUnits="userSpaceOnUse">
<stop stop-color="white" stop-opacity="0.5"/>
<stop offset="1" stop-color="#EAFFED" stop-opacity="0"/>
</linearGradient>
<linearGradient id="paint25_linear_1276_421" x1="38.1857" y1="24.4729" x2="92.1706" y2="165.064" gradientUnits="userSpaceOnUse">
<stop stop-color="white" stop-opacity="0.5"/>
<stop offset="1" stop-color="#EAFFED" stop-opacity="0"/>
</linearGradient>
<linearGradient id="paint26_linear_1276_421" x1="37.4016" y1="22.4295" x2="92.9556" y2="167.107" gradientUnits="userSpaceOnUse">
<stop stop-color="white" stop-opacity="0.5"/>
<stop offset="1" stop-color="#EAFFED" stop-opacity="0"/>
</linearGradient>
<linearGradient id="paint27_linear_1276_421" x1="36.8504" y1="20.9966" x2="93.5048" y2="168.54" gradientUnits="userSpaceOnUse">
<stop stop-color="white" stop-opacity="0.5"/>
<stop offset="1" stop-color="#EAFFED" stop-opacity="0"/>
</linearGradient>
<linearGradient id="paint28_linear_1276_421" x1="34.6506" y1="15.2694" x2="95.7033" y2="174.267" gradientUnits="userSpaceOnUse">
<stop stop-color="white" stop-opacity="0.5"/>
<stop offset="1" stop-color="#EAFFED" stop-opacity="0"/>
</linearGradient>
<linearGradient id="paint29_linear_1276_421" x1="31.4072" y1="6.82279" x2="98.9467" y2="182.713" gradientUnits="userSpaceOnUse">
<stop stop-color="white" stop-opacity="0.5"/>
<stop offset="1" stop-color="#EAFFED" stop-opacity="0"/>
</linearGradient>
<linearGradient id="paint30_linear_1276_421" x1="28.1455" y1="-1.67209" x2="102.209" y2="191.21" gradientUnits="userSpaceOnUse">
<stop stop-color="white" stop-opacity="0.5"/>
<stop offset="1" stop-color="#EAFFED" stop-opacity="0"/>
</linearGradient>
<linearGradient id="paint31_linear_1276_421" x1="24.905" y1="-10.1155" x2="105.452" y2="199.65" gradientUnits="userSpaceOnUse">
<stop stop-color="white" stop-opacity="0.5"/>
<stop offset="1" stop-color="#EAFFED" stop-opacity="0"/>
</linearGradient>
<linearGradient id="paint32_linear_1276_421" x1="21.7243" y1="-18.3961" x2="108.631" y2="207.932" gradientUnits="userSpaceOnUse">
<stop stop-color="white" stop-opacity="0.5"/>
<stop offset="1" stop-color="#EAFFED" stop-opacity="0"/>
</linearGradient>
<linearGradient id="paint33_linear_1276_421" x1="298.775" y1="81.1894" x2="286.812" y2="112.345" gradientUnits="userSpaceOnUse">
<stop stop-color="white" stop-opacity="0.5"/>
<stop offset="1" stop-color="#EAFFED" stop-opacity="0"/>
</linearGradient>
<linearGradient id="paint34_linear_1276_421" x1="298.998" y1="80.6079" x2="286.588" y2="112.926" gradientUnits="userSpaceOnUse">
<stop stop-color="white" stop-opacity="0.5"/>
<stop offset="1" stop-color="#EAFFED" stop-opacity="0"/>
</linearGradient>
<linearGradient id="paint35_linear_1276_421" x1="299.176" y1="80.144" x2="286.409" y2="113.392" gradientUnits="userSpaceOnUse">
<stop stop-color="white" stop-opacity="0.5"/>
<stop offset="1" stop-color="#EAFFED" stop-opacity="0"/>
</linearGradient>
<linearGradient id="paint36_linear_1276_421" x1="299.301" y1="79.8156" x2="286.282" y2="113.722" gradientUnits="userSpaceOnUse">
<stop stop-color="white" stop-opacity="0.5"/>
<stop offset="1" stop-color="#EAFFED" stop-opacity="0"/>
</linearGradient>
<linearGradient id="paint37_linear_1276_421" x1="299.806" y1="78.5039" x2="285.778" y2="115.037" gradientUnits="userSpaceOnUse">
<stop stop-color="white" stop-opacity="0.5"/>
<stop offset="1" stop-color="#EAFFED" stop-opacity="0"/>
</linearGradient>
<linearGradient id="paint38_linear_1276_421" x1="300.543" y1="76.5866" x2="285.044" y2="116.95" gradientUnits="userSpaceOnUse">
<stop stop-color="white" stop-opacity="0.5"/>
<stop offset="1" stop-color="#EAFFED" stop-opacity="0"/>
</linearGradient>
<linearGradient id="paint39_linear_1276_421" x1="301.28" y1="74.6605" x2="284.302" y2="118.874" gradientUnits="userSpaceOnUse">
<stop stop-color="white" stop-opacity="0.5"/>
<stop offset="1" stop-color="#EAFFED" stop-opacity="0"/>
</linearGradient>
<linearGradient id="paint40_linear_1276_421" x1="302.015" y1="72.7463" x2="283.568" y2="120.788" gradientUnits="userSpaceOnUse">
<stop stop-color="white" stop-opacity="0.5"/>
<stop offset="1" stop-color="#EAFFED" stop-opacity="0"/>
</linearGradient>
<linearGradient id="paint41_linear_1276_421" x1="302.736" y1="70.872" x2="282.849" y2="122.664" gradientUnits="userSpaceOnUse">
<stop stop-color="white" stop-opacity="0.5"/>
<stop offset="1" stop-color="#EAFFED" stop-opacity="0"/>
</linearGradient>
<linearGradient id="paint42_linear_1276_421" x1="303.435" y1="69.0579" x2="282.154" y2="124.479" gradientUnits="userSpaceOnUse">
<stop stop-color="white" stop-opacity="0.5"/>
<stop offset="1" stop-color="#EAFFED" stop-opacity="0"/>
</linearGradient>
<linearGradient id="paint43_linear_1276_421" x1="304.092" y1="67.3434" x2="281.494" y2="126.197" gradientUnits="userSpaceOnUse">
<stop stop-color="white" stop-opacity="0.5"/>
<stop offset="1" stop-color="#EAFFED" stop-opacity="0"/>
</linearGradient>
<linearGradient id="paint44_linear_1276_421" x1="304.704" y1="65.7512" x2="280.884" y2="127.785" gradientUnits="userSpaceOnUse">
<stop stop-color="white" stop-opacity="0.5"/>
<stop offset="1" stop-color="#EAFFED" stop-opacity="0"/>
</linearGradient>
<linearGradient id="paint45_linear_1276_421" x1="305.25" y1="64.3269" x2="280.335" y2="129.212" gradientUnits="userSpaceOnUse">
<stop stop-color="white" stop-opacity="0.5"/>
<stop offset="1" stop-color="#EAFFED" stop-opacity="0"/>
</linearGradient>
<linearGradient id="paint46_linear_1276_421" x1="305.718" y1="63.1057" x2="279.866" y2="130.431" gradientUnits="userSpaceOnUse">
<stop stop-color="white" stop-opacity="0.5"/>
<stop offset="1" stop-color="#EAFFED" stop-opacity="0"/>
</linearGradient>
<linearGradient id="paint47_linear_1276_421" x1="306.094" y1="62.1263" x2="279.492" y2="131.406" gradientUnits="userSpaceOnUse">
<stop stop-color="white" stop-opacity="0.5"/>
<stop offset="1" stop-color="#EAFFED" stop-opacity="0"/>
</linearGradient>
<linearGradient id="paint48_linear_1276_421" x1="306.357" y1="61.4449" x2="279.228" y2="132.098" gradientUnits="userSpaceOnUse">
<stop stop-color="white" stop-opacity="0.5"/>
<stop offset="1" stop-color="#EAFFED" stop-opacity="0"/>
</linearGradient>
<linearGradient id="paint49_linear_1276_421" x1="307.391" y1="58.7505" x2="278.194" y2="134.787" gradientUnits="userSpaceOnUse">
<stop stop-color="white" stop-opacity="0.5"/>
<stop offset="1" stop-color="#EAFFED" stop-opacity="0"/>
</linearGradient>
<linearGradient id="paint50_linear_1276_421" x1="308.934" y1="54.7311" x2="276.651" y2="138.803" gradientUnits="userSpaceOnUse">
<stop stop-color="white" stop-opacity="0.5"/>
<stop offset="1" stop-color="#EAFFED" stop-opacity="0"/>
</linearGradient>
<linearGradient id="paint51_linear_1276_421" x1="310.484" y1="50.694" x2="275.101" y2="142.842" gradientUnits="userSpaceOnUse">
<stop stop-color="white" stop-opacity="0.5"/>
<stop offset="1" stop-color="#EAFFED" stop-opacity="0"/>
</linearGradient>
<linearGradient id="paint52_linear_1276_421" x1="312.025" y1="46.6816" x2="273.56" y2="146.855" gradientUnits="userSpaceOnUse">
<stop stop-color="white" stop-opacity="0.5"/>
<stop offset="1" stop-color="#EAFFED" stop-opacity="0"/>
</linearGradient>
<linearGradient id="paint53_linear_1276_421" x1="313.538" y1="42.7463" x2="272.051" y2="150.791" gradientUnits="userSpaceOnUse">
<stop stop-color="white" stop-opacity="0.5"/>
<stop offset="1" stop-color="#EAFFED" stop-opacity="0"/>
</linearGradient>
<linearGradient id="paint54_linear_1276_421" x1="314.996" y1="38.944" x2="270.59" y2="154.588" gradientUnits="userSpaceOnUse">
<stop stop-color="white" stop-opacity="0.5"/>
<stop offset="1" stop-color="#EAFFED" stop-opacity="0"/>
</linearGradient>
<linearGradient id="paint55_linear_1276_421" x1="316.377" y1="35.3438" x2="269.206" y2="158.19" gradientUnits="userSpaceOnUse">
<stop stop-color="white" stop-opacity="0.5"/>
<stop offset="1" stop-color="#EAFFED" stop-opacity="0"/>
</linearGradient>
<linearGradient id="paint56_linear_1276_421" x1="317.656" y1="32.0146" x2="267.928" y2="161.521" gradientUnits="userSpaceOnUse">
<stop stop-color="white" stop-opacity="0.5"/>
<stop offset="1" stop-color="#EAFFED" stop-opacity="0"/>
</linearGradient>
<linearGradient id="paint57_linear_1276_421" x1="318.803" y1="29.0307" x2="266.783" y2="164.505" gradientUnits="userSpaceOnUse">
<stop stop-color="white" stop-opacity="0.5"/>
<stop offset="1" stop-color="#EAFFED" stop-opacity="0"/>
</linearGradient>
<linearGradient id="paint58_linear_1276_421" x1="319.785" y1="26.4729" x2="265.8" y2="167.064" gradientUnits="userSpaceOnUse">
<stop stop-color="white" stop-opacity="0.5"/>
<stop offset="1" stop-color="#EAFFED" stop-opacity="0"/>
</linearGradient>
<linearGradient id="paint59_linear_1276_421" x1="320.569" y1="24.4295" x2="265.015" y2="169.107" gradientUnits="userSpaceOnUse">
<stop stop-color="white" stop-opacity="0.5"/>
<stop offset="1" stop-color="#EAFFED" stop-opacity="0"/>
</linearGradient>
<linearGradient id="paint60_linear_1276_421" x1="321.12" y1="22.9966" x2="264.466" y2="170.54" gradientUnits="userSpaceOnUse">
<stop stop-color="white" stop-opacity="0.5"/>
<stop offset="1" stop-color="#EAFFED" stop-opacity="0"/>
</linearGradient>
<linearGradient id="paint61_linear_1276_421" x1="323.32" y1="17.2694" x2="262.267" y2="176.267" gradientUnits="userSpaceOnUse">
<stop stop-color="white" stop-opacity="0.5"/>
<stop offset="1" stop-color="#EAFFED" stop-opacity="0"/>
</linearGradient>
<linearGradient id="paint62_linear_1276_421" x1="326.563" y1="8.82279" x2="259.024" y2="184.713" gradientUnits="userSpaceOnUse">
<stop stop-color="white" stop-opacity="0.5"/>
<stop offset="1" stop-color="#EAFFED" stop-opacity="0"/>
</linearGradient>
<linearGradient id="paint63_linear_1276_421" x1="329.825" y1="0.32791" x2="255.761" y2="193.21" gradientUnits="userSpaceOnUse">
<stop stop-color="white" stop-opacity="0.5"/>
<stop offset="1" stop-color="#EAFFED" stop-opacity="0"/>
</linearGradient>
<linearGradient id="paint64_linear_1276_421" x1="333.066" y1="-8.1155" x2="252.519" y2="201.65" gradientUnits="userSpaceOnUse">
<stop stop-color="white" stop-opacity="0.5"/>
<stop offset="1" stop-color="#EAFFED" stop-opacity="0"/>
</linearGradient>
<linearGradient id="paint65_linear_1276_421" x1="336.246" y1="-16.3961" x2="249.34" y2="209.932" gradientUnits="userSpaceOnUse">
<stop stop-color="white" stop-opacity="0.5"/>
<stop offset="1" stop-color="#EAFFED" stop-opacity="0"/>
</linearGradient>
<clipPath id="clip0_1276_421">
<rect width="375" height="136" fill="white"/>
</clipPath>
<clipPath id="clip1_1276_421">
<rect width="251.009" height="270.72" fill="white" transform="translate(208.971 237.713) rotate(179.584)"/>
</clipPath>
<clipPath id="clip2_1276_421">
<rect width="251.009" height="270.72" fill="white" transform="matrix(0.999974 0.0072683 0.0072683 -0.999974 149 239.713)"/>
</clipPath>
</defs>
</svg>
