<svg id="Layer_1" data-name="Layer 1" xmlns="http://www.w3.org/2000/svg" xmlns:xlink="http://www.w3.org/1999/xlink" viewBox="0 0 461 722.08"><defs><style>.cls-1,.cls-104,.cls-19,.cls-26,.cls-27,.cls-32{fill:none;}.cls-2{clip-path:url(#clip-path);}.cls-3{clip-path:url(#clip-path-2);}.cls-4{fill:url(#linear-gradient);}.cls-5{clip-path:url(#clip-path-3);}.cls-6{fill:url(#linear-gradient-2);}.cls-7{fill:url(#linear-gradient-3);}.cls-8{fill:url(#linear-gradient-4);}.cls-9{fill:#e9f4e8;}.cls-10{fill:url(#linear-gradient-5);}.cls-11{fill:url(#linear-gradient-6);}.cls-12{fill:url(#linear-gradient-7);}.cls-13{fill:url(#linear-gradient-8);}.cls-14{fill:url(#linear-gradient-9);}.cls-15{fill:url(#linear-gradient-10);}.cls-16{fill:url(#linear-gradient-11);}.cls-17{fill:url(#linear-gradient-12);}.cls-18{fill:url(#linear-gradient-13);}.cls-19{stroke:#cadfa5;}.cls-104,.cls-105,.cls-108,.cls-109,.cls-110,.cls-19,.cls-26,.cls-27,.cls-28,.cls-29,.cls-30,.cls-31,.cls-32{stroke-linecap:round;stroke-linejoin:round;}.cls-20{fill:url(#linear-gradient-14);}.cls-21{fill:url(#linear-gradient-15);}.cls-22{fill:url(#linear-gradient-16);}.cls-23{fill:url(#linear-gradient-17);}.cls-24{fill:url(#linear-gradient-18);}.cls-25{opacity:0.4;fill:url(#linear-gradient-19);}.cls-115,.cls-120,.cls-121,.cls-25,.cls-78,.cls-80,.cls-96,.cls-97,.cls-98{isolation:isolate;}.cls-108,.cls-109,.cls-110,.cls-26{stroke:#273339;}.cls-27,.cls-28,.cls-29,.cls-30,.cls-31,.cls-32{stroke:#58713a;}.cls-27{stroke-width:2px;}.cls-103,.cls-105,.cls-108,.cls-28{fill:#fff;}.cls-110,.cls-29,.cls-33{fill:#273339;}.cls-30{fill:#b0b1b1;}.cls-109,.cls-31,.cls-34{fill:#9bd2a5;}.cls-35{fill:url(#linear-gradient-20);}.cls-36{fill:url(#linear-gradient-21);}.cls-37{fill:url(#linear-gradient-22);}.cls-38{fill:url(#linear-gradient-23);}.cls-39{fill:url(#linear-gradient-24);}.cls-40{fill:url(#linear-gradient-25);}.cls-41{fill:url(#linear-gradient-26);}.cls-42{fill:url(#linear-gradient-27);}.cls-43{fill:url(#linear-gradient-28);}.cls-44{fill:url(#linear-gradient-29);}.cls-45{fill:url(#linear-gradient-30);}.cls-46{fill:url(#linear-gradient-31);}.cls-47{fill:url(#linear-gradient-32);}.cls-48{fill:url(#linear-gradient-33);}.cls-49{fill:url(#linear-gradient-34);}.cls-50{fill:url(#linear-gradient-35);}.cls-51{fill:url(#linear-gradient-36);}.cls-52{fill:url(#linear-gradient-37);}.cls-53{fill:url(#linear-gradient-38);}.cls-54{fill:url(#linear-gradient-39);}.cls-55{fill:url(#linear-gradient-40);}.cls-56{fill:url(#linear-gradient-41);}.cls-57{fill:url(#linear-gradient-42);}.cls-58{fill:url(#linear-gradient-43);}.cls-59{fill:url(#linear-gradient-44);}.cls-60{fill:url(#linear-gradient-45);}.cls-61{fill:url(#linear-gradient-46);}.cls-62{fill:url(#linear-gradient-47);}.cls-63{fill:url(#linear-gradient-48);}.cls-64{fill:url(#linear-gradient-49);}.cls-65{fill:url(#linear-gradient-50);}.cls-66{fill:url(#linear-gradient-51);}.cls-67{fill:url(#linear-gradient-52);}.cls-68{fill:url(#linear-gradient-53);}.cls-69{fill:url(#linear-gradient-54);}.cls-70{fill:url(#linear-gradient-55);}.cls-71{fill:url(#linear-gradient-56);}.cls-72{fill:url(#linear-gradient-57);}.cls-73{fill:url(#linear-gradient-58);}.cls-74{fill:url(#linear-gradient-59);}.cls-75{fill:url(#linear-gradient-60);}.cls-76{fill:url(#linear-gradient-61);}.cls-77{fill:url(#linear-gradient-62);}.cls-78,.cls-80,.cls-96,.cls-97{opacity:0.1;}.cls-78{fill:url(#linear-gradient-63);}.cls-79{fill:url(#linear-gradient-64);}.cls-80{fill:url(#linear-gradient-65);}.cls-81{fill:url(#linear-gradient-66);}.cls-82{fill:url(#linear-gradient-67);}.cls-83{fill:url(#linear-gradient-68);}.cls-84{fill:url(#linear-gradient-69);}.cls-85{fill:url(#linear-gradient-70);}.cls-86{fill:url(#linear-gradient-71);}.cls-87{fill:url(#linear-gradient-72);}.cls-88{fill:url(#linear-gradient-73);}.cls-89{fill:url(#linear-gradient-74);}.cls-90{fill:url(#linear-gradient-75);}.cls-91{fill:url(#linear-gradient-76);}.cls-92{fill:url(#linear-gradient-77);}.cls-93{fill:url(#linear-gradient-78);}.cls-94{fill:url(#linear-gradient-79);}.cls-95{fill:url(#linear-gradient-80);}.cls-96{fill:url(#linear-gradient-81);}.cls-97{fill:url(#linear-gradient-82);}.cls-98{opacity:0.6;fill:url(#linear-gradient-83);}.cls-99{fill:url(#linear-gradient-84);}.cls-100{fill:url(#linear-gradient-85);}.cls-101{fill:url(#linear-gradient-86);}.cls-102{fill:#799457;}.cls-104,.cls-105{stroke:#9ed08a;}.cls-106{fill:url(#linear-gradient-87);}.cls-107{fill:#58713a;}.cls-111{fill:url(#linear-gradient-88);}.cls-112{fill:url(#linear-gradient-89);}.cls-113{fill:url(#linear-gradient-90);}.cls-114{clip-path:url(#clip-path-4);}.cls-115{opacity:0.3;fill:url(#linear-gradient-91);}.cls-116{clip-path:url(#clip-path-5);}.cls-117{fill:#f5f9eb;fill-rule:evenodd;}.cls-118{clip-path:url(#clip-path-6);}.cls-119{opacity:0.2;}.cls-120{fill:#aeccaf;opacity:0.5;}.cls-121{opacity:0.59;fill:url(#linear-gradient-92);}</style><clipPath id="clip-path" transform="translate(42.5 4.5)"><rect class="cls-1" x="0.5" y="0.5" width="375" height="812"/></clipPath><clipPath id="clip-path-2" transform="translate(42.5 4.5)"><rect class="cls-1" x="-8.5" y="-0.5" width="393" height="556"/></clipPath><linearGradient id="linear-gradient" x1="188" y1="108.4" x2="188" y2="454.65" gradientTransform="matrix(1, 0, 0, -1, 0, 552)" gradientUnits="userSpaceOnUse"><stop offset="0" stop-color="#fff"/><stop offset="1" stop-color="#dceedb"/></linearGradient><clipPath id="clip-path-3" transform="translate(42.5 4.5)"><rect class="cls-1" x="-21.5" y="485.5" width="400.06" height="232.08"/></clipPath><linearGradient id="linear-gradient-2" x1="178.53" y1="-165.58" x2="178.53" y2="66.5" gradientTransform="matrix(1, 0, 0, -1, 0, 552)" gradientUnits="userSpaceOnUse"><stop offset="0.03" stop-color="#f3f7ed"/><stop offset="1" stop-color="#e3eec3"/></linearGradient><linearGradient id="linear-gradient-3" x1="-0.5" y1="450.89" x2="373.12" y2="450.89" gradientTransform="matrix(1, 0, 0, -1, 0, 552)" gradientUnits="userSpaceOnUse"><stop offset="0" stop-color="#e3f2e3"/><stop offset="0.99" stop-color="#d6ebd5"/></linearGradient><linearGradient id="linear-gradient-4" x1="121.34" y1="441.5" x2="121.34" y2="556.5" gradientTransform="matrix(1, 0, 0, -1, 0, 552)" gradientUnits="userSpaceOnUse"><stop offset="0.01" stop-color="#f6f8fc"/><stop offset="1" stop-color="#e5f2e5"/></linearGradient><linearGradient id="linear-gradient-5" x1="193.09" y1="509.83" x2="193.09" xlink:href="#linear-gradient-4"/><linearGradient id="linear-gradient-6" x1="162.7" y1="528.04" x2="162.7" y2="553.8" xlink:href="#linear-gradient-4"/><linearGradient id="linear-gradient-7" x1="288.56" y1="503.15" x2="288.56" xlink:href="#linear-gradient-4"/><linearGradient id="linear-gradient-8" x1="198.29" y1="419.66" x2="198.29" y2="436.31" xlink:href="#linear-gradient-4"/><linearGradient id="linear-gradient-9" x1="179.62" y1="387.21" x2="179.62" y2="403.24" xlink:href="#linear-gradient-4"/><linearGradient id="linear-gradient-10" x1="84.72" y1="382.36" x2="191.1" y2="388.24" gradientTransform="matrix(1, 0, 0, -1, 0, 552)" gradientUnits="userSpaceOnUse"><stop offset="0" stop-color="#dceedb"/><stop offset="0.99" stop-color="#cde4ce"/></linearGradient><linearGradient id="linear-gradient-11" x1="334.41" y1="427.25" x2="334.41" y2="455.29" xlink:href="#linear-gradient-4"/><linearGradient id="linear-gradient-12" x1="180.06" y1="341.83" x2="180.06" y2="351.2" xlink:href="#linear-gradient-4"/><linearGradient id="linear-gradient-13" x1="52.39" y1="422.85" x2="52.39" y2="470.31" xlink:href="#linear-gradient-4"/><linearGradient id="linear-gradient-14" x1="314.19" y1="151.29" x2="314.3" y2="119.3" gradientTransform="matrix(1, 0, 0, -1, 0, 552)" gradientUnits="userSpaceOnUse"><stop offset="0" stop-color="#e3f2e3"/><stop offset="1" stop-color="#9c7a65" stop-opacity="0"/></linearGradient><linearGradient id="linear-gradient-15" x1="314.24" y1="135.29" x2="314.3" y2="119.3" gradientTransform="matrix(1, 0, 0, -1, 0, 552)" gradientUnits="userSpaceOnUse"><stop offset="0" stop-color="#cde4ce"/><stop offset="1" stop-color="#b4dcb5"/></linearGradient><linearGradient id="linear-gradient-16" x1="290.51" y1="120.62" x2="290.51" y2="65.5" gradientTransform="matrix(1, 0, 0, -1, 0, 552)" gradientUnits="userSpaceOnUse"><stop offset="0" stop-color="#b7d287"/><stop offset="1" stop-color="#d6e2c2"/></linearGradient><linearGradient id="linear-gradient-17" x1="285.15" y1="120.62" x2="285.15" y2="65.53" gradientTransform="matrix(1, 0, 0, -1, 0, 552)" gradientUnits="userSpaceOnUse"><stop offset="0" stop-color="#a9c37a"/><stop offset="1" stop-color="#cadcaa"/></linearGradient><linearGradient id="linear-gradient-18" x1="314.19" y1="158.5" x2="314.19" y2="151.26" xlink:href="#linear-gradient-17"/><linearGradient id="linear-gradient-19" x1="290.5" y1="65.05" x2="290.17" y2="158.42" gradientTransform="matrix(1, 0, 0, -1, 0, 552)" gradientUnits="userSpaceOnUse"><stop offset="0" stop-color="#adc77d"/><stop offset="1" stop-color="#cae19c"/></linearGradient><linearGradient id="linear-gradient-20" x1="166.85" y1="248.78" x2="166.85" y2="232.37" gradientTransform="matrix(1, 0, 0, -1, 0, 552)" gradientUnits="userSpaceOnUse"><stop offset="0" stop-color="#f4f9f4"/><stop offset="1" stop-color="#f3f9f1"/></linearGradient><linearGradient id="linear-gradient-21" x1="166.94" y1="204.95" x2="166.94" y2="191.18" xlink:href="#linear-gradient-20"/><linearGradient id="linear-gradient-22" x1="166.94" y1="190.03" x2="166.94" y2="89.09" xlink:href="#linear-gradient-20"/><linearGradient id="linear-gradient-23" x1="107.17" y1="165.09" x2="107.17" y2="135.61" xlink:href="#linear-gradient-20"/><linearGradient id="linear-gradient-24" x1="109.07" y1="135.61" x2="109.07" y2="116.14" xlink:href="#linear-gradient-20"/><linearGradient id="linear-gradient-25" x1="109.07" y1="132.32" x2="109.07" y2="116.23" xlink:href="#linear-gradient-20"/><linearGradient id="linear-gradient-26" x1="102.89" y1="132.89" x2="102.89" y2="115.66" xlink:href="#linear-gradient-20"/><linearGradient id="linear-gradient-27" x1="115.9" y1="132.89" x2="115.9" y2="115.66" xlink:href="#linear-gradient-20"/><linearGradient id="linear-gradient-28" x1="120.21" y1="110.23" x2="120.21" y2="64.53" xlink:href="#linear-gradient-20"/><linearGradient id="linear-gradient-29" x1="114.52" y1="119.31" x2="114.52" y2="64.53" xlink:href="#linear-gradient-20"/><linearGradient id="linear-gradient-30" x1="104.07" y1="119.31" x2="104.07" y2="64.53" xlink:href="#linear-gradient-20"/><linearGradient id="linear-gradient-31" x1="92.14" y1="119.31" x2="92.14" y2="64.53" xlink:href="#linear-gradient-20"/><linearGradient id="linear-gradient-32" x1="81.69" y1="119.31" x2="81.69" y2="64.53" xlink:href="#linear-gradient-20"/><linearGradient id="linear-gradient-33" x1="72.59" y1="117.38" x2="72.59" y2="64.53" xlink:href="#linear-gradient-20"/><linearGradient id="linear-gradient-34" x1="145.09" y1="117.38" x2="145.09" y2="64.53" xlink:href="#linear-gradient-20"/><linearGradient id="linear-gradient-35" x1="154.45" y1="117.38" x2="154.45" y2="64.53" xlink:href="#linear-gradient-20"/><linearGradient id="linear-gradient-36" x1="63.3" y1="111.91" x2="63.3" y2="64.5" xlink:href="#linear-gradient-20"/><linearGradient id="linear-gradient-37" x1="136.46" y1="119.31" x2="136.46" y2="64.53" xlink:href="#linear-gradient-20"/><linearGradient id="linear-gradient-38" x1="126.01" y1="119.31" x2="126.01" y2="64.53" xlink:href="#linear-gradient-20"/><linearGradient id="linear-gradient-39" x1="114.35" y1="115.54" x2="114.35" y2="64.56" xlink:href="#linear-gradient-20"/><linearGradient id="linear-gradient-40" x1="109.08" y1="117.38" x2="109.08" y2="64.53" xlink:href="#linear-gradient-20"/><linearGradient id="linear-gradient-41" x1="166.94" y1="173.11" x2="166.94" y2="64.5" xlink:href="#linear-gradient-20"/><linearGradient id="linear-gradient-42" x1="166.94" y1="173.11" x2="166.94" y2="64.5" xlink:href="#linear-gradient-20"/><linearGradient id="linear-gradient-43" x1="166.94" y1="119.94" x2="166.94" y2="117.67" xlink:href="#linear-gradient-20"/><linearGradient id="linear-gradient-44" x1="166.94" y1="136.8" x2="166.94" y2="134.53" xlink:href="#linear-gradient-20"/><linearGradient id="linear-gradient-45" x1="166.94" y1="152.38" x2="166.94" y2="150.1" xlink:href="#linear-gradient-20"/><linearGradient id="linear-gradient-46" x1="166.94" y1="167.82" x2="166.94" y2="165.55" xlink:href="#linear-gradient-20"/><linearGradient id="linear-gradient-47" x1="166.94" y1="104.24" x2="166.94" y2="101.96" xlink:href="#linear-gradient-20"/><linearGradient id="linear-gradient-48" x1="166.94" y1="88.66" x2="166.94" y2="86.39" xlink:href="#linear-gradient-20"/><linearGradient id="linear-gradient-49" x1="166.94" y1="74.38" x2="166.94" y2="72.1" xlink:href="#linear-gradient-20"/><linearGradient id="linear-gradient-50" x1="96.33" y1="126.56" x2="96.33" y2="120.17" xlink:href="#linear-gradient-20"/><linearGradient id="linear-gradient-51" x1="122.05" y1="126.56" x2="122.05" y2="120.17" xlink:href="#linear-gradient-20"/><linearGradient id="linear-gradient-52" x1="108.96" y1="129.2" x2="108.96" y2="127.68" xlink:href="#linear-gradient-20"/><linearGradient id="linear-gradient-53" x1="98.84" y1="165.09" x2="98.84" y2="135.61" xlink:href="#linear-gradient-20"/><linearGradient id="linear-gradient-54" x1="90.85" y1="100.44" x2="90.85" y2="87.18" xlink:href="#linear-gradient-20"/><linearGradient id="linear-gradient-55" x1="119.89" y1="165.09" x2="119.89" y2="135.61" xlink:href="#linear-gradient-20"/><linearGradient id="linear-gradient-56" x1="166.94" y1="179.34" x2="166.94" y2="170.85" xlink:href="#linear-gradient-20"/><linearGradient id="linear-gradient-57" x1="166.94" y1="186.54" x2="166.94" y2="171.63" xlink:href="#linear-gradient-20"/><linearGradient id="linear-gradient-58" x1="166.94" y1="203.66" x2="166.94" y2="188.75" xlink:href="#linear-gradient-20"/><linearGradient id="linear-gradient-59" x1="166.94" y1="198.74" x2="166.94" y2="192.47" xlink:href="#linear-gradient-20"/><linearGradient id="linear-gradient-60" x1="160.97" y1="169.39" x2="160.97" y2="161.83" xlink:href="#linear-gradient-20"/><linearGradient id="linear-gradient-61" x1="172.92" y1="169.41" x2="172.92" y2="161.85" xlink:href="#linear-gradient-20"/><linearGradient id="linear-gradient-62" x1="166.94" y1="164.61" x2="166.94" y2="157.06" xlink:href="#linear-gradient-20"/><linearGradient id="linear-gradient-63" x1="166.94" y1="170.85" x2="166.94" y2="166.83" xlink:href="#linear-gradient-20"/><linearGradient id="linear-gradient-64" x1="166.94" y1="188.75" x2="166.94" y2="185.44" xlink:href="#linear-gradient-20"/><linearGradient id="linear-gradient-65" x1="166.86" y1="188.75" x2="166.86" y2="186.54" xlink:href="#linear-gradient-20"/><linearGradient id="linear-gradient-66" x1="166.87" y1="183.58" x2="166.87" y2="179.34" xlink:href="#linear-gradient-20"/><linearGradient id="linear-gradient-67" x1="90.85" y1="98" x2="90.85" y2="91.27" xlink:href="#linear-gradient-20"/><linearGradient id="linear-gradient-68" x1="166.85" y1="232.89" x2="166.85" y2="206.59" xlink:href="#linear-gradient-20"/><linearGradient id="linear-gradient-69" x1="166.94" y1="205.07" x2="166.94" y2="204.02" xlink:href="#linear-gradient-20"/><linearGradient id="linear-gradient-70" x1="166.94" y1="207.77" x2="166.94" y2="206.71" xlink:href="#linear-gradient-20"/><linearGradient id="linear-gradient-71" x1="166.94" y1="206.71" x2="166.94" y2="205.07" xlink:href="#linear-gradient-20"/><linearGradient id="linear-gradient-72" x1="166.87" y1="179.34" x2="166.87" y2="174.71" xlink:href="#linear-gradient-20"/><linearGradient id="linear-gradient-73" x1="90.85" y1="89.67" x2="90.85" y2="76.55" xlink:href="#linear-gradient-20"/><linearGradient id="linear-gradient-74" x1="109.18" y1="100.44" x2="109.18" y2="87.18" xlink:href="#linear-gradient-20"/><linearGradient id="linear-gradient-75" x1="109.17" y1="98" x2="109.17" y2="91.27" xlink:href="#linear-gradient-20"/><linearGradient id="linear-gradient-76" x1="109.17" y1="89.67" x2="109.17" y2="76.55" xlink:href="#linear-gradient-20"/><linearGradient id="linear-gradient-77" x1="127.76" y1="100.44" x2="127.76" y2="87.18" xlink:href="#linear-gradient-20"/><linearGradient id="linear-gradient-78" x1="127.76" y1="98" x2="127.76" y2="91.27" xlink:href="#linear-gradient-20"/><linearGradient id="linear-gradient-79" x1="127.76" y1="89.67" x2="127.76" y2="76.55" xlink:href="#linear-gradient-20"/><linearGradient id="linear-gradient-80" x1="166.86" y1="253.26" x2="166.86" y2="247.15" xlink:href="#linear-gradient-20"/><linearGradient id="linear-gradient-81" x1="140.31" y1="115.66" x2="140.31" y2="64.66" xlink:href="#linear-gradient-20"/><linearGradient id="linear-gradient-82" x1="176.17" y1="110.23" x2="176.17" y2="64.5" xlink:href="#linear-gradient-20"/><linearGradient id="linear-gradient-83" x1="121.5" y1="253.26" x2="121.5" y2="64.5" xlink:href="#linear-gradient-20"/><linearGradient id="linear-gradient-84" x1="185.95" y1="135.52" x2="185.95" y2="65.54" gradientTransform="matrix(1, 0, 0, -1, 0, 552)" gradientUnits="userSpaceOnUse"><stop offset="0" stop-color="#88b858"/><stop offset="1" stop-color="#b0c98a"/></linearGradient><linearGradient id="linear-gradient-85" x1="187.69" y1="135.52" x2="187.69" y2="110.97" gradientTransform="matrix(1, 0, 0, -1, 0, 552)" gradientUnits="userSpaceOnUse"><stop offset="0" stop-color="#799457"/><stop offset="1" stop-color="#b0c98a"/></linearGradient><linearGradient id="linear-gradient-86" x1="235.44" y1="127.35" x2="235.44" y2="67.33" xlink:href="#linear-gradient-84"/><linearGradient id="linear-gradient-87" x1="233.76" y1="192.34" x2="233.76" y2="63.78" gradientTransform="matrix(1, 0, 0, -1, 0, 552)" gradientUnits="userSpaceOnUse"><stop offset="0" stop-color="#a2c379"/><stop offset="1" stop-color="#e5f0d2"/></linearGradient><linearGradient id="linear-gradient-88" x1="56.17" y1="136.73" x2="56.17" y2="69.61" xlink:href="#linear-gradient-84"/><linearGradient id="linear-gradient-89" x1="100.61" y1="128.09" x2="100.61" y2="68.08" gradientTransform="matrix(1, 0, 0, -1, 0, 552)" gradientUnits="userSpaceOnUse"><stop offset="0" stop-color="#9abf6f"/><stop offset="1" stop-color="#a7c680"/></linearGradient><linearGradient id="linear-gradient-90" x1="96.18" y1="193.08" x2="96.18" y2="64.49" xlink:href="#linear-gradient-87"/><clipPath id="clip-path-4" transform="translate(42.5 4.5)"><rect class="cls-1" x="-42.5" y="486.5" width="427" height="39"/></clipPath><linearGradient id="linear-gradient-91" x1="171" y1="65.5" x2="171" y2="26.5" gradientTransform="matrix(1, 0, 0, -1, 0, 552)" gradientUnits="userSpaceOnUse"><stop offset="0" stop-color="#a1ba73"/><stop offset="1" stop-color="#b1cb81"/></linearGradient><clipPath id="clip-path-5" transform="translate(42.5 4.5)"><rect class="cls-1" x="24.5" y="478.5" width="34" height="36"/></clipPath><clipPath id="clip-path-6" transform="translate(42.5 4.5)"><rect class="cls-1" x="-208.5" y="401.5" width="256" height="118"/></clipPath><linearGradient id="linear-gradient-92" x1="379.31" y1="147.5" x2="379.31" y2="101.19" gradientTransform="matrix(1, 0, 0, -1, 0, 552)" gradientUnits="userSpaceOnUse"><stop offset="0" stop-color="#bdd09b"/><stop offset="1" stop-color="#bdd09b" stop-opacity="0"/></linearGradient></defs><g class="cls-2"><g class="cls-3"><path class="cls-4" d="M384.5-.5H-8.5v556h393Z" transform="translate(42.5 4.5)"/></g><g class="cls-5"><path class="cls-6" d="M378.56,717.58h-400l-.06-231.09,400.06-1Z" transform="translate(42.5 4.5)"/></g><path class="cls-7" d="M373.12-4.5V138.82c-1.81-17-9-24.55-9-24.55-4.14,40.14-21.26,56.38-21.26,56.38,11.58-1.6,15.58-7,16-7.68-.76,1.25-13,20.23-59,33.48-47.62,13.71-97.71,9.74-97.71,9.74s32.56.87,59.45-3.38c15.69-2.48,25.38-6.36,25.38-6.36s25.12-11.82-9.32-21.47c-33.9-9.5-74.23-15.65-75.48-15.84l11.84,5.65c-39.88-3.72-113.23-22-115.5-22.53a231.72,231.72,0,0,0,38.27,3.53C111.61,130.21,73.39,126,73.39,126l-36.45.71c3.12,1.42,8.5,3.54,8.5,3.54l48,11.33C21.84,132-.5,127.73-.5,127.73L-.44-4.5H35.91s84.77,40.15,155.26,62.11l-10.68-9s59,1.53,111.62,34.11c0,0-9.55-18.77-26.19-32.93a216.15,216.15,0,0,0-34.39-24.09l12.63,16.44S195.09,27.59,142-4.5Z" transform="translate(42.5 4.5)"/><path class="cls-8" d="M-.22,42s71.13,29,95.56,40.37c0,0-37.16-2.47-37.52,0s27.09,20.55,87.4,28.1c0,0-25.58-19.83-47.52-27.39,0,0,75.92,20.77,145.43,20.3,0,0-14.11-25.49-56.82-43.91L35.91-4.5H-.44Z" transform="translate(42.5 4.5)"/><path class="cls-9" d="M184.45,48.85S210.75,68,230.07,79.33,312,94.91,312,94.91,275.21,59.46,184.45,48.85Z" transform="translate(42.5 4.5)"/><path class="cls-10" d="M142-4.5s51,31.94,102.13,46.67c0,0-29.9-28.39-66.35-46.67Z" transform="translate(42.5 4.5)"/><path class="cls-11" d="M138.86-1.8S167,14.76,186.53,23.61L175,20.42l1.76,3.19S164.33,28.06,140.62,5l1.4-1.6Z" transform="translate(42.5 4.5)"/><path class="cls-12" d="M203.63-4.5s51.29,37.08,120.94,53.35L304.45,33.17S356,45.29,373.5,48.85L373.12-4.5Z" transform="translate(42.5 4.5)"/><path class="cls-13" d="M165.07,115.69s30.42,2.48,43.51,6a79,79,0,0,1,22.94,10.63S196.59,128.09,165.07,115.69Z" transform="translate(42.5 4.5)"/><path class="cls-14" d="M202.24,159.14s-7.52-4.14-22.88-8-34.22-1.76-34.22-1.76,37.64,11.09,69,15.45Z" transform="translate(42.5 4.5)"/><path class="cls-15" d="M84,156.9l26.28,3.51s19.34-4.62,29.74-.22,10.9,7.9,10.9,7.9,19.33,5,40.86,8.42C191.8,176.51,122.62,169.31,84,156.9Z" transform="translate(42.5 4.5)"/><path class="cls-16" d="M311.66,96.71S337,99,348.87,108.65s7.5,16.1,7.5,16.1S346.53,108.81,311.66,96.71Z" transform="translate(42.5 4.5)"/><path class="cls-17" d="M224.09,206.71s-23.06-6-29.61-5.91-11.73,5.86-11.73,5.86S170,209.34,136,209.38C136,209.37,172.67,212.37,224.09,206.71Z" transform="translate(42.5 4.5)"/><path class="cls-18" d="M-.5,81.69S37.65,91.25,64.55,104s40.73,25.15,40.73,25.15-22-5.13-48.73-9.2c-39.37-6-57-9.45-57-9.45Z" transform="translate(42.5 4.5)"/><path class="cls-19" d="M376.55,484.12s-31.23-1-38.36-1-16.16,6-31.9,3-33.58-2.4-53.69-2.87-20.48-.47-33.49,0-33.58,7.86-59.84,2.18-44.14-1.49-58.81,2.1S74.74,485,64.57,486.2s-14.35-.51-27.26,1.81-16,1.18-20.42,1.34l-13.37.49" transform="translate(42.5 4.5)"/><path class="cls-20" d="M322.88,400.68l-17.38.06.11,32,17.38-.06Z" transform="translate(42.5 4.5)"/><path class="cls-21" d="M322.94,416.68l-17.39.06.06,16,17.38-.06Z" transform="translate(42.5 4.5)"/><path class="cls-22" d="M162.51,485.9s28.4-22.64,35.29-23,19.46-8.18,19.46-8.18,31.69-23.26,32.59-23.26,10.2,2.07,10.2,2.07l19.77-2.18,54.26,1s11.41,6,12.31,6.57,6.6.58,10.51,3.87,10.52,8.08,10.52,8.08,6.61,4.49,7.21,6,10.51,3.87,13.52,7.76a25.68,25.68,0,0,0,6.61,6s20.72,8.94,23.74,15.85Z" transform="translate(42.5 4.5)"/><path class="cls-23" d="M222.55,466.15c8.39-2.44,20.37-5.48,21.77-5.89.7-.2,4.92-.46,8.92-.66a1.64,1.64,0,0,1,.54,3.22h-.06a23,23,0,0,0-7,4.24c-1,1-6.37,6.65-6.37,6.65l-6.78,6.82,40.57-.34,4,1.36A86.9,86.9,0,0,0,306,486.23l32.49.08-14.18-10a3.76,3.76,0,0,1,1.6-6.8l15.45-2.28s16.39.61,21.45,2.33,24.27,4.32,25.33,4.58-44.89,2.83-44.48,3.9c.31.81,23.62,5.93,34.69,8.32l29.42.07-13.37-13.29-7-9.27c-3.59-3.45-12.27-5.61-12.83-7-.37-.9-2.93-2.9-4.89-4.34-5.39-1-10.86-2-11.74-2.31-1.8-.59-13.38,1.65-15.79.06s-10-4.37-10-4.37-11-6.38-16-9.36a74.21,74.21,0,0,1-6.72-4.64l-29.64-.55-.32,0c5.66,1.44,13.21,3.43,14.5,4.07a6.32,6.32,0,0,1,1.22.88,2.3,2.3,0,0,1-2,4l-43.37-8.85c-.46,0-9,6.1-17.22,12l12.66,7.11-29.9,5.22c-3.76,2.18-12.33,6.81-17.59,7.06-6.89.33-35.29,23-35.29,23l24.18.06C195.29,480.62,216,468.06,222.55,466.15Zm77.08-17.7a90.34,90.34,0,0,1,10.52,0c1.87.26,33.48,9.77,33.48,9.77s-6.67-.78-7.87-1S316.83,452,315.89,452s-1.34-1.73-5.46-.65-13.12,9.8-13.72,10.55l0,.05,0-.05c.23-.58,1.45-5.79-.92-6.77-1.28-.53-6.3-1.82-11-3a1.38,1.38,0,0,1,.24-2.72C291.61,449,299.33,448.52,299.63,448.45Z" transform="translate(42.5 4.5)"/><path class="cls-24" d="M322.88,400.68l-17.39.06,8.67-7.24Z" transform="translate(42.5 4.5)"/><path class="cls-25" d="M418.5,486.5c-3-6.9-23.74-15.85-23.74-15.85a25.75,25.75,0,0,1-6.61-6c-1.17-1.51-3.37-2.79-5.66-3.88h0l-.19-.08-.1-.05-.12-.06-.17-.08-.06,0c-2-.93-4.08-1.72-5.48-2.38l-.06,0-.11-.06c-.85-.41-1.43-.78-1.56-1.11-.6-1.5-7.21-6-7.21-6s-6.61-4.78-10.52-8.07-9.61-3.28-10.51-3.88-12.31-6.56-12.31-6.56L323,432.19l-.05-15.52-.06-16-8.72-7.18-8.67,7.24.06,16,.05,15.12-25.79-.48-.32,0h0l-19.46,2.14s-9.18-2-10.18-2.07h0c-.47,0-9,6.1-17.22,12.05h0c-7.83,5.66-15.37,11.2-15.37,11.2s-.7.43-1.85,1.1h0c-3.76,2.18-12.32,6.82-17.58,7.07-6.89.32-35.29,23-35.29,23h0Z" transform="translate(42.5 4.5)"/><path class="cls-26" d="M157.66,334.64a2.11,2.11,0,0,0-1.61-2.15" transform="translate(42.5 4.5)"/><path class="cls-27" d="M292.57,371.83s5.92,40.5,18.53,52,32.59,3.05,34.08,7.1" transform="translate(42.5 4.5)"/><path class="cls-27" d="M324.76,438.53s-6.49,14.44-6.06,19.21,8.66-2.6,10.11-14.3S324.76,438.53,324.76,438.53Z" transform="translate(42.5 4.5)"/><path class="cls-27" d="M322.89,439.25s-9.53,21.37-6.21,24.41,9.24-19.79,8.08-25.13S322.89,439.25,322.89,439.25Z" transform="translate(42.5 4.5)"/><path class="cls-27" d="M324.47,439.68c0,.44-5.05,21.24-2.31,23.4s7.95-14.73,6.36-21.09S324.47,439.68,324.47,439.68Z" transform="translate(42.5 4.5)"/><path class="cls-28" d="M349.82,479.64a5.7,5.7,0,0,0,2.55.25c1.13-.24,4.68-1.95,5.31-1s-.68,3.7-2.58,4.9a24.12,24.12,0,0,1-5.87,2.92c-1.46.31-2.12.74-2.66.42s-1-1.78-1-1.78S349.47,481.18,349.82,479.64Z" transform="translate(42.5 4.5)"/><path class="cls-28" d="M357.76,479c-.11.72-.61,1.88-2.38,3.19a30.14,30.14,0,0,1-8.75,4.35l-.46.09a1.29,1.29,0,0,0,.41.45c.54.32,1.2-.11,2.66-.42a24.08,24.08,0,0,0,5.86-2.92C356.91,482.62,358.18,480.05,357.76,479Z" transform="translate(42.5 4.5)"/><path class="cls-29" d="M343,454.17s.85,3.71,2.19,8.08,2.9,14.09,3.12,14.68.89.64,1.24.9a6.22,6.22,0,0,1,.86,2.05,10.93,10.93,0,0,1-1.88,4.07,11.64,11.64,0,0,1-2.42,1.74,10.28,10.28,0,0,1-2.17-3.14c-.38-1.32-.34-2.33-.63-2.92S340,471.91,339,469a79.14,79.14,0,0,0-3.68-8.45C335.19,460.36,338.61,454.3,343,454.17Z" transform="translate(42.5 4.5)"/><path class="cls-28" d="M327.51,482a18.76,18.76,0,0,0,3.73,3.32c1.61.87,2.9.84,2.65,1.49s-1.26,1.34-3.68,1.41-5.87-.84-7.36-1-3.05.66-3.75-1,1.18-3.94,1.18-3.94Z" transform="translate(42.5 4.5)"/><path class="cls-28" d="M333.89,486.79a.34.34,0,0,0-.12-.42,12,12,0,0,1-3.49,1c-1.94.16-6-.93-8.21-1.23s-3,.09-3,.09c.7,1.65,2.25.86,3.75,1s4.95,1,7.36,1S333.63,487.44,333.89,486.79Z" transform="translate(42.5 4.5)"/><path class="cls-29" d="M324,464.24s-2.52,11.6-3.18,14-1.27,4.21-1.16,4.58.21.84.21.84,1.95,0,3.52-.12a31.81,31.81,0,0,0,4.43-1,5.48,5.48,0,0,0,.5-2c-.11-.55-.82-2.57-.83-2.94s4.31-13.7,4.31-13.7Z" transform="translate(42.5 4.5)"/><path class="cls-29" d="M343.32,439.31a22.65,22.65,0,0,0,.79-4.24c0-1.61-1.71-.27-1.67.78A17.68,17.68,0,0,0,343.32,439.31Z" transform="translate(42.5 4.5)"/><path class="cls-28" d="M346.47,435.64a2.38,2.38,0,0,1-1.51.27,8.43,8.43,0,0,1-1-.43l-1.21.86a18.08,18.08,0,0,1,.12-3.53c.26-.74.34-.93,1.35-1S346.47,435.64,346.47,435.64Z" transform="translate(42.5 4.5)"/><path class="cls-30" d="M343.74,431.91s-1,3.61-.76,5.07.34,2.33.34,2.33a6.49,6.49,0,0,1-2.27-2.27c-.77-1.44.56-10.3.56-10.3l1.17,3.87Z" transform="translate(42.5 4.5)"/><path class="cls-28" d="M345.18,430.89s-.35,1.11.17,1.16,1.63.6,2.08.32a1.16,1.16,0,0,0,.28-1.36A9.14,9.14,0,0,0,345.18,430.89Z" transform="translate(42.5 4.5)"/><path class="cls-28" d="M345,432.1s-.43.8-.05,1.15a3.58,3.58,0,0,0,2.35.57c.46-.19.15-1.44.15-1.44Z" transform="translate(42.5 4.5)"/><path class="cls-28" d="M344.93,433.25s-.52,1.3-.09,1.52a3.28,3.28,0,0,0,1.83.17c.32-.14.61-1.12.61-1.12S345.39,433.33,344.93,433.25Z" transform="translate(42.5 4.5)"/><path class="cls-28" d="M344.84,434.77s-.54.47-.11.83a1.84,1.84,0,0,0,1.74,0,3,3,0,0,0,.21-.7A4.2,4.2,0,0,1,344.84,434.77Z" transform="translate(42.5 4.5)"/><path class="cls-28" d="M345.18,430.89s-1.3-.18-1.46.15a4.72,4.72,0,0,0-.16,2.3.68.68,0,0,0,1,.15C344.93,433.25,345.18,430.89,345.18,430.89Z" transform="translate(42.5 4.5)"/><path class="cls-31" d="M340.56,411.9a63.24,63.24,0,0,1,2,7.74c.51,3.25-1.35,15.74-1.26,18.69s1.36,4.44,1.18,5.16-.83,2.87-.83,2.87l2,9.11a15.79,15.79,0,0,0-4.38,3.19l-4.64,4.94.09,6.21s-3.79-.8-6.57-1.63a39.59,39.59,0,0,1-5.46-2.17l2-11.37a57.84,57.84,0,0,0-.12-10.49c-.63-4,.5-10.11,1-13.48s.37-11.12,1.64-15.95,2.26-5.88,2.26-5.88A12.89,12.89,0,0,1,340.56,411.9Z" transform="translate(42.5 4.5)"/><path class="cls-28" d="M339.82,392a11.17,11.17,0,0,0-4.09-1.42,6.47,6.47,0,0,0-5.74,3.27,12.2,12.2,0,0,0-1.39,4.92c0,.33,5.42-3.06,8.34-4.37S340.56,393.05,339.82,392Z" transform="translate(42.5 4.5)"/><path class="cls-28" d="M329.68,402.57a59.61,59.61,0,0,1,6.22-4.36c2.47-1.36,5.8-1.73,6-2.82a3,3,0,0,0-2.1-3.4c-1.68-.34-9.4,3.31-10.74,5.59S327,401.05,329.68,402.57Z" transform="translate(42.5 4.5)"/><path class="cls-32" d="M329.68,402.57s-.35-2.94,5.35-5.49,5.77-4.55,5.77-4.55" transform="translate(42.5 4.5)"/><path class="cls-32" d="M328.22,401.14s0-2.25,3.65-4.54a23.35,23.35,0,0,0,4.89-3.75" transform="translate(42.5 4.5)"/><path class="cls-28" d="M341.16,395.73a3.74,3.74,0,0,1,.75,1.65c0,.71,0,1.47,0,1.47a11.88,11.88,0,0,1,1,1.45c.27.57-.58,4.07-.92,5.75s-1.37,1.39-1.37,1.39,1,.74,1,1.19a3,3,0,0,1-1.15,2.22,4,4,0,0,1-1.26.62s1.1.41.28.82-2.5.27-4.78-.75-2.49-1.53-3.32-1.5-1.46.69-2,.57-2-1.47-1.69-2.77,1.6-4.55,1.94-5.91,1.45-3.06,4.35-4.56A19.73,19.73,0,0,1,341.16,395.73Z" transform="translate(42.5 4.5)"/><path class="cls-32" d="M335.62,397.57s-1.11,3.45.26,4,2.81-.54,3.81-1.15a24.52,24.52,0,0,0,2.27-1.61,4.35,4.35,0,0,0,0-1.47,3.71,3.71,0,0,0-.76-1.65S336.62,396.64,335.62,397.57Z" transform="translate(42.5 4.5)"/><path class="cls-32" d="M341.22,397.72a1.85,1.85,0,0,0-2.17.65" transform="translate(42.5 4.5)"/><path class="cls-33" d="M340.81,399.08c0,.29-.11.52-.28.52s-.29-.22-.3-.5.11-.52.27-.52S340.8,398.8,340.81,399.08Z" transform="translate(42.5 4.5)"/><path class="cls-32" d="M335.31,401.89s.89,3.76,1.89,5.14a2.61,2.61,0,0,0,2.73.88" transform="translate(42.5 4.5)"/><path class="cls-32" d="M341.66,399.7a9.23,9.23,0,0,1-2.58,3.68" transform="translate(42.5 4.5)"/><path class="cls-32" d="M333.38,399.76s-1.44,5.25.26,8.22a6,6,0,0,0,4.4,3.14" transform="translate(42.5 4.5)"/><path class="cls-32" d="M331.44,409.58a13.06,13.06,0,0,1-1.66-3.87,4.69,4.69,0,0,1,.66-3.55" transform="translate(42.5 4.5)"/><path class="cls-28" d="M325.5,446.75a7,7,0,0,1,0,1.85c-.14.74,0,1.35-.91,1.32s-1.08-.58-1.08-.58-.89.48-1.46,0a2.54,2.54,0,0,1-.83-1.43A39.29,39.29,0,0,1,325.5,446.75Z" transform="translate(42.5 4.5)"/><path class="cls-34" d="M331.64,410.8s-1.27-.29-2.85,1.81-7.67,11.9-8.55,15.76.43,19.32.53,19.68,3.37.17,4.27-.31a6.7,6.7,0,0,1,1.35-.59s-.05-7.57.24-9.76.39-2.29.45-3.12,8.15-13.56,8.56-15.12.75-2.4-.22-4.28" transform="translate(42.5 4.5)"/><path class="cls-32" d="M331.64,410.8s-1.27-.29-2.85,1.81-7.67,11.9-8.55,15.76.43,19.32.53,19.68,3.37.17,4.27-.31a6.7,6.7,0,0,1,1.35-.59s-.05-7.57.24-9.76.39-2.29.45-3.12,8.15-13.56,8.56-15.12.75-2.4-.22-4.28" transform="translate(42.5 4.5)"/><path class="cls-28" d="M325,447.74a6.7,6.7,0,0,1,1.35-.59s0-.9,0-2.17a32.81,32.81,0,0,1-5.8.82c.08,1.3.15,2.16.17,2.25C320.87,448.41,324.14,448.22,325,447.74Z" transform="translate(42.5 4.5)"/><path class="cls-32" d="M341.15,445.53l-.81-2.11a15.15,15.15,0,0,0-4.89,3.82" transform="translate(42.5 4.5)"/><path class="cls-32" d="M331.36,446.84s5.65-5.19,7.23-6.11a2.28,2.28,0,0,1,2.67,0" transform="translate(42.5 4.5)"/><path class="cls-32" d="M334.62,463.59a5.6,5.6,0,0,1-3.75,2.12,34.11,34.11,0,0,1-4.81.15s1.09-10.2,1-14.88" transform="translate(42.5 4.5)"/><path class="cls-27" d="M122.51,407.23s6.57,19.73,21.69,22.36,31.5-24,31.5-24" transform="translate(42.5 4.5)"/><path class="cls-35" d="M168,319.63h-2.27l.86-16.41h.55Z" transform="translate(42.5 4.5)"/><path class="cls-36" d="M166.94,360.82a4.76,4.76,0,0,1-4.74-4.75v-4.28a4.75,4.75,0,0,1,9.49,0v4.28A4.77,4.77,0,0,1,166.94,360.82Z" transform="translate(42.5 4.5)"/><path class="cls-37" d="M172.92,362H161V462.91h11.95Z" transform="translate(42.5 4.5)"/><path class="cls-38" d="M101.61,393.64l7.75-6.73,9.39,10.58,1.89,18.9H99.36L93.71,404.3Z" transform="translate(42.5 4.5)"/><path class="cls-39" d="M132.43,435.86H85.72l8.2-19.47h30.3Z" transform="translate(42.5 4.5)"/><path class="cls-40" d="M128.38,435.77H89.77l6.78-16.09h25Z" transform="translate(42.5 4.5)"/><path class="cls-41" d="M103.13,436.34H99.36l3.28-17.23h3.78Z" transform="translate(42.5 4.5)"/><path class="cls-42" d="M115.66,436.34h3.77l-3.28-17.23h-3.78Z" transform="translate(42.5 4.5)"/><path class="cls-43" d="M179.59,441.77H60.83v45.7H179.59Z" transform="translate(42.5 4.5)"/><path class="cls-44" d="M117.32,432.69h-5.6v54.78h5.6Z" transform="translate(42.5 4.5)"/><path class="cls-45" d="M106.86,432.69h-5.59v54.78h5.59Z" transform="translate(42.5 4.5)"/><path class="cls-46" d="M94.94,432.69h-5.6v54.78h5.6Z" transform="translate(42.5 4.5)"/><path class="cls-47" d="M84.48,432.69H78.89v54.78h5.59Z" transform="translate(42.5 4.5)"/><path class="cls-48" d="M75.39,434.62h-5.6v52.85h5.6Z" transform="translate(42.5 4.5)"/><path class="cls-49" d="M147.89,434.62h-5.6v52.85h5.6Z" transform="translate(42.5 4.5)"/><path class="cls-50" d="M157.25,434.62h-5.6v52.85h5.6Z" transform="translate(42.5 4.5)"/><path class="cls-51" d="M66.09,440.09H60.5V487.5h5.59Z" transform="translate(42.5 4.5)"/><path class="cls-52" d="M139.26,432.69h-5.59v54.78h5.59Z" transform="translate(42.5 4.5)"/><path class="cls-53" d="M128.81,432.69h-5.6v54.78h5.6Z" transform="translate(42.5 4.5)"/><path class="cls-54" d="M158.77,436.46H69.92v51h88.85Z" transform="translate(42.5 4.5)"/><path class="cls-55" d="M139.26,434.62H78.89v52.85h60.37Z" transform="translate(42.5 4.5)"/><path class="cls-56" d="M175.11,378.89H158.77V487.5h16.34Z" transform="translate(42.5 4.5)"/><path class="cls-57" d="M169.84,378.89H164V487.5h5.8Z" transform="translate(42.5 4.5)"/><path class="cls-58" d="M170.43,432.06h-7v2.27h7Z" transform="translate(42.5 4.5)"/><path class="cls-59" d="M170.43,415.2h-7v2.27h7Z" transform="translate(42.5 4.5)"/><path class="cls-60" d="M170.43,399.62h-7v2.28h7Z" transform="translate(42.5 4.5)"/><path class="cls-61" d="M170.43,384.18h-7v2.27h7Z" transform="translate(42.5 4.5)"/><path class="cls-62" d="M170.43,447.76h-7V450h7Z" transform="translate(42.5 4.5)"/><path class="cls-63" d="M170.43,463.34h-7v2.27h7Z" transform="translate(42.5 4.5)"/><path class="cls-64" d="M170.43,477.62h-7v2.28h7Z" transform="translate(42.5 4.5)"/><path class="cls-65" d="M98.22,428.31c.26-.31.74-.69.74-1.11,0-1-1.15-1.76-1.15-1.76s-2.69.78-2.69,1.75a1.69,1.69,0,0,0,.3,1.12l-.32.79h-.41l-1,2.73h3.77l.82-2.73h-.4Z" transform="translate(42.5 4.5)"/><path class="cls-66" d="M120.16,428.31c-.25-.31-.73-.69-.73-1.11,0-1,1.15-1.76,1.15-1.76s2.68.78,2.68,1.75a1.64,1.64,0,0,1-.3,1.12l.33.79h.4l1,2.73h-3.77l-.82-2.73h.4Z" transform="translate(42.5 4.5)"/><path class="cls-67" d="M124.59,422.8H93.32v1.52h31.27Z" transform="translate(42.5 4.5)"/><path class="cls-68" d="M109.36,386.91s-17,11.82-20.11,17.56c-2,3.62-1,10.43,4.69,11.92h10.39s-4.37-5-4-11.21S109.36,386.91,109.36,386.91Z" transform="translate(42.5 4.5)"/><path class="cls-69" d="M97.41,451.56H84.29v13.26H97.41Z" transform="translate(42.5 4.5)"/><path class="cls-70" d="M109.36,386.91s17,11.82,20.11,17.56c2,3.62,1,10.43-4.68,11.92h-10.4s4.38-5,4-11.21S109.36,386.91,109.36,386.91Z" transform="translate(42.5 4.5)"/><path class="cls-71" d="M181.44,372.66h-29v8.49h29Z" transform="translate(42.5 4.5)"/><path class="cls-72" d="M177.69,374.15H156.48l-5.09-8.69v14.91H182.5V365.46Z" transform="translate(42.5 4.5)"/><path class="cls-73" d="M173.08,357h-12L156,348.34v14.91h21.88V348.34Z" transform="translate(42.5 4.5)"/><path class="cls-74" d="M169.35,356.92h-4.64L163,353.26l-2.65,6.27h13.27l-2.65-6.27Z" transform="translate(42.5 4.5)"/><path class="cls-75" d="M164,382.61h-6.15v7.56H164Z" transform="translate(42.5 4.5)"/><path class="cls-76" d="M176,382.59h-6.16v7.56H176Z" transform="translate(42.5 4.5)"/><path class="cls-77" d="M170,387.39h-6.15v7.55H170Z" transform="translate(42.5 4.5)"/><path class="cls-78" d="M175.11,382.59v-1.44H158.77v1.44h-.88v2.58H176v-2.58Z" transform="translate(42.5 4.5)"/><path class="cls-79" d="M170.85,363.25H163v3.31h7.82Z" transform="translate(42.5 4.5)"/><path class="cls-80" d="M172.74,363.25H161v2.21h11.77Z" transform="translate(42.5 4.5)"/><path class="cls-81" d="M170,372.66v-.9h0c-.31-1.87-3.07-3.34-3.07-3.34s-2.75,1.47-3.06,3.34h0v.9Z" transform="translate(42.5 4.5)"/><path class="cls-82" d="M95.76,460.73V459.3h-.05c-.5-3-4.86-5.3-4.86-5.3s-4.37,2.33-4.87,5.3h0v1.43Z" transform="translate(42.5 4.5)"/><path class="cls-83" d="M173.58,330.35c0-6.2-4.53-11.24-6.73-11.24-1.62,0-6.72,5-6.72,11.24a16.87,16.87,0,0,0,1.1,6.16,13.73,13.73,0,0,1,1,5,4,4,0,0,0,4,3.93h1.44a4,4,0,0,0,4-3.93,15.36,15.36,0,0,1,.91-5.28A17,17,0,0,0,173.58,330.35Z" transform="translate(42.5 4.5)"/><path class="cls-84" d="M170.4,346.93h-6.91V348h6.91Z" transform="translate(42.5 4.5)"/><path class="cls-85" d="M170.4,344.23h-6.91v1.06h6.91Z" transform="translate(42.5 4.5)"/><path class="cls-86" d="M170,345.29h-6.18v1.64H170Z" transform="translate(42.5 4.5)"/><path class="cls-87" d="M167.73,372.66H166v4.63h1.71Z" transform="translate(42.5 4.5)"/><path class="cls-88" d="M94.21,462.33H87.5v13.12h6.71Z" transform="translate(42.5 4.5)"/><path class="cls-89" d="M115.74,451.56H102.62v13.26h13.12Z" transform="translate(42.5 4.5)"/><path class="cls-90" d="M114.09,460.73V459.3h0c-.5-3-4.87-5.3-4.87-5.3s-4.36,2.33-4.86,5.3h0v1.43Z" transform="translate(42.5 4.5)"/><path class="cls-91" d="M112.53,462.33h-6.71v13.12h6.71Z" transform="translate(42.5 4.5)"/><path class="cls-92" d="M134.32,451.56H121.2v13.26h13.12Z" transform="translate(42.5 4.5)"/><path class="cls-93" d="M132.67,460.73V459.3h0c-.5-3-4.86-5.3-4.86-5.3s-4.37,2.33-4.86,5.3h-.05v1.43Z" transform="translate(42.5 4.5)"/><path class="cls-94" d="M131.11,462.33h-6.7v13.12h6.7Z" transform="translate(42.5 4.5)"/><path class="cls-95" d="M168.83,298.74a2.54,2.54,0,0,1,.66,1.7,2.63,2.63,0,0,1-5.26,0,2.53,2.53,0,0,1,.65-1.7,3.36,3.36,0,0,0-1.46,2.75,3.44,3.44,0,1,0,5.41-2.75Z" transform="translate(42.5 4.5)"/><path class="cls-96" d="M141.37,436.34h-2.11v51h2.11Z" transform="translate(42.5 4.5)"/><path class="cls-97" d="M177.22,441.77h-2.11V487.5h2.11Z" transform="translate(42.5 4.5)"/><path class="cls-98" d="M182.5,365.46l-4,7.2h-5.59v-9.4h5V348.34L173.08,357h-.56l-.83-2V351a3.92,3.92,0,0,0-1.41-3h.12v-1.05H170v-1.64h.37v-.93a3.89,3.89,0,0,0,1.29-2.88,15.36,15.36,0,0,1,.91-5.28,17.28,17.28,0,0,0,1-5.85c0-5.27-3.27-9.7-5.6-10.91l-.76-14.61a3.39,3.39,0,0,0,3.08-3.34,3.33,3.33,0,0,0-1.47-2.75,2.52,2.52,0,0,1,.66,1.7,2.63,2.63,0,0,1-5.26,0,2.51,2.51,0,0,1,.65-1.7,3.34,3.34,0,0,0-1.46,2.75,3.39,3.39,0,0,0,3.08,3.34l-.77,14.72a14.07,14.07,0,0,0-5.59,10.8,16.91,16.91,0,0,0,1.1,6.16,13.68,13.68,0,0,1,1,5,3.9,3.9,0,0,0,1.29,2.88v.92h.37v1.65h-.37V348h.13a3.89,3.89,0,0,0-1.42,3v4.09l-.83,2h-.27L156,348.33v14.92h5v9.4h-5.36l-4.22-7.2v14.91h1.06v.79h6.32v1.44h-.87v7.57h.87v46.3h-1.52v-1.84h-5.59v1.84h-3.77v-1.84h-5.6v1.84h-.92v-.13h-2.11v-3.64h-5.59v1.93h-1.76l-7.69-18.23h.57c5.68-1.5,6.66-8.3,4.68-11.92-3.14-5.75-20.11-17.56-20.11-17.56s-17,11.82-20.11,17.56c-2,3.62-1,10.43,4.69,11.92h0l-7.68,18.23H84.48v-1.93H78.89v3.77h-3.5v-1.84h-5.6v7.15H66.1v-1.68H60.5V487.5h5.59v0h92.66v0h18.46v0h2.37v-45.7h-4.49V390.15H176v-7.56h-.88v-1.44h6.33v-.78h1.06V365.46Z" transform="translate(42.5 4.5)"/><path class="cls-99" d="M197.5,424.48s-4.31,16.19-8.25,21.33-7.48,9.09-8.81,15.34a47.38,47.38,0,0,0-1,11c0,1.6.19,3.39.38,5.06.14,1.21,0,3.47,1.11,4.32,1.4,1.08,3.52,1.16,3.72,1.77s1.16,3.07.22,3.17c-1.7.19-6.31-.28-6.7-2.21-.93-4.63-2.24-9.18-2.53-13.89-.24-3.89-1.34-8.72-1.26-12.61.08-3.31,5.75-6.59,5.66-10.77s-1.91-11.61-2.15-12.71,1.71-10.58,6.37-15.57S198.2,417.92,197.5,424.48Z" transform="translate(42.5 4.5)"/><path class="cls-100" d="M177.86,434.22c-.24-1.1,1.72-10.58,6.37-15.56s14-.74,13.27,5.82a147.09,147.09,0,0,1-4.83,14.7c-5.22,2.67-8.62,1.63-13.4,1.72C178.71,437.78,178,434.88,177.86,434.22Z" transform="translate(42.5 4.5)"/><path class="cls-101" d="M229.88,468.81a36.62,36.62,0,0,0-.36,10.6c.36,1.41,4.06,1.94,4.77,2.65s1.59,1.59.88,2.29-5.47,0-6.53,0-1.41-2.12-1.41-3.53.35-7.59.35-10.95.71-5.64,1.23-10.59c.29-2.69,1.26-8.16,2.09-13.46a92,92,0,0,0,1.27-11.26,41.08,41.08,0,0,1,.88-9s4.94-3.53,10.59,3.36c0,0-3.89,12.15-6.88,21.64-1.47,4.67-2.71,8.69-3.18,10.32C232.17,465.81,230.58,466.34,229.88,468.81Z" transform="translate(42.5 4.5)"/><path class="cls-102" d="M243.64,428.91s-3.89,12.15-6.88,21.64l-5.86-4.73a92,92,0,0,0,1.27-11.26,41.08,41.08,0,0,1,.88-9S238,422,243.64,428.91Z" transform="translate(42.5 4.5)"/><path class="cls-103" d="M283.06,360.34s-.61-3.53-2.3-3.84-3.23,2.15-2,3.53,2.15,2.31,2.15,2.31" transform="translate(42.5 4.5)"/><path class="cls-104" d="M283.06,360.34s-.61-3.53-2.3-3.84-3.23,2.15-2,3.53,2.15,2.31,2.15,2.31" transform="translate(42.5 4.5)"/><path class="cls-105" d="M277.84,360.29s-2,.41-2,1.3.49,1.21,0,1.62-1.22.64-1.22,1.29a16,16,0,0,0,.17,1.78,6.31,6.31,0,0,0-.81,1.38,5.4,5.4,0,0,0,0,2,2.21,2.21,0,0,0-.41,1.62,1.94,1.94,0,0,1-.32,1.78,2.85,2.85,0,0,0-.81,1.78c0,.89.32,1-.16,1.86s-1.13,1.54-1.13,2.19.4,1.21.16,1.61-.64.41-.73,1.22,0,1.46-.08,1.78-1.21,1.3-1.21,1.62a5,5,0,0,1,0,1.54c-.17.32-.81.24-.57,1.13a2,2,0,0,1-.32,1.62,9.47,9.47,0,0,1-.17,1.05l-.08.32s5.75-10.28,7-15.3,2.51-11.33,3.15-12.38a10.06,10.06,0,0,0,1-2.35Z" transform="translate(42.5 4.5)"/><path class="cls-106" d="M161.23,457.16c.51-1,3.91-3.69,7.1-8.37A26.78,26.78,0,0,0,172.72,437c.22-2.19-.36-10.15-.87-14.73a47.76,47.76,0,0,1-.08-9s-2,10.89-3.36,15.52,0,10,0,10a5.51,5.51,0,0,1,.89,2.37,6.25,6.25,0,0,1-1,3.2,5.94,5.94,0,0,1-1.31-2.95,4.65,4.65,0,0,1,.37-2.66,31.76,31.76,0,0,1-.24-9.09c.52-3,2.65-12.19,3.54-15.23s1.94-8.87,1.94-8.87,5.46-13.7,16-19.23,28.55-7.52,39-6,16.42,8.6,20.57,11.2,7.36,4.3,11.66,4.3,8.6-4.76,10.74-11.36S275.69,366,275.69,366s1.07-4.91,3.07-6,9.36.46,12,1.69,8,3.38,8,3.38,6.93,1.08,7.09,4.61c0,.81,0,1.51,0,2.1s.65,1.41.6,1.76a1.12,1.12,0,0,1-1.09,1.05s.09,1.57-.83,2.09-1.81-1.06-3.41-1.8a16,16,0,0,0-5.27-.75c-1,.16-2.23,1.15-3.77,2.07-1.58,1.2-5.17,4.24-6.62,8-1.45,6.84-4.24,17.36-8.5,22.31-6.6,7.68-12.89,11.82-16,14.59s-6.76,7.52-6.76,9.21-1.12,15,0,21.6,6,27.62,7.31,29.38,5.07,2.29,5.91,3.31.88,1.79.27,1.83l-6.44.41a3.2,3.2,0,0,1-1.48-1.6c-.54-1.19.38-3.72-.76-4.72s-9-24.4-10.94-26.89-1.6-8.09-3.05-12.05a43.08,43.08,0,0,0-4.93-8.67,24,24,0,0,0-5.88-5.22c-3.22-1.84-25.64-3.07-32.23-3.68a70.72,70.72,0,0,1-10.86-1.78s-1.49,10.21-4.12,14.22-10.63,14.88-13.77,19.15c-3.7,5-3.63,8.91-4.12,10.05s1,12.49.78,15.26.43,2.75.76,3.19l.33.45a14.07,14.07,0,0,1,2.18.82,3.35,3.35,0,0,1,1.16,1.79l-.58.8-5.06.22s-1.25-.41-1.34-2.55a81.9,81.9,0,0,0-3.1-15.12C162.26,463.53,160.72,458.14,161.23,457.16Z" transform="translate(42.5 4.5)"/><path class="cls-103" d="M305.32,374.62s-.28-1.16-2.26-1.16Z" transform="translate(42.5 4.5)"/><path class="cls-32" d="M305.32,374.62s-.28-1.16-2.26-1.16" transform="translate(42.5 4.5)"/><path class="cls-32" d="M290.55,376.34a14,14,0,0,0,1.33-1" transform="translate(42.5 4.5)"/><path class="cls-32" d="M279.07,374.16c2.76,3.23,7.52,3.68,7.52,3.68a6.52,6.52,0,0,0,2.37-.63" transform="translate(42.5 4.5)"/><path class="cls-32" d="M293.67,365.3a9,9,0,0,1-5.24,1.42" transform="translate(42.5 4.5)"/><path class="cls-107" d="M292.72,366.13a1.58,1.58,0,0,1-.84,1c-.78.45-1.62-.52-1.62-.52Z" transform="translate(42.5 4.5)"/><path class="cls-32" d="M303.78,370.24s-.15-.44-1.33-.84" transform="translate(42.5 4.5)"/><path class="cls-103" d="M281.37,361.57s-1.07-3.69-3.68-5.22-3.07,1.68-2.46,3.07,4.3,2.91,4.3,2.91" transform="translate(42.5 4.5)"/><path class="cls-104" d="M281.37,361.57s-1.07-3.69-3.68-5.22-3.07,1.68-2.46,3.07,4.3,2.91,4.3,2.91" transform="translate(42.5 4.5)"/><path class="cls-27" d="M236,369.33a52.2,52.2,0,0,0,6.84,8.36c3.4,3.08,19.21,17.88,33.84,14.05s17.81-17.6,17.81-17.6" transform="translate(42.5 4.5)"/><path class="cls-27" d="M296.72,364s-2,6.45-2,10.9" transform="translate(42.5 4.5)"/><path class="cls-27" d="M294.73,371.86s-14.34.83-20.94-2.7" transform="translate(42.5 4.5)"/><path class="cls-108" d="M262.37,406.9H167.69a1.48,1.48,0,0,1,0-3h94.69a1.48,1.48,0,0,1,0,3Z" transform="translate(42.5 4.5)"/><path class="cls-109" d="M192.93,431.08s-1.54,7.23-1.28,7.29.7-.9.7-.9.52,1.16.71.9a3.27,3.27,0,0,0,.32-1s.71,1.43.84,1.23a4,4,0,0,0,.2-1s.45,1.35.71.45-.52-7.16-.52-7.16Z" transform="translate(42.5 4.5)"/><path class="cls-109" d="M193,427.81a14.59,14.59,0,0,0-.58,2.78c0,.86,2.11,1.43,2.5.76s-.68-4.11-.68-4.11S193.15,426.67,193,427.81Z" transform="translate(42.5 4.5)"/><path class="cls-109" d="M198.36,431.86s-1.55,7.23-1.29,7.29.71-.9.71-.9.52,1.16.71.9a3.57,3.57,0,0,0,.32-1s.71,1.42.84,1.23a4,4,0,0,0,.2-1s.45,1.35.71.45-.52-7.17-.52-7.17Z" transform="translate(42.5 4.5)"/><path class="cls-109" d="M198.39,428.59a14.43,14.43,0,0,0-.58,2.77c0,.87,2.11,1.44,2.49.77s-.67-4.11-.67-4.11S198.58,427.44,198.39,428.59Z" transform="translate(42.5 4.5)"/><path class="cls-109" d="M203,433.15s-1.55,7.23-1.29,7.29.71-.9.71-.9.52,1.16.71.9a3.57,3.57,0,0,0,.32-1s.71,1.42.84,1.23a3.91,3.91,0,0,0,.19-1s.45,1.35.71.44-.52-7.16-.52-7.16Z" transform="translate(42.5 4.5)"/><path class="cls-109" d="M203.07,429.88a14.43,14.43,0,0,0-.58,2.77c0,.87,2.1,1.44,2.49.77s-.67-4.11-.67-4.11S203.26,428.73,203.07,429.88Z" transform="translate(42.5 4.5)"/><path class="cls-109" d="M208,433s-1.55,7.22-1.29,7.29.71-.91.71-.91.52,1.17.71.91a3.57,3.57,0,0,0,.32-1s.71,1.42.84,1.22a3.85,3.85,0,0,0,.19-1s.45,1.36.71.45-.52-7.16-.52-7.16Z" transform="translate(42.5 4.5)"/><path class="cls-109" d="M208.06,429.71a14.59,14.59,0,0,0-.58,2.78c0,.86,2.11,1.44,2.49.77s-.67-4.12-.67-4.12S208.25,428.57,208.06,429.71Z" transform="translate(42.5 4.5)"/><path class="cls-109" d="M213.2,433.31s-1.55,7.23-1.29,7.29.71-.9.71-.9.51,1.16.7.9a3.37,3.37,0,0,0,.33-1s.7,1.42.84,1.23a4.45,4.45,0,0,0,.19-1s.45,1.36.71.45-.52-7.16-.52-7.16Z" transform="translate(42.5 4.5)"/><path class="cls-109" d="M213.22,430a14.65,14.65,0,0,0-.57,2.77c0,.86,2.1,1.44,2.49.77s-.67-4.11-.67-4.11S213.41,428.89,213.22,430Z" transform="translate(42.5 4.5)"/><path class="cls-109" d="M217.71,433.31s-1.55,7.23-1.29,7.29.71-.9.71-.9.52,1.16.71.9a3.57,3.57,0,0,0,.32-1s.71,1.42.84,1.23a4.07,4.07,0,0,0,.2-1s.45,1.36.7.45-.51-7.16-.51-7.16Z" transform="translate(42.5 4.5)"/><path class="cls-109" d="M217.74,430a14.43,14.43,0,0,0-.58,2.77c0,.86,2.1,1.44,2.49.77s-.67-4.11-.67-4.11S217.93,428.89,217.74,430Z" transform="translate(42.5 4.5)"/><path class="cls-109" d="M222.87,433s-1.55,7.22-1.29,7.29.71-.91.71-.91.52,1.17.71.91a3.57,3.57,0,0,0,.32-1s.71,1.42.84,1.22a3.85,3.85,0,0,0,.19-1s.45,1.36.71.45-.52-7.16-.52-7.16Z" transform="translate(42.5 4.5)"/><path class="cls-109" d="M222.9,429.71a14.59,14.59,0,0,0-.58,2.78c0,.86,2.1,1.44,2.49.77s-.67-4.12-.67-4.12S223.09,428.57,222.9,429.71Z" transform="translate(42.5 4.5)"/><path class="cls-109" d="M227.71,433.15s-1.55,7.23-1.29,7.29.71-.9.71-.9.52,1.16.71.9a3.57,3.57,0,0,0,.32-1s.71,1.42.84,1.23a4,4,0,0,0,.2-1s.44,1.35.7.44-.51-7.16-.51-7.16Z" transform="translate(42.5 4.5)"/><path class="cls-109" d="M227.73,429.88a14.65,14.65,0,0,0-.57,2.77c0,.87,2.1,1.44,2.48.77s-.67-4.11-.67-4.11S227.93,428.73,227.73,429.88Z" transform="translate(42.5 4.5)"/><path class="cls-109" d="M233.19,432.67s-1.55,7.22-1.29,7.28.71-.9.71-.9.52,1.16.71.9a3.48,3.48,0,0,0,.32-1s.71,1.43.84,1.23a4,4,0,0,0,.2-1s.44,1.35.7.45-.51-7.16-.51-7.16Z" transform="translate(42.5 4.5)"/><path class="cls-109" d="M233.22,429.39a14.59,14.59,0,0,0-.58,2.78c0,.86,2.1,1.43,2.49.76s-.67-4.11-.67-4.11S233.41,428.24,233.22,429.39Z" transform="translate(42.5 4.5)"/><path class="cls-109" d="M238.19,432.51s-1.55,7.22-1.29,7.29.71-.91.71-.91.52,1.16.71.91a3.57,3.57,0,0,0,.32-1s.71,1.42.84,1.22a3.94,3.94,0,0,0,.2-1s.44,1.35.7.45-.51-7.16-.51-7.16Z" transform="translate(42.5 4.5)"/><path class="cls-109" d="M238.21,429.23a14.81,14.81,0,0,0-.57,2.78c0,.86,2.1,1.44,2.48.77s-.67-4.12-.67-4.12S238.41,428.08,238.21,429.23Z" transform="translate(42.5 4.5)"/><path class="cls-109" d="M243.67,432.67s-1.55,7.22-1.29,7.28.71-.9.71-.9.52,1.16.71.9a3.48,3.48,0,0,0,.32-1s.71,1.43.84,1.23a4,4,0,0,0,.2-1s.45,1.35.7.45-.51-7.16-.51-7.16Z" transform="translate(42.5 4.5)"/><path class="cls-109" d="M243.7,429.39a14.59,14.59,0,0,0-.58,2.78c0,.86,2.1,1.43,2.49.76s-.67-4.11-.67-4.11S243.89,428.24,243.7,429.39Z" transform="translate(42.5 4.5)"/><path class="cls-109" d="M248.67,433.8s-1.55,7.22-1.29,7.29.71-.91.71-.91.52,1.17.71.91a3.61,3.61,0,0,0,.32-1s.71,1.43.84,1.23a3.94,3.94,0,0,0,.2-1s.44,1.35.7.45-.51-7.16-.51-7.16Z" transform="translate(42.5 4.5)"/><path class="cls-109" d="M248.69,430.52a14.81,14.81,0,0,0-.57,2.78c0,.86,2.1,1.43,2.48.77s-.67-4.12-.67-4.12S248.89,429.37,248.69,430.52Z" transform="translate(42.5 4.5)"/><path class="cls-109" d="M258.29,395.18s-.13,1.07-.36,2.78c0,.21-.05.42-.08.64l-.09.71-.09.65c-.22,1.69-.48,3.7-.76,5.82,0,.19-.05.38-.08.57s-.05.42-.08.62-.05.39-.08.58c-.22,1.68-.45,3.39-.67,5,0,.21-.07.43-.1.64-.13,1-.26,1.91-.39,2.81,0,.21,0,.41-.09.61-.18,1.27-.34,2.42-.49,3.4,0,.18-.05.34-.07.5s-.06.4-.1.59c-.27,1.7-.51,3.36-.73,4.89,0,.19-.05.38-.07.57s-.07.41-.09.61-.06.39-.08.58c-.35,2.51-.6,4.49-.71,5.44-.05.4-.08.62-.08.62l-.65-.22a61.26,61.26,0,0,0-7.33-1.95,4.82,4.82,0,0,0-.52-.11l-.58-.11-.07,0-.45-.08h-.08l-.57-.1-.53-.09a50.88,50.88,0,0,0-7.93-.66h-2.5l-.58,0h-.52c-3.28.07-6.17.22-8.76.36l-.52,0-.58,0h-.08l-.45,0h-.07l-.58,0-.53,0c-2.39.13-4.49.21-6.37.15-.7,0-1.5-.1-2.36-.2l-.53-.07-.57-.08h-.08l-.45-.07h-.08l-.57-.09-.53-.09c-3.25-.55-6.71-1.33-8.7-1.81l-.52-.12-.58-.14-.07,0-.45-.11h0l0,.21.32,1.73a3.11,3.11,0,0,1-.35-.09l-.08,0-.57-.18-.52-.2a23.6,23.6,0,0,1-3.78-2,18.56,18.56,0,0,1-2.29-1.66c-.15-.12-.3-.24-.43-.36l-.46-.41-.43-.37a24.58,24.58,0,0,0-3.09-2.14,8.78,8.78,0,0,1-1.7-1.43,4.73,4.73,0,0,1-.37-.4c-.14-.14-.26-.29-.39-.44s-.23-.27-.35-.41a51.84,51.84,0,0,1-4.75-7.37c-.08-.16-.17-.31-.25-.46l-.27-.51-.25-.47a38.32,38.32,0,0,1-1.74-3.7c0-.14-.1-.29-.15-.46s-.19-.52-.3-.8-.3-.75-.45-1.13-.35-.84-.51-1.22l.07-3c.16-.27.34-.57.55-.9.09-.15.18-.3.29-.46s.37-.61.58-.93c.69-1,1.51-2.25,2.42-3.47l.32-.42c.11-.16.23-.31.35-.46L179,394a32,32,0,0,1,4.27-4.48c.4-.33.82-.65,1.24-1,.17-.14.35-.26.54-.39l.58-.4.07,0,.46-.3.08-.05c.19-.13.39-.24.59-.36a46.05,46.05,0,0,1,5.42-2.82l.65-.28.61-.25a53.18,53.18,0,0,1,6-2.08c3.18-.89,15.89-1.94,21.19-2.3s12,.89,16.24,3.35l.52.32.5.32c1.56,1,3.21,2.28,4.85,3.56h0l.57.44a.17.17,0,0,1,.06.06c.16.11.31.23.45.34l.08.06.56.44.53.4a34.78,34.78,0,0,0,5.1,3.41c.7.35,1.41.67,2.11,1l.62.26.69.28.64.25C256.53,394.67,258.29,395.18,258.29,395.18Z" transform="translate(42.5 4.5)"/><path class="cls-33" d="M185.7,387.73l-.07,0-.11,5.07-5.53,3-1.67-1-.32.42,1.85,1.12.12.08.41-.23,5.65-3.11h0l.12-5.74Z" transform="translate(42.5 4.5)"/><path class="cls-33" d="M184.51,388.57l-.08,3.62L180,394.62l-1-.61-.33.42,1.33.8,4.95-2.72.1-4.33C184.86,388.31,184.68,388.43,184.51,388.57Z" transform="translate(42.5 4.5)"/><path class="cls-33" d="M185.76,399.54l-5.38-3.26-.12-.08-.41.23-4.27,2.35-1.39.77,0,1.52-.07,3c.16.38.34.8.51,1.22l.11-5.16v-.31l.29-.15,5.25-2.89,5.41,3.27-.14,6.32-5.53,3-4.94-3c.11.28.21.56.3.8l4.5,2.73.12.08.41-.23,5.65-3.11h0l.15-6.92Z" transform="translate(42.5 4.5)"/><path class="cls-33" d="M180.23,397.48l-4.95,2.73-.12,5.65,4.84,2.93,4.95-2.72.13-5.66Zm4.2,8.27L180,408.18l-4.31-2.61.1-5.05,4.42-2.43,4.32,2.61Z" transform="translate(42.5 4.5)"/><path class="cls-33" d="M185.76,413.09l-5.38-3.25-.12-.08-.41.23-2.61,1.43.25.47,2.76-1.51,5.41,3.27-.14,6.32-2,1.11a4.73,4.73,0,0,0,.37.4l2.16-1.19h0l.15-6.93Z" transform="translate(42.5 4.5)"/><path class="cls-33" d="M180.23,411l-2.47,1.36c.08.15.17.3.25.46l2.21-1.21,4.32,2.61-.11,5.05-1.67.92c.12.14.23.28.35.41l1.84-1,.13-5.65Z" transform="translate(42.5 4.5)"/><path class="cls-33" d="M197.31,386l-3.8-2.31-.61.25,4.3,2.62-.13,6.31-5.54,3-5.4-3.28.11-5.24-.08.05-.46.3-.1,5.19.43.25,5.37,3.26.12.08.42-.23,5.64-3.1h0l.14-6.93Z" transform="translate(42.5 4.5)"/><path class="cls-33" d="M192.25,384.2l-.46-.28-5,2.73V387l-.12,5.28,4.84,2.93,5-2.72.11-5.66Zm3.73,8-4.42,2.43L187.25,392l.1-5.05,4.43-2.43,4.31,2.62Z" transform="translate(42.5 4.5)"/><path class="cls-33" d="M197.31,399.54l-5.37-3.26-.13-.08-.41.23-5.64,3.11h0l-.14,6.93.43.25L191.4,410l.12.08.42-.23,5.63-3.11h0l.14-6.92Zm-5.78,9.91-5.4-3.27.14-6.32,5.53-3,5.4,3.27-.13,6.32Z" transform="translate(42.5 4.5)"/><path class="cls-33" d="M191.79,397.48l-5,2.73-.12,5.65,4.84,2.93,5-2.72.11-5.66Zm4.19,8.27-4.42,2.43-4.31-2.61.1-5.05,4.43-2.43,4.31,2.61Z" transform="translate(42.5 4.5)"/><path class="cls-33" d="M197.31,413.09l-5.37-3.25-.13-.08-.41.23-5.64,3.1,0,0L185.6,420l.43.26,5.37,3.26.12.07.42-.22,5.64-3.11h0l.14-6.93ZM191.53,423l-5.4-3.27.14-6.32,5.53-3,5.4,3.27-.13,6.32Z" transform="translate(42.5 4.5)"/><path class="cls-33" d="M191.79,411l-5,2.72-.12,5.66,4.84,2.93,5-2.73.11-5.65Zm4.19,8.27-4.42,2.43-4.31-2.61.1-5.05,4.43-2.43,4.31,2.61Z" transform="translate(42.5 4.5)"/><path class="cls-33" d="M197.71,428.5l0-1.59-.43-.26-5.37-3.25-.13-.08-.41.23-2.74,1.5c.16.13.29.26.43.37l2.71-1.49,5.4,3.28-.06,3,.08,0Z" transform="translate(42.5 4.5)"/><path class="cls-33" d="M191.79,424.6l-2.24,1.23.42.36,1.81-1,4.31,2.61,0,2,.52.2.05-2.5Z" transform="translate(42.5 4.5)"/><path class="cls-33" d="M208.86,386l-5.49-3.33L197.31,386h0l-.14,6.93.43.26,5.37,3.25.12.08.42-.23,5.64-3.11h0l.15-6.93Zm-5.77,9.92-5.41-3.28.13-6.32,5.54-3,5.41,3.28-.13,6.31Z" transform="translate(42.5 4.5)"/><path class="cls-33" d="M203.34,383.92l-5,2.73-.12,5.65,4.84,2.93,5-2.72.12-5.66Zm4.2,8.27-4.43,2.43L198.8,392l.11-5.05,4.42-2.43,4.31,2.62Z" transform="translate(42.5 4.5)"/><path class="cls-33" d="M208.86,399.54l-5.37-3.26-.12-.08-.42.23-5.64,3.11h0l-.14,6.93.43.25L203,410l.12.08.42-.23,5.64-3.11h0l.15-6.92Zm-5.77,9.91-5.41-3.27.13-6.32,5.54-3,5.41,3.27-.13,6.32Z" transform="translate(42.5 4.5)"/><path class="cls-33" d="M203.34,397.48l-5,2.73-.12,5.65,4.84,2.93,5-2.72.12-5.66Zm4.2,8.27-4.43,2.43-4.31-2.61.11-5.05,4.42-2.43,4.31,2.61Z" transform="translate(42.5 4.5)"/><path class="cls-33" d="M208.86,413.09l-5.37-3.25-.12-.08L203,410l-5.64,3.1,0,0-.14,6.92.43.26,5.37,3.26.12.07.42-.22,5.64-3.11h0l.15-6.93ZM203.09,423l-5.41-3.27.13-6.32,5.54-3,5.41,3.27-.13,6.32Z" transform="translate(42.5 4.5)"/><path class="cls-33" d="M203.34,411l-5,2.72-.12,5.66,4.84,2.93,5-2.73.12-5.65Zm4.2,8.27-4.43,2.43-4.31-2.61.11-5.05,4.42-2.43,4.31,2.61Z" transform="translate(42.5 4.5)"/><path class="cls-33" d="M197.22,430.23l0-1.64v-.2l0-1.73h0l5.64-3.1.42-.23.12.08,5.37,3.25.43.26-.08,3.94-.45-.07h-.08l.08-3.56-5.41-3.28L197.81,427l0,1.54-.07,0Z" transform="translate(42.5 4.5)"/><path class="cls-33" d="M203.34,424.6l-5,2.72,0,1.34.52.12,0-1.14,4.42-2.43,4.31,2.61-.06,2.77.53.09.07-3.15Z" transform="translate(42.5 4.5)"/><path class="cls-33" d="M220.41,386l-5.49-3.33L208.86,386h0l-.14,6.93.43.25,5.37,3.26.12.08.42-.23,5.64-3.1h0l.14-6.93Zm-5.78,9.92-5.4-3.28.14-6.32,5.53-3,5.41,3.28-.14,6.31Z" transform="translate(42.5 4.5)"/><path class="cls-33" d="M214.89,383.92l-5,2.73-.11,5.65,4.83,2.93,5-2.72.11-5.66Zm4.2,8.27-4.43,2.43L210.35,392l.1-5.05,4.43-2.43,4.31,2.62Z" transform="translate(42.5 4.5)"/><path class="cls-33" d="M220.41,399.54,215,396.28l-.12-.08-.42.23-5.64,3.11h0l-.14,6.93.43.25L214.5,410l.12.08.42-.23,5.64-3.11h0l.14-6.92Zm-5.78,9.91-5.4-3.27.14-6.32,5.53-3,5.41,3.27-.14,6.32Z" transform="translate(42.5 4.5)"/><path class="cls-33" d="M214.89,397.48l-5,2.73-.11,5.65,4.83,2.93,5-2.72.11-5.66Zm4.2,8.27-4.43,2.43-4.31-2.61.1-5.05,4.43-2.43,4.31,2.61Z" transform="translate(42.5 4.5)"/><path class="cls-33" d="M220.41,413.09,215,409.84l-.12-.08-.42.23-5.64,3.1,0,0L208.7,420l.43.26,5.37,3.26.12.07.42-.22,5.64-3.11h0l.14-6.93ZM214.63,423l-5.4-3.27.14-6.32,5.53-3,5.41,3.27-.14,6.32Z" transform="translate(42.5 4.5)"/><path class="cls-33" d="M214.89,411l-5,2.72-.11,5.66,4.83,2.93,5-2.73.11-5.65Zm4.2,8.27-4.43,2.43-4.31-2.61.1-5.05,4.43-2.43,4.31,2.61Z" transform="translate(42.5 4.5)"/><path class="cls-33" d="M220.75,431l.09-4.06-.43-.26L215,423.4l-.12-.08-.42.23-5.64,3.1h0l-.08,4.12.45.07h.08l.08-3.88,5.53-3.05,5.41,3.28-.08,3.8h.07Z" transform="translate(42.5 4.5)"/><path class="cls-33" d="M214.89,424.6l-5,2.72-.07,3.62.53.07.06-3.37,4.43-2.43,4.31,2.61-.07,3.24.53,0,.07-3.51Z" transform="translate(42.5 4.5)"/><path class="cls-33" d="M232,386l-5.49-3.33L220.41,386h0l-.15,6.93.43.26,5.38,3.25.12.08.41-.23,5.64-3.1h0l.14-6.93Zm-5.77,9.92-5.41-3.28.14-6.32,5.53-3,5.41,3.28-.13,6.31Z" transform="translate(42.5 4.5)"/><path class="cls-33" d="M226.44,383.92l-5,2.73-.12,5.65,4.84,2.93,5-2.72.12-5.66Zm4.2,8.27-4.43,2.43L221.9,392,222,387l4.42-2.43,4.31,2.62Z" transform="translate(42.5 4.5)"/><path class="cls-33" d="M232,399.54l-5.37-3.26-.12-.08-.41.23-5.65,3.11h0l-.15,6.93.43.25,5.38,3.26.12.08.41-.23,5.64-3.11h0l.14-6.92Zm-5.77,9.91-5.41-3.27.14-6.32,5.53-3,5.41,3.27-.13,6.32Z" transform="translate(42.5 4.5)"/><path class="cls-33" d="M226.44,397.48l-5,2.73-.12,5.65,4.84,2.93,5-2.72.12-5.66Zm4.2,8.27-4.43,2.43-4.31-2.61.11-5.05,4.42-2.43,4.31,2.61Z" transform="translate(42.5 4.5)"/><path class="cls-33" d="M232,413.09l-5.37-3.25-.12-.08-.41.23-5.65,3.1v0l-.15,6.92.43.26,5.38,3.26.12.07.41-.22,5.64-3.11h0l.14-6.93ZM226.19,423l-5.41-3.27.14-6.32,5.53-3,5.41,3.27-.13,6.32Z" transform="translate(42.5 4.5)"/><path class="cls-33" d="M226.44,411l-5,2.72-.12,5.66,4.84,2.93,5-2.73.12-5.65Zm4.2,8.27-4.43,2.43-4.31-2.61.11-5.05,4.42-2.43,4.31,2.61Z" transform="translate(42.5 4.5)"/><path class="cls-33" d="M232.32,430.51l.07-3.6-.43-.26-5.37-3.25-.12-.08-.41.23-5.65,3.1h0l-.1,4.34.45,0h.08l.09-4,5.53-3.05,5.41,3.28-.07,3.3h.53Z" transform="translate(42.5 4.5)"/><path class="cls-33" d="M226.44,424.6l-5,2.72-.08,3.62.53,0,.08-3.26,4.42-2.43,4.31,2.61-.05,2.72h.52l.07-3Z" transform="translate(42.5 4.5)"/><path class="cls-33" d="M243.46,387.36a.17.17,0,0,0-.06-.06l-.13,5.55-5.53,3-5.41-3.28.14-6.32,5.49-3-.5-.32-5.5,3h0l-.14,6.93.43.26,5.37,3.25.12.08.42-.23,5.64-3.1h0l.11-5.47C243.77,387.59,243.62,387.47,243.46,387.36Z" transform="translate(42.5 4.5)"/><path class="cls-33" d="M242.81,386.84,238,383.92l-5,2.73-.11,5.65,4.83,2.93,5-2.72.12-5.65h0Zm-.62,5.35-4.42,2.43L233.45,392l.11-5.05,4.42-2.43,4.31,2.62Z" transform="translate(42.5 4.5)"/><path class="cls-33" d="M243.51,399.54l-5.37-3.26-.12-.08-.42.23L232,399.54h0l-.14,6.93.43.25L237.6,410l.12.08.42-.23,5.64-3.11h0l.15-6.92Zm-.24,6.87-5.53,3-5.41-3.27.14-6.32,5.54-3,5.4,3.27Z" transform="translate(42.5 4.5)"/><path class="cls-33" d="M238,397.48l-5,2.73-.11,5.65,4.83,2.93,5-2.72.12-5.66Zm4.2,8.27-4.42,2.43-4.32-2.61.11-5.05,4.42-2.43,4.31,2.61Z" transform="translate(42.5 4.5)"/><path class="cls-33" d="M243.52,413.09l-5.38-3.25-.12-.08-.42.23-5.64,3.1,0,0L231.8,420l.43.26,5.37,3.26.12.07.42-.22,5.64-3.11h0l.15-6.93Zm-.25,6.88-5.53,3-5.41-3.27.14-6.32,5.54-3,5.4,3.27Z" transform="translate(42.5 4.5)"/><path class="cls-33" d="M238,411l-5,2.72-.11,5.66,4.83,2.93,5-2.73.12-5.65Zm4.2,8.27-4.42,2.43-4.32-2.61.11-5.05,4.42-2.43,4.31,2.61Z" transform="translate(42.5 4.5)"/><path class="cls-33" d="M243.51,426.65l-5.37-3.25-.12-.08-.42.23-5.64,3.1h0l-.08,3.85h.53l.08-3.53,5.54-3.05,5.4,3.28-.09,4.14h.08l.45.08.1-4.53Z" transform="translate(42.5 4.5)"/><path class="cls-33" d="M238,424.6l-5,2.72-.06,3.19h.53l.06-2.86,4.42-2.43,4.31,2.61-.07,3.34.53.09.08-3.72Z" transform="translate(42.5 4.5)"/><path class="cls-33" d="M243.91,387.7l.08.06-.1,4.86,5.4,3.28,4.31-2.37.64.25-4.55,2.5-.41.23-.12-.08-5.38-3.25-.43-.26.11-5.56Z" transform="translate(42.5 4.5)"/><path class="cls-33" d="M252.29,393l-3,1.63L245,392l.08-3.41-.53-.4-.08,4.1,4.83,2.93,3.61-2Z" transform="translate(42.5 4.5)"/><path class="cls-33" d="M255.07,399.54l-5.38-3.26-.12-.08-.41.23-5.65,3.11h0l-.15,6.93.43.25,5.38,3.26.12.08.41-.23,5.64-3.11h0l.14-6.92Zm-5.78,9.91-5.4-3.27.13-6.32,5.54-3,5.4,3.27-.13,6.32Z" transform="translate(42.5 4.5)"/><path class="cls-33" d="M249.54,397.48l-5,2.73-.11,5.65,4.83,2.93,5-2.72.12-5.66Zm4.2,8.27-4.42,2.43L245,405.57l.11-5.05,4.42-2.43,4.31,2.61Z" transform="translate(42.5 4.5)"/><path class="cls-33" d="M255.07,413.09l-5.38-3.25-.12-.08-.41.23-5.64,3.1,0,0-.15,6.92.43.26,5.38,3.26.12.07.41-.22,5.17-2.85.47-.26h0l.07-3.63.07-3.3Zm-.24,6.88-5.54,3-5.4-3.27.13-6.32,5.54-3,5.4,3.27Z" transform="translate(42.5 4.5)"/><path class="cls-33" d="M249.54,411l-5,2.72-.11,5.66,4.83,2.93,5-2.73.12-5.65Zm4.2,8.27-4.42,2.43L245,419.13l.11-5.05,4.42-2.43,4.31,2.61Z" transform="translate(42.5 4.5)"/><path class="cls-33" d="M243.4,431.36l.1-4.7h0l5.65-3.1.41-.23.12.08L254,426c0,.19-.05.38-.07.57l-4.4-2.67L244,427l-.1,4.48-.07,0Z" transform="translate(42.5 4.5)"/><path class="cls-33" d="M252.35,433.63l.65.22s0-.22.08-.62Zm-2.81-9-4.95,2.72-.09,4.25a4.36,4.36,0,0,1,.52.11l.09-4,4.42-2.43,4.26,2.58c0-.19.05-.38.08-.58Z" transform="translate(42.5 4.5)"/><path class="cls-33" d="M257.85,398.6c0-.22.06-.43.08-.64l-2.86,1.58h0l-.15,6.93.43.25,1.34.82c0-.19.06-.39.08-.58l-1.31-.79.13-6.32Z" transform="translate(42.5 4.5)"/><path class="cls-33" d="M257.67,400l.09-.65-1.62.9-.12,5.65.81.49c0-.19.05-.38.08-.57l-.36-.21.11-5.05Z" transform="translate(42.5 4.5)"/><path class="cls-33" d="M255.07,413.09l0,0L254.9,420l0,0,.4.24h0l.07-3.63c0-.2.06-.4.09-.61l.06-2.62.33-.19c0-.21.06-.43.1-.64Z" transform="translate(42.5 4.5)"/><path class="cls-110" d="M241.58,388s-1.45-15.65-4.35-16.81-3,3.48-3,6.23-.43,2.75-.43,2.75-6.09-2.46-15.8-2.46c-1.15,0-2.31.07-3.46.18a38.22,38.22,0,0,0-4.63.66c-6.77,1.27-12.54,3.49-13.8,3.07-1.73-.58-2.46-11.45-4.49-11.59s.29,12.47-.43,14.06-1.49.25-2.49,2.37.61,2.27,3.36,1.69,13-4.79,24.79-4.79,16.81,1.89,20,4.06S241.87,389.29,241.58,388Z" transform="translate(42.5 4.5)"/><path class="cls-111" d="M55.86,419.69s3.36,16.42,2.12,22.78-2.64,11.47-1,17.65,6.7,14.13,7.76,15.89-.17,2.3,1.6,2.48,3.7.17,4,.71,1.94,2.64,1.06,3-6.35.17-6.88-.18-1.42-3.88-1.42-3.88-1.59-2.3-3-4.42-7.41-10.59-8.82-13.59.88-8.83-1.06-12.54-6.89-9.53-7.59-10.42-3.18-10.24-1.24-16.77S53.57,413.51,55.86,419.69Z" transform="translate(42.5 4.5)"/><path class="cls-102" d="M42.62,437.17c-.7-.88-3.17-10.24-1.23-16.78s12.18-6.88,14.47-.7A145.79,145.79,0,0,1,58.09,435c-3.47,4.71-7,5.3-11.23,7.5C45,440,43,437.69,42.62,437.17Z" transform="translate(42.5 4.5)"/><path class="cls-112" d="M108.82,428.17s-8.65,27-10.06,32-3,5.47-3.71,7.94a36.23,36.23,0,0,0-.35,10.6c.35,1.41,4.06,1.94,4.76,2.65s1.6,1.59.89,2.29-5.47,0-6.53,0-1.42-2.12-1.42-3.53.36-7.59.36-10.95.71-5.65,1.23-10.59,3.36-19.25,3.36-24.72a41.08,41.08,0,0,1,.88-9S103.17,421.28,108.82,428.17Z" transform="translate(42.5 4.5)"/><path class="cls-102" d="M98.23,424.81s4.94-3.53,10.59,3.36c0,0-1.23,3.84-2.84,8.9a29.55,29.55,0,0,0-8.65-2.59c0-.24,0-.46,0-.66A41,41,0,0,1,98.23,424.81Z" transform="translate(42.5 4.5)"/><path class="cls-103" d="M148.23,359.6s-.61-3.54-2.3-3.84-3.22,2.15-2,3.53,2.15,2.3,2.15,2.3" transform="translate(42.5 4.5)"/><path class="cls-104" d="M148.23,359.6s-.61-3.54-2.3-3.84-3.22,2.15-2,3.53,2.15,2.3,2.15,2.3" transform="translate(42.5 4.5)"/><path class="cls-105" d="M143,359.55s-2,.4-2,1.29.48,1.22,0,1.62-1.22.65-1.22,1.3a16.28,16.28,0,0,0,.17,1.78,6.4,6.4,0,0,0-.81,1.37,5.44,5.44,0,0,0,0,2,2.15,2.15,0,0,0-.41,1.61,2,2,0,0,1-.32,1.79,2.8,2.8,0,0,0-.81,1.78c0,.89.32,1-.16,1.86s-1.13,1.54-1.13,2.18.4,1.22.16,1.62-.65.41-.73,1.21,0,1.46-.08,1.79-1.21,1.29-1.21,1.61a5,5,0,0,1,0,1.54c-.17.33-.81.25-.57,1.13a2,2,0,0,1-.32,1.62,9.47,9.47,0,0,1-.17,1.05l-.08.33s5.75-10.28,7-15.3,2.51-11.34,3.16-12.39a9.88,9.88,0,0,0,1-2.35Z" transform="translate(42.5 4.5)"/><path class="cls-113" d="M21,453.71c.62-.91,4.3-3.22,8-7.52A26.84,26.84,0,0,0,34.64,435c.46-2.15.77-10.13.77-14.73a48.28,48.28,0,0,1,.92-8.91s-3.22,10.59-5.06,15-1.08,10-1.08,10a5.45,5.45,0,0,1,.62,2.46,6.27,6.27,0,0,1-1.38,3.07,6,6,0,0,1-1-3.07,4.73,4.73,0,0,1,.66-2.61,31.74,31.74,0,0,1,.77-9.06c.86-3,4-11.82,5.22-14.74s2.92-8.6,2.92-8.6,5.22-12.59,15.81-18.11,28.55-7.53,39-6,16.42,8.61,20.57,11.21,7.36,4.3,11.66,4.3,8.6-4.76,10.74-11.36,5.07-18.58,5.07-18.58,1.07-4.91,3.07-6,9.36.46,12,1.69,8,3.38,8,3.38,6.93,1.08,7.09,4.61c0,.81,0,1.51,0,2.1s.65,1.41.6,1.76a1.12,1.12,0,0,1-1.09,1.05s.09,1.57-.83,2.09-1.81-1.06-3.42-1.8a15.89,15.89,0,0,0-5.26-.75c-1,.16-2.23,1.15-3.77,2.07-1.58,1.2-5.17,4.24-6.62,8-1.45,6.84-4.24,17.36-8.5,22.31-6.6,7.68-12.89,11.82-16,14.58s-6.76,7.53-6.76,9.22,3.84,19,6.45,25.18,12.46,25.35,13.68,27.19,4.91,2.61,5.68,3.69.77,1.84.16,1.84h-6.45a3.19,3.19,0,0,1-1.38-1.68c-.46-1.23.61-3.69-.46-4.76s-12.46-21.67-14.91-23.67-3.38-7.52-5.69-11l-9.21-14.12s-4.6-3.38-7.82-5.23-25.64-3.07-32.24-3.68-12.59-.92-12.59-.92-2.61,10-5.68,13.66-12.22,13.62-15.81,17.51c-4.24,4.59-4.6,8.44-5.22,9.52s-.61,13.2-.92,16,.31,2.76.61,3.22l.31.46a14,14,0,0,1,2.15.92,3.32,3.32,0,0,1,1.07,1.85l-.61.76H25.42s-1.23-.46-1.23-2.61a120.32,120.32,0,0,0-1.69-16.27C21.29,460.17,20.37,454.64,21,453.71Z" transform="translate(42.5 4.5)"/><path class="cls-103" d="M170.49,373.87s-.28-1.16-2.26-1.16Z" transform="translate(42.5 4.5)"/><path class="cls-32" d="M170.49,373.87s-.28-1.16-2.26-1.16" transform="translate(42.5 4.5)"/><path class="cls-26" d="M155.72,375.6a14.7,14.7,0,0,0,1.33-1" transform="translate(42.5 4.5)"/><path class="cls-32" d="M144.24,373.41c2.77,3.23,7.52,3.69,7.52,3.69a6.72,6.72,0,0,0,2.38-.64" transform="translate(42.5 4.5)"/><path class="cls-107" d="M158.84,364.56a8.94,8.94,0,0,1-5.23,1.41Z" transform="translate(42.5 4.5)"/><path class="cls-32" d="M158.84,364.56a8.94,8.94,0,0,1-5.23,1.41" transform="translate(42.5 4.5)"/><path class="cls-107" d="M157.89,365.39a1.54,1.54,0,0,1-.84,1c-.78.45-1.62-.52-1.62-.52Z" transform="translate(42.5 4.5)"/><path class="cls-32" d="M169,369.5s-.15-.45-1.33-.84" transform="translate(42.5 4.5)"/><path class="cls-103" d="M146.55,360.82s-1.07-3.68-3.69-5.22-3.07,1.69-2.45,3.07,4.29,2.92,4.29,2.92" transform="translate(42.5 4.5)"/><path class="cls-104" d="M146.55,360.82s-1.07-3.68-3.69-5.22-3.07,1.69-2.45,3.07,4.29,2.92,4.29,2.92" transform="translate(42.5 4.5)"/><path class="cls-27" d="M159.61,373.39S156.43,387.18,141.8,391,111.36,380,108,377,97.3,364.71,97.3,364.71" transform="translate(42.5 4.5)"/><path class="cls-27" d="M161.9,363.28s-2,6.45-2,10.9" transform="translate(42.5 4.5)"/><path class="cls-27" d="M159.9,371.11s-14.33.84-20.94-2.7" transform="translate(42.5 4.5)"/><path class="cls-108" d="M130,406.49H35.29a1.48,1.48,0,1,1,0-3H130a1.48,1.48,0,0,1,0,3Z" transform="translate(42.5 4.5)"/><path class="cls-109" d="M123.47,394.44s-2.47,19.25-3.53,25.95-1.77,12.72-1.77,12.72a60.63,60.63,0,0,0-18.71-3.36c-9.7,0-16.41.89-21.53.71s-15.53-2.82-15.53-2.82l.35,1.94a17.29,17.29,0,0,1-5.3-2.48c-3.35-2.12-2.64-2.47-6.7-4.94S41.21,408.56,40.68,407s-2.11-5.3-2.11-5.3,4.58-8.47,9.88-12.89,13.06-7.06,16.24-7.94,15.89-1.94,21.18-2.3,12,.89,16.24,3.36,9.36,7.42,13.24,9.36A57,57,0,0,0,123.47,394.44Z" transform="translate(42.5 4.5)"/><path class="cls-33" d="M77.93,430.46l-1.35-.09.28-51.1c1.26-.12,2.52-.22,3.71-.32l-.28,51.52C79.46,430.49,78.67,430.49,77.93,430.46Z" transform="translate(42.5 4.5)"/><path class="cls-33" d="M88.24,378.49c1.21,0,2.46.12,3.7.27l-3.18,51.31-3.72.2Z" transform="translate(42.5 4.5)"/><path class="cls-33" d="M107.74,385.9c1.14.89,2.28,1.78,3.39,2.61l-5.57,41.64c-1.2-.14-2.43-.26-3.7-.33Z" transform="translate(42.5 4.5)"/><path class="cls-33" d="M60.81,428.91,58,383.24c1.29-.55,2.52-1,3.62-1.41l2.91,46.31c-1.28-.3-2.08-.51-2.08-.51l.35,1.94A8.75,8.75,0,0,1,60.81,428.91Z" transform="translate(42.5 4.5)"/><path class="cls-33" d="M96.82,429.78c-1.3,0-2.55.05-3.73.1l4.73-49.83a22.86,22.86,0,0,1,3.58,1.46Z" transform="translate(42.5 4.5)"/><path class="cls-33" d="M119.7,393.14l-5.49,38.74c-1-.29-2.27-.59-3.62-.87l5.57-39.36C117.39,392.23,118.61,392.73,119.7,393.14Z" transform="translate(42.5 4.5)"/><path class="cls-33" d="M42.1,396.06v14c-.75-1.48-1.27-2.63-1.42-3.06-.52-1.59-2.11-5.3-2.11-5.3A63.69,63.69,0,0,1,42.1,396.06Z" transform="translate(42.5 4.5)"/><path class="cls-33" d="M44.66,414.69l-1-20.72a38.2,38.2,0,0,1,3.51-4l1.51,30.35A38.71,38.71,0,0,1,44.66,414.69Z" transform="translate(42.5 4.5)"/><path class="cls-33" d="M66.41,380.49c1-.17,2.27-.35,3.69-.51l1.8,49.72c-1.27-.23-2.55-.48-3.74-.74Z" transform="translate(42.5 4.5)"/><path class="cls-33" d="M51.31,386.71A39.78,39.78,0,0,1,55,384.62c.11,9.73.5,26.65.88,41.41a48.3,48.3,0,0,0-3.79-3C51.77,411.11,51.43,396.49,51.31,386.71Z" transform="translate(42.5 4.5)"/><path class="cls-110" d="M106.76,387.24s-1.45-15.66-4.35-16.82-3,3.48-3,6.23-.43,2.76-.43,2.76S92.84,377,83.13,377c-1.15,0-2.31.06-3.46.17a38.54,38.54,0,0,0-4.63.67c-6.76,1.26-12.53,3.48-13.79,3.07-1.74-.58-2.46-11.46-4.49-11.6s.29,12.47-.44,14.06-1.49.25-2.48,2.38.6,2.26,3.36,1.68,13-4.78,24.78-4.78,16.81,1.88,20,4.06S107.05,388.54,106.76,387.24Z" transform="translate(42.5 4.5)"/><path class="cls-110" d="M209.47,332.1a12.28,12.28,0,0,1-1.26,5c-1.21,2.07-6.49,6.54-6.2,12.74s5.17,7.41,7.18,7.29,6.6-2.64,5.68-5.68-.63-4.59.34-9.24-.06-11.14-.28-12S209.47,331.69,209.47,332.1Z" transform="translate(42.5 4.5)"/><path class="cls-108" d="M212,398.86s-.1-.93-1,0a17.55,17.55,0,0,0-3.16,6.87c-.46,2.5.1,3.24.47,3.06s.85-1.1.85-1.1a54,54,0,0,1,2-5.49A6.68,6.68,0,0,0,212,398.86Z" transform="translate(42.5 4.5)"/><path class="cls-108" d="M224.45,372.69s13.94,7,14,8.25a4.91,4.91,0,0,1-1.86,4.17l-22.19,18.34s-4.45,3.49-5.27,4.25-1,.76-1-.66,3.12-7.87,3.84-8.17,1.35.18,2.14-.12a6,6,0,0,0,3.51-2.11c1.95-2,9.82-11.36,10.8-12.77a12.14,12.14,0,0,1,2.32-2.44s-11,.58-17.65-1.55-8.63-4-8.61-5.06.8-2.87,3.55-4.22a15.44,15.44,0,0,1,9.39-.91A54.06,54.06,0,0,1,224.45,372.69Z" transform="translate(42.5 4.5)"/><path class="cls-26" d="M230.8,381.43a7.42,7.42,0,0,1,3.54-1.28" transform="translate(42.5 4.5)"/><path class="cls-109" d="M221.9,371.45a36,36,0,0,0-4.42-1.77,15.38,15.38,0,0,0-9.39.92c-2.75,1.34-3.54,3.11-3.55,4.21s1.87,2.83,8.11,4.89A10.1,10.1,0,0,1,221.9,371.45Z" transform="translate(42.5 4.5)"/><path class="cls-108" d="M215.06,398.49c-.32.1-.6.14-.88.25l-.33.09a7.76,7.76,0,0,0,.12,5l.48-.38.38-.31A7.52,7.52,0,0,1,215.06,398.49Z" transform="translate(42.5 4.5)"/><path class="cls-108" d="M208.13,408.66a.45.45,0,0,1-.27-.08.51.51,0,0,1-.17-.72c1.05-1.74,5.77-5.38,6-5.53a.52.52,0,0,1,.74.1.53.53,0,0,1-.1.74c-1.32,1-4.92,3.94-5.71,5.23A.54.54,0,0,1,208.13,408.66Z" transform="translate(42.5 4.5)"/><path class="cls-110" d="M221.27,360.61l10.08,7.08s2.64-1.44,3.48-1.32.36,2.28.36,2.28a18.37,18.37,0,0,1-3,1.32c-.48,0-8.16-3.24-10.08-4s-2.64-1.08-2.64-1.08Z" transform="translate(42.5 4.5)"/><path class="cls-108" d="M217.85,338.75a24.47,24.47,0,0,0,0,4.19c.23,1.61,3.85,7.7,4.25,9.65a5.55,5.55,0,0,1-.4,3.45s1.72,14.24,1.84,14.58.92,2.07.92,2.07a38.92,38.92,0,0,0-5.28-2.53c-1.61-.46-1.26-.34-5.11,0s-9.13,3.62-9.24,4a6.46,6.46,0,0,1-.29.69,3.79,3.79,0,0,1-.06-2.64c.46-1.67,2.47-7.64,3.05-9.31a18.28,18.28,0,0,0,1.14-5.45c.06-2-1.6-5.58-1.14-9.25s2.06-4.48,3.33-4.59a4.3,4.3,0,0,0,3-3.05,35.18,35.18,0,0,0-.46-5.4S216.25,338.12,217.85,338.75Z" transform="translate(42.5 4.5)"/><path class="cls-108" d="M217.85,342.94a24.47,24.47,0,0,1,0-4.19c-1.6-.63-4.41-3.61-4.41-3.61a36.36,36.36,0,0,1,.46,5.39,4.33,4.33,0,0,1-1.65,2.4,1.88,1.88,0,0,1,1,1c.75,1.32,4.59,4.25,5.28,4,.37-.12.55-1,.65-1.76A15.6,15.6,0,0,1,217.85,342.94Z" transform="translate(42.5 4.5)"/><path class="cls-108" d="M221.53,329.74a12.44,12.44,0,0,1,.28,2.12,7.55,7.55,0,0,1-.46,1.38,10.38,10.38,0,0,1,1.44,1.78c.06.35-1.09,1-1.09,1a18.32,18.32,0,0,1-.8,3.27c-.29.29-1.61.35-3.73-.34a6.46,6.46,0,0,1-3.45-2.47c-.23-.4-.52-.86-.52-.86a1.45,1.45,0,0,1-1.38-.63c-.63-.8-.86-2.24-.28-2.58s1.14.68,1.72.4,1-2.3,1-2.3S218.2,329,221.53,329.74Z" transform="translate(42.5 4.5)"/><path class="cls-109" d="M209.41,333.24s6.49-4.25,12.12-3.5a7.38,7.38,0,0,0-.35-3.39c-.63-1.61-3.33-3.27-6.83-2.3s-7.18,4.31-6.78,6A8.74,8.74,0,0,0,209.41,333.24Z" transform="translate(42.5 4.5)"/><path class="cls-33" d="M220.21,332.84c0,.38-.16.69-.35.69s-.34-.31-.34-.69.15-.69.34-.69S220.21,332.46,220.21,332.84Z" transform="translate(42.5 4.5)"/><path class="cls-26" d="M218.77,335.48a2.12,2.12,0,0,0,1.73.8" transform="translate(42.5 4.5)"/><path class="cls-26" d="M219.17,331.4s.46-.92,1.55-.22" transform="translate(42.5 4.5)"/><path class="cls-26" d="M209.86,368.65a39.18,39.18,0,0,1,5.12-.19c1,.19,3.91.86,3.91.86" transform="translate(42.5 4.5)"/><path class="cls-26" d="M215.59,367.42l2.93.92" transform="translate(42.5 4.5)"/><path class="cls-108" d="M219.19,361s-4.67-12.55-5.87-14.16-4-1.31-4.71,1.49,6.1,15.59,6.94,16.19S229,370,230.23,370.31s2.74.78,3.4.48,2-1.56,2.92-1.56,1.25.42,1.43-.18-.71-1.07-1.55-2.09-4.59,1.68-4.84,1.8S219.19,361,219.19,361Z" transform="translate(42.5 4.5)"/><path class="cls-108" d="M213.32,346.84c-1.19-1.61-4-1.31-4.71,1.49-.31,1.31.85,4.35,2.25,7.27h0a13.61,13.61,0,0,1,5.33-2.46A44.6,44.6,0,0,0,213.32,346.84Z" transform="translate(42.5 4.5)"/><path class="cls-108" d="M94,407.19s-.8-.12-.86.55.49.81.8.87,3.21.31,5.94.74,4.32-.12,5.13-.74.49-1.92.06-1.67-.68,1.05-4,.62-6.3-.87-6.3-.87Z" transform="translate(42.5 4.5)"/><path class="cls-108" d="M87.55,374.12s9.21,5.44,9.46,6.49,1.23,23.24,1.23,23.24,4.39,2.73,5,2.85,1.92-.37,1.86.25-.5.86-1.3,1.17a15,15,0,0,1-4.08.37c-1.49,0-5.56-.87-5.69-1.3s.37-1.79.37-3.28a16.84,16.84,0,0,0-.8-4.63c-.37-1.06-2.85-6.13-3.4-8.91a19,19,0,0,1,.37-6.67,94.34,94.34,0,0,1-10.08-.44c-3.89-.49-9.64-4.2-9.64-4.2s6.68-5.25,8.9-6.31S87.55,374.12,87.55,374.12Z" transform="translate(42.5 4.5)"/><path class="cls-108" d="M86.26,361s2,7.18,2.88,9.53a20.25,20.25,0,0,0,3.07,4.87,8.36,8.36,0,0,1,3.07,1.81l.9,1.08a13.72,13.72,0,0,0-3.07.18c-1.16.28-4.26-3.93-5.92-5.66s-3.1-12.21-3.1-12.21Z" transform="translate(42.5 4.5)"/><path class="cls-109" d="M80.2,343.51a6.29,6.29,0,0,0,.31,3.16c.62,1.42,3.83,6.24,4.7,7.6s1.05,6.18,1.05,6.74.74,10.94.92,11.81a8.83,8.83,0,0,0,.37,1.3l-5.19-1.3s-7.72,4.57-9.33,5.56-3.09,2.18-4.51,1.44-2.35-2-2.22-2.78,5.19-12.75,5.37-13.25-.87-2.1-.74-3.09.25-.93.06-1.79-.86-5.38-.18-7.6a7.31,7.31,0,0,1,3.21-4c1.18-.87,1-5,.87-5.44a.7.7,0,0,1,.37-.8A51.66,51.66,0,0,1,80.2,343.51Z" transform="translate(42.5 4.5)"/><path class="cls-108" d="M82.92,353.9a7.93,7.93,0,0,0,.31-2.67,49.82,49.82,0,0,1-2.72-4.56,6.25,6.25,0,0,1-.31-3.15,50.74,50.74,0,0,0-5-2.47.71.71,0,0,0-.37.8,12.42,12.42,0,0,1,0,3.1,9.09,9.09,0,0,0,.37,1.66,5.23,5.23,0,0,1,3.47,2.16C80.14,350.75,82.49,354.52,82.92,353.9Z" transform="translate(42.5 4.5)"/><path class="cls-108" d="M80.92,360.34s-3.34-9.51-5-10.66-4.1.21-4.74,3.55,7.51,14.58,8.15,14.86,13.85-5.72,13.85-5.72.53.76.88,1.15a20,20,0,0,0,2.49,1.59.65.65,0,0,0,.29.7c.39.21,1,.61,1.2.27s1-1.49.88-1.89A28.64,28.64,0,0,0,95.66,361a5.33,5.33,0,0,0-2.79-.83c-.62,0-11.61,1.16-11.61,1.16Z" transform="translate(42.5 4.5)"/><path class="cls-26" d="M72.84,373.62s6.62-2.23,8-2.16a8.8,8.8,0,0,1,3,.87" transform="translate(42.5 4.5)"/><path class="cls-26" d="M78.35,370.9a10.35,10.35,0,0,1,4,.06" transform="translate(42.5 4.5)"/><path class="cls-108" d="M97.77,393.65c-.29-6-.63-12.49-.76-13-.25-1.05-9.45-6.49-9.45-6.49s-5.63-2.41-7.85-1.36-9.88,7.43-9.88,7.43,6.73,2.58,10.62,3.08a93.23,93.23,0,0,0,10.08.43,19.11,19.11,0,0,0-.37,6.68,26.18,26.18,0,0,0,1.41,4.24Z" transform="translate(42.5 4.5)"/><path class="cls-108" d="M98.19,408.48s1.54-1.23,2.22-1.91a2.09,2.09,0,0,1,1.36-.69l1.42.81a3.27,3.27,0,0,0-1.67.49c-.68.5-1.85,1.3-1.85,1.3Z" transform="translate(42.5 4.5)"/><path class="cls-108" d="M88.2,332.07s.81.08-.25,1.46-4.72,3.18-4.72,3.18l-1.79-2.12S85.92,332.15,88.2,332.07Z" transform="translate(42.5 4.5)"/><path class="cls-108" d="M83.35,333.56a13.17,13.17,0,0,1,.56,2.6c0,.8-.19,1.85.24,2.47s.87,1.05.56,1.36a6.51,6.51,0,0,1-1.11.74,30.76,30.76,0,0,1-1.49,3.21c-.3.37-1.3.31-2.16.12a29.61,29.61,0,0,1-4.14-1.54c-.74-.37-2-5.75-2-5.75A60.64,60.64,0,0,1,83.35,333.56Z" transform="translate(42.5 4.5)"/><path class="cls-110" d="M75.57,336.1a47.74,47.74,0,0,1,1.67,7.11c.12,2.1-.25,3.71-1.06,4.33s-4.08,2.47-4.32,2.59a3.76,3.76,0,0,1-3-2.84c-.68-2.29,1.42-4.7,2-5.81a12.14,12.14,0,0,0,.74-3.83Z" transform="translate(42.5 4.5)"/><path class="cls-108" d="M71.51,338.58l12.21-5.7s-1.38-3.42-2.53-4.23a7.06,7.06,0,0,0-6.43,0c-2.12,1.22-4.88,4.56-4.56,5.54S71.51,338.58,71.51,338.58Z" transform="translate(42.5 4.5)"/><path class="cls-110" d="M83.91,336.16s-4.2-.5-5,.49,1.17,3.28,2.41,3,2.47-2.35,2.47-2.35a4.39,4.39,0,0,0,.37,1.36,3.3,3.3,0,0,0,.55.62,8,8,0,0,0,.81-2.48C85.52,335.91,83.91,336.16,83.91,336.16Z" transform="translate(42.5 4.5)"/><path class="cls-108" d="M83.72,332.88a12,12,0,0,1,3.26-.81H88.2s-4.48,1.63-5.7,2.61a10.23,10.23,0,0,1-4.07,2.2c-1.22.16-3.58.24-3.58.24Z" transform="translate(42.5 4.5)"/><path class="cls-26" d="M80.39,340.61a1.27,1.27,0,0,0,1.54.92" transform="translate(42.5 4.5)"/><g class="cls-114"><path class="cls-115" d="M-42.5,486.5h427l-3.5,62s-22.68-21.9-112.35-27.06-110.57-14.82-113.59-17.53,4.25-1.83,4.39-4.91S61.5,524.5-42.44,513.77Z" transform="translate(42.5 4.5)"/></g><g class="cls-116"><path class="cls-117" d="M46.9,514a216.8,216.8,0,0,0,3-26.49l-3,12.35.7-7.54S41.16,508,41.06,513.66Z" transform="translate(42.5 4.5)"/><path class="cls-117" d="M32.79,513.79s.79-13.24,5.06-22.7c0,0-1.51,14.83-1.77,22.84Z" transform="translate(42.5 4.5)"/><path class="cls-117" d="M37,513.24a148.73,148.73,0,0,1,4.56-20.95l-1.44,11.1s3.44-15.89,8-24.89a233.72,233.72,0,0,0-5.9,27.8s3.52-14.57,4.71-19.06c0,0-2.82,15.49-3.64,23.43l3.11-9.8a54,54,0,0,0-1,13.06L34,513.58l1.86-13.24S36.58,507.1,37,513.24Z" transform="translate(42.5 4.5)"/><path class="cls-117" d="M51.2,514.42a93.08,93.08,0,0,1,7.3-22.12,131.66,131.66,0,0,0-6.14,22.21Z" transform="translate(42.5 4.5)"/><path class="cls-117" d="M24.52,513.24a27.21,27.21,0,0,1,1.84-10.73,39.53,39.53,0,0,0,0,11Z" transform="translate(42.5 4.5)"/></g><g class="cls-118"><g class="cls-119"><path class="cls-120" d="M28,413.3v22.6H5.34v54.19H28v-4.74H44.5V413.3Z" transform="translate(42.5 4.5)"/></g></g><path class="cls-121" d="M342.5,420.28v30.53h73.62V404.5H371.78v15.78Zm33.7-11.17h35.49v5.33H376.2ZM363,428.61h5.68v13.85H363Zm-8.71,0H360v13.85H354.3Zm-8.73,0h5.69v13.85h-5.69Z" transform="translate(42.5 4.5)"/></g></svg>