<svg width="375" height="406" viewBox="0 0 375 406" fill="none" xmlns="http://www.w3.org/2000/svg">
<path d="M0.000167863 -2.99973V-0.400048C1.45394 -1.36214 2.91691 -2.22187 4.34307 -2.99973H0.000167863ZM404.958 241.862C405.703 240.378 406.384 238.914 407 237.471V231.852C404.415 224.677 403.467 219.14 403.439 218.987L403.071 216.715L401.728 218.475C401.636 218.598 398.314 222.886 392.84 227.656C393.815 219.99 395.499 214.647 395.545 214.494L396.244 212.324L394.294 213.102C394.165 213.153 389.362 215.026 382.461 216.111C386.758 210.011 390.613 206.316 390.723 206.224L392.306 204.729L390.263 204.32C390.125 204.289 385.129 203.235 378.67 200.349H378.698C385.148 197.473 390.125 196.419 390.263 196.388L392.306 195.979L390.723 194.484C390.613 194.382 386.758 190.687 382.461 184.597C389.353 185.682 394.155 187.555 394.294 187.606L396.244 188.384L395.545 186.214C395.499 186.071 393.815 180.728 392.84 173.052C398.324 177.832 401.645 182.12 401.737 182.243L403.081 184.004L403.449 181.731C403.476 181.578 404.415 176.041 407.009 168.866V163.247C406.393 161.804 405.721 160.34 404.967 158.856C402.05 153.084 398.636 148.263 394.79 144.445C396.98 137.741 400.771 131.386 407 126.422V123.771L406.945 123.812C405.142 122.604 398.912 117.701 398.912 107.61V106.525H397.937C388.773 106.525 384.458 99.6366 383.381 97.6101L383.436 97.5282L383.399 97.4668C384.494 95.4403 388.902 88.5522 397.956 88.5522H398.931V87.4775C398.931 77.2527 405.169 72.4423 406.963 71.2755L407.009 71.3062V68.6554C400.771 63.6812 396.989 57.3252 394.8 50.6316C398.646 46.8139 402.059 42.0035 404.976 36.2207C405.721 34.7366 406.402 33.273 407.019 31.8299V26.2109C404.433 19.0362 403.485 13.4991 403.458 13.3455L403.09 11.0734L401.746 12.8338C401.654 12.9566 398.333 17.2451 392.858 22.0146C393.833 14.3486 395.517 9.0059 395.563 8.85237L396.263 6.68256L394.312 7.46042C394.183 7.51159 389.38 9.38459 382.479 10.4695C386.776 4.36945 390.632 0.674625 390.742 0.58251L392.324 -0.911797L390.282 -1.3212C390.19 -1.34167 387.899 -1.82271 384.458 -3.00997H378.44C382.535 -1.22908 386.013 -0.164644 388.037 0.367575C386.243 2.25081 383.022 5.89446 379.701 10.8482C373.481 11.5544 366.019 11.4725 358.833 9.06731C363.359 3.70418 368.899 -0.215818 374.06 -3.00997H369.717C364.528 0.234521 360.194 4.0317 356.762 8.29968C351.426 6.1401 346.338 2.58857 342.142 -3.00997H339.676C343.761 2.93656 349.052 7.3376 355.41 10.0908C351.177 15.9452 348.564 22.6389 347.681 29.9774L325.874 5.74094C333.327 4.87097 337.486 -0.215818 339.225 -2.99973H336.778C334.689 -0.205583 330.539 3.70418 323.638 3.70418H322.663V4.78909C322.663 14.9831 316.452 19.8038 314.631 20.9911L314.575 20.9501L314.52 20.9911C312.717 19.7833 306.488 14.891 306.488 4.78909V3.70418H305.512C298.612 3.70418 294.462 -0.205583 292.373 -2.99973H289.926C291.665 -0.215818 295.824 4.87097 303.277 5.74094L281.479 29.9569C280.587 22.6287 277.974 15.9555 273.76 10.101C280.108 7.35807 285.399 2.93656 289.484 -2.99973H287.018C282.823 2.5988 277.725 6.16057 272.398 8.30992C268.966 4.0317 264.641 0.234521 259.443 -2.99973H255.1C260.262 -0.195348 265.791 3.71441 270.328 9.07754C263.151 11.4828 255.689 11.5646 249.469 10.8584C246.147 5.89446 242.927 2.26105 241.133 0.37781C243.157 -0.154408 246.626 -1.21885 250.729 -2.99973H244.712C241.271 -1.81248 238.989 -1.33143 238.887 -1.31096L236.845 -0.901562L238.427 0.592745C238.538 0.695095 242.393 4.38992 246.69 10.4797C239.798 9.39483 234.995 7.52183 234.857 7.47065L232.907 6.69279L233.606 8.86261C233.652 9.0059 235.336 14.3486 236.311 22.0248C230.827 17.2451 227.506 12.9566 227.423 12.8338L226.08 11.0734L225.712 13.3455C225.684 13.4991 224.736 19.0566 222.142 26.2416V26.2007C219.556 19.0259 218.608 13.4888 218.581 13.3353L218.213 11.0631L216.869 12.8235C216.777 12.9464 213.456 17.2348 207.981 22.0043C208.956 14.3383 210.64 8.99566 210.686 8.84214L211.385 6.67232L209.435 7.45018C209.306 7.50136 204.503 9.37436 197.602 10.4593C201.899 4.35922 205.754 0.66439 205.865 0.572275L207.447 -0.922032L205.405 -1.33143C205.313 -1.3519 203.022 -1.83295 199.581 -3.0202H193.563C197.657 -1.23932 201.135 -0.174878 203.16 0.357341C201.366 2.24058 198.145 5.88423 194.824 10.838C188.604 11.5442 181.142 11.4623 173.956 9.05707C178.482 3.69394 184.021 -0.226053 189.183 -3.0202H184.84C179.651 0.224286 175.317 4.02146 171.885 8.28945C166.539 6.16057 161.451 2.5988 157.256 -2.99973H154.79C158.875 2.94679 164.166 7.34783 170.524 10.101C166.291 15.9555 163.678 22.6491 162.795 29.9876L141.007 5.74094C148.459 4.87097 152.618 -0.215818 154.357 -2.99973H151.91C149.821 -0.205583 145.671 3.70418 138.771 3.70418H137.795V4.78909C137.795 14.9831 131.585 19.8038 129.763 20.9911L129.708 20.9501L129.652 20.9911C127.849 19.7833 121.62 14.891 121.62 4.78909V3.70418H120.645C113.744 3.70418 109.594 -0.205583 107.505 -2.99973H105.058C106.797 -0.215818 110.956 4.87097 118.409 5.74094L96.6114 29.9569C95.7189 22.6287 93.1058 15.9555 88.8825 10.101C95.2312 7.35807 100.522 2.93656 104.607 -2.99973H102.141C97.9455 2.5988 92.8481 6.16057 87.5207 8.30992C84.0887 4.04193 79.755 0.244756 74.5656 -2.99973H70.2227C75.3845 -0.195348 80.9144 3.71441 85.4505 9.07754C78.2737 11.4828 70.8116 11.5646 64.5917 10.8584C61.2701 5.89446 58.0497 2.26105 56.2555 0.37781C58.2797 -0.154408 61.7485 -1.21885 65.8522 -2.99973H59.8347C56.3935 -1.81248 54.1116 -1.33143 54.0104 -1.31096L51.9678 -0.901562L53.5504 0.592745C53.6608 0.695095 57.516 4.38992 61.8129 10.4797C54.9213 9.39483 50.1184 7.52183 49.9804 7.47065L48.0297 6.69279L48.729 8.86261C48.775 9.0059 50.4588 14.3486 51.4341 22.0248C45.9503 17.2451 42.6287 12.9566 42.5459 12.8338L41.2025 11.0734L40.8345 13.3455C40.8069 13.4991 39.8684 19.0157 37.2921 26.17C34.7158 19.0157 33.7681 13.4991 33.7497 13.3455L33.3816 11.0734L32.0383 12.8338C31.9463 12.9566 28.6247 17.2451 23.1501 22.0146C24.1254 14.3486 25.8092 9.0059 25.8552 8.85237L26.5544 6.68256L24.6038 7.46042C24.475 7.51159 19.6721 9.38459 12.7712 10.4695C17.0681 4.36945 20.9234 0.674625 21.0338 0.58251L22.6164 -0.911797L20.5738 -1.3212C20.4817 -1.34167 18.1999 -1.82271 14.7495 -3.00997H8.73198C12.8265 -1.22908 16.3045 -0.164644 18.3287 0.367575C16.5345 2.25081 13.3141 5.89446 9.99253 10.8482C6.90097 11.2167 3.50577 11.3702 0.000167863 11.145V13.3865C1.05829 13.4479 2.13482 13.4991 3.22974 13.4991C3.47817 13.4991 3.7266 13.4991 3.96583 13.4991C5.50241 13.4786 6.99298 13.3967 8.42835 13.2637C7.60945 14.584 6.79976 15.9759 6.01767 17.4498C3.07332 22.9766 1.06749 28.5035 -0.0090332 33.9383V52.1259C0.395814 54.05 0.911074 55.9435 1.57355 57.8063C1.05829 57.5709 0.53383 57.3764 0.000167863 57.1717V59.4643C0.809862 59.7919 1.62876 60.1603 2.43845 60.5697C2.08881 64.5409 1.23311 68.1436 0.000167863 71.4188V76.3521C2.18082 72.0022 3.61619 67.2941 4.22346 62.279L26.0024 86.5154C18.2735 87.4263 14.0778 92.8713 12.4492 95.5733C9.10922 90.6094 4.92274 86.7303 0.000167863 83.9362V86.3823C4.19585 88.9104 8.10631 92.5131 11.3451 97.5487C8.09711 102.584 4.19585 106.187 0.000167863 108.715V111.161C4.91354 108.377 9.10002 104.488 12.44 99.5343C14.0594 102.226 18.2459 107.681 25.984 108.592L4.22346 132.788C3.61619 127.783 2.18082 123.085 0.000167863 118.745V123.679C1.23311 126.954 2.08881 130.557 2.43845 134.528C1.61956 134.937 0.809862 135.306 0.000167863 135.633V137.926C0.53383 137.721 1.05829 137.527 1.58275 137.291C0.920275 139.154 0.405015 141.047 0.000167863 142.972V161.159C1.07669 166.604 3.07332 172.131 6.02687 177.648C6.80896 179.121 7.61865 180.513 8.43755 181.834C7.00218 181.711 5.51161 181.619 3.97503 181.598C2.62247 181.578 1.29752 181.619 0.000167863 181.701V183.952C3.50577 183.727 6.90097 183.881 9.98333 184.239C13.3049 189.203 16.5253 192.836 18.3195 194.72C15.918 195.354 11.4923 196.715 6.38571 199.162C4.31547 198.128 2.16242 196.91 0.000167863 195.497V198.097C1.33432 198.926 2.65008 199.684 3.94743 200.369H3.97503C2.66848 201.055 1.34352 201.812 0.000167863 202.652V205.251C2.16242 203.839 4.32467 202.621 6.38571 201.587C11.4923 204.033 15.918 205.395 18.3195 206.029C16.5253 207.912 13.3049 211.556 9.98333 216.51C6.90097 216.858 3.50577 217.022 0.000167863 216.796V219.038C1.05829 219.099 2.13482 219.15 3.22974 219.15C3.47817 219.15 3.7266 219.15 3.96583 219.15C5.50241 219.13 6.99298 219.048 8.42835 218.915C7.60945 220.235 6.79976 221.627 6.01767 223.101C3.07332 228.628 1.06749 234.155 -0.0090332 239.59V257.777C0.395814 259.701 0.911074 261.595 1.57355 263.458C1.04909 263.222 0.515428 263.028 -0.0090332 262.823V265.116C0.800661 265.443 1.61956 265.812 2.42925 266.221C2.07961 270.192 1.22391 273.795 -0.0090332 277.07V282.003C2.17162 277.654 3.60699 272.946 4.21426 267.93L25.9932 292.167C18.2643 293.078 14.0686 298.523 12.44 301.225C9.10923 296.261 4.92274 292.372 0.000167863 289.577V292.024C4.19585 294.552 8.10631 298.154 11.3451 303.19C8.10631 308.226 4.19585 311.828 0.000167863 314.356V316.802C4.91354 314.018 9.10002 310.129 12.44 305.176C14.0594 307.867 18.2459 313.323 25.984 314.233L4.22346 338.429C3.61619 333.424 2.18082 328.726 0.000167863 324.387V329.32C1.23311 332.595 2.08881 336.198 2.43845 340.169C1.61956 340.578 0.809862 340.947 0.000167863 341.274V343.567C0.53383 343.362 1.05829 343.168 1.58275 342.932C0.920275 344.795 0.405015 346.689 0.000167863 348.613V366.8C1.07669 372.245 3.07332 377.772 6.02687 383.289C6.80896 384.763 7.61865 386.155 8.43755 387.475C7.00218 387.352 5.51161 387.26 3.97503 387.24C2.62247 387.219 1.29752 387.26 0.000167863 387.342V389.594C3.50577 389.368 6.90097 389.522 9.98333 389.88C13.3049 394.844 16.5253 398.478 18.3195 400.361C15.918 400.995 11.4923 402.357 6.38571 404.803C4.31547 403.769 2.16242 402.551 0.000167863 401.139V403.738C1.33432 404.567 2.65008 405.325 3.94743 406.01H8.99881C15.4488 403.134 20.4265 402.08 20.5646 402.05L22.6072 401.64L21.0246 400.146C20.9142 400.044 17.0589 396.349 12.762 390.259C19.6536 391.344 24.4566 393.217 24.5946 393.268L26.5452 394.046L25.846 391.876C25.8 391.733 24.1162 386.39 23.1409 378.714C28.6247 383.494 31.9463 387.782 32.0291 387.905L33.3724 389.665L33.7405 387.393C33.7681 387.24 34.7066 381.723 37.2829 374.569C39.8592 381.723 40.8069 387.24 40.8253 387.393L41.1933 389.665L42.5367 387.905C42.6287 387.782 45.9503 383.494 51.4249 378.714C50.4496 386.38 48.7658 391.722 48.7198 391.876L48.0205 394.046L49.9712 393.268C50.1 393.217 54.9029 391.344 61.8037 390.259C57.5068 396.359 53.6516 400.054 53.5412 400.146L51.9586 401.64L54.0012 402.05C54.1392 402.08 59.1262 403.124 65.5762 406.01H70.6092C71.9065 405.325 73.2223 404.567 74.5564 403.738C79.7458 400.494 84.0795 396.697 87.5115 392.429C93.5382 394.865 99.2521 399.071 103.715 406.01H106.098L106.07 405.959C107.165 403.933 111.572 397.045 120.626 397.045H121.601V395.96C121.601 385.735 127.84 380.925 129.634 379.758L129.689 379.799L129.735 379.768C131.557 380.955 137.777 385.755 137.777 395.96V397.045H138.752C147.926 397.045 152.241 403.964 153.308 405.99L153.29 406.021H155.673C160.145 399.081 165.859 394.875 171.876 392.439C175.308 396.717 179.633 400.514 184.831 403.749C186.165 404.578 187.481 405.335 188.778 406.021H193.83C200.28 403.145 205.258 402.091 205.396 402.06L207.438 401.65L205.856 400.156C205.745 400.054 201.89 396.359 197.593 390.269C204.485 391.354 209.288 393.227 209.426 393.278L211.376 394.056L210.677 391.886C210.631 391.743 208.947 386.4 207.972 378.724C213.456 383.504 216.777 387.792 216.869 387.915L218.213 389.675L218.581 387.403C218.608 387.25 219.547 381.713 222.142 374.538V374.497C224.736 381.682 225.684 387.25 225.712 387.403L226.08 389.675L227.423 387.915C227.515 387.792 230.837 383.504 236.311 378.724C235.336 386.39 233.652 391.733 233.606 391.886L232.907 394.056L234.857 393.278C234.986 393.227 239.789 391.354 246.69 390.269C242.393 396.369 238.538 400.064 238.427 400.156L236.845 401.65L238.887 402.06C239.025 402.091 244.012 403.134 250.472 406.021H255.505C256.802 405.335 258.118 404.578 259.452 403.749C264.641 400.504 268.975 396.707 272.407 392.439C278.434 394.875 284.148 399.081 288.61 406.021H290.993L290.966 405.97C292.06 403.943 296.468 397.055 305.522 397.055H306.497V395.97C306.497 385.745 312.735 380.935 314.529 379.768L314.585 379.809L314.631 379.778C316.452 380.965 322.672 385.766 322.672 395.97V397.055H323.648C332.821 397.055 337.136 403.974 338.204 406L338.185 406.031H340.568C345.04 399.092 350.754 394.885 356.772 392.449C360.204 396.727 364.528 400.525 369.727 403.759C371.061 404.588 372.377 405.345 373.674 406.031H378.725C385.175 403.155 390.153 402.101 390.291 402.07L392.334 401.661L390.751 400.166C390.641 400.064 386.785 396.369 382.489 390.279C389.38 391.364 394.183 393.237 394.321 393.288L396.272 394.066L395.572 391.896C395.526 391.753 393.843 386.411 392.867 378.734C398.351 383.514 401.673 387.802 401.765 387.925L403.108 389.686L403.476 387.414C403.504 387.26 404.442 381.723 407.037 374.548V368.929C406.421 367.486 405.749 366.022 404.994 364.538C402.078 358.766 398.664 353.945 394.818 350.128C397.008 343.424 400.799 337.068 407.028 332.104V329.453L406.973 329.494C405.169 328.286 398.94 323.384 398.94 313.292V312.207H397.965C388.8 312.207 384.485 305.319 383.409 303.292L383.464 303.21L383.427 303.149C384.522 301.122 388.929 294.234 397.983 294.234H398.958V293.149C398.958 282.925 405.197 278.114 406.991 276.947L407.037 276.978V274.327C400.799 269.353 397.017 262.997 394.827 256.303C398.627 252.455 402.041 247.645 404.958 241.862ZM393.107 215.824C392.398 218.455 391.248 223.398 390.595 229.539C385.525 233.613 379.029 237.696 371.723 239.6C373.435 231.484 377.106 224.248 380.768 218.608C386.298 217.902 390.742 216.612 393.107 215.824ZM390.337 373.903C389.15 372.992 387.899 372.092 386.574 371.222C381.449 367.844 376.333 365.572 371.291 364.405C370.178 357.384 370.601 349.769 373.766 341.991C381.412 342.82 387.549 346.228 392.462 350.813C390.852 356.248 390.052 362.317 390.125 368.939C390.153 370.638 390.227 372.296 390.337 373.903ZM369.211 363.975C362.688 362.86 356.321 363.617 350.294 366.278C352.686 359.564 353.367 352.492 352.364 345.235C358.888 346.351 365.255 345.593 371.282 342.932C368.899 349.636 368.208 356.719 369.211 363.975ZM257.851 342.932C263.878 345.593 270.245 346.351 276.768 345.235C275.765 352.492 276.446 359.574 278.839 366.278C272.803 363.617 266.445 362.86 259.921 363.975C260.924 356.719 260.243 349.636 257.851 342.932ZM236.67 350.803C241.583 346.208 247.721 342.81 255.367 341.98C258.541 349.759 258.964 357.374 257.842 364.395C252.799 365.562 247.674 367.834 242.559 371.212C241.234 372.082 239.982 372.982 238.795 373.893C238.906 372.296 238.989 370.638 239.007 368.929C239.072 362.307 238.28 356.248 236.67 350.803ZM205.469 373.903C204.282 372.992 203.031 372.092 201.706 371.222C196.581 367.844 191.465 365.572 186.423 364.405C185.31 357.384 185.733 349.769 188.898 341.991C196.544 342.82 202.681 346.228 207.595 350.813C205.984 356.248 205.184 362.317 205.258 368.939C205.285 370.638 205.359 372.296 205.469 373.903ZM184.344 363.975C177.82 362.86 171.453 363.617 165.426 366.278C167.818 359.564 168.499 352.492 167.496 345.235C174.02 346.351 180.387 345.593 186.414 342.932C184.022 349.636 183.341 356.719 184.344 363.975ZM72.983 342.932C79.0189 345.593 85.3769 346.351 91.9004 345.235C90.8975 352.492 91.5784 359.574 93.9707 366.278C87.9348 363.617 81.5768 362.86 75.0533 363.975C76.0562 356.719 75.3753 349.636 72.983 342.932ZM51.793 350.803C56.7063 346.208 62.8435 342.81 70.4895 341.98C73.6639 349.759 74.0872 357.374 72.9646 364.395C67.9224 365.562 62.7974 367.834 57.6817 371.212C56.3567 372.082 55.1054 372.982 53.9184 373.893C54.0288 372.296 54.1116 370.638 54.13 368.929C54.2037 362.307 53.4124 356.248 51.793 350.803ZM35.2587 241.862C36.0039 240.388 36.6664 238.935 37.2829 237.502C37.8994 238.935 38.571 240.388 39.3071 241.862C42.2239 247.634 45.6375 252.455 49.4835 256.273C47.2937 262.966 43.512 269.322 37.2829 274.286C31.0538 269.322 27.2721 262.966 25.0823 256.273C28.9283 252.455 32.3419 247.645 35.2587 241.862ZM24.4014 253.97C22.2391 245.987 22.1655 237.686 22.8004 230.767C27.2629 227.072 30.5293 223.49 32.2223 221.494C32.7928 224.166 34.0165 229.089 36.2156 234.769C33.6577 241.105 29.8668 248.259 24.4014 253.97ZM35.2587 158.877C32.3419 153.104 28.9283 148.284 25.0823 144.466C27.2721 137.772 31.0538 131.416 37.2829 126.452C43.512 131.416 47.2937 137.772 49.4835 144.466C45.6375 148.284 42.2239 153.094 39.3163 158.877C38.571 160.351 37.9086 161.804 37.2921 163.237C36.6664 161.794 35.9947 160.34 35.2587 158.877ZM36.2156 165.98C34.0165 171.66 32.7928 176.583 32.2223 179.255C30.5293 177.259 27.2537 173.666 22.8004 169.982C22.1655 163.063 22.2391 154.762 24.4014 146.779C29.8668 152.48 33.6577 159.634 36.2156 165.98ZM53.9276 26.8352C55.1146 27.7461 56.3659 28.6468 57.6909 29.5168C62.8159 32.8943 67.9316 35.1665 72.9738 36.3333C74.0872 43.3545 73.6639 50.9795 70.4987 58.7479C62.8527 57.9189 56.7155 54.5106 51.8022 49.9253C53.4124 44.4906 54.2129 38.4212 54.1392 31.7992C54.1116 30.09 54.038 28.4319 53.9276 26.8352ZM75.0533 36.7632C81.5768 37.8788 87.944 37.1214 93.9707 34.4603C91.5784 41.1744 90.8975 48.2468 91.9004 55.5034C85.3769 54.3878 79.0097 55.1452 72.983 57.8063C75.3753 51.1024 76.0562 44.0198 75.0533 36.7632ZM186.414 57.8063C180.378 55.1452 174.011 54.3878 167.496 55.5034C168.499 48.2468 167.818 41.1642 165.426 34.4603C171.453 37.1214 177.82 37.8788 184.344 36.7632C183.341 44.0198 184.022 51.1024 186.414 57.8063ZM207.595 49.9356C202.681 54.5311 196.544 57.9291 188.898 58.7581C185.724 50.9795 185.3 43.3647 186.423 36.3435C191.465 35.1767 196.59 32.9046 201.706 29.527C203.031 28.6571 204.282 27.7564 205.469 26.8455C205.359 28.4421 205.276 30.1002 205.258 31.8094C205.193 38.4212 205.984 44.4906 207.595 49.9356ZM222.188 71.2653C224.009 72.4525 230.22 77.2527 230.22 87.457V88.5419H231.195C240.36 88.5419 244.684 95.4505 245.751 97.4771L245.715 97.5385L245.751 97.5999C244.684 99.6264 240.36 106.515 231.195 106.515H230.22V107.599C230.22 117.793 224.009 122.614 222.188 123.801L222.132 123.76V123.771L222.077 123.812C220.274 122.604 214.045 117.701 214.045 107.61V106.525H213.069C203.905 106.525 199.59 99.6366 198.513 97.6101L198.568 97.5282L198.532 97.4668C199.627 95.4403 204.034 88.5522 213.088 88.5522H214.063V87.4775C214.063 77.2527 220.301 72.4423 222.096 71.2755L222.142 71.3062V71.3165L222.188 71.2653ZM238.795 26.8352C239.982 27.7461 241.234 28.6468 242.559 29.5168C247.684 32.8943 252.799 35.1665 257.842 36.3333C258.955 43.3545 258.532 50.9795 255.367 58.7479C247.721 57.9189 241.583 54.5106 236.67 49.9253C238.28 44.4906 239.081 38.4212 239.007 31.7992C238.989 30.09 238.906 28.4319 238.795 26.8352ZM259.921 36.7632C266.445 37.8788 272.812 37.1214 278.839 34.4603C276.446 41.1744 275.765 48.2468 276.768 55.5034C270.245 54.3878 263.878 55.1452 257.851 57.8063C260.243 51.1024 260.924 44.0198 259.921 36.7632ZM371.282 57.8063C365.246 55.1452 358.879 54.3878 352.364 55.5034C353.367 48.2468 352.686 41.1642 350.294 34.4603C356.321 37.1214 362.688 37.8788 369.211 36.7632C368.208 44.0198 368.899 51.1024 371.282 57.8063ZM392.472 49.9356C387.558 54.5311 381.421 57.9291 373.775 58.7581C370.601 50.9795 370.178 43.3647 371.3 36.3435C376.342 35.1767 381.467 32.9046 386.583 29.527C387.908 28.6571 389.159 27.7564 390.346 26.8455C390.236 28.4421 390.153 30.1002 390.135 31.8094C390.061 38.4212 390.852 44.4906 392.472 49.9356ZM372.137 60.5697C371.392 69.0648 368.337 75.9017 364.206 81.357C359.523 79.6375 354.306 78.7573 348.638 78.7573C348.389 78.7573 348.141 78.7573 347.902 78.7573C346.365 78.7777 344.875 78.8596 343.439 78.9927C344.258 77.6724 345.068 76.2804 345.85 74.8066C348.886 69.1057 350.929 63.415 351.978 57.8063C358.299 56.5678 365.145 57.0489 372.137 60.5697ZM390.337 168.262C389.15 167.351 387.899 166.451 386.574 165.581C381.449 162.203 376.333 159.931 371.291 158.764C370.178 151.743 370.601 144.128 373.766 136.35C381.412 137.179 387.549 140.587 392.462 145.172C390.852 150.607 390.052 156.676 390.125 163.298C390.153 164.997 390.227 166.655 390.337 168.262ZM350.294 240.102C356.321 242.763 362.688 243.52 369.211 242.404C368.208 249.661 368.889 256.744 371.282 263.447C365.246 260.786 358.879 260.029 352.364 261.145C353.367 253.888 352.686 246.805 350.294 240.102ZM333.557 308.85C335.959 308.215 340.384 306.854 345.491 304.408C351.196 307.253 357.627 311.47 362.761 317.55C355.585 319.955 348.113 320.037 341.893 319.33C338.581 314.377 335.351 310.733 333.557 308.85ZM349.843 342.431C342.547 340.527 336.042 336.443 330.972 332.37C330.328 326.229 329.168 321.285 328.46 318.655C330.825 319.443 335.269 320.733 340.789 321.449C344.461 327.078 348.132 334.314 349.843 342.431ZM333.557 297.53C335.351 295.647 338.572 292.003 341.893 287.049C348.113 286.343 355.575 286.425 362.761 288.83C357.627 294.91 351.196 299.137 345.491 301.972C340.384 299.526 335.959 298.165 333.557 297.53ZM340.799 284.931C335.278 285.647 330.834 286.937 328.469 287.725C329.178 285.094 330.328 280.151 330.981 274.01C336.051 269.936 342.547 265.853 349.852 263.949C348.132 272.065 344.461 279.301 340.799 284.931ZM209.913 256.273C213.759 252.455 217.173 247.645 220.09 241.862C220.835 240.378 221.516 238.914 222.132 237.471V237.44C222.749 238.894 223.43 240.368 224.184 241.862C227.101 247.634 230.514 252.455 234.361 256.273C232.171 262.977 228.38 269.333 222.132 274.307V274.297C215.894 269.322 212.103 262.977 209.913 256.273ZM53.9276 232.476C55.1146 233.387 56.3659 234.288 57.6909 235.158C62.8159 238.536 67.9316 240.808 72.9738 241.975C74.0872 248.996 73.6639 256.621 70.4987 264.399C62.8527 263.57 56.7155 260.162 51.8022 255.577C53.4124 250.142 54.2129 244.073 54.1392 237.451C54.1116 235.741 54.038 234.073 53.9276 232.476ZM51.793 145.162C56.7063 140.566 62.8435 137.168 70.4895 136.339C73.6639 144.118 74.0872 151.733 72.9646 158.754C67.9224 159.921 62.7974 162.193 57.6817 165.57C56.3567 166.44 55.1054 167.341 53.9184 168.252C54.0288 166.655 54.1116 164.997 54.13 163.288C54.2037 156.666 53.4124 150.597 51.793 145.162ZM362.761 111.908C355.585 114.314 348.113 114.395 341.893 113.689C338.572 108.725 335.351 105.092 333.557 103.209C335.959 102.574 340.384 101.213 345.491 98.7667C351.196 101.612 357.627 105.829 362.761 111.908ZM333.557 91.8888C335.351 90.0055 338.572 86.3619 341.893 81.4081C348.113 80.7019 355.575 80.7838 362.761 83.189C357.627 89.2686 351.196 93.4957 345.491 96.3307C340.384 93.8743 335.959 92.5233 333.557 91.8888ZM349.843 136.79C342.547 134.886 336.042 130.802 330.972 126.729C330.328 120.588 329.168 115.644 328.46 113.014C330.825 113.802 335.269 115.091 340.789 115.808C344.461 121.437 348.132 128.663 349.843 136.79ZM352.364 139.584C358.888 140.699 365.255 139.942 371.282 137.281C368.889 143.995 368.208 151.067 369.211 158.324C362.688 157.208 356.321 157.966 350.294 160.627C352.686 153.923 353.367 146.84 352.364 139.584ZM347.81 161.589C340.164 160.76 334.027 157.352 329.113 152.766C330.723 147.332 331.524 141.262 331.45 134.64C331.432 132.931 331.358 131.273 331.239 129.676C332.426 130.587 333.677 131.488 335.002 132.358C340.127 135.735 345.243 138.008 350.285 139.174C351.398 146.196 350.975 153.81 347.81 161.589ZM297.903 271.073C296.716 270.162 295.456 269.261 294.14 268.391C289.015 265.013 283.899 262.741 278.857 261.574C277.744 254.553 278.167 246.938 281.332 239.16C288.978 239.989 295.115 243.397 300.029 247.982C298.418 253.417 297.618 259.487 297.691 266.109C297.71 267.818 297.784 269.476 297.903 271.073ZM264.926 287.008C260.804 281.543 257.75 274.716 256.995 266.221C263.988 262.69 270.834 262.219 277.146 263.468C278.194 269.077 280.237 274.778 283.273 280.468C284.056 281.942 284.865 283.334 285.684 284.654C284.249 284.532 282.758 284.439 281.222 284.419C280.973 284.419 280.725 284.419 280.486 284.419C274.827 284.409 269.61 285.289 264.926 287.008ZM277.256 300.908C278.599 301.747 279.924 302.504 281.231 303.19C279.924 303.876 278.599 304.633 277.256 305.472C272.067 308.717 267.733 312.514 264.301 316.782C258.274 314.346 252.551 310.129 248.089 303.18C252.56 296.23 258.274 292.024 264.301 289.577C267.733 293.866 272.067 297.663 277.256 300.908ZM218.572 218.987L218.203 216.715L216.86 218.475C216.768 218.598 213.447 222.886 207.972 227.656C208.947 219.99 210.631 214.647 210.677 214.494L211.376 212.324L209.426 213.102C209.297 213.153 204.494 215.026 197.593 216.111C201.89 210.011 205.745 206.316 205.856 206.224L207.438 204.729L205.396 204.32C205.258 204.289 200.261 203.235 193.802 200.349H193.83C200.271 197.473 205.258 196.419 205.396 196.388L207.438 195.979L205.856 194.484C205.745 194.382 201.89 190.687 197.593 184.597C204.485 185.682 209.288 187.555 209.426 187.606L211.376 188.384L210.677 186.214C210.631 186.071 208.947 180.728 207.972 173.052C213.456 177.832 216.777 182.12 216.86 182.243L218.203 184.004L218.572 181.731C218.599 181.578 219.538 176.041 222.132 168.866V168.825C224.736 176.01 225.675 181.578 225.702 181.731L226.07 184.004L227.414 182.243C227.506 182.12 230.827 177.832 236.302 173.052C235.327 180.718 233.643 186.061 233.597 186.214L232.898 188.384L234.848 187.606C234.977 187.555 239.78 185.682 246.681 184.597C242.384 190.697 238.529 194.392 238.418 194.484L236.836 195.979L238.878 196.388C239.016 196.419 244.003 197.463 250.453 200.349H250.472C244.012 203.235 239.016 204.289 238.878 204.32L236.836 204.729L238.418 206.224C238.529 206.326 242.384 210.021 246.681 216.111C239.789 215.026 234.986 213.153 234.848 213.102L232.898 212.324L233.597 214.494C233.643 214.637 235.327 219.98 236.302 227.656C230.818 222.876 227.497 218.588 227.414 218.465L226.07 216.704L225.702 218.977C225.675 219.13 224.727 224.688 222.132 231.883V231.842C219.538 224.688 218.59 219.14 218.572 218.987ZM179.338 287.008C174.655 285.289 169.438 284.409 163.77 284.409C163.522 284.409 163.273 284.409 163.034 284.409C161.497 284.429 160.007 284.511 158.571 284.644C159.39 283.324 160.2 281.932 160.982 280.458C164.018 274.757 166.061 269.066 167.11 263.458C173.422 262.219 180.277 262.69 187.269 266.211C186.524 274.716 183.469 281.543 179.338 287.008ZM179.964 289.588C185.991 292.024 191.704 296.24 196.176 303.19C191.704 310.139 185.991 314.346 179.964 316.792C176.532 312.514 172.207 308.717 167.009 305.483C165.665 304.643 164.34 303.886 163.034 303.2C164.34 302.514 165.665 301.757 167.009 300.918C172.198 297.663 176.532 293.866 179.964 289.588ZM144.236 247.972C149.149 243.377 155.287 239.979 162.933 239.15C166.107 246.928 166.53 254.543 165.408 261.564C160.366 262.731 155.241 265.003 150.125 268.381C148.8 269.251 147.548 270.151 146.362 271.062C146.472 269.466 146.555 267.808 146.573 266.098C146.647 259.476 145.855 253.417 144.236 247.972ZM113.026 271.073C111.839 270.162 110.588 269.261 109.263 268.391C104.138 265.013 99.0221 262.741 93.9799 261.574C92.8665 254.553 93.2898 246.938 96.455 239.16C104.101 239.989 110.238 243.397 115.152 247.982C113.541 253.417 112.741 259.487 112.814 266.109C112.842 267.818 112.916 269.476 113.026 271.073ZM91.9004 261.145C85.3769 260.029 79.0097 260.786 72.983 263.447C75.3753 256.733 76.0562 249.661 75.0533 242.404C81.5768 243.52 87.944 242.763 93.9707 240.102C91.5784 246.805 90.8975 253.888 91.9004 261.145ZM72.983 137.281C79.0097 139.942 85.3769 140.699 91.9004 139.584C90.8975 146.84 91.5784 153.923 93.9707 160.627C87.9348 157.966 81.5768 157.208 75.0533 158.324C76.0562 151.078 75.3753 143.995 72.983 137.281ZM93.9799 139.164C99.0221 137.997 104.147 135.725 109.263 132.348C110.588 131.478 111.839 130.577 113.026 129.666C112.916 131.263 112.833 132.921 112.814 134.63C112.741 141.252 113.541 147.321 115.152 152.756C110.238 157.352 104.101 160.75 96.455 161.579C93.2898 153.81 92.8665 146.196 93.9799 139.164ZM115.86 154.977C118.372 162.172 122.439 168.15 127.932 172.725C125.512 174.516 120.589 179.173 119.77 187.811L97.9915 163.575C104.589 162.582 110.597 159.675 115.86 154.977ZM96.6114 165.11L118.39 189.346C110.661 190.257 106.466 195.702 104.837 198.404C100.724 192.294 95.36 187.77 88.8917 184.976C93.115 179.122 95.7189 172.438 96.6114 165.11ZM104.837 202.324C106.457 205.016 110.643 210.481 118.39 211.382L96.6114 235.598C95.7189 228.27 93.1058 221.597 88.8917 215.742C95.3508 212.948 100.733 208.434 104.837 202.324ZM97.9731 237.164L119.77 212.928C120.589 221.545 125.503 226.213 127.932 228.014C122.439 232.589 118.381 238.566 115.86 245.761C110.597 241.053 104.579 238.147 97.9731 237.164ZM121.611 210.43V209.345H120.635C111.471 209.345 107.147 202.447 106.079 200.431L106.116 200.369H106.107L106.079 200.318C107.174 198.292 111.582 191.393 120.635 191.393H121.611V190.308C121.611 180.084 127.849 175.273 129.643 174.106L129.698 174.147L129.744 174.117C131.566 175.304 137.786 180.104 137.786 190.308V191.393H138.761C147.935 191.393 152.25 198.312 153.318 200.339L153.299 200.369H153.29L153.327 200.431C152.259 202.457 147.935 209.345 138.771 209.345H137.795V210.43C137.795 220.624 131.585 225.445 129.763 226.632L129.708 226.591L129.652 226.632C127.849 225.435 121.611 220.532 121.611 210.43ZM146.371 129.666C147.558 130.577 148.809 131.478 150.134 132.348C155.259 135.725 160.375 137.997 165.417 139.164C166.53 146.185 166.107 153.81 162.942 161.589C155.296 160.76 149.159 157.352 144.245 152.766C145.855 147.332 146.656 141.262 146.582 134.64C146.555 132.921 146.481 131.263 146.371 129.666ZM165.426 240.102C171.462 242.763 177.82 243.52 184.344 242.404C183.341 249.661 184.022 256.744 186.414 263.447C180.378 260.786 174.02 260.029 167.496 261.145C168.499 253.888 167.809 246.805 165.426 240.102ZM164.57 237.338C165.316 228.843 168.37 222.006 172.502 216.551C177.185 218.27 182.402 219.15 188.07 219.15C188.318 219.15 188.567 219.15 188.806 219.15C190.343 219.13 191.833 219.048 193.269 218.915C192.45 220.235 191.64 221.627 190.858 223.101C187.822 228.802 185.779 234.493 184.73 240.102C178.409 241.33 171.563 240.859 164.57 237.338ZM167.496 139.584C174.02 140.699 180.387 139.942 186.414 137.281C184.022 143.995 183.341 151.067 184.344 158.324C177.82 157.208 171.453 157.966 165.426 160.627C167.809 153.923 168.499 146.84 167.496 139.584ZM184.721 160.647C185.77 166.256 187.812 171.957 190.849 177.648C191.631 179.121 192.44 180.513 193.259 181.834C191.824 181.711 190.333 181.619 188.797 181.598C182.835 181.516 177.378 182.397 172.493 184.188C168.37 178.722 165.316 171.896 164.561 163.39C171.563 159.87 178.409 159.399 184.721 160.647ZM184.831 198.087C186.165 198.916 187.481 199.673 188.778 200.359H188.806C187.5 201.045 186.175 201.802 184.831 202.641C179.642 205.886 175.308 209.683 171.876 213.961C165.849 211.525 160.136 207.309 155.664 200.359H155.673C160.145 193.42 165.859 189.213 171.876 186.777C175.308 191.055 179.633 194.853 184.831 198.087ZM170.505 184.976C164.028 187.78 158.654 192.304 154.541 198.425C152.922 195.723 148.735 190.247 140.979 189.346L162.776 165.11C163.669 172.438 166.282 179.122 170.505 184.976ZM154.55 202.324C158.663 208.434 164.037 212.948 170.514 215.742C166.282 221.597 163.669 228.29 162.785 235.629L141.007 211.392C148.745 210.481 152.94 205.016 154.55 202.324ZM195.909 218.618C201.43 217.902 205.874 216.612 208.239 215.824C207.53 218.455 206.38 223.398 205.727 229.539C200.657 233.613 194.161 237.696 186.855 239.6C188.576 231.484 192.247 224.248 195.909 218.618ZM194.814 216.5C188.594 217.206 181.132 217.124 173.946 214.719C179.081 208.639 185.512 204.422 191.217 201.577C196.323 204.023 200.749 205.384 203.151 206.019C201.356 207.902 198.127 211.546 194.814 216.5ZM191.217 199.162C185.512 196.316 179.081 192.099 173.946 186.02C181.123 183.615 188.585 183.533 194.805 184.239C198.127 189.203 201.347 192.836 203.141 194.72C200.749 195.344 196.323 196.705 191.217 199.162ZM186.865 161.128C194.161 163.032 200.666 167.116 205.736 171.189C206.38 177.33 207.539 182.274 208.248 184.904C205.883 184.116 201.439 182.837 195.918 182.11C192.247 176.481 188.576 169.255 186.865 161.128ZM209.223 146.769C214.689 152.48 218.489 159.634 221.037 165.98C218.838 171.66 217.615 176.583 217.044 179.255C215.351 177.259 212.076 173.666 207.622 169.982C206.987 163.053 207.061 154.752 209.223 146.769ZM205.258 163.288C205.276 164.997 205.35 166.655 205.469 168.252C204.282 167.341 203.031 166.44 201.706 165.57C196.581 162.193 191.465 159.921 186.423 158.754C185.31 151.733 185.733 144.118 188.898 136.339C196.544 137.168 202.681 140.577 207.595 145.162C205.984 150.597 205.193 156.666 205.258 163.288ZM167.11 137.271C166.061 131.662 164.018 125.971 160.982 120.27C160.2 118.797 159.39 117.405 158.571 116.084C160.007 116.207 161.497 116.299 163.034 116.32C163.282 116.32 163.531 116.32 163.77 116.32C169.438 116.32 174.646 115.439 179.338 113.72C183.46 119.185 186.515 126.012 187.269 134.517C180.277 138.049 173.431 138.519 167.11 137.271ZM161.396 163.575L139.608 187.801C138.789 179.193 133.866 174.536 131.447 172.745C136.949 168.17 141.016 162.193 143.528 154.987C148.8 159.675 154.808 162.582 161.396 163.575ZM139.617 212.928L161.396 237.164C154.799 238.157 148.791 241.053 143.528 245.761C141.016 238.566 136.949 232.589 131.456 228.014C133.885 226.213 138.807 221.545 139.617 212.928ZM186.423 241.985C191.465 240.818 196.59 238.546 201.706 235.168C203.031 234.298 204.282 233.398 205.469 232.487C205.359 234.083 205.276 235.741 205.258 237.451C205.184 244.073 205.984 250.142 207.595 255.577C202.681 260.172 196.544 263.57 188.898 264.399C185.733 256.621 185.31 249.006 186.423 241.985ZM207.622 230.757C212.085 227.062 215.351 223.48 217.044 221.484C217.615 224.155 218.838 229.078 221.037 234.759C218.479 241.105 214.689 248.259 209.223 253.97C207.061 245.976 206.987 237.676 207.622 230.757ZM300.029 152.756C295.115 157.352 288.978 160.75 281.332 161.579C278.158 153.8 277.734 146.185 278.857 139.164C283.899 137.997 289.024 135.725 294.14 132.348C295.465 131.478 296.716 130.577 297.903 129.666C297.793 131.263 297.71 132.921 297.691 134.63C297.618 141.252 298.418 147.321 300.029 152.756ZM276.768 261.145C270.245 260.029 263.878 260.786 257.851 263.447C260.243 256.733 260.924 249.661 259.921 242.404C266.445 243.52 272.812 242.763 278.839 240.102C276.455 246.805 275.765 253.888 276.768 261.145ZM259.544 240.091C258.495 234.482 256.452 228.782 253.416 223.091C252.634 221.617 251.824 220.225 251.005 218.905C252.441 219.028 253.931 219.12 255.468 219.14C261.421 219.222 266.877 218.332 271.763 216.541C275.894 222.006 278.949 228.843 279.694 237.338C272.701 240.859 265.856 241.33 259.544 240.091ZM278.848 160.637C272.812 157.976 266.454 157.219 259.93 158.334C260.933 151.078 260.252 143.995 257.86 137.291C263.887 139.952 270.254 140.71 276.777 139.594C275.765 146.84 276.455 153.923 278.848 160.637ZM279.694 163.401C278.949 171.896 275.894 178.733 271.763 184.198C266.877 182.407 261.421 181.516 255.459 181.609C253.922 181.629 252.431 181.711 250.996 181.844C251.815 180.524 252.625 179.132 253.407 177.658C256.443 171.957 258.486 166.266 259.535 160.658C265.856 159.399 272.701 159.87 279.694 163.401ZM272.389 186.777C278.415 189.213 284.129 193.42 288.592 200.359H288.601C284.129 207.309 278.415 211.515 272.389 213.961C268.957 209.683 264.632 205.886 259.433 202.652C258.09 201.812 256.765 201.055 255.459 200.369H255.486C256.784 199.684 258.099 198.926 259.433 198.097C264.632 194.853 268.957 191.055 272.389 186.777ZM248.355 182.12C242.835 182.837 238.391 184.126 236.026 184.915C236.734 182.284 237.894 177.341 238.538 171.2C243.608 167.126 250.104 163.042 257.409 161.139C255.689 169.255 252.027 176.481 248.355 182.12ZM249.45 184.229C255.67 183.523 263.132 183.604 270.309 186.01C265.175 192.089 258.743 196.306 253.039 199.151C247.932 196.705 243.506 195.344 241.105 194.709C242.908 192.836 246.138 189.193 249.45 184.229ZM253.048 201.577C258.753 204.422 265.184 208.639 270.318 214.719C263.142 217.124 255.679 217.206 249.46 216.5C246.138 211.536 242.918 207.902 241.123 206.019C243.516 205.384 247.951 204.023 253.048 201.577ZM257.409 239.6C250.113 237.696 243.608 233.613 238.538 229.539C237.894 223.398 236.734 218.455 236.026 215.824C238.391 216.612 242.835 217.902 248.355 218.618C252.027 224.248 255.689 231.484 257.409 239.6ZM273.76 215.742C280.228 212.948 285.601 208.424 289.714 202.314C291.334 205.006 295.52 210.471 303.267 211.372L281.488 235.588C280.587 228.27 277.983 221.597 273.76 215.742ZM289.714 198.404C285.601 192.294 280.237 187.77 273.769 184.976C277.992 179.122 280.596 172.438 281.488 165.11L303.267 189.346C295.529 190.257 291.334 195.702 289.714 198.404ZM282.869 163.575C289.466 162.582 295.474 159.685 300.737 154.977C303.249 162.172 307.316 168.15 312.809 172.725C310.389 174.516 305.466 179.173 304.648 187.811L282.869 163.575ZM277.155 137.281C270.843 138.519 263.988 138.049 257.004 134.528C257.75 126.033 260.804 119.196 264.936 113.74C269.619 115.46 274.836 116.34 280.504 116.34C280.752 116.34 280.992 116.34 281.24 116.34C282.777 116.32 284.267 116.238 285.703 116.105C284.884 117.425 284.074 118.817 283.292 120.291C280.246 125.971 278.204 131.672 277.155 137.281ZM257.842 158.754C252.799 159.921 247.674 162.193 242.559 165.57C241.234 166.44 239.982 167.341 238.795 168.252C238.906 166.655 238.989 164.997 239.007 163.288C239.081 156.666 238.28 150.597 236.67 145.162C241.583 140.566 247.721 137.168 255.367 136.339C258.541 144.118 258.964 151.733 257.842 158.754ZM236.642 169.971C232.18 173.666 228.914 177.248 227.221 179.244C226.65 176.573 225.426 171.65 223.227 165.97C225.785 159.624 229.576 152.47 235.041 146.758C237.204 154.752 237.277 163.053 236.642 169.971ZM227.211 221.484C228.904 223.48 232.18 227.062 236.633 230.757C237.268 237.676 237.194 245.976 235.032 253.96C229.567 248.249 225.776 241.094 223.218 234.749C225.426 229.078 226.65 224.155 227.211 221.484ZM239.007 237.44C238.989 235.731 238.915 234.073 238.795 232.476C239.982 233.387 241.234 234.288 242.559 235.158C247.684 238.536 252.799 240.808 257.842 241.975C258.955 248.996 258.532 256.621 255.367 264.399C247.721 263.57 241.583 260.162 236.67 255.577C238.28 250.132 239.072 244.073 239.007 237.44ZM282.841 237.164L304.638 212.928C305.457 221.545 310.371 226.213 312.8 228.014C307.307 232.589 303.249 238.566 300.728 245.761C295.465 241.053 289.447 238.147 282.841 237.164ZM306.479 210.43V209.345H305.503C296.339 209.345 292.014 202.447 290.947 200.431L290.984 200.369H290.975L290.947 200.318C292.042 198.292 296.449 191.393 305.503 191.393H306.479V190.308C306.479 180.084 312.717 175.273 314.511 174.106L314.566 174.147L314.612 174.117C316.434 175.304 322.654 180.104 322.654 190.308V191.393H323.629C332.803 191.393 337.118 198.312 338.185 200.339L338.167 200.369H338.158L338.195 200.431C337.127 202.457 332.803 209.345 323.638 209.345H322.663V210.43C322.663 220.624 316.452 225.445 314.631 226.632L314.575 226.591L314.52 226.632C312.717 225.435 306.479 220.532 306.479 210.43ZM316.324 172.735C321.826 168.16 325.893 162.183 328.405 154.977C333.668 159.675 339.676 162.582 346.273 163.575L324.485 187.801C323.666 179.183 318.744 174.536 316.324 172.735ZM324.494 212.928L346.273 237.164C339.676 238.157 333.668 241.053 328.405 245.761C325.893 238.566 321.826 232.589 316.333 228.014C318.753 226.213 323.675 221.545 324.494 212.928ZM325.874 211.382C333.622 210.471 337.808 205.016 339.428 202.324C343.54 208.434 348.914 212.948 355.391 215.742C351.159 221.597 348.546 228.29 347.663 235.629L325.874 211.382ZM339.418 198.425C337.799 195.723 333.612 190.247 325.856 189.346L347.653 165.11C348.546 172.438 351.15 179.122 355.373 184.976C348.895 187.78 343.522 192.304 339.418 198.425ZM327.485 151.149C322.019 145.438 318.219 138.284 315.67 131.938C317.869 126.258 319.093 121.335 319.664 118.663C321.357 120.659 324.632 124.242 329.086 127.936C329.72 134.865 329.647 143.166 327.485 151.149ZM316.618 139.052C319.535 144.824 322.948 149.645 326.794 153.462C324.605 160.166 320.814 166.522 314.566 171.496C308.319 166.522 304.537 160.166 302.338 153.462C306.184 149.645 309.598 144.834 312.505 139.052C313.26 137.557 313.941 136.083 314.557 134.63C315.192 136.083 315.873 137.557 316.618 139.052ZM301.657 151.149C299.495 143.166 299.421 134.865 300.056 127.947C304.519 124.252 307.785 120.67 309.478 118.674C310.049 121.345 311.272 126.268 313.471 131.948C310.913 138.294 307.123 145.438 301.657 151.149ZM298.161 126.729C293.091 130.802 286.595 134.886 279.289 136.79C281.001 128.673 284.672 121.437 288.334 115.798C293.855 115.081 298.299 113.792 300.663 113.004C299.955 115.634 298.805 120.588 298.161 126.729ZM287.239 113.689C281.019 114.395 273.557 114.314 266.38 111.908C271.514 105.829 277.946 101.612 283.651 98.7667C288.757 101.213 293.183 102.574 295.584 103.209C293.781 105.092 290.561 108.725 287.239 113.689ZM266.38 83.1788C273.557 80.7736 281.019 80.6917 287.239 81.3979C290.561 86.3619 293.781 89.9953 295.575 91.8785C293.174 92.5131 288.748 93.8743 283.641 96.3205C277.937 93.4854 271.514 89.2584 266.38 83.1788ZM277.256 95.2663C278.599 96.1056 279.924 96.863 281.231 97.5487C279.924 98.2344 278.599 98.9918 277.256 99.8311C272.067 103.076 267.733 106.873 264.301 111.141C258.274 108.705 252.551 104.488 248.089 97.5385C252.56 90.5889 258.274 86.3823 264.301 83.9362C267.733 88.2246 272.067 92.0218 277.256 95.2663ZM246.984 95.5836C245.365 92.8816 241.179 87.4058 233.431 86.5052L255.219 62.2892C256.112 69.6277 258.725 76.3111 262.948 82.1758C256.471 84.9597 251.097 89.4733 246.984 95.5836ZM262.948 112.922C258.716 118.776 256.103 125.47 255.219 132.808L233.44 108.572C241.188 107.661 245.374 102.206 246.994 99.5138C251.097 105.624 256.471 110.127 262.948 112.922ZM253.83 134.354C247.233 135.346 241.225 138.243 235.962 142.951C233.45 135.756 229.383 129.779 223.89 125.204C226.31 123.402 231.232 118.735 232.051 110.117L253.83 134.354ZM234.351 144.466C230.505 148.284 227.092 153.094 224.184 158.877C223.43 160.371 222.749 161.845 222.132 163.298V163.268C221.516 161.824 220.844 160.361 220.09 158.877C217.173 153.104 213.759 148.284 209.913 144.466C212.103 137.762 215.894 131.406 222.123 126.442V126.432C228.371 131.396 232.161 137.762 234.351 144.466ZM208.303 142.941C203.031 138.233 197.013 135.326 190.416 134.343L212.204 110.117C213.023 118.735 217.937 123.402 220.366 125.204C214.873 129.779 210.815 135.756 208.303 142.941ZM189.054 132.788C188.162 125.46 185.549 118.776 181.326 112.932C187.794 110.138 193.167 105.634 197.28 99.5343C198.9 102.226 203.086 107.681 210.824 108.592L189.054 132.788ZM181.326 82.1655C185.558 76.3111 188.171 69.6174 189.054 62.279L210.833 86.5154C203.105 87.4263 198.909 92.8713 197.28 95.5733C193.167 89.4733 187.794 84.9597 181.326 82.1655ZM196.176 97.5487C191.704 104.498 185.991 108.705 179.964 111.151C176.532 106.873 172.207 103.076 167.009 99.8413C165.665 99.0021 164.34 98.2447 163.034 97.5589C164.34 96.8732 165.665 96.1158 167.009 95.2765C172.198 92.032 176.532 88.2349 179.964 83.9566C185.991 86.3823 191.704 90.5992 196.176 97.5487ZM160.623 96.3307C155.517 93.8846 151.091 92.5233 148.689 91.8888C150.484 90.0055 153.704 86.3619 157.026 81.4081C163.245 80.7019 170.708 80.7838 177.894 83.189C172.75 89.2584 166.328 93.4854 160.623 96.3307ZM177.884 111.908C170.708 114.314 163.236 114.395 157.016 113.689C153.695 108.725 150.474 105.092 148.68 103.209C151.082 102.574 155.507 101.213 160.614 98.7667C166.328 101.612 172.75 105.829 177.884 111.908ZM164.975 136.79C157.679 134.886 151.174 130.802 146.104 126.729C145.46 120.588 144.3 115.644 143.592 113.014C145.957 113.802 150.401 115.091 155.921 115.808C159.593 121.437 163.264 128.663 164.975 136.79ZM142.608 151.149C137.142 145.438 133.351 138.284 130.793 131.938C132.992 126.258 134.216 121.335 134.787 118.663C136.48 120.659 139.755 124.242 144.208 127.936C144.853 134.865 144.779 143.166 142.608 151.149ZM131.75 139.052C134.667 144.824 138.081 149.645 141.927 153.462C139.737 160.166 135.946 166.522 129.698 171.496C123.451 166.522 119.669 160.166 117.47 153.462C121.316 149.645 124.73 144.834 127.637 139.052C128.392 137.557 129.073 136.083 129.689 134.63C130.315 136.083 130.996 137.557 131.75 139.052ZM116.789 151.149C114.627 143.166 114.553 134.865 115.188 127.947C119.651 124.252 122.917 120.67 124.61 118.674C125.181 121.345 126.404 126.268 128.603 131.948C126.046 138.294 122.246 145.438 116.789 151.149ZM113.284 126.729C108.214 130.802 101.718 134.886 94.4123 136.79C96.1237 128.673 99.7949 121.437 103.457 115.798C108.978 115.081 113.422 113.792 115.786 113.004C115.087 115.634 113.928 120.588 113.284 126.729ZM102.371 113.689C96.1513 114.395 88.6893 114.314 81.5124 111.908C86.6466 105.829 93.0782 101.612 98.7828 98.7667C103.889 101.213 108.315 102.574 110.717 103.209C108.913 105.092 105.684 108.725 102.371 113.689ZM81.5032 83.1788C88.6801 80.7736 96.1421 80.6917 102.362 81.3979C105.684 86.3619 108.904 89.9953 110.698 91.8785C108.297 92.5131 103.871 93.8743 98.7644 96.3205C93.069 93.4854 86.6374 89.2584 81.5032 83.1788ZM92.3881 95.2663C93.7314 96.1056 95.0564 96.863 96.3629 97.5487C95.0564 98.2344 93.7314 98.9918 92.3881 99.8311C87.1987 103.076 82.865 106.873 79.433 111.141C73.4063 108.705 67.6832 104.488 63.2207 97.5385C67.6924 90.5889 73.4063 86.3823 79.433 83.9362C82.865 88.2246 87.1895 92.0218 92.3881 95.2663ZM80.0587 113.73C84.742 115.45 89.959 116.33 95.6269 116.33C95.8753 116.33 96.1145 116.33 96.3629 116.33C97.8995 116.309 99.3901 116.228 100.825 116.094C100.007 117.415 99.1969 118.807 98.4148 120.281C95.3784 125.981 93.3358 131.672 92.2869 137.281C85.9749 138.519 79.1201 138.049 72.1365 134.528C72.8726 126.022 75.9274 119.196 80.0587 113.73ZM74.676 160.647C80.988 159.409 87.8336 159.88 94.8264 163.401C94.0811 171.896 91.0263 178.733 86.8951 184.198C82.0093 182.407 76.553 181.516 70.5908 181.609C69.0542 181.629 67.5636 181.711 66.1282 181.844C66.9471 180.524 67.7568 179.132 68.5389 177.658C71.5845 171.947 73.6271 166.256 74.676 160.647ZM87.5207 186.777C93.5474 189.213 99.2613 193.42 103.724 200.359H103.733C99.2613 207.309 93.5474 211.515 87.5207 213.961C84.0887 209.683 79.7642 205.886 74.5656 202.652C73.2223 201.812 71.8973 201.055 70.5908 200.369H70.6184C71.9157 199.684 73.2315 198.926 74.5656 198.097C79.755 194.853 84.0887 191.055 87.5207 186.777ZM86.8951 216.53C91.0263 221.996 94.0811 228.833 94.8264 237.328C87.8336 240.859 80.988 241.33 74.676 240.081C73.6271 234.472 71.5845 228.771 68.5481 223.081C67.766 221.607 66.9563 220.215 66.1374 218.895C67.5728 219.017 69.0634 219.11 70.6 219.13C76.5439 219.212 82.0001 218.332 86.8951 216.53ZM92.2777 263.458C93.3266 269.066 95.3692 274.767 98.4056 280.458C99.1877 281.932 99.9974 283.324 100.816 284.644C99.3809 284.521 97.8903 284.429 96.3537 284.409C96.1053 284.409 95.8569 284.409 95.6177 284.409C89.9498 284.409 84.742 285.289 80.0495 287.008C75.9274 281.543 72.8726 274.716 72.1181 266.221C79.1201 262.69 85.9657 262.219 92.2777 263.458ZM92.3881 300.908C93.7314 301.747 95.0564 302.504 96.3629 303.19C95.0564 303.876 93.7314 304.633 92.3881 305.472C87.1987 308.717 82.865 312.514 79.433 316.782C73.4063 314.346 67.6832 310.129 63.2207 303.18C67.6924 296.23 73.4063 292.024 79.433 289.577C82.865 293.866 87.1987 297.663 92.3881 300.908ZM80.0587 319.371C84.742 321.091 89.959 321.971 95.6269 321.971C95.8753 321.971 96.1145 321.971 96.3629 321.971C97.8995 321.951 99.3901 321.869 100.825 321.736C100.007 323.056 99.1969 324.448 98.4148 325.922C95.3784 331.623 93.3358 337.313 92.2869 342.922C85.9749 344.161 79.1293 343.69 72.1365 340.169C72.8726 331.664 75.9274 324.837 80.0587 319.371ZM103.466 321.439C108.987 320.722 113.431 319.433 115.796 318.645C115.087 321.275 113.937 326.219 113.284 332.36C108.214 336.433 101.718 340.517 94.4123 342.421C96.1329 334.314 99.8041 327.078 103.466 321.439ZM102.371 319.33C96.1513 320.037 88.6893 319.955 81.5124 317.55C86.6466 311.47 93.0782 307.253 98.7828 304.408C103.889 306.854 108.315 308.215 110.717 308.85C108.913 310.733 105.693 314.377 102.371 319.33ZM81.5032 288.83C88.6801 286.425 96.1421 286.343 102.362 287.049C105.684 292.013 108.904 295.647 110.698 297.53C108.297 298.165 103.871 299.526 98.7644 301.972C93.069 299.127 86.6374 294.91 81.5032 288.83ZM94.4215 263.949C101.718 265.853 108.223 269.936 113.293 274.01C113.937 280.151 115.096 285.094 115.805 287.725C113.44 286.937 108.996 285.647 103.475 284.931C99.8041 279.301 96.1329 272.065 94.4215 263.949ZM116.789 249.579C122.255 255.29 126.046 262.444 128.603 268.79C126.404 274.471 125.181 279.394 124.61 282.065C122.917 280.069 119.642 276.487 115.188 272.792C114.544 265.873 114.618 257.573 116.789 249.579ZM127.647 261.687C124.73 255.915 121.316 251.094 117.479 247.276C119.669 240.572 123.46 234.216 129.708 229.242C135.955 234.216 139.737 240.572 141.936 247.276C138.09 251.094 134.676 255.904 131.759 261.687C131.005 263.181 130.324 264.655 129.708 266.109C129.082 264.655 128.401 263.181 127.647 261.687ZM142.608 249.579C144.77 257.562 144.843 265.863 144.208 272.782C139.746 276.477 136.48 280.059 134.787 282.055C134.216 279.383 132.992 274.46 130.793 268.78C133.351 262.444 137.142 255.29 142.608 249.579ZM146.104 274.01C151.174 269.936 157.67 265.853 164.975 263.949C163.264 272.065 159.593 279.301 155.931 284.941C150.41 285.657 145.966 286.947 143.601 287.735C144.31 285.094 145.46 280.151 146.104 274.01ZM157.026 287.049C163.245 286.343 170.708 286.425 177.894 288.83C172.759 294.91 166.328 299.137 160.623 301.972C155.517 299.526 151.091 298.165 148.689 297.53C150.484 295.647 153.704 292.003 157.026 287.049ZM177.884 317.55C170.708 319.955 163.236 320.037 157.016 319.33C153.695 314.366 150.474 310.733 148.68 308.85C151.082 308.215 155.507 306.854 160.614 304.408C166.328 307.253 172.75 311.47 177.884 317.55ZM164.975 342.431C157.679 340.527 151.174 336.443 146.104 332.37C145.46 326.229 144.3 321.285 143.592 318.655C145.957 319.443 150.401 320.733 155.921 321.449C159.593 327.078 163.264 334.314 164.975 342.431ZM160.982 325.922C160.2 324.448 159.39 323.056 158.571 321.736C160.007 321.858 161.497 321.951 163.034 321.971C163.282 321.971 163.531 321.971 163.77 321.971C169.438 321.971 174.646 321.091 179.338 319.371C183.46 324.837 186.515 331.664 187.269 340.169C180.277 343.7 173.431 344.171 167.11 342.922C166.07 337.313 164.018 331.612 160.982 325.922ZM181.326 318.573C187.794 315.779 193.167 311.276 197.28 305.176C198.9 307.867 203.086 313.323 210.824 314.233L189.054 338.439C188.162 331.101 185.549 324.417 181.326 318.573ZM181.326 287.807C185.558 281.952 188.171 275.259 189.054 267.92L210.833 292.157C203.105 293.068 198.909 298.513 197.28 301.215C193.167 295.115 187.794 290.601 181.326 287.807ZM190.435 266.385C197.032 265.392 203.04 262.496 208.303 257.788C210.815 264.983 214.882 270.96 220.375 275.535C217.955 277.326 213.032 281.983 212.214 290.621L190.435 266.385ZM235.962 257.788C241.225 262.485 247.233 265.392 253.83 266.385L232.051 290.591C231.232 281.983 226.319 277.326 223.89 275.535C229.383 270.97 233.45 264.993 235.962 257.788ZM255.21 267.92C256.103 275.259 258.716 281.942 262.939 287.807C256.471 290.601 251.088 295.115 246.975 301.225C245.356 298.523 241.169 293.047 233.422 292.146L255.21 267.92ZM262.948 318.573C258.716 324.427 256.103 331.121 255.219 338.46L233.44 314.223C241.188 313.312 245.374 307.857 246.994 305.165C251.097 311.265 256.471 315.769 262.948 318.573ZM264.926 319.371C269.61 321.091 274.827 321.971 280.495 321.971C280.743 321.971 280.982 321.971 281.231 321.971C282.767 321.951 284.258 321.869 285.693 321.736C284.874 323.056 284.065 324.448 283.283 325.922C280.246 331.623 278.204 337.313 277.155 342.922C270.843 344.161 263.988 343.69 257.004 340.169C257.75 331.664 260.804 324.837 264.926 319.371ZM288.334 321.439C293.855 320.722 298.299 319.433 300.663 318.645C299.955 321.275 298.805 326.219 298.152 332.36C293.082 336.433 286.586 340.517 279.28 342.421C281.001 334.314 284.672 327.078 288.334 321.439ZM287.239 319.33C281.019 320.037 273.557 319.955 266.38 317.55C271.514 311.47 277.946 307.253 283.651 304.408C288.757 306.854 293.183 308.215 295.584 308.85C293.781 310.733 290.561 314.377 287.239 319.33ZM266.38 288.83C273.557 286.425 281.019 286.343 287.239 287.049C290.561 292.013 293.781 295.647 295.575 297.53C293.174 298.165 288.748 299.526 283.641 301.972C277.937 299.127 271.514 294.91 266.38 288.83ZM279.289 263.949C286.586 265.853 293.091 269.936 298.161 274.01C298.805 280.151 299.964 285.094 300.673 287.725C298.308 286.937 293.864 285.647 288.343 284.931C284.672 279.301 281.001 272.065 279.289 263.949ZM301.657 249.579C307.123 255.29 310.913 262.444 313.471 268.79C311.272 274.471 310.049 279.394 309.478 282.065C307.785 280.069 304.509 276.487 300.056 272.792C299.412 265.873 299.486 257.573 301.657 249.579ZM312.514 261.687C309.598 255.915 306.184 251.094 302.347 247.276C304.537 240.572 308.328 234.216 314.575 229.242C320.823 234.216 324.605 240.572 326.804 247.276C322.958 251.094 319.544 255.904 316.627 261.687C315.873 263.181 315.192 264.655 314.575 266.109C313.95 264.655 313.269 263.181 312.514 261.687ZM327.485 249.579C329.647 257.562 329.72 265.863 329.086 272.782C324.623 276.477 321.357 280.059 319.664 282.055C319.093 279.383 317.869 274.46 315.67 268.78C318.219 262.444 322.019 255.29 327.485 249.579ZM335.002 268.391C333.677 269.261 332.426 270.162 331.239 271.073C331.349 269.476 331.432 267.818 331.45 266.109C331.524 259.487 330.723 253.417 329.113 247.982C334.027 243.387 340.164 239.989 347.81 239.16C350.984 246.938 351.407 254.553 350.285 261.574C345.243 262.731 340.127 265.003 335.002 268.391ZM349.438 237.338C350.184 228.843 353.238 222.006 357.37 216.551C362.053 218.27 367.27 219.15 372.938 219.15C373.186 219.15 373.435 219.15 373.674 219.15C375.21 219.13 376.701 219.048 378.136 218.915C377.318 220.235 376.508 221.627 375.726 223.101C372.689 228.802 370.647 234.493 369.598 240.102C363.277 241.33 356.431 240.859 349.438 237.338ZM356.744 213.961C350.717 211.525 345.003 207.309 340.532 200.359H340.541C345.013 193.42 350.726 189.213 356.744 186.777C360.176 191.045 364.5 194.853 369.699 198.087C371.033 198.916 372.349 199.673 373.646 200.359H373.674C372.367 201.045 371.042 201.802 369.699 202.641C364.51 205.886 360.176 209.683 356.744 213.961ZM357.37 184.198C353.248 178.733 350.193 171.906 349.438 163.401C356.431 159.87 363.277 159.399 369.598 160.647C370.647 166.256 372.689 171.957 375.726 177.648C376.508 179.121 377.318 180.513 378.136 181.834C376.701 181.711 375.21 181.619 373.674 181.598C367.712 181.516 362.255 182.397 357.37 184.198ZM351.987 137.271C350.938 131.662 348.895 125.971 345.859 120.27C345.077 118.797 344.267 117.405 343.448 116.084C344.884 116.207 346.374 116.299 347.911 116.32C348.159 116.32 348.408 116.32 348.647 116.32C354.315 116.32 359.523 115.439 364.215 113.72C368.337 119.185 371.392 126.012 372.147 134.517C365.145 138.049 358.299 138.519 351.987 137.271ZM351.877 99.8311C350.533 98.9918 349.208 98.2344 347.902 97.5487C349.208 96.863 350.533 96.1056 351.877 95.2663C357.066 92.0218 361.4 88.2246 364.832 83.9464C370.858 86.3823 376.581 90.5992 381.044 97.5487C376.572 104.498 370.858 108.705 364.832 111.151C361.4 106.873 357.075 103.076 351.877 99.8311ZM340.799 79.2895C335.278 80.006 330.834 81.2956 328.469 82.0836C329.178 79.4533 330.328 74.5098 330.981 68.3688C336.051 64.2953 342.547 60.2115 349.852 58.3078C348.132 66.4241 344.461 73.6603 340.799 79.2895ZM329.086 67.1508C324.623 70.8456 321.357 74.4279 319.664 76.4237C319.093 73.7524 317.869 68.8293 315.67 63.1489C318.228 56.8032 322.019 49.649 327.485 43.9379C329.647 51.9212 329.72 60.232 329.086 67.1508ZM318.136 78.921L318.504 81.1932L319.848 79.4328C319.94 79.31 323.261 75.0215 328.736 70.2418C327.761 77.9078 326.077 83.2504 326.031 83.404L325.331 85.5738L327.282 84.7959C327.411 84.7447 332.214 82.8717 339.115 81.7868C334.818 87.8869 330.963 91.5817 330.852 91.6738L329.27 93.1681L331.312 93.5775C331.45 93.6082 336.446 94.6624 342.915 97.5487C336.456 100.435 331.45 101.489 331.312 101.52L329.27 101.929L330.852 103.424C330.963 103.526 334.818 107.221 339.115 113.311C332.223 112.215 327.42 110.353 327.282 110.301L325.331 109.524L326.031 111.693C326.077 111.837 327.761 117.179 328.736 124.856C323.252 120.076 319.93 115.787 319.848 115.665L318.504 113.904L318.136 116.176C318.109 116.33 317.161 121.887 314.566 129.083C311.962 121.898 311.024 116.33 310.996 116.176L310.628 113.904L309.285 115.665C309.193 115.787 305.871 120.076 300.397 124.856C301.372 117.19 303.056 111.847 303.102 111.693L303.801 109.524L301.85 110.301C301.722 110.353 296.919 112.226 290.018 113.311C294.315 107.211 298.17 103.516 298.28 103.424L299.863 101.929L297.82 101.52C297.682 101.489 292.686 100.435 286.227 97.5487C292.686 94.6522 297.691 93.6082 297.82 93.5775L299.863 93.1681L298.28 91.6738C298.17 91.5715 294.315 87.8766 290.018 81.7868C296.909 82.8717 301.712 84.7447 301.85 84.7959L303.801 85.5738L303.102 83.404C303.056 83.2607 301.372 77.918 300.397 70.2418C305.88 75.0215 309.202 79.31 309.285 79.4328L310.628 81.1932L310.996 78.921C311.024 78.7675 311.972 73.2099 314.566 66.0147C317.17 73.1997 318.118 78.7675 318.136 78.921ZM309.478 76.4237C307.785 74.4279 304.509 70.8456 300.056 67.1508C299.421 60.232 299.495 51.9314 301.657 43.9481C307.123 49.6592 310.913 56.8135 313.471 63.1592C311.272 68.8293 310.049 73.7524 309.478 76.4237ZM300.663 82.0836C298.299 81.2956 293.855 80.006 288.334 79.2895C284.672 73.65 281.001 66.4241 279.289 58.2976C286.586 60.2013 293.091 64.285 298.161 68.3585C298.805 74.5098 299.955 79.4533 300.663 82.0836ZM283.283 74.8168C284.065 76.2906 284.874 77.6826 285.693 79.0029C284.258 78.8801 282.767 78.788 281.231 78.7675C280.982 78.7675 280.734 78.7675 280.495 78.7675C274.827 78.7675 269.619 79.6477 264.926 81.3672C260.804 75.9017 257.75 69.075 256.995 60.58C263.988 57.0489 270.834 56.5781 277.146 57.8268C278.204 63.4253 280.246 69.1159 283.283 74.8168ZM253.83 60.7437L232.051 84.9494C231.232 76.3418 226.319 71.6849 223.89 69.8938C229.383 65.3188 233.44 59.3415 235.962 52.1463C241.225 56.8544 247.233 59.7509 253.83 60.7437ZM212.214 84.9801L190.435 60.7437C197.032 59.7509 203.04 56.8544 208.303 52.1463C210.815 59.3415 214.882 65.3188 220.375 69.8938C217.964 71.6849 213.032 76.3521 212.214 84.9801ZM187.269 60.5697C186.524 69.0648 183.469 75.9017 179.338 81.357C174.655 79.6375 169.438 78.7573 163.77 78.7573C163.522 78.7573 163.273 78.7573 163.034 78.7573C161.497 78.7777 160.007 78.8596 158.571 78.9927C159.39 77.6724 160.2 76.2804 160.982 74.8066C164.018 69.1057 166.061 63.415 167.11 57.8063C173.431 56.5678 180.277 57.0489 187.269 60.5697ZM155.931 79.2895C150.41 80.006 145.966 81.2956 143.601 82.0836C144.31 79.4533 145.46 74.5098 146.113 68.3688C151.183 64.2953 157.679 60.2115 164.984 58.3078C163.264 66.4241 159.593 73.6603 155.931 79.2895ZM144.208 67.1508C139.746 70.8456 136.48 74.4279 134.787 76.4237C134.216 73.7524 132.992 68.8293 130.793 63.1489C133.351 56.8032 137.142 49.649 142.608 43.9379C144.779 51.9212 144.853 60.232 144.208 67.1508ZM133.268 78.921L133.636 81.1932L134.98 79.4328C135.072 79.31 138.393 75.0215 143.868 70.2418C142.893 77.9078 141.209 83.2504 141.163 83.404L140.464 85.5738L142.414 84.7959C142.543 84.7447 147.346 82.8717 154.247 81.7868C149.95 87.8869 146.095 91.5817 145.984 91.6738L144.402 93.1681L146.444 93.5775C146.582 93.6082 151.579 94.6624 158.047 97.5487C151.588 100.435 146.582 101.489 146.444 101.52L144.402 101.929L145.984 103.424C146.095 103.526 149.95 107.221 154.247 113.311C147.355 112.215 142.552 110.353 142.414 110.301L140.464 109.524L141.163 111.693C141.209 111.837 142.893 117.179 143.868 124.856C138.384 120.076 135.063 115.787 134.98 115.665L133.636 113.904L133.268 116.176C133.241 116.33 132.293 121.887 129.698 129.083C127.095 121.898 126.156 116.33 126.128 116.176L125.76 113.904L124.417 115.665C124.325 115.787 121.003 120.076 115.529 124.856C116.504 117.19 118.188 111.847 118.234 111.693L118.933 109.524L116.983 110.301C116.854 110.353 112.051 112.226 105.15 113.311C109.447 107.211 113.302 103.516 113.413 103.424L114.995 101.929L112.952 101.52C112.814 101.489 107.818 100.435 101.35 97.5487C107.809 94.6522 112.814 93.6082 112.952 93.5775L114.995 93.1681L113.413 91.6738C113.302 91.5715 109.447 87.8766 105.15 81.7868C112.051 82.8717 116.845 84.7447 116.983 84.7959L118.933 85.5738L118.234 83.404C118.188 83.2607 116.504 77.918 115.529 70.2418C121.013 75.0215 124.334 79.31 124.417 79.4328L125.76 81.1932L126.128 78.921C126.156 78.7675 127.104 73.2099 129.698 66.0147C132.293 73.1997 133.241 78.7675 133.268 78.921ZM124.61 76.4237C122.917 74.4279 119.642 70.8456 115.188 67.1508C114.553 60.232 114.627 51.9314 116.789 43.9481C122.255 49.6592 126.055 56.8135 128.603 63.1592C126.404 68.8293 125.181 73.7524 124.61 76.4237ZM115.796 82.0836C113.431 81.2956 108.987 80.006 103.466 79.2895C99.8041 73.65 96.1329 66.4241 94.4215 58.2976C101.727 60.2013 108.223 64.285 113.293 68.3585C113.928 74.5098 115.087 79.4533 115.796 82.0836ZM98.4148 74.8168C99.1969 76.2906 100.007 77.6826 100.825 79.0029C99.3901 78.8801 97.8995 78.788 96.3629 78.7675C96.1145 78.7675 95.8661 78.7675 95.6269 78.7675C89.959 78.7675 84.7512 79.6477 80.0587 81.3672C75.9366 75.9017 72.8818 69.075 72.1273 60.58C79.1201 57.0489 85.9657 56.5781 92.2777 57.8268C93.3266 63.4253 95.3692 69.1159 98.4148 74.8168ZM68.9622 60.7437L47.1832 84.9494C46.3643 76.3418 41.451 71.6849 39.0219 69.8938C44.5149 65.3188 48.5726 59.3415 51.0937 52.1463C56.3567 56.8544 62.365 59.7509 68.9622 60.7437ZM70.3423 62.279C71.2348 69.6174 73.8479 76.3009 78.0712 82.1655C71.6029 84.9597 66.2203 89.4733 62.1074 95.5836C60.488 92.8816 56.3015 87.4058 48.5542 86.5052L70.3423 62.279ZM78.0712 112.922C73.8387 118.776 71.2256 125.47 70.3423 132.808L48.5634 108.572C56.3107 107.661 60.4972 102.206 62.1166 99.5138C66.2203 105.624 71.6029 110.127 78.0712 112.922ZM68.9622 134.354C62.365 135.346 56.3567 138.243 51.0937 142.951C48.5818 135.756 44.5149 129.779 39.0219 125.204C41.4418 123.402 46.3643 118.735 47.1832 110.117L68.9622 134.354ZM50.1644 146.769C52.3266 154.752 52.4002 163.053 51.7654 169.971C47.3029 173.666 44.0365 177.248 42.3435 179.244C41.773 176.573 40.5493 171.65 38.3502 165.97C40.9081 159.634 44.699 152.48 50.1644 146.769ZM53.67 171.189C58.7398 167.116 65.2357 163.032 72.5414 161.128C70.83 169.245 67.1588 176.481 63.4967 182.12C57.9761 182.837 53.532 184.126 51.1673 184.915C51.8666 182.284 53.0167 177.33 53.67 171.189ZM64.5825 184.229C70.8024 183.523 78.2645 183.604 85.4413 186.01C80.3071 192.089 73.8755 196.306 68.1709 199.151C63.0643 196.705 58.6386 195.344 56.2371 194.709C58.0405 192.836 61.2609 189.193 64.5825 184.229ZM68.1801 201.577C73.8847 204.422 80.3163 208.639 85.4505 214.719C78.2737 217.124 70.8116 217.206 64.5917 216.5C61.2701 211.536 58.0497 207.902 56.2555 206.019C58.6478 205.384 63.0735 204.023 68.1801 201.577ZM72.5322 239.6C65.2357 237.696 58.7306 233.613 53.6608 229.539C53.0167 223.398 51.8574 218.455 51.1489 215.824C53.5136 216.612 57.9577 217.902 63.4783 218.618C67.1496 224.248 70.8208 231.484 72.5322 239.6ZM50.1736 253.97C44.7081 248.259 40.9081 241.105 38.3594 234.759C40.5585 229.078 41.7822 224.155 42.3527 221.484C44.0457 223.48 47.3213 227.062 51.7746 230.757C52.4094 237.676 52.3358 245.976 50.1736 253.97ZM51.0937 257.788C56.3567 262.485 62.365 265.392 68.9622 266.385L47.1832 290.591C46.3643 281.983 41.451 277.326 39.0219 275.535C44.5149 270.97 48.5726 264.993 51.0937 257.788ZM70.3423 267.92C71.2348 275.259 73.8479 281.942 78.0712 287.807C71.6029 290.601 66.2203 295.115 62.1074 301.225C60.488 298.523 56.3015 293.047 48.5542 292.146L70.3423 267.92ZM78.0712 318.573C73.8387 324.427 71.2256 331.121 70.3423 338.46L48.5634 314.223C56.3107 313.312 60.4972 307.857 62.1166 305.165C66.2203 311.265 71.6029 315.769 78.0712 318.573ZM68.9622 339.995C62.365 340.988 56.3567 343.884 51.0937 348.592C48.5818 341.397 44.5149 335.42 39.0219 330.845C41.4418 329.043 46.3643 324.376 47.1832 315.758L68.9622 339.995ZM93.9799 344.816C99.0221 343.649 104.147 341.377 109.263 337.999C110.588 337.129 111.839 336.228 113.026 335.317C112.916 336.914 112.833 338.572 112.814 340.281C112.741 346.904 113.541 352.973 115.152 358.408C110.238 363.003 104.101 366.401 96.455 367.23C93.2898 359.452 92.8665 351.837 93.9799 344.816ZM115.188 333.588C119.651 329.893 122.917 326.311 124.61 324.315C125.181 326.986 126.404 331.909 128.603 337.59C126.046 343.935 122.255 351.09 116.789 356.801C114.618 348.807 114.544 340.507 115.188 333.588ZM126.128 321.818L125.76 319.545L124.417 321.306C124.325 321.429 121.003 325.717 115.529 330.497C116.504 322.831 118.188 317.488 118.234 317.335L118.933 315.165L116.983 315.943C116.854 315.994 112.051 317.867 105.15 318.952C109.447 312.852 113.302 309.157 113.413 309.065L114.995 307.57L112.952 307.161C112.814 307.13 107.818 306.076 101.359 303.19C107.818 300.293 112.814 299.249 112.952 299.219L114.995 298.809L113.413 297.315C113.302 297.213 109.447 293.518 105.15 287.428C112.042 288.513 116.854 290.386 116.983 290.437L118.933 291.215L118.234 289.045C118.188 288.902 116.504 283.559 115.529 275.883C121.013 280.663 124.334 284.951 124.417 285.074L125.76 286.834L126.128 284.562C126.156 284.409 127.104 278.851 129.698 271.656C132.293 278.841 133.241 284.409 133.268 284.562L133.636 286.834L134.98 285.074C135.072 284.951 138.393 280.663 143.868 275.883C142.893 283.549 141.209 288.892 141.163 289.045L140.464 291.215L142.414 290.437C142.543 290.386 147.346 288.513 154.247 287.428C149.95 293.528 146.095 297.223 145.984 297.315L144.402 298.809L146.444 299.219C146.582 299.249 151.579 300.304 158.047 303.19C151.588 306.076 146.582 307.13 146.444 307.161L144.402 307.57L145.984 309.065C146.095 309.167 149.95 312.862 154.247 318.952C147.355 317.867 142.552 315.994 142.414 315.943L140.464 315.165L141.163 317.335C141.209 317.478 142.893 322.821 143.868 330.497C138.384 325.717 135.063 321.429 134.98 321.306L133.636 319.545L133.268 321.818C133.241 321.971 132.293 327.529 129.698 334.724C127.095 327.529 126.147 321.971 126.128 321.818ZM134.787 324.315C136.48 326.311 139.755 329.893 144.208 333.588C144.843 340.507 144.77 348.807 142.608 356.79C137.142 351.079 133.342 343.925 130.793 337.579C132.992 331.909 134.216 326.986 134.787 324.315ZM146.573 340.271C146.555 338.562 146.481 336.904 146.362 335.307C147.548 336.218 148.8 337.119 150.125 337.989C155.25 341.366 160.366 343.639 165.408 344.805C166.521 351.827 166.098 359.452 162.933 367.23C155.287 366.401 149.149 362.993 144.236 358.408C145.855 352.963 146.647 346.893 146.573 340.271ZM190.416 339.985L212.204 315.758C213.023 324.376 217.937 329.043 220.366 330.845C214.882 335.42 210.824 341.387 208.312 348.582C203.031 343.884 197.013 340.977 190.416 339.985ZM214.035 313.271V312.186H213.06C203.896 312.186 199.581 305.298 198.504 303.272L198.559 303.19L198.522 303.129C199.617 301.102 204.025 294.214 213.078 294.214H214.054V293.129C214.054 282.904 220.292 278.094 222.086 276.927L222.132 276.958V276.968L222.188 276.927C224.009 278.114 230.22 282.914 230.22 293.119V294.204H231.195C240.36 294.204 244.684 301.112 245.751 303.139L245.715 303.2L245.751 303.262C244.684 305.288 240.36 312.176 231.195 312.176H230.22V313.261C230.22 323.455 224.009 328.276 222.188 329.463L222.132 329.422V329.432L222.077 329.473C220.265 328.266 214.035 323.373 214.035 313.271ZM232.051 315.748L253.83 339.985C247.233 340.977 241.225 343.874 235.962 348.582C233.45 341.387 229.383 335.41 223.89 330.835C226.319 329.043 231.232 324.376 232.051 315.748ZM278.848 344.816C283.89 343.649 289.015 341.377 294.131 337.999C295.456 337.129 296.707 336.228 297.894 335.317C297.784 336.914 297.701 338.572 297.682 340.281C297.609 346.904 298.409 352.973 300.019 358.408C295.106 363.003 288.969 366.401 281.323 367.23C278.158 359.452 277.734 351.837 278.848 344.816ZM300.056 333.588C304.519 329.893 307.785 326.311 309.478 324.315C310.049 326.986 311.272 331.909 313.471 337.59C310.913 343.935 307.123 351.09 301.657 356.801C299.486 348.807 299.412 340.507 300.056 333.588ZM310.996 321.818L310.628 319.545L309.285 321.306C309.193 321.429 305.871 325.717 300.397 330.497C301.372 322.831 303.056 317.488 303.102 317.335L303.801 315.165L301.85 315.943C301.722 315.994 296.919 317.867 290.018 318.952C294.315 312.852 298.17 309.157 298.28 309.065L299.863 307.57L297.82 307.161C297.682 307.13 292.686 306.076 286.227 303.19C292.686 300.293 297.682 299.249 297.82 299.219L299.863 298.809L298.28 297.315C298.17 297.213 294.315 293.518 290.018 287.428C296.909 288.513 301.712 290.386 301.85 290.437L303.801 291.215L303.102 289.045C303.056 288.902 301.372 283.559 300.397 275.883C305.88 280.663 309.202 284.951 309.285 285.074L310.628 286.834L310.996 284.562C311.024 284.409 311.972 278.851 314.566 271.656C317.17 278.841 318.109 284.409 318.136 284.562L318.504 286.834L319.848 285.074C319.94 284.951 323.261 280.663 328.736 275.883C327.761 283.549 326.077 288.892 326.031 289.045L325.331 291.215L327.282 290.437C327.411 290.386 332.214 288.513 339.115 287.428C334.818 293.528 330.963 297.223 330.852 297.315L329.27 298.809L331.312 299.219C331.45 299.249 336.446 300.304 342.915 303.19C336.456 306.076 331.45 307.13 331.312 307.161L329.27 307.57L330.852 309.065C330.963 309.167 334.818 312.862 339.115 318.952C332.223 317.867 327.42 315.994 327.282 315.943L325.331 315.165L326.031 317.335C326.077 317.478 327.761 322.821 328.736 330.497C323.252 325.717 319.93 321.429 319.848 321.306L318.504 319.545L318.136 321.818C318.109 321.971 317.161 327.529 314.566 334.724C311.972 327.529 311.024 321.971 310.996 321.818ZM319.654 324.315C321.347 326.311 324.623 329.893 329.076 333.588C329.711 340.507 329.638 348.807 327.475 356.79C322.01 351.079 318.21 343.925 315.661 337.579C317.869 331.909 319.084 326.986 319.654 324.315ZM331.45 340.271C331.432 338.562 331.358 336.904 331.239 335.307C332.426 336.218 333.677 337.119 335.002 337.989C340.127 341.366 345.243 343.639 350.285 344.805C351.398 351.827 350.975 359.452 347.81 367.23C340.164 366.401 334.027 362.993 329.113 358.408C330.723 352.963 331.515 346.893 331.45 340.271ZM351.987 342.922C350.938 337.313 348.895 331.623 345.859 325.922C345.077 324.448 344.267 323.056 343.448 321.736C344.884 321.858 346.374 321.951 347.911 321.971C348.159 321.971 348.408 321.971 348.647 321.971C354.315 321.971 359.523 321.091 364.215 319.371C368.337 324.837 371.392 331.664 372.147 340.169C365.145 343.69 358.299 344.161 351.987 342.922ZM351.877 305.472C350.533 304.633 349.208 303.876 347.902 303.19C349.208 302.504 350.533 301.747 351.877 300.908C357.066 297.663 361.4 293.866 364.832 289.588C370.858 292.024 376.581 296.24 381.044 303.19C376.572 310.139 370.858 314.346 364.832 316.792C361.4 312.514 357.075 308.717 351.877 305.472ZM364.215 287.008C359.532 285.289 354.315 284.409 348.647 284.409C348.399 284.409 348.15 284.409 347.911 284.409C346.374 284.429 344.884 284.511 343.448 284.644C344.267 283.324 345.077 281.932 345.859 280.458C348.895 274.757 350.938 269.066 351.987 263.458C358.299 262.219 365.154 262.69 372.147 266.211C371.392 274.716 368.337 281.543 364.215 287.008ZM371.291 241.985C376.333 240.818 381.458 238.546 386.574 235.168C387.899 234.298 389.15 233.398 390.337 232.487C390.227 234.083 390.144 235.741 390.125 237.451C390.052 244.073 390.852 250.142 392.462 255.577C387.549 260.172 381.412 263.57 373.766 264.399C370.601 256.621 370.178 249.006 371.291 241.985ZM388.018 206.019C386.224 207.902 383.004 211.546 379.682 216.5C373.462 217.206 366 217.124 358.823 214.719C363.958 208.639 370.389 204.422 376.094 201.577C381.191 204.023 385.617 205.384 388.018 206.019ZM388.018 194.709C385.617 195.344 381.191 196.705 376.085 199.151C370.38 196.306 363.948 192.089 358.814 186.01C365.991 183.604 373.462 183.523 379.682 184.229C383.004 189.193 386.224 192.836 388.018 194.709ZM393.107 184.915C390.742 184.126 386.298 182.847 380.777 182.12C377.115 176.481 373.444 169.255 371.732 161.128C379.029 163.032 385.534 167.116 390.604 171.189C391.248 177.33 392.398 182.284 393.107 184.915ZM405.914 165.98C403.715 171.66 402.492 176.583 401.921 179.255C400.228 177.259 396.953 173.666 392.499 169.982C391.864 163.063 391.938 154.762 394.1 146.779C399.566 152.48 403.357 159.634 405.914 165.98ZM405.234 125.204C399.75 129.779 395.692 135.746 393.18 142.941C387.908 138.233 381.89 135.326 375.293 134.343L397.081 110.117C397.891 118.735 402.805 123.402 405.234 125.204ZM395.692 108.582L373.922 132.788C373.03 125.46 370.417 118.776 366.193 112.932C372.662 110.138 378.035 105.634 382.148 99.5343C383.758 102.226 387.945 107.681 395.692 108.582ZM382.148 95.5836C378.035 89.4733 372.662 84.9699 366.193 82.1655C370.426 76.3111 373.039 69.6174 373.922 62.279L395.701 86.5154C387.972 87.4263 383.777 92.8713 382.148 95.5836ZM405.252 69.8938C402.832 71.6849 397.91 76.3418 397.091 84.9801L375.312 60.7437C381.909 59.7509 387.917 56.8544 393.18 52.1463C395.692 59.3518 399.75 65.329 405.252 69.8938ZM401.921 15.8429C402.492 18.5142 403.715 23.4372 405.914 29.1176C403.357 35.4633 399.566 42.6176 394.1 48.3287C391.938 40.3454 391.864 32.0448 392.499 25.126C396.953 21.4209 400.228 17.8387 401.921 15.8429ZM380.777 12.9668C386.298 12.2504 390.742 10.9608 393.107 10.1727C392.398 12.8031 391.248 17.7466 390.595 23.8876C385.525 27.9611 379.029 32.0448 371.723 33.9485C373.444 25.8322 377.115 18.6063 380.777 12.9668ZM357.37 10.8994C362.053 12.6188 367.27 13.4991 372.938 13.4991C373.186 13.4991 373.435 13.4991 373.674 13.4991C375.21 13.4786 376.701 13.3967 378.136 13.2637C377.318 14.584 376.508 15.9759 375.726 17.4498C372.689 23.1506 370.647 28.8413 369.598 34.4501C363.277 35.6885 356.431 35.2177 349.438 31.6968C350.184 23.1916 353.238 16.3648 357.37 10.8994ZM347.81 33.5084C350.984 41.287 351.407 48.9018 350.285 55.923C345.243 57.0898 340.118 59.362 335.002 62.7395C333.677 63.6095 332.426 64.5102 331.239 65.4211C331.349 63.8244 331.432 62.1664 331.45 60.4571C331.524 53.8351 330.723 47.7658 329.113 42.331C334.017 37.7355 340.164 34.3375 347.81 33.5084ZM324.494 7.27619L346.273 31.5126C339.676 32.5054 333.668 35.4019 328.405 40.11C325.893 32.9148 321.826 26.9376 316.333 22.3625C318.753 20.5612 323.675 15.9043 324.494 7.27619ZM314.566 23.601C320.814 28.5752 324.595 34.9311 326.794 41.635C322.948 45.4527 319.535 50.2631 316.618 56.0459C315.864 57.5402 315.183 59.014 314.566 60.4674C313.95 59.014 313.269 57.5402 312.514 56.0459C309.598 50.2733 306.184 45.4527 302.347 41.635C304.537 34.9311 308.328 28.5752 314.566 23.601ZM304.648 7.27619C305.466 15.894 310.38 20.5612 312.809 22.3625C307.316 26.9376 303.258 32.9148 300.737 40.11C295.465 35.4019 289.447 32.4952 282.85 31.5126L304.648 7.27619ZM300.029 42.331C298.418 47.7658 297.618 53.8351 297.691 60.4571C297.71 62.1664 297.784 63.8244 297.903 65.4211C296.716 64.5102 295.465 63.6095 294.14 62.7395C289.015 59.362 283.899 57.0898 278.857 55.923C277.744 48.9018 278.167 41.287 281.332 33.5084C288.969 34.3375 295.115 37.7355 300.029 42.331ZM255.468 13.4888C261.421 13.5707 266.877 12.6803 271.763 10.8891C275.894 16.3546 278.949 23.1916 279.694 31.6866C272.701 35.2177 265.856 35.6885 259.544 34.4398C258.495 28.8311 256.452 23.1302 253.416 17.4395C252.634 15.9657 251.824 14.5737 251.005 13.2534C252.441 13.3865 253.931 13.4683 255.468 13.4888ZM236.026 10.1829C238.391 10.971 242.835 12.2606 248.355 12.9771C252.017 18.6165 255.689 25.8424 257.4 33.969C250.104 32.0653 243.598 27.9816 238.529 23.908C237.894 17.7568 236.734 12.8133 236.026 10.1829ZM227.211 15.8429C228.904 17.8387 232.18 21.4209 236.633 25.1158C237.268 32.0346 237.194 40.3352 235.032 48.3185C229.567 42.6073 225.767 35.4531 223.218 29.1074C225.426 23.4372 226.65 18.5142 227.211 15.8429ZM222.123 31.7992C222.74 33.2526 223.42 34.7264 224.175 36.2207C227.092 41.9932 230.505 46.8139 234.342 50.6316C232.152 57.3355 228.361 63.6914 222.114 68.6656V68.6554C215.876 63.6812 212.094 57.3252 209.904 50.6316C213.75 46.8139 217.164 42.0035 220.08 36.2207C220.826 34.7366 221.507 33.273 222.123 31.8299V31.7992ZM217.053 15.8429C217.624 18.5142 218.848 23.4372 221.047 29.1176C218.489 35.4633 214.698 42.6176 209.232 48.3287C207.07 40.3454 206.997 32.0448 207.631 25.126C212.085 21.4209 215.36 17.8387 217.053 15.8429ZM195.909 12.9668C201.43 12.2504 205.874 10.9608 208.239 10.1727C207.53 12.8031 206.38 17.7466 205.727 23.8876C200.657 27.9611 194.161 32.0448 186.855 33.9485C188.576 25.8322 192.247 18.6063 195.909 12.9668ZM172.493 10.8994C177.176 12.6188 182.393 13.4991 188.061 13.4991C188.309 13.4991 188.558 13.4991 188.797 13.4991C190.333 13.4786 191.824 13.3967 193.259 13.2637C192.44 14.584 191.631 15.9759 190.849 17.4498C187.812 23.1506 185.77 28.8413 184.721 34.4501C178.4 35.6885 171.554 35.2177 164.561 31.6968C165.316 23.1916 168.37 16.3648 172.493 10.8994ZM162.933 33.5084C166.107 41.287 166.53 48.9018 165.408 55.923C160.366 57.0898 155.241 59.362 150.125 62.7395C148.8 63.6095 147.548 64.5102 146.362 65.4211C146.472 63.8244 146.555 62.1664 146.573 60.4571C146.647 53.8351 145.846 47.7658 144.236 42.331C149.149 37.7355 155.296 34.3375 162.933 33.5084ZM139.617 7.27619L161.396 31.5126C154.799 32.5054 148.791 35.4019 143.528 40.11C141.016 32.9148 136.949 26.9376 131.456 22.3625C133.885 20.5612 138.807 15.9043 139.617 7.27619ZM129.698 23.601C135.946 28.5752 139.728 34.9311 141.927 41.635C138.081 45.4527 134.667 50.2631 131.75 56.0459C130.996 57.5402 130.315 59.014 129.698 60.4674C129.082 59.014 128.401 57.5402 127.647 56.0459C124.73 50.2733 121.316 45.4527 117.479 41.635C119.66 34.9311 123.451 28.5752 129.698 23.601ZM119.77 7.27619C120.589 15.894 125.503 20.5612 127.932 22.3625C122.439 26.9376 118.381 32.9148 115.86 40.11C110.588 35.4019 104.57 32.4952 97.9731 31.5126L119.77 7.27619ZM115.161 42.331C113.551 47.7658 112.75 53.8351 112.824 60.4571C112.842 62.1664 112.916 63.8244 113.035 65.4211C111.848 64.5102 110.597 63.6095 109.272 62.7395C104.147 59.362 99.0313 57.0898 93.9891 55.923C92.8757 48.9018 93.299 41.287 96.4642 33.5084C104.101 34.3375 110.247 37.7355 115.161 42.331ZM70.5908 13.4888C76.5438 13.5707 82.0001 12.6803 86.8858 10.8891C91.0171 16.3546 94.0719 23.1916 94.8172 31.6866C87.8244 35.2177 80.9788 35.6885 74.6668 34.4398C73.6179 28.8311 71.5753 23.1302 68.5389 17.4395C67.7568 15.9657 66.9471 14.5737 66.1282 13.2534C67.5636 13.3865 69.0542 13.4683 70.5908 13.4888ZM51.1581 10.1829C53.5228 10.971 57.9669 12.2504 63.4875 12.9668C67.1496 18.6063 70.8208 25.8322 72.5322 33.9588C65.2357 32.0551 58.7306 27.9713 53.6608 23.8978C53.0167 17.7568 51.8666 12.8133 51.1581 10.1829ZM42.3435 15.8429C44.0365 17.8387 47.312 21.4209 51.7654 25.1158C52.4002 32.0346 52.3266 40.3352 50.1644 48.3185C44.699 42.6073 40.9081 35.4531 38.3502 29.1074C40.5493 23.4372 41.773 18.5142 42.3435 15.8429ZM39.3071 36.2207C42.2239 41.9932 45.6375 46.8139 49.4743 50.6316C47.2937 57.3252 43.512 63.6709 37.2829 68.6451C31.0538 63.6812 27.2721 57.3252 25.0823 50.6316C28.9283 46.8139 32.3419 42.0035 35.2587 36.2207C36.0039 34.7469 36.6664 33.2935 37.2829 31.8606C37.8994 33.2935 38.571 34.7469 39.3071 36.2207ZM32.2223 15.8429C32.7928 18.5142 34.0165 23.4372 36.2156 29.1176C33.6577 35.4633 29.8668 42.6176 24.4014 48.3287C22.2391 40.3454 22.1655 32.0448 22.8004 25.126C27.2537 21.4209 30.5293 17.8387 32.2223 15.8429ZM11.0783 12.9668C16.5989 12.2504 21.043 10.9608 23.4077 10.1727C22.6992 12.8031 21.5491 17.7466 20.8958 23.8876C15.826 27.9611 9.33005 32.0448 2.0244 33.9485C3.745 25.8322 7.41623 18.6063 11.0783 12.9668ZM4.07624 58.7581C0.901872 50.9795 0.478623 43.3647 1.60115 36.3435C6.64334 35.1767 11.7683 32.9046 16.8841 29.527C18.2091 28.6571 19.4604 27.7564 20.6474 26.8455C20.537 28.4421 20.4541 30.1002 20.4357 31.8094C20.3621 38.4315 21.1626 44.5008 22.7728 49.9356C17.8594 54.5209 11.7131 57.9189 4.07624 58.7581ZM5.60362 60.7437C12.2008 59.7509 18.2091 56.8544 23.4721 52.1463C25.984 59.3415 30.0509 65.3188 35.5439 69.8938C33.124 71.6849 28.2014 76.3418 27.3825 84.9801L5.60362 60.7437ZM13.673 97.6306L13.7282 97.5487L13.6914 97.4873C14.7863 95.4608 19.1936 88.5726 28.2474 88.5726H29.2228V87.4775C29.2228 77.2527 35.4611 72.4423 37.2553 71.2755V71.3165L37.2829 71.296L37.3013 71.3062V71.2857L37.3197 71.2755C39.1415 72.4628 45.3522 77.263 45.3522 87.4672V88.5522H46.3275C55.4918 88.5522 59.8163 95.4608 60.8836 97.4873L60.8468 97.5487L60.8836 97.6101C59.8163 99.6366 55.4918 106.525 46.3275 106.525H45.3522V107.61C45.3522 117.804 39.1415 122.624 37.3197 123.812L37.3013 123.801V123.781L37.2829 123.791L37.2553 123.771V123.812L37.2369 123.822C35.4335 122.614 29.2044 117.712 29.2044 107.62V106.535H28.229C19.074 106.545 14.7495 99.6571 13.673 97.6306ZM27.3733 110.117C28.1922 118.735 33.1056 123.402 35.5347 125.204C30.0508 129.779 25.9932 135.746 23.4813 142.941C18.2091 138.233 12.1916 135.326 5.59442 134.343L27.3733 110.117ZM4.07624 136.339C11.7223 137.168 17.8594 140.577 22.7728 145.162C21.1626 150.597 20.3621 156.666 20.4357 163.288C20.4541 164.997 20.5278 166.655 20.6474 168.252C19.4604 167.341 18.2091 166.44 16.8841 165.57C11.7591 162.193 6.64334 159.921 1.60115 158.754C0.478623 151.733 0.901872 144.118 4.07624 136.339ZM2.0336 161.128C9.33005 163.032 15.8352 167.116 20.905 171.189C21.5491 177.33 22.7084 182.274 23.4169 184.904C21.0522 184.116 16.6081 182.837 11.0875 182.11C7.41623 176.481 3.745 169.255 2.0336 161.128ZM21.0246 206.234L22.6072 204.74L20.5646 204.33C20.4265 204.3 15.4304 203.245 8.97121 200.359H8.99881C15.4488 197.483 20.4265 196.429 20.5646 196.398L22.6072 195.989L21.0246 194.494C20.9142 194.392 17.0589 190.697 12.762 184.607C19.6536 185.692 24.4566 187.565 24.5946 187.617L26.5452 188.394L25.846 186.225C25.8 186.081 24.1162 180.739 23.1409 173.062C28.6247 177.842 31.9463 182.131 32.0291 182.253L33.3724 184.014L33.7405 181.742C33.7681 181.588 34.7066 176.071 37.2829 168.917C39.8592 176.071 40.8069 181.588 40.8253 181.742L41.1933 184.014L42.5367 182.253C42.6287 182.131 45.9503 177.842 51.4249 173.062C50.4496 180.728 48.7658 186.071 48.7198 186.225L48.0205 188.394L49.9712 187.617C50.1 187.565 54.9029 185.692 61.8037 184.607C57.5068 190.707 53.6516 194.402 53.5412 194.494L51.9586 195.989L54.0012 196.398C54.1392 196.429 59.1262 197.473 65.5854 200.359H65.6038C59.1446 203.245 54.1484 204.3 54.0104 204.33L51.9678 204.74L53.5504 206.234C53.6608 206.336 57.516 210.031 61.8129 216.121C54.9213 215.036 50.1184 213.163 49.9804 213.112L48.0297 212.334L48.729 214.504C48.775 214.647 50.4588 219.99 51.4341 227.666C45.9503 222.886 42.6287 218.598 42.5459 218.475L41.2025 216.715L40.8345 218.987C40.8069 219.14 39.8684 224.657 37.2921 231.811C34.7158 224.657 33.7681 219.14 33.7497 218.987L33.3816 216.715L32.0383 218.475C31.9463 218.598 28.6247 222.886 23.1501 227.656C24.1254 219.99 25.8092 214.647 25.8552 214.494L26.5544 212.324L24.6038 213.102C24.475 213.153 19.6721 215.026 12.7712 216.111C17.0589 210.031 20.9142 206.336 21.0246 206.234ZM11.0783 218.618C16.5989 217.902 21.043 216.612 23.4077 215.824C22.6992 218.455 21.5491 223.398 20.8958 229.539C15.826 233.613 9.33005 237.696 2.0244 239.6C3.745 231.484 7.41623 224.248 11.0783 218.618ZM4.07624 264.399C0.901872 256.621 0.478623 249.006 1.60115 241.985C6.64334 240.818 11.7683 238.546 16.8841 235.168C18.2091 234.298 19.4604 233.398 20.6474 232.487C20.537 234.083 20.4541 235.741 20.4357 237.451C20.3621 244.073 21.1626 250.142 22.7728 255.577C17.8594 260.162 11.7131 263.57 4.07624 264.399ZM5.60362 266.385C12.2008 265.392 18.2091 262.496 23.4721 257.788C25.984 264.983 30.0509 270.96 35.5439 275.535C33.124 277.326 28.2014 281.983 27.3825 290.621L5.60362 266.385ZM13.673 303.272L13.7282 303.19L13.6914 303.129C14.7863 301.102 19.1936 294.214 28.2474 294.214H29.2228V293.129C29.2228 282.904 35.4611 278.094 37.2553 276.927V276.968L37.2829 276.947L37.3013 276.958V276.937L37.3197 276.927C39.1415 278.114 45.3522 282.914 45.3522 293.119V294.204H46.3275C55.4918 294.204 59.8163 301.112 60.8836 303.139L60.8468 303.2L60.8836 303.262C59.8163 305.288 55.4918 312.176 46.3275 312.176H45.3522V313.261C45.3522 323.455 39.1415 328.276 37.3197 329.463L37.3013 329.453V329.432L37.2829 329.443L37.2553 329.422V329.463L37.2369 329.473C35.4335 328.266 29.2044 323.363 29.2044 313.271V312.186H28.229C19.074 312.186 14.7495 305.298 13.673 303.272ZM27.3733 315.769C28.1922 324.387 33.1056 329.054 35.5347 330.855C30.0508 335.43 25.9932 341.397 23.4813 348.592C18.2091 343.884 12.1916 340.977 5.59442 339.995L27.3733 315.769ZM4.07624 341.98C11.7223 342.81 17.8594 346.218 22.7728 350.803C21.1626 356.238 20.3621 362.307 20.4357 368.929C20.4541 370.638 20.5278 372.296 20.6474 373.893C19.4604 372.982 18.2091 372.082 16.8841 371.212C11.7591 367.834 6.64334 365.562 1.60115 364.395C0.478623 357.374 0.901872 349.759 4.07624 341.98ZM23.4077 390.556C21.043 389.768 16.5989 388.488 11.0783 387.762C7.41623 382.122 3.745 374.896 2.0336 366.77C9.33005 368.673 15.8352 372.757 20.905 376.831C21.5491 382.982 22.6992 387.925 23.4077 390.556ZM32.2223 384.896C30.5293 382.9 27.2537 379.318 22.8004 375.623C22.1655 368.704 22.2391 360.403 24.4014 352.42C29.8668 358.131 33.6669 365.286 36.2156 371.631C34.0165 377.301 32.7928 382.224 32.2223 384.896ZM35.2587 364.518C32.3419 358.745 28.9283 353.925 25.0823 350.107C27.2721 343.413 31.0538 337.057 37.2829 332.093C43.512 337.057 47.2937 343.413 49.4835 350.107C45.6375 353.925 42.2239 358.735 39.3071 364.518C38.5618 365.992 37.8994 367.445 37.2829 368.878C36.6664 367.445 35.9947 365.981 35.2587 364.518ZM42.3435 384.896C41.773 382.224 40.5493 377.301 38.3502 371.621C40.9081 365.275 44.699 358.121 50.1644 352.41C52.3266 360.393 52.4002 368.694 51.7654 375.613C47.312 379.307 44.0365 382.9 42.3435 384.896ZM51.1581 390.556C51.8666 387.925 53.0259 382.982 53.67 376.841C58.7398 372.767 65.2357 368.684 72.5414 366.78C70.83 374.896 67.1588 382.132 63.4967 387.772C57.9669 388.478 53.5228 389.768 51.1581 390.556ZM68.1801 404.803C63.0735 402.357 58.6478 400.995 56.2463 400.361C58.0405 398.478 61.2609 394.834 64.5825 389.88C70.8024 389.174 78.2645 389.256 85.4413 391.661C80.3163 397.73 73.8847 401.957 68.1801 404.803ZM86.8951 389.839C82.0093 388.048 76.553 387.158 70.5908 387.25C69.0542 387.27 67.5636 387.352 66.1282 387.485C66.9471 386.165 67.7568 384.773 68.5389 383.299C71.5753 377.598 73.6179 371.908 74.6668 366.299C80.9788 365.06 87.8244 365.531 94.8172 369.052C94.0811 377.547 91.0263 384.374 86.8951 389.839ZM104.837 404.056C100.724 397.945 95.36 393.421 88.8917 390.627C93.115 384.773 95.7189 378.089 96.6114 370.761L118.39 394.998C110.661 395.898 106.466 401.354 104.837 404.056ZM119.77 393.452L97.9915 369.216C104.589 368.223 110.597 365.326 115.86 360.618C118.372 367.814 122.439 373.791 127.932 378.366C125.521 380.157 120.589 384.824 119.77 393.452ZM129.698 377.138C123.451 372.163 119.669 365.808 117.47 359.104C121.316 355.286 124.73 350.475 127.637 344.693C128.392 343.198 129.073 341.725 129.689 340.271C130.306 341.725 130.987 343.198 131.741 344.693C134.658 350.465 138.071 355.286 141.917 359.104C139.728 365.808 135.946 372.163 129.698 377.138ZM131.447 378.376C136.949 373.801 141.016 367.824 143.528 360.618C148.791 365.316 154.799 368.223 161.396 369.216L139.608 393.442C138.789 384.824 133.876 380.177 131.447 378.376ZM154.541 404.066C152.922 401.364 148.735 395.888 140.979 394.977L162.776 370.741C163.669 378.069 166.273 384.752 170.496 390.607C164.028 393.421 158.654 397.956 154.541 404.066ZM172.502 389.839C168.38 384.374 165.325 377.547 164.57 369.042C171.563 365.511 178.409 365.04 184.73 366.289C185.779 371.897 187.822 377.598 190.858 383.289C191.64 384.763 192.45 386.155 193.269 387.475C191.833 387.352 190.343 387.26 188.806 387.24C182.844 387.158 177.388 388.048 172.502 389.839ZM203.151 400.361C200.749 400.995 196.323 402.357 191.217 404.803C185.512 401.957 179.081 397.741 173.946 391.661C181.123 389.256 188.594 389.174 194.814 389.88C198.127 394.834 201.356 398.478 203.151 400.361ZM208.239 390.556C205.874 389.768 201.43 388.488 195.909 387.762C192.247 382.122 188.576 374.896 186.865 366.77C194.161 368.673 200.666 372.757 205.736 376.831C206.371 382.982 207.53 387.925 208.239 390.556ZM217.053 384.896C215.36 382.9 212.085 379.318 207.631 375.623C206.997 368.704 207.07 360.403 209.232 352.42C214.698 358.131 218.498 365.286 221.047 371.631C218.848 377.301 217.624 382.224 217.053 384.896ZM220.09 364.518C217.173 358.745 213.759 353.925 209.913 350.107C212.103 343.403 215.894 337.047 222.123 332.083V332.073C228.371 337.047 232.152 343.403 234.351 350.107C230.505 353.925 227.092 358.735 224.175 364.518C223.42 366.012 222.74 367.486 222.123 368.939V368.909C221.507 367.466 220.835 365.992 220.09 364.518ZM227.211 384.896C226.641 382.224 225.417 377.301 223.218 371.621C225.776 365.275 229.567 358.121 235.032 352.41C237.194 360.393 237.268 368.694 236.633 375.613C232.18 379.307 228.904 382.9 227.211 384.896ZM236.026 390.556C236.734 387.925 237.894 382.982 238.538 376.841C243.608 372.767 250.104 368.684 257.409 366.78C255.698 374.896 252.027 382.132 248.365 387.772C242.835 388.478 238.391 389.768 236.026 390.556ZM253.048 404.803C247.941 402.357 243.516 400.995 241.114 400.361C242.908 398.478 246.129 394.834 249.45 389.88C255.67 389.174 263.132 389.256 270.309 391.661C265.184 397.73 258.753 401.957 253.048 404.803ZM271.772 389.839C266.886 388.048 261.43 387.158 255.468 387.25C253.931 387.27 252.441 387.352 251.005 387.485C251.824 386.165 252.634 384.773 253.416 383.299C256.452 377.598 258.495 371.908 259.544 366.299C265.856 365.06 272.701 365.531 279.694 369.052C278.949 377.547 275.894 384.374 271.772 389.839ZM289.714 404.056C285.601 397.945 280.237 393.421 273.769 390.627C277.992 384.773 280.596 378.089 281.488 370.761L303.267 394.998C295.529 395.898 291.334 401.354 289.714 404.056ZM304.648 393.452L282.869 369.216C289.466 368.223 295.474 365.326 300.737 360.618C303.249 367.814 307.316 373.791 312.809 378.366C310.389 380.157 305.466 384.824 304.648 393.452ZM314.566 377.138C308.319 372.163 304.537 365.808 302.338 359.104C306.184 355.286 309.598 350.475 312.505 344.693C313.26 343.198 313.941 341.725 314.557 340.271C315.174 341.725 315.854 343.198 316.609 344.693C319.526 350.465 322.939 355.286 326.785 359.104C324.605 365.808 320.814 372.163 314.566 377.138ZM316.324 378.376C321.826 373.801 325.893 367.824 328.405 360.618C333.668 365.316 339.676 368.223 346.273 369.216L324.485 393.442C323.666 384.824 318.744 380.177 316.324 378.376ZM339.418 404.066C337.799 401.364 333.612 395.888 325.856 394.977L347.653 370.741C348.546 378.069 351.15 384.752 355.373 390.607C348.905 393.421 343.531 397.956 339.418 404.066ZM357.37 389.839C353.248 384.374 350.193 377.547 349.438 369.042C356.431 365.511 363.277 365.04 369.598 366.289C370.647 371.897 372.689 377.598 375.726 383.289C376.508 384.763 377.318 386.155 378.136 387.475C376.701 387.352 375.21 387.26 373.674 387.24C367.712 387.158 362.255 388.048 357.37 389.839ZM388.018 400.361C385.617 400.995 381.191 402.357 376.085 404.803C370.38 401.957 363.948 397.741 358.814 391.661C365.991 389.256 373.462 389.174 379.682 389.88C383.004 394.834 386.224 398.478 388.018 400.361ZM393.107 390.556C390.742 389.768 386.298 388.488 380.777 387.762C377.115 382.122 373.444 374.896 371.732 366.77C379.029 368.673 385.534 372.757 390.604 376.831C391.248 382.982 392.398 387.925 393.107 390.556ZM405.914 371.621C403.715 377.301 402.492 382.224 401.921 384.896C400.228 382.9 396.953 379.318 392.499 375.623C391.864 368.704 391.938 360.403 394.1 352.42C399.566 358.121 403.357 365.275 405.914 371.621ZM405.234 330.855C399.75 335.43 395.692 341.397 393.18 348.592C387.908 343.884 381.89 340.977 375.293 339.995L397.081 315.769C397.891 324.387 402.805 329.054 405.234 330.855ZM395.692 314.233L373.922 338.439C373.03 331.111 370.417 324.427 366.193 318.583C372.662 315.789 378.035 311.286 382.148 305.186C383.758 307.867 387.945 313.323 395.692 314.233ZM382.148 301.225C378.035 295.115 372.662 290.611 366.193 287.807C370.426 281.952 373.039 275.259 373.922 267.92L395.701 292.157C387.972 293.068 383.777 298.523 382.148 301.225ZM405.252 275.545C402.832 277.336 397.91 281.993 397.091 290.632L375.312 266.395C381.909 265.402 387.917 262.506 393.18 257.798C395.692 264.993 399.75 270.97 405.252 275.545ZM394.1 253.97C391.938 245.987 391.864 237.686 392.499 230.767C396.962 227.072 400.228 223.49 401.921 221.494C402.492 224.166 403.715 229.089 405.914 234.769C403.357 241.105 399.566 248.259 394.1 253.97Z" fill="url(#paint0_linear_337_2509)"/>
<defs>
<linearGradient id="paint0_linear_337_2509" x1="386.074" y1="424.628" x2="-63.3686" y2="-2.92962" gradientUnits="userSpaceOnUse">
<stop stop-color="#EAF2EB"/>
<stop offset="1" stop-color="#90EE90"/>
</linearGradient>
</defs>
</svg>
