<svg id="Layer_1" data-name="Layer 1" xmlns="http://www.w3.org/2000/svg" viewBox="0 0 42.64 43"><path d="M5.12,0h32.4a5.14,5.14,0,0,1,5.12,5.16h0V37.83A5.15,5.15,0,0,1,37.52,43H5.12A5.14,5.14,0,0,1,0,37.84H0V5.16A5.14,5.14,0,0,1,5.12,0Z" transform="translate(0)" fill="#f4f6f8"/><path d="M19.55,6.17a7.57,7.57,0,0,0-6.31,6.41,36.09,36.09,0,0,0-.12,5.5,1.71,1.71,0,0,0,1.29,1.17c.28.05.27,0,.34,1a6.71,6.71,0,0,0,3.66,5.14c.35.17.35.17.35.45a2.8,2.8,0,0,1-2.68,2.86,5.06,5.06,0,0,0-4.82,3.58,7,7,0,0,0-.16,2.32v1.91l.15.16.15.15H31.24l.17-.12.15-.16V34.63a6.47,6.47,0,0,0-.15-2.32,5,5,0,0,0-4.54-3.56c-1.88-.11-3-1.18-3-2.91v-.27l.46-.24a6.67,6.67,0,0,0,3.54-5.12c.08-1,.06-.91.36-1a1.75,1.75,0,0,0,1.18-.76l.16-.28V15.76c0-2.62.06-2.75.42-3.47a4.2,4.2,0,0,1,.62-.95c.15-.12.12-.23-.19-.66A6.74,6.74,0,0,0,26,8c-1-.13-1-.19-.3-.48s.66-.37-.19-.71a12,12,0,0,0-6-.67" transform="translate(0)" fill="#ffcebe" fill-rule="evenodd"/><path d="M19.79,6.24a7.53,7.53,0,0,0-6.46,6.17,13.74,13.74,0,0,0-.24,3.73c0,2,0,2.09.15,2.33a2,2,0,0,0,1,.83c.57.17.52.4.54-2.27V14.67l.16-.44a3.16,3.16,0,0,1,2.19-2c.52-.13,7.83-.13,8.35,0a3.27,3.27,0,0,1,2.32,2.43c0,.19.06,1.16.06,2.55v2.23h.28a1.69,1.69,0,0,0,1.3-.9c.13-.25.14-.32.17-2.66,0-2.9.1-3.19.91-4.2.29-.37.29-.34-.07-.82a6.82,6.82,0,0,0-4.68-2.68c-.73-.07-.7-.18.12-.51.63-.25.46-.41-.95-.86a12.4,12.4,0,0,0-5.17-.5m-1,20c0,.64-.06.59.58.79a6.52,6.52,0,0,0,3.91,0c.64-.2.61-.15.58-.79v-.55l-.43.15a7.06,7.06,0,0,1-4.17,0l-.43-.21v.55M18.13,28a2.82,2.82,0,0,1-2.23.95,5,5,0,0,0-4.27,2.77c-.45.92-.47,1-.5,3.13v1.87l.16.17.16.16H31.24l.16-.17.16-.16V32.94l-.19-.55a5,5,0,0,0-4.74-3.51A2.67,2.67,0,0,1,24.58,28l-.27-.3-.36.25a4.54,4.54,0,0,1-5.2,0c-.37-.27-.32-.27-.6.06m6.78,6.91a.51.51,0,0,0-.29.66.57.57,0,0,0,.12.18l.15.16h1c1,0,1,0,1.17-.15a.53.53,0,0,0,0-.74l-.15-.17H26a3.26,3.26,0,0,0-1.12.07" transform="translate(0)" fill="#94ec94" stroke="#94ec94" fill-rule="evenodd"/><path d="M20.15,6.19a7.68,7.68,0,0,0-4.56,2.07,8.42,8.42,0,0,0-2.44,5.23,31.65,31.65,0,0,0,0,4.77,1.68,1.68,0,0,0,1.32,1.08h.24V17c0-2.59,0-2.64.41-3.27A3.33,3.33,0,0,1,17,12.19a61.85,61.85,0,0,1,8.61,0,3.25,3.25,0,0,1,2.16,2.29,14.36,14.36,0,0,1,.09,2.62v2.3h.26a1.73,1.73,0,0,0,1.37-1A7.57,7.57,0,0,0,29.57,16c0-2.77.1-3.27.87-4.28l.28-.36L30.49,11a6.86,6.86,0,0,0-4.82-2.81c-.68-.07-.65-.2.09-.48s.59-.34-.1-.62a14.18,14.18,0,0,0-2.47-.7,20.1,20.1,0,0,0-3.1-.12M18.08,28a2.78,2.78,0,0,1-2.23.94,4.9,4.9,0,0,0-4.44,3.38,8.11,8.11,0,0,0-.26,2.9v1.5l.17.15a1.32,1.32,0,0,0,1.22,0c.36-.27.41-.39.45-1.24a4.9,4.9,0,0,1,.42-2.14,5,5,0,0,1,4.33-2.83c.84-.06,1.19-.17,1.49-.48a1.26,1.26,0,0,0,0-1.78l-.11-.1a8.3,8.3,0,0,0-.82-.61,4.12,4.12,0,0,0-.28.31m5.89-.1c-.61.47-.74.6-.85.83a1.3,1.3,0,0,0,.32,1.45c.3.31.65.42,1.49.48a5,5,0,0,1,4.7,3.88,9.45,9.45,0,0,1,.1,1.07c0,.85.09,1,.45,1.24a1.32,1.32,0,0,0,1.22,0l.17-.15V34.84a6.42,6.42,0,0,0-.17-2.35,4.93,4.93,0,0,0-3-3.29,6.84,6.84,0,0,0-2-.35A2.73,2.73,0,0,1,24.66,28a3.06,3.06,0,0,0-.36-.36l-.28.21" transform="translate(0)" fill="#64cc64" stroke="#64cc64" fill-rule="evenodd"/><path d="M19.94,6.25c-3.88.53-6.39,3.3-6.8,7.49a24.71,24.71,0,0,0,.1,4.63,1.66,1.66,0,0,0,1.23.95h.24V18.9c0-3.56.09-4.35.22-4.71a3.26,3.26,0,0,1,2.35-2c.59-.13,7.5-.13,8.09,0A3.33,3.33,0,0,1,27.5,13.7c.39.74.4.79.43,3.32v2.3h.17a1.58,1.58,0,0,0,1.31-.88l.17-.34V15.69A13.22,13.22,0,0,1,29.72,13a5.27,5.27,0,0,1,.74-1.36c.26-.32.25-.36-.08-.8A6.72,6.72,0,0,0,26.15,8.2c-.89-.14-.93-.15-.95-.25s.12-.15.48-.3c.65-.27.66-.35.09-.58a12.05,12.05,0,0,0-5.88-.82" transform="translate(0)" fill="#935959" stroke="#935959" fill-rule="evenodd"/></svg>