<svg width="10" height="10" viewBox="0 0 10 10" fill="none" xmlns="http://www.w3.org/2000/svg">
<path d="M0.478027 4.12528C0.478027 4.31899 0.601982 4.49094 0.785708 4.55217L4.62216 5.83106L5.90097 9.66771C5.96235 9.85145 6.13422 9.97534 6.328 9.97534C6.52172 9.97534 6.69367 9.85139 6.75497 9.66771L9.45498 1.56762C9.50876 1.40593 9.46677 1.22764 9.34616 1.1071C9.22556 0.986632 9.04768 0.944569 8.88564 0.998422L0.785782 3.69845C0.601978 3.7597 0.478031 3.93165 0.478031 4.12535L0.478027 4.12528ZM8.31646 2.13668L6.32806 8.10228L5.33384 5.11939L2.35114 4.12517L8.31646 2.13668Z" fill="black"/>
</svg>
