<svg width="20" height="19" viewBox="0 0 20 19" fill="none" xmlns="http://www.w3.org/2000/svg">
<path d="M12.8823 0.000892517C12.81 0.00476173 12.7512 0.0199718 12.6898 0.0313127C12.5669 0.0539944 12.448 0.0870829 12.3209 0.126977C12.0663 0.206896 11.7853 0.317237 11.5059 0.425844C11.2266 0.534583 10.953 0.64279 10.7377 0.72124C10.6278 0.761401 10.5101 0.786885 10.4423 0.802894H10.4411C10.3731 0.786883 10.2577 0.760198 10.1504 0.72124C9.93517 0.642787 9.65939 0.533248 9.37999 0.424775C9.1006 0.316168 8.81508 0.207962 8.56051 0.128176C8.43323 0.0882818 8.31675 0.0574626 8.19388 0.0347795C8.071 0.0120978 7.96066 -0.0292633 7.7269 0.0394494C7.49328 0.108161 7.41869 0.201425 7.32768 0.286948C7.23655 0.372472 7.15623 0.463601 7.07084 0.565936C6.8998 0.77074 6.71702 1.01465 6.54074 1.25705C6.36449 1.49962 6.19385 1.74245 6.05507 1.92484C5.98583 2.0161 5.90244 2.10229 5.85427 2.15259C5.78823 2.17554 5.67509 2.21677 5.56128 2.24239C5.33766 2.29282 5.04706 2.34739 4.75342 2.40703C4.45975 2.4668 4.16436 2.53031 3.90699 2.60089C3.77837 2.63611 3.65949 2.67374 3.54395 2.7211C3.4284 2.76847 3.317 2.79729 3.15757 2.98141C2.998 3.16553 2.98599 3.27935 2.95557 3.40051C2.92515 3.52179 2.90447 3.64534 2.88792 3.7777C2.8547 4.04241 2.83495 4.34353 2.81787 4.64267C2.80066 4.94193 2.78679 5.23733 2.76877 5.46576C2.75957 5.5821 2.73422 5.69952 2.72088 5.7681C2.67805 5.82294 2.6064 5.91887 2.52595 6.00052C2.36518 6.16369 2.1489 6.36702 1.93409 6.57598C1.71928 6.78506 1.5042 6.99986 1.3258 7.19828C1.23668 7.29754 1.15809 7.39014 1.08644 7.49247C1.01479 7.59481 0.931942 7.68327 0.897382 7.92448C0.862693 8.16558 0.920331 8.26843 0.960359 8.38678C1.00039 8.50513 1.04749 8.61667 1.10512 8.73702C1.2204 8.97758 1.36877 9.24417 1.51606 9.50513C1.66334 9.76608 1.81039 10.0235 1.91886 10.2255C1.97303 10.3265 2.01479 10.4384 2.04028 10.5034V10.5046C2.034 10.5745 2.0252 10.6949 2.00172 10.8069C1.95475 11.0312 1.88724 11.317 1.8196 11.6089C1.75195 11.9008 1.68377 12.1943 1.64094 12.4576C1.61946 12.5893 1.60265 12.7122 1.59771 12.8371C1.59278 12.962 1.56996 13.0778 1.67123 13.2994C1.77249 13.521 1.8771 13.5798 1.97476 13.6577C2.0723 13.7357 2.1741 13.8049 2.28764 13.8748C2.51472 14.0149 2.78144 14.1563 3.04642 14.2963C3.31153 14.4363 3.5769 14.5749 3.77719 14.6862C3.87953 14.743 3.97519 14.8148 4.03056 14.8543C4.06365 14.9165 4.11969 15.0201 4.16012 15.1263C4.24177 15.3405 4.33823 15.6228 4.4391 15.905C4.53997 16.1872 4.64324 16.4694 4.74971 16.7141C4.80295 16.8364 4.85565 16.9496 4.91903 17.0572C4.9824 17.1649 5.02923 17.2758 5.23417 17.4075C5.43911 17.5392 5.55359 17.5324 5.67779 17.5452C5.80201 17.558 5.92622 17.5616 6.05952 17.5592C6.32623 17.5542 6.62952 17.5298 6.92811 17.5043C7.22671 17.4787 7.5213 17.4478 7.74998 17.4331C7.86432 17.4258 7.9828 17.4344 8.05231 17.439C8.11262 17.4729 8.21843 17.5306 8.31262 17.6C8.49714 17.736 8.73131 17.9204 8.9688 18.1031C9.20629 18.2861 9.4451 18.4674 9.66698 18.6156C9.77786 18.6898 9.88473 18.7542 9.99614 18.8105C10.1077 18.8668 10.2032 18.9356 10.4468 18.9354C10.6905 18.9354 10.786 18.868 10.8974 18.8117C11.0088 18.7553 11.1111 18.6898 11.222 18.6156C11.4437 18.4672 11.6886 18.2849 11.9259 18.1019C12.1633 17.919 12.3964 17.7359 12.5809 17.5999C12.6731 17.5318 12.7772 17.4738 12.8377 17.4388C12.9073 17.4358 13.0271 17.4279 13.1435 17.4354C13.3722 17.45 13.6644 17.4753 13.9632 17.5007C14.2618 17.5262 14.565 17.5496 14.8317 17.5544C14.9652 17.5568 15.087 17.5568 15.2112 17.5438C15.3354 17.5309 15.4557 17.5354 15.6607 17.4037C15.8656 17.2721 15.9067 17.1624 15.9701 17.0547C16.0333 16.947 16.0874 16.8337 16.1406 16.7114C16.2471 16.4671 16.3493 16.1862 16.45 15.9039C16.5509 15.6216 16.6485 15.3405 16.7302 15.1263C16.772 15.017 16.8308 14.9111 16.8633 14.8497C16.9199 14.8082 17.0153 14.7372 17.1155 14.6816C17.3158 14.5702 17.5801 14.434 17.8452 14.294C18.1102 14.1539 18.3734 14.0116 18.6005 13.8713C18.7139 13.8013 18.8181 13.7334 18.9156 13.6553C19.0133 13.5774 19.1158 13.5198 19.2169 13.2981C19.318 13.0765 19.2954 12.9583 19.2904 12.8334C19.2855 12.7087 19.2687 12.5881 19.2472 12.4564C19.2044 12.1932 19.1377 11.8962 19.0697 11.6042C19.002 11.3122 18.9359 11.0276 18.8888 10.8033C18.8645 10.6879 18.8548 10.5674 18.848 10.4986C18.874 10.4336 18.9178 10.3226 18.9717 10.222C19.08 10.02 19.2273 9.76381 19.3745 9.50282C19.5216 9.24172 19.6679 8.97409 19.7832 8.73339C19.8407 8.61318 19.8915 8.50163 19.9314 8.38315C19.9713 8.26481 20.0233 8.16087 19.9886 7.91979C19.9538 7.67856 19.8723 7.59357 19.8006 7.49123C19.729 7.38903 19.6493 7.29283 19.5601 7.19357C19.3817 6.99517 19.1692 6.78489 18.9542 6.57595C18.7393 6.36701 18.5233 6.16126 18.3624 5.9981C18.2819 5.91658 18.2088 5.81891 18.1662 5.76341C18.1518 5.69536 18.1262 5.57889 18.1171 5.46454C18.0991 5.23612 18.0878 4.94072 18.0704 4.64158C18.0531 4.34232 18.0336 4.0377 18.0004 3.77299C17.984 3.64064 17.9619 3.51936 17.9315 3.3982C17.9011 3.27704 17.8915 3.16204 17.7319 2.97791C17.5724 2.79378 17.4564 2.76376 17.3409 2.7164C17.2252 2.66904 17.1052 2.63248 16.9765 2.59725C16.7193 2.52694 16.425 2.46543 16.1314 2.40579C15.8376 2.34628 15.5459 2.29158 15.3223 2.24128C15.2109 2.2162 15.0988 2.17403 15.0328 2.15015H15.0316V2.14895C14.984 2.09932 14.9014 2.01606 14.832 1.9248C14.6932 1.74241 14.5179 1.49945 14.3417 1.25701C14.1653 1.01472 13.9873 0.770698 13.8162 0.565898C13.7307 0.463563 13.6471 0.372434 13.5559 0.28691C13.4648 0.20152 13.3916 0.106791 13.1578 0.0382126C13.0409 0.00392319 12.9547 -0.00288071 12.8823 0.000852557L12.8823 0.000892517ZM8.07826 1.23373C8.12002 1.24453 8.14844 1.25361 8.20435 1.27109C8.40461 1.33379 8.67532 1.43359 8.94803 1.53967C9.22061 1.6456 9.49531 1.75461 9.73843 1.8432C9.9814 1.9318 10.0955 2.02079 10.4424 2.02065C10.7894 2.02052 10.9021 1.9342 11.1452 1.84547C11.3882 1.75687 11.6653 1.6468 11.9379 1.54073C12.2105 1.43466 12.4791 1.33032 12.6792 1.26762C12.7363 1.24974 12.7664 1.24453 12.8087 1.23373C12.838 1.26535 12.8613 1.28589 12.8987 1.33059C13.0331 1.49163 13.2065 1.72219 13.3785 1.95862C13.5506 2.19518 13.7216 2.44039 13.8781 2.64628C14.0346 2.85218 14.0836 2.98531 14.3754 3.17277C14.6673 3.36036 14.8096 3.34835 15.0619 3.40506C15.3142 3.4619 15.6065 3.51847 15.8931 3.57664C16.1797 3.63481 16.46 3.69405 16.6624 3.74942C16.72 3.76516 16.7482 3.78011 16.7897 3.79372C16.7974 3.83628 16.8046 3.86603 16.8118 3.92447C16.838 4.13261 16.8592 4.41813 16.876 4.7102C16.893 5.00226 16.9082 5.29994 16.9286 5.55768C16.9489 5.81545 16.9139 5.95301 17.0581 6.26868C17.2024 6.58422 17.3307 6.65188 17.5123 6.83611C17.6939 7.02037 17.9074 7.22532 18.1171 7.42917C18.3269 7.63301 18.5302 7.83703 18.6704 7.99302C18.7094 8.03638 18.7298 8.0612 18.7567 8.09455C18.7401 8.13485 18.7288 8.16433 18.7031 8.21824C18.6125 8.40743 18.4755 8.66039 18.3318 8.91523C18.1881 9.16993 18.0396 9.42863 17.9174 9.65652C17.7952 9.88441 17.6923 9.98207 17.643 10.3255C17.5937 10.6689 17.6624 10.795 17.7154 11.0481C17.7685 11.3012 17.8406 11.5886 17.9068 11.8735C17.973 12.1583 18.0354 12.4404 18.0691 12.6474C18.0785 12.7056 18.0783 12.7363 18.0831 12.7794C18.0475 12.8041 18.0224 12.822 17.9722 12.8529C17.7938 12.9635 17.5434 13.1019 17.2848 13.2386C17.0261 13.3753 16.7625 13.5134 16.5364 13.639C16.3104 13.7647 16.1682 13.7923 15.941 14.0547C15.7139 14.317 15.7075 14.4609 15.6153 14.7026C15.5232 14.9442 15.4241 15.2245 15.3258 15.4999C15.2274 15.7754 15.1268 16.0442 15.0433 16.2367C15.0198 16.2908 15.0054 16.317 14.9861 16.3558C14.9428 16.3573 14.9131 16.3627 14.8541 16.3617C14.6444 16.3577 14.3553 16.335 14.0637 16.3102C13.7723 16.2854 13.4777 16.2555 13.2197 16.2389C12.9616 16.2225 12.8265 16.1726 12.4934 16.2704C12.1605 16.3683 12.0782 16.4835 11.8701 16.637C11.6619 16.7905 11.4282 16.9745 11.1964 17.153C10.9648 17.3316 10.7346 17.5045 10.5603 17.6212C10.5105 17.6544 10.4822 17.6689 10.4447 17.6912C10.4078 17.6692 10.3811 17.6524 10.3327 17.62C10.1583 17.5033 9.92691 17.3315 9.69516 17.153C9.4634 16.9746 9.22978 16.7927 9.0215 16.6393C8.81322 16.486 8.72757 16.3682 8.39456 16.2704C8.06167 16.1727 7.9312 16.227 7.67315 16.2436C7.41498 16.2601 7.11811 16.2875 6.82672 16.3124C6.53534 16.3374 6.24966 16.3564 6.03994 16.3603C5.98096 16.3614 5.95001 16.3595 5.90678 16.358C5.8873 16.3189 5.86876 16.2925 5.84487 16.2377C5.76122 16.0453 5.66315 15.7764 5.56469 15.5011C5.46622 15.2257 5.36736 14.9454 5.27516 14.7037C5.18297 14.4621 5.17563 14.3191 4.94828 14.0569C4.72106 13.7947 4.58137 13.7658 4.35522 13.6402C4.1292 13.5145 3.86207 13.3798 3.60338 13.2433C3.3448 13.1067 3.09315 12.9682 2.91465 12.858C2.86502 12.8274 2.84033 12.8077 2.80485 12.7833C2.80965 12.7399 2.81058 12.7092 2.82006 12.6502C2.85368 12.4432 2.91865 12.1623 2.9847 11.8773C3.05074 11.5925 3.11959 11.3016 3.17269 11.0485C3.22566 10.7952 3.29451 10.6716 3.24501 10.3281C3.19564 9.98468 3.09184 9.88478 2.96949 9.65689C2.84714 9.429 2.70118 9.17255 2.55736 8.91785C2.41367 8.66315 2.27571 8.41005 2.18499 8.22086C2.15964 8.16802 2.1467 8.1404 2.13015 8.10065C2.15764 8.06649 2.17752 8.03914 2.21768 7.99444C2.35791 7.83834 2.55911 7.63792 2.76872 7.43407C2.97833 7.23007 3.19434 7.02526 3.37578 6.84102C3.55721 6.65678 3.68345 6.59045 3.82756 6.27478C3.97167 5.95911 3.93804 5.82047 3.95831 5.56256C3.97859 5.30478 3.99647 5.00233 4.01315 4.71039C4.02983 4.41833 4.04664 4.13295 4.07266 3.92466C4.07986 3.86596 4.08827 3.83661 4.09601 3.79391C4.13723 3.7803 4.16499 3.76749 4.22209 3.75188C4.42449 3.69638 4.70482 3.63967 4.99139 3.58137C5.27798 3.52306 5.57379 3.46195 5.8261 3.40512C6.0784 3.34828 6.22077 3.36162 6.51257 3.17403C6.80463 2.98644 6.8524 2.85221 7.00889 2.64635C7.16539 2.44049 7.33778 2.19764 7.50976 1.96111C7.68174 1.72442 7.85159 1.49761 7.98607 1.33643C8.02449 1.29026 8.04851 1.26588 8.07826 1.23373ZM7.62877 5.64773C6.58352 5.64773 5.72695 6.50898 5.72695 7.55419C5.72695 8.59943 6.58352 9.46065 7.62877 9.46065C8.67401 9.46065 9.53403 8.5994 9.53403 7.55419C9.53403 6.50894 8.67398 5.64773 7.62877 5.64773ZM11.9659 5.76687H11.966C11.8588 5.76647 11.7534 5.79503 11.6609 5.84946C11.5685 5.9039 11.4924 5.98222 11.4406 6.07615L8.42741 11.2911C8.34402 11.4288 8.31974 11.5942 8.3599 11.7502C8.40006 11.906 8.50146 12.0392 8.64102 12.1194C8.78071 12.1996 8.94669 12.22 9.10158 12.1762C9.25648 12.1323 9.38724 12.0279 9.46408 11.8864L12.4738 6.67148C12.5463 6.55046 12.5735 6.4077 12.5509 6.26854C12.5283 6.12925 12.4571 6.00263 12.3501 5.91069C12.243 5.81889 12.107 5.76792 11.966 5.76672L11.9659 5.76687ZM7.62877 6.8432C8.02785 6.8432 8.33857 7.15515 8.33857 7.5542C8.33857 7.95328 8.02782 8.264 7.62877 8.264C7.22971 8.264 6.92242 7.95326 6.92242 7.5542C6.92242 7.15512 7.22969 6.8432 7.62877 6.8432ZM13.2724 9.0847C12.2271 9.0847 11.3659 9.94595 11.3659 10.9912C11.3659 12.0364 12.2272 12.8976 13.2724 12.8976C14.3176 12.8976 15.1777 12.0364 15.1777 10.9912C15.1777 9.94592 14.3176 9.0847 13.2724 9.0847ZM13.2724 10.2814C13.6715 10.2814 13.9822 10.5921 13.9822 10.9912C13.9822 11.3902 13.6714 11.7022 13.2724 11.7022C12.8733 11.7022 12.5614 11.3902 12.5614 10.9912C12.5614 10.5921 12.8732 10.2814 13.2724 10.2814Z" fill="#FF0000"/>
</svg>
