<svg width="187" height="24" viewBox="0 0 187 24" fill="none" xmlns="http://www.w3.org/2000/svg">
<path d="M33.6013 15.0005C34.5813 15.0005 35.3793 14.6785 35.9953 14.0345C36.6206 13.3811 36.9333 12.5271 36.9333 11.4725C36.9333 10.4085 36.6206 9.55448 35.9953 8.91048C35.3793 8.26648 34.5813 7.94448 33.6013 7.94448C32.6213 7.94448 31.8186 8.26648 31.1933 8.91048C30.5773 9.55448 30.2693 10.4085 30.2693 11.4725C30.2693 12.5271 30.5773 13.3811 31.1933 14.0345C31.8186 14.6785 32.6213 15.0005 33.6013 15.0005ZM33.6013 16.4425C32.2106 16.4425 31.0346 15.9758 30.0733 15.0425C29.1119 14.0998 28.6313 12.9098 28.6313 11.4725C28.6313 10.0258 29.1119 8.83582 30.0733 7.90248C31.0346 6.95982 32.2106 6.48848 33.6013 6.48848C35.0013 6.48848 36.1773 6.95982 37.1293 7.90248C38.0906 8.83582 38.5713 10.0258 38.5713 11.4725C38.5713 12.9098 38.0906 14.0998 37.1293 15.0425C36.1773 15.9758 35.0013 16.4425 33.6013 16.4425ZM41.7378 8.63048V9.84848C42.2511 8.95248 43.0725 8.50448 44.2018 8.50448C45.0698 8.50448 45.7838 8.79382 46.3438 9.37248C46.9131 9.95115 47.1978 10.7585 47.1978 11.7945V16.3445H45.6158V12.0325C45.6158 11.3418 45.4431 10.8145 45.0978 10.4505C44.7525 10.0771 44.2811 9.89048 43.6838 9.89048C43.0865 9.89048 42.6105 10.0771 42.2558 10.4505C41.9105 10.8145 41.7378 11.3418 41.7378 12.0325V16.3445H40.1418V8.63048H41.7378ZM49.2336 16.3445V5.98448H50.8296V16.3445H49.2336ZM55.053 16.2185L52.015 8.63048H53.793L55.963 14.5105L58.217 8.63048H59.869L55.137 19.9705H53.485L55.053 16.2185ZM65.4807 6.11048H71.6407V7.51048H66.9507V10.2965C67.1467 10.0351 67.436 9.81582 67.8187 9.63848C68.2107 9.46115 68.6634 9.37248 69.1767 9.37248C69.6994 9.37248 70.18 9.47515 70.6187 9.68048C71.0667 9.88582 71.4074 10.1611 71.6407 10.5065C72.1074 11.1785 72.3407 11.9345 72.3407 12.7745C72.3407 13.8385 72.0374 14.7018 71.4307 15.3645C70.824 16.0178 69.9794 16.3445 68.8967 16.3445C67.8234 16.3445 66.9787 16.0925 66.3627 15.5885C65.7467 15.0845 65.378 14.4171 65.2567 13.5865H66.8107C66.9134 14.0251 67.142 14.3751 67.4967 14.6365C67.8514 14.8885 68.3274 15.0145 68.9247 15.0145C69.522 15.0145 69.984 14.8138 70.3107 14.4125C70.6467 14.0111 70.8147 13.4791 70.8147 12.8165C70.8147 12.1445 70.6467 11.6311 70.3107 11.2765C69.9747 10.9125 69.48 10.7305 68.8267 10.7305C68.3694 10.7305 67.982 10.8471 67.6647 11.0805C67.3567 11.3045 67.1327 11.6125 66.9927 12.0045H65.4807V6.11048ZM78.0594 10.8425C78.0594 10.1891 78.3347 9.63848 78.8854 9.19048C79.436 8.73315 80.1594 8.50448 81.0554 8.50448C81.9514 8.50448 82.6607 8.72848 83.1834 9.17648C83.7154 9.61515 84 10.2171 84.0374 10.9825H82.3994C82.3714 10.5998 82.236 10.3011 81.9934 10.0865C81.76 9.87182 81.4287 9.76448 80.9994 9.76448C80.57 9.76448 80.234 9.86248 79.9914 10.0585C79.7487 10.2451 79.6274 10.4971 79.6274 10.8145C79.6274 11.1225 79.7814 11.3651 80.0894 11.5425C80.3974 11.7198 80.7707 11.8505 81.2094 11.9345C81.6574 12.0185 82.1007 12.1211 82.5394 12.2425C82.9874 12.3638 83.3654 12.5878 83.6734 12.9145C83.9814 13.2318 84.1354 13.6611 84.1354 14.2025C84.1354 14.8745 83.8507 15.4205 83.2814 15.8405C82.7214 16.2605 81.998 16.4705 81.1114 16.4705C80.2247 16.4705 79.506 16.2558 78.9554 15.8265C78.4047 15.3971 78.1014 14.7858 78.0454 13.9925H79.6974C79.7254 14.3751 79.8654 14.6738 80.1174 14.8885C80.3694 15.1031 80.71 15.2105 81.1394 15.2105C81.578 15.2105 81.9234 15.1171 82.1754 14.9305C82.4367 14.7345 82.5674 14.4778 82.5674 14.1605C82.5674 13.8431 82.4134 13.5958 82.1054 13.4185C81.7974 13.2411 81.4194 13.1105 80.9714 13.0265C80.5327 12.9331 80.0894 12.8305 79.6414 12.7185C79.2027 12.5971 78.8294 12.3825 78.5214 12.0745C78.2134 11.7665 78.0594 11.3558 78.0594 10.8425ZM89.6259 9.93248H87.7499V14.2025C87.7499 14.4918 87.8152 14.7018 87.9459 14.8325C88.0859 14.9538 88.3192 15.0145 88.6459 15.0145H89.6259V16.3445H88.3659C86.8819 16.3445 86.1399 15.6305 86.1399 14.2025V9.93248H85.2299V8.63048H86.1399V6.71248H87.7499V8.63048H89.6259V9.93248ZM96.1089 14.4265C96.5755 13.9598 96.8089 13.3111 96.8089 12.4805C96.8089 11.6498 96.5802 11.0058 96.1229 10.5485C95.6749 10.0818 95.1289 9.84848 94.4849 9.84848C93.8409 9.84848 93.2995 10.0818 92.8609 10.5485C92.4222 11.0058 92.2029 11.6545 92.2029 12.4945C92.2029 13.3251 92.4175 13.9738 92.8469 14.4405C93.2762 14.8978 93.8082 15.1265 94.4429 15.1265C95.0869 15.1265 95.6422 14.8931 96.1089 14.4265ZM94.4429 16.4705C93.3229 16.4705 92.3989 16.1065 91.6709 15.3785C90.9429 14.6411 90.5789 13.6798 90.5789 12.4945C90.5789 11.2998 90.9522 10.3385 91.6989 9.61048C92.4549 8.87315 93.3929 8.50448 94.5129 8.50448C95.6329 8.50448 96.5662 8.87315 97.3129 9.61048C98.0689 10.3385 98.4469 11.2951 98.4469 12.4805C98.4469 13.6658 98.0595 14.6271 97.2849 15.3645C96.5195 16.1018 95.5722 16.4705 94.4429 16.4705ZM103.273 16.4705C102.153 16.4705 101.243 16.1065 100.543 15.3785C99.8426 14.6505 99.4926 13.6891 99.4926 12.4945C99.4926 11.2905 99.8426 10.3245 100.543 9.59648C101.252 8.86848 102.162 8.50448 103.273 8.50448C104.206 8.50448 104.976 8.72848 105.583 9.17648C106.199 9.61515 106.614 10.2451 106.829 11.0665H105.107C104.817 10.2545 104.206 9.84848 103.273 9.84848C102.619 9.84848 102.097 10.0818 101.705 10.5485C101.322 11.0058 101.131 11.6498 101.131 12.4805C101.131 13.3111 101.322 13.9598 101.705 14.4265C102.097 14.8931 102.619 15.1265 103.273 15.1265C104.197 15.1265 104.808 14.7205 105.107 13.9085H106.829C106.605 14.6925 106.185 15.3178 105.569 15.7845C104.953 16.2418 104.187 16.4705 103.273 16.4705ZM110.015 16.3445H108.419V5.98448H110.015V12.0045L112.815 8.63048H115.027L111.471 12.4945L115.027 16.3445H112.871L110.015 13.0265V16.3445ZM126.934 16.3445L126.234 14.3565H122.16L121.46 16.3445H119.794L123.28 6.60048H125.128L128.614 16.3445H126.934ZM122.594 13.1105H125.8L124.204 8.53248L122.594 13.1105ZM129.22 8.63048H130.928L133.112 14.9165L135.296 8.63048H137.018L134.078 16.3445H132.146L129.22 8.63048ZM143.278 14.3845C143.745 13.9085 143.978 13.2738 143.978 12.4805C143.978 11.6871 143.745 11.0571 143.278 10.5905C142.821 10.1238 142.275 9.89048 141.64 9.89048C141.006 9.89048 140.455 10.1191 139.988 10.5765C139.531 11.0338 139.302 11.6591 139.302 12.4525C139.302 13.2458 139.531 13.8851 139.988 14.3705C140.455 14.8465 141.006 15.0845 141.64 15.0845C142.275 15.0845 142.821 14.8511 143.278 14.3845ZM141.304 16.4705C140.278 16.4705 139.414 16.0971 138.714 15.3505C138.014 14.5945 137.664 13.6331 137.664 12.4665C137.664 11.2905 138.01 10.3385 138.7 9.61048C139.4 8.87315 140.268 8.50448 141.304 8.50448C141.911 8.50448 142.443 8.64448 142.9 8.92448C143.367 9.19515 143.726 9.55448 143.978 10.0025V8.63048H145.588V16.3445H143.978V14.9025C143.717 15.3785 143.358 15.7611 142.9 16.0505C142.443 16.3305 141.911 16.4705 141.304 16.4705ZM149.505 6.58648C149.505 6.87582 149.407 7.11848 149.211 7.31448C149.015 7.51048 148.772 7.60848 148.483 7.60848C148.203 7.60848 147.965 7.51048 147.769 7.31448C147.573 7.11848 147.475 6.87582 147.475 6.58648C147.475 6.29715 147.573 6.05448 147.769 5.85848C147.965 5.66248 148.203 5.56448 148.483 5.56448C148.772 5.56448 149.015 5.66248 149.211 5.85848C149.407 6.05448 149.505 6.29715 149.505 6.58648ZM147.685 16.3445V8.63048H149.281V16.3445H147.685ZM151.376 16.3445V5.98448H152.972V16.3445H151.376ZM160.15 14.3845C160.616 13.9085 160.85 13.2738 160.85 12.4805C160.85 11.6871 160.616 11.0571 160.15 10.5905C159.692 10.1238 159.146 9.89048 158.512 9.89048C157.877 9.89048 157.326 10.1191 156.86 10.5765C156.402 11.0338 156.174 11.6591 156.174 12.4525C156.174 13.2458 156.402 13.8851 156.86 14.3705C157.326 14.8465 157.877 15.0845 158.512 15.0845C159.146 15.0845 159.692 14.8511 160.15 14.3845ZM158.176 16.4705C157.149 16.4705 156.286 16.0971 155.586 15.3505C154.886 14.5945 154.536 13.6331 154.536 12.4665C154.536 11.2905 154.881 10.3385 155.572 9.61048C156.272 8.87315 157.14 8.50448 158.176 8.50448C158.782 8.50448 159.314 8.64448 159.772 8.92448C160.238 9.19515 160.598 9.55448 160.85 10.0025V8.63048H162.46V16.3445H160.85V14.9025C160.588 15.3785 160.229 15.7611 159.772 16.0505C159.314 16.3305 158.782 16.4705 158.176 16.4705ZM170.142 14.3705C170.609 13.8851 170.842 13.2458 170.842 12.4525C170.842 11.6591 170.609 11.0338 170.142 10.5765C169.685 10.1191 169.134 9.89048 168.49 9.89048C167.855 9.89048 167.305 10.1238 166.838 10.5905C166.381 11.0571 166.152 11.6871 166.152 12.4805C166.152 13.2738 166.381 13.9085 166.838 14.3845C167.305 14.8511 167.855 15.0845 168.49 15.0845C169.125 15.0845 169.675 14.8465 170.142 14.3705ZM168.84 8.50448C169.876 8.50448 170.739 8.87315 171.43 9.61048C172.121 10.3385 172.466 11.2905 172.466 12.4665C172.466 13.6331 172.116 14.5945 171.416 15.3505C170.725 16.0971 169.867 16.4705 168.84 16.4705C168.233 16.4705 167.701 16.3305 167.244 16.0505C166.787 15.7611 166.423 15.3785 166.152 14.9025V16.3445H164.556V5.98448H166.152V10.0025C166.413 9.55448 166.773 9.19515 167.23 8.92448C167.697 8.64448 168.233 8.50448 168.84 8.50448ZM174.044 16.3445V5.98448H175.64V16.3445H174.044ZM180.984 16.4705C179.864 16.4705 178.954 16.1065 178.254 15.3785C177.554 14.6505 177.204 13.6845 177.204 12.4805C177.204 11.2765 177.558 10.3151 178.268 9.59648C178.977 8.86848 179.892 8.50448 181.012 8.50448C182.141 8.50448 183.056 8.85448 183.756 9.55448C184.456 10.2451 184.806 11.1505 184.806 12.2705C184.806 12.5411 184.787 12.7931 184.75 13.0265H178.842C178.879 13.6705 179.094 14.1838 179.486 14.5665C179.887 14.9398 180.386 15.1265 180.984 15.1265C181.852 15.1265 182.463 14.7671 182.818 14.0485H184.54C184.306 14.7578 183.882 15.3411 183.266 15.7985C182.65 16.2465 181.889 16.4705 180.984 16.4705ZM183.14 11.9345C183.13 11.2998 182.92 10.7958 182.51 10.4225C182.099 10.0398 181.6 9.84848 181.012 9.84848C180.424 9.84848 179.929 10.0398 179.528 10.4225C179.136 10.7958 178.912 11.2998 178.856 11.9345H183.14Z" fill="#FF0000"/>
<path d="M12.8823 1.39091C12.81 1.39478 12.7512 1.40999 12.6898 1.42133C12.5669 1.44401 12.448 1.4771 12.3209 1.51699C12.0663 1.59691 11.7853 1.70725 11.5059 1.81586C11.2266 1.9246 10.953 2.0328 10.7377 2.11125C10.6278 2.15142 10.5101 2.1769 10.4423 2.19291H10.4411C10.3731 2.1769 10.2577 2.15021 10.1504 2.11125C9.93517 2.0328 9.65939 1.92326 9.37999 1.81479C9.1006 1.70618 8.81508 1.59798 8.56051 1.51819C8.43323 1.4783 8.31675 1.44748 8.19388 1.42479C8.071 1.40211 7.96066 1.36075 7.7269 1.42946C7.49328 1.49818 7.41869 1.59144 7.32768 1.67696C7.23655 1.76249 7.15623 1.85362 7.07084 1.95595C6.8998 2.16075 6.71702 2.40466 6.54074 2.64707C6.36449 2.88963 6.19385 3.13246 6.05507 3.31485C5.98583 3.40612 5.90244 3.49231 5.85427 3.54261C5.78823 3.56556 5.67509 3.60678 5.56128 3.6324C5.33766 3.68284 5.04706 3.7374 4.75342 3.79704C4.45975 3.85682 4.16436 3.92033 3.90699 3.99091C3.77837 4.02613 3.65949 4.06376 3.54395 4.11112C3.4284 4.15848 3.317 4.1873 3.15757 4.37143C2.998 4.55555 2.98599 4.66936 2.95557 4.79052C2.92515 4.9118 2.90447 5.03535 2.88792 5.16771C2.8547 5.43242 2.83495 5.73354 2.81787 6.03268C2.80066 6.33195 2.78679 6.62734 2.76877 6.85578C2.75957 6.97212 2.73422 7.08953 2.72088 7.15811C2.67805 7.21295 2.6064 7.30888 2.52595 7.39054C2.36518 7.55371 2.1489 7.75703 1.93409 7.966C1.71928 8.17507 1.5042 8.38988 1.3258 8.58829C1.23668 8.68755 1.15809 8.78015 1.08644 8.88249C1.01479 8.98482 0.931942 9.07328 0.897382 9.31449C0.862693 9.55559 0.920331 9.65845 0.960359 9.7768C1.00039 9.89515 1.04749 10.0067 1.10512 10.127C1.2204 10.3676 1.36877 10.6342 1.51606 10.8951C1.66334 11.1561 1.81039 11.4135 1.91886 11.6155C1.97303 11.7165 2.01479 11.8284 2.04028 11.8934V11.8946C2.034 11.9645 2.0252 12.0849 2.00172 12.1969C1.95475 12.4212 1.88724 12.707 1.8196 12.9989C1.75195 13.2908 1.68377 13.5843 1.64094 13.8476C1.61946 13.9793 1.60265 14.1022 1.59771 14.2271C1.59278 14.352 1.56996 14.4678 1.67123 14.6894C1.77249 14.911 1.8771 14.9698 1.97476 15.0478C2.0723 15.1257 2.1741 15.1949 2.28764 15.2648C2.51472 15.4049 2.78144 15.5464 3.04642 15.6863C3.31153 15.8263 3.5769 15.9649 3.77719 16.0762C3.87953 16.133 3.97519 16.2048 4.03056 16.2443C4.06365 16.3065 4.11969 16.4101 4.16012 16.5163C4.24177 16.7305 4.33823 17.0128 4.4391 17.295C4.53997 17.5772 4.64324 17.8594 4.74971 18.1041C4.80295 18.2264 4.85565 18.3396 4.91903 18.4473C4.9824 18.5549 5.02923 18.6658 5.23417 18.7975C5.43911 18.9292 5.55359 18.9224 5.67779 18.9352C5.80201 18.948 5.92622 18.9516 6.05952 18.9492C6.32623 18.9443 6.62952 18.9198 6.92811 18.8944C7.22671 18.8687 7.5213 18.8378 7.74998 18.8231C7.86432 18.8158 7.9828 18.8244 8.05231 18.829C8.11262 18.8629 8.21843 18.9206 8.31262 18.99C8.49714 19.126 8.73131 19.3104 8.9688 19.4931C9.20629 19.6761 9.4451 19.8574 9.66698 20.0056C9.77786 20.0798 9.88473 20.1443 9.99614 20.2006C10.1077 20.2569 10.2032 20.3256 10.4468 20.3254C10.6905 20.3254 10.786 20.2581 10.8974 20.2018C11.0088 20.1453 11.1111 20.0798 11.222 20.0056C11.4437 19.8573 11.6886 19.6749 11.9259 19.4919C12.1633 19.309 12.3964 19.126 12.5809 18.9899C12.6731 18.9218 12.7772 18.8638 12.8377 18.8288C12.9073 18.8258 13.0271 18.8179 13.1435 18.8254C13.3722 18.8401 13.6644 18.8653 13.9632 18.8908C14.2618 18.9162 14.565 18.9396 14.8317 18.9444C14.9652 18.9468 15.087 18.9468 15.2112 18.9338C15.3354 18.9209 15.4557 18.9254 15.6607 18.7938C15.8656 18.6621 15.9067 18.5524 15.9701 18.4447C16.0333 18.337 16.0874 18.2238 16.1406 18.1014C16.2471 17.8571 16.3493 17.5763 16.45 17.2939C16.5509 17.0116 16.6485 16.7305 16.7302 16.5163C16.772 16.4071 16.8308 16.3011 16.8633 16.2397C16.9199 16.1982 17.0153 16.1273 17.1155 16.0716C17.3158 15.9602 17.5801 15.824 17.8452 15.684C18.1102 15.5439 18.3734 15.4016 18.6005 15.2613C18.7139 15.1913 18.8181 15.1234 18.9156 15.0453C19.0133 14.9674 19.1158 14.9098 19.2169 14.6882C19.318 14.4665 19.2954 14.3483 19.2904 14.2235C19.2855 14.0987 19.2687 13.9781 19.2472 13.8464C19.2044 13.5832 19.1377 13.2862 19.0697 12.9942C19.002 12.7022 18.9359 12.4176 18.8888 12.1933C18.8645 12.0779 18.8548 11.9574 18.848 11.8886C18.874 11.8236 18.9178 11.7126 18.9717 11.612C19.08 11.41 19.2273 11.1538 19.3745 10.8928C19.5216 10.6317 19.6679 10.3641 19.7832 10.1234C19.8407 10.0032 19.8915 9.89165 19.9314 9.77317C19.9713 9.65482 20.0233 9.55088 19.9886 9.3098C19.9538 9.06857 19.8723 8.98358 19.8006 8.88125C19.729 8.77904 19.6493 8.68285 19.5601 8.58358C19.3817 8.38518 19.1692 8.1749 18.9542 7.96597C18.7393 7.75703 18.5233 7.55128 18.3624 7.38812C18.2819 7.30659 18.2088 7.20893 18.1662 7.15343C18.1518 7.08538 18.1262 6.9689 18.1171 6.85456C18.0991 6.62614 18.0878 6.33074 18.0704 6.0316C18.0531 5.73233 18.0336 5.42772 18.0004 5.16301C17.984 5.03065 17.9619 4.90937 17.9315 4.78821C17.9011 4.66705 17.8915 4.55205 17.7319 4.36792C17.5724 4.1838 17.4564 4.15378 17.3409 4.10641C17.2252 4.05905 17.1052 4.02249 16.9765 3.98727C16.7193 3.91695 16.425 3.85544 16.1314 3.7958C15.8376 3.7363 15.5459 3.68159 15.3223 3.6313C15.2109 3.60621 15.0988 3.56405 15.0328 3.54017H15.0316V3.53897C14.984 3.48933 14.9014 3.40608 14.832 3.31482C14.6932 3.13243 14.5179 2.88947 14.3417 2.64703C14.1653 2.40473 13.9873 2.16071 13.8162 1.95591C13.7307 1.85358 13.6471 1.76245 13.5559 1.67693C13.4648 1.59153 13.3916 1.49681 13.1578 1.42823C13.0409 1.39394 12.9547 1.38713 12.8823 1.39087L12.8823 1.39091ZM8.07826 2.62374C8.12002 2.63455 8.14844 2.64362 8.20435 2.6611C8.40461 2.72381 8.67532 2.82361 8.94803 2.92968C9.22061 3.03562 9.49531 3.14462 9.73843 3.23322C9.9814 3.32181 10.0955 3.4108 10.4424 3.41067C10.7894 3.41053 10.9021 3.32421 11.1452 3.23548C11.3882 3.14689 11.6653 3.03682 11.9379 2.93075C12.2105 2.82467 12.4791 2.72034 12.6792 2.65763C12.7363 2.63975 12.7664 2.63455 12.8087 2.62374C12.838 2.65536 12.8613 2.67591 12.8987 2.7206C13.0331 2.88164 13.2065 3.1122 13.3785 3.34863C13.5506 3.58519 13.7216 3.83041 13.8781 4.0363C14.0346 4.24219 14.0836 4.37533 14.3754 4.56278C14.6673 4.75038 14.8096 4.73837 15.0619 4.79507C15.3142 4.85191 15.6065 4.90848 15.8931 4.96665C16.1797 5.02482 16.46 5.08406 16.6624 5.13943C16.72 5.15518 16.7482 5.17012 16.7897 5.18373C16.7974 5.22629 16.8046 5.25605 16.8118 5.31448C16.838 5.52263 16.8592 5.80814 16.876 6.10021C16.893 6.39228 16.9082 6.68995 16.9286 6.9477C16.9489 7.20547 16.9139 7.34302 17.0581 7.65869C17.2024 7.97424 17.3307 8.04189 17.5123 8.22613C17.6939 8.41038 17.9074 8.61534 18.1171 8.81918C18.3269 9.02303 18.5302 9.22704 18.6704 9.38303C18.7094 9.42639 18.7298 9.45121 18.7567 9.48457C18.7401 9.52486 18.7288 9.55435 18.7031 9.60825C18.6125 9.79744 18.4755 10.0504 18.3318 10.3052C18.1881 10.5599 18.0396 10.8186 17.9174 11.0465C17.7952 11.2744 17.6923 11.3721 17.643 11.7155C17.5937 12.059 17.6624 12.185 17.7154 12.4381C17.7685 12.6912 17.8406 12.9786 17.9068 13.2635C17.973 13.5483 18.0354 13.8304 18.0691 14.0375C18.0785 14.0956 18.0783 14.1263 18.0831 14.1694C18.0475 14.1941 18.0224 14.212 17.9722 14.2429C17.7938 14.3535 17.5434 14.4919 17.2848 14.6286C17.0261 14.7653 16.7625 14.9034 16.5364 15.0291C16.3104 15.1547 16.1682 15.1824 15.941 15.4447C15.7139 15.707 15.7075 15.851 15.6153 16.0926C15.5232 16.3342 15.4241 16.6145 15.3258 16.8899C15.2274 17.1654 15.1268 17.4342 15.0433 17.6267C15.0198 17.6808 15.0054 17.707 14.9861 17.7458C14.9428 17.7473 14.9131 17.7528 14.8541 17.7517C14.6444 17.7477 14.3553 17.725 14.0637 17.7002C13.7723 17.6754 13.4777 17.6455 13.2197 17.6289C12.9616 17.6125 12.8265 17.5626 12.4934 17.6604C12.1605 17.7584 12.0782 17.8735 11.8701 18.0271C11.6619 18.1805 11.4282 18.3645 11.1964 18.543C10.9648 18.7216 10.7346 18.8946 10.5603 19.0112C10.5105 19.0444 10.4822 19.0589 10.4447 19.0812C10.4078 19.0592 10.3811 19.0424 10.3327 19.01C10.1583 18.8934 9.92691 18.7215 9.69516 18.543C9.4634 18.3646 9.22978 18.1827 9.0215 18.0293C8.81322 17.876 8.72757 17.7582 8.39456 17.6604C8.06167 17.5627 7.9312 17.617 7.67315 17.6336C7.41498 17.6501 7.11811 17.6775 6.82672 17.7024C6.53534 17.7274 6.24966 17.7464 6.03994 17.7503C5.98096 17.7514 5.95001 17.7495 5.90678 17.748C5.8873 17.709 5.86876 17.6825 5.84487 17.6277C5.76122 17.4353 5.66315 17.1665 5.56469 16.8911C5.46622 16.6157 5.36736 16.3354 5.27516 16.0937C5.18297 15.8521 5.17563 15.7091 4.94828 15.4469C4.72106 15.1847 4.58137 15.1558 4.35522 15.0302C4.1292 14.9045 3.86207 14.7698 3.60338 14.6333C3.3448 14.4967 3.09315 14.3582 2.91465 14.248C2.86502 14.2174 2.84033 14.1977 2.80485 14.1733C2.80965 14.1299 2.81058 14.0992 2.82006 14.0402C2.85368 13.8332 2.91865 13.5523 2.9847 13.2673C3.05074 12.9825 3.11959 12.6916 3.17269 12.4385C3.22566 12.1853 3.29451 12.0616 3.24501 11.7181C3.19564 11.3747 3.09184 11.2748 2.96949 11.0469C2.84714 10.819 2.70118 10.5626 2.55736 10.3079C2.41367 10.0532 2.27571 9.80006 2.18499 9.61087C2.15964 9.55804 2.1467 9.53042 2.13015 9.49066C2.15764 9.4565 2.17752 9.42915 2.21768 9.38446C2.35791 9.22835 2.55911 9.02793 2.76872 8.82409C2.97833 8.62008 3.19434 8.41527 3.37578 8.23104C3.55721 8.0468 3.68345 7.98047 3.82756 7.66479C3.97167 7.34912 3.93804 7.21048 3.95831 6.95257C3.97859 6.6948 3.99647 6.39234 4.01315 6.10041C4.02983 5.80835 4.04664 5.52296 4.07266 5.31468C4.07986 5.25597 4.08827 5.22662 4.09601 5.18393C4.13723 5.17032 4.16499 5.15751 4.22209 5.1419C4.42449 5.08639 4.70482 5.02969 4.99139 4.97138C5.27798 4.91308 5.57379 4.85197 5.8261 4.79513C6.0784 4.73829 6.22077 4.75164 6.51257 4.56404C6.80463 4.37645 6.8524 4.24223 7.00889 4.03636C7.16539 3.8305 7.33778 3.58765 7.50976 3.35112C7.68174 3.11443 7.85159 2.88762 7.98607 2.72644C8.02449 2.68028 8.04851 2.65589 8.07826 2.62374ZM7.62877 7.03774C6.58352 7.03774 5.72695 7.89899 5.72695 8.9442C5.72695 9.98945 6.58352 10.8507 7.62877 10.8507C8.67401 10.8507 9.53403 9.98942 9.53403 8.9442C9.53403 7.89896 8.67398 7.03774 7.62877 7.03774ZM11.9659 7.15689H11.966C11.8588 7.15649 11.7534 7.18504 11.6609 7.23948C11.5685 7.29392 11.4924 7.37223 11.4406 7.46616L8.42741 12.6811C8.34402 12.8188 8.31974 12.9843 8.3599 13.1402C8.40006 13.2961 8.50146 13.4292 8.64102 13.5094C8.78071 13.5896 8.94669 13.61 9.10158 13.5663C9.25648 13.5224 9.38724 13.4179 9.46408 13.2765L12.4738 8.06149C12.5463 7.94048 12.5735 7.79772 12.5509 7.65855C12.5283 7.51926 12.4571 7.39264 12.3501 7.3007C12.243 7.20891 12.107 7.15794 11.966 7.15674L11.9659 7.15689ZM7.62877 8.23322C8.02785 8.23322 8.33857 8.54516 8.33857 8.94421C8.33857 9.34329 8.02782 9.65401 7.62877 9.65401C7.22971 9.65401 6.92242 9.34327 6.92242 8.94421C6.92242 8.54513 7.22969 8.23322 7.62877 8.23322ZM13.2724 10.4747C12.2271 10.4747 11.3659 11.336 11.3659 12.3812C11.3659 13.4264 12.2272 14.2876 13.2724 14.2876C14.3176 14.2876 15.1777 13.4264 15.1777 12.3812C15.1777 11.3359 14.3176 10.4747 13.2724 10.4747ZM13.2724 11.6714C13.6715 11.6714 13.9822 11.9821 13.9822 12.3812C13.9822 12.7803 13.6714 13.0922 13.2724 13.0922C12.8733 13.0922 12.5614 12.7802 12.5614 12.3812C12.5614 11.9821 12.8732 11.6714 13.2724 11.6714Z" fill="#FF0000"/>
</svg>
