<svg width="26" height="26" viewBox="0 0 26 26" fill="none" xmlns="http://www.w3.org/2000/svg">
<circle cx="12.542" cy="12.89" r="12.5" fill="#F4F6F8"/>
<path d="M16.9795 11.89C16.9795 15.39 12.5108 18.39 12.5108 18.39C12.5108 18.39 8.04199 15.39 8.04199 11.89C8.04199 10.6965 8.5128 9.55195 9.35086 8.70803C10.1889 7.86412 11.3255 7.39001 12.5108 7.39001C13.6959 7.39001 14.8326 7.86412 15.6706 8.70803C16.5087 9.55195 16.9795 10.6965 16.9795 11.89Z" stroke="#200E32" stroke-linecap="round" stroke-linejoin="round"/>
<path d="M12.4033 13.5775C13.2932 13.5775 14.0146 12.808 14.0146 11.8588C14.0146 10.9095 13.2932 10.14 12.4033 10.14C11.5134 10.14 10.792 10.9095 10.792 11.8588C10.792 12.808 11.5134 13.5775 12.4033 13.5775Z" stroke="#200E32" stroke-linecap="round" stroke-linejoin="round"/>
</svg>
