<svg width="11" height="13" viewBox="0 0 11 13" fill="none" xmlns="http://www.w3.org/2000/svg">
<path d="M10.4155 5.47533C10.4155 8.97537 5.94679 11.9753 5.94679 11.9753C5.94679 11.9753 1.47803 8.97537 1.47803 5.47533C1.47803 4.28187 1.94884 3.13728 2.78689 2.29336C3.62494 1.44945 4.76158 0.975342 5.94679 0.975342C7.13195 0.975342 8.2686 1.44945 9.10666 2.29336C9.94472 3.13728 10.4155 4.28187 10.4155 5.47533Z" stroke="#200E32" stroke-linecap="round" stroke-linejoin="round"/>
<path d="M5.83935 7.16284C6.72924 7.16284 7.45068 6.3933 7.45068 5.44408C7.45068 4.49486 6.72924 3.72534 5.83935 3.72534C4.94946 3.72534 4.22803 4.49486 4.22803 5.44408C4.22803 6.3933 4.94946 7.16284 5.83935 7.16284Z" stroke="#200E32" stroke-linecap="round" stroke-linejoin="round"/>
</svg>
