<svg width="27" height="27" viewBox="0 0 27 27" fill="none" xmlns="http://www.w3.org/2000/svg">
<circle cx="13.3418" cy="13.5573" r="12.8418" fill="#F4F6F8"/>
<path d="M8.24903 14.7071L8.32888 14.637L8.26479 14.564C8.13953 14.4211 8.08418 14.2405 8.0959 14.0645L8.09819 14.0438C8.11422 13.8748 8.19213 13.7109 8.32848 13.5913L14.6284 8.06633C14.7707 7.94148 14.9511 7.88634 15.1273 7.89789C15.3046 7.90973 15.4763 7.98793 15.6011 8.1303L18.4987 11.4343C18.6233 11.5764 18.6787 11.757 18.6672 11.9332C18.656 12.11 18.5778 12.282 18.435 12.4073L18.3551 12.4773L18.4192 12.5504C18.5445 12.6932 18.5998 12.8739 18.5883 13.0501C18.5768 13.2258 18.4983 13.3982 18.3554 13.5234L12.0559 19.0482C11.914 19.1726 11.7334 19.2279 11.557 19.2166L11.5551 19.2165C11.3791 19.2047 11.2073 19.1262 11.0831 18.9847L8.18512 15.6803C8.06073 15.5384 8.00539 15.3578 8.01668 15.1813L8.0168 15.1795C8.02882 15.0037 8.10725 14.8319 8.24881 14.7077L8.24903 14.7071ZM12.3412 13.0186C12.644 12.7531 13.0257 12.6355 13.398 12.6599C13.7703 12.6843 14.1334 12.8507 14.3989 13.1535C14.6645 13.4562 14.7821 13.838 14.7577 14.2103C14.7333 14.5826 14.5669 14.9457 14.2641 15.2112C13.9613 15.4768 13.5796 15.5944 13.2073 15.57C12.835 15.5456 12.4717 15.3789 12.2063 15.0764C11.9408 14.7736 11.8232 14.3919 11.8476 14.0196C11.872 13.6473 12.0387 13.284 12.3412 13.0186ZM13.3688 13.1042C13.1101 13.0872 12.845 13.1688 12.6347 13.3533C12.4243 13.5377 12.3086 13.7902 12.2916 14.0489C12.2746 14.3076 12.3562 14.5727 12.5407 14.7831C12.7252 14.9934 12.9776 15.1091 13.2363 15.1261C13.495 15.1431 13.7604 15.0613 13.9708 14.8768C14.1812 14.6923 14.2966 14.4401 14.3135 14.1814C14.3305 13.9227 14.2487 13.6573 14.0642 13.4469C13.8797 13.2366 13.6275 13.1211 13.3688 13.1042ZM8.66367 14.3438L14.5489 9.1825C14.6917 9.05723 14.8723 9.00189 15.0486 9.01339C15.2248 9.02494 15.3966 9.10342 15.5219 9.24626L18.0624 12.1431L18.1422 12.073C18.1924 12.029 18.2201 11.9679 18.2244 11.9054C18.229 11.8433 18.2091 11.779 18.1646 11.7283L15.267 8.42429C15.2225 8.37356 15.1616 8.3457 15.0994 8.34157C15.0374 8.33778 14.973 8.35743 14.9225 8.40171L8.62263 13.9267C8.57518 13.9683 8.5476 14.024 8.54106 14.0818L8.54067 14.0945C8.53659 14.1568 8.55604 14.221 8.60027 14.2714L8.66436 14.3445L8.66367 14.3438ZM8.54267 15.042C8.49194 15.0865 8.46382 15.1471 8.46003 15.209C8.45569 15.2719 8.47581 15.3359 8.5203 15.3867L8.96151 15.8898C9.05322 15.8227 9.13326 15.7422 9.19998 15.6517C9.29994 15.5165 9.36852 15.3582 9.39849 15.1889C9.42854 15.0191 9.41786 14.8463 9.37063 14.6852C9.34318 14.5921 9.30379 14.5022 9.25302 14.4189L8.54231 15.0422L8.54267 15.042ZM12.4732 18.0901C12.3973 18.0288 12.3133 17.9781 12.2247 17.939C12.0711 17.8712 11.9015 17.8383 11.729 17.8456C11.5572 17.8533 11.3912 17.9011 11.2442 17.9821C11.1458 18.0364 11.0556 18.1057 10.9771 18.1874L11.4183 18.6905C11.4628 18.7412 11.5234 18.7694 11.5854 18.7731C11.6482 18.7775 11.7123 18.7574 11.763 18.7129L12.4737 18.0896L12.4732 18.0901ZM10.683 17.8527C10.786 17.7499 10.9024 17.6629 11.0281 17.5934C11.2345 17.4799 11.4675 17.4128 11.7098 17.4019C11.9516 17.3915 12.1892 17.4376 12.4051 17.5329C12.5521 17.5977 12.6888 17.6857 12.8104 17.7944L17.0148 14.1071C16.9231 13.9726 16.8537 13.8252 16.8084 13.6713C16.7421 13.4447 16.7271 13.2029 16.7693 12.9648C16.8116 12.7259 16.9083 12.5035 17.0481 12.3139C17.1332 12.1983 17.2348 12.0942 17.3502 12.0055L15.9224 10.3775C15.8193 10.4803 15.7029 10.5673 15.5772 10.6367C15.3711 10.7505 15.1378 10.8173 14.8955 10.8282C14.654 10.8389 14.4161 10.7926 14.2002 10.6972C14.0535 10.6323 13.9168 10.5443 13.795 10.4357L9.59052 14.123C9.68248 14.2578 9.75187 14.4052 9.79693 14.5589C9.86324 14.7855 9.87795 15.027 9.83588 15.2652C9.79349 15.504 9.69705 15.7267 9.55704 15.916C9.47189 16.0316 9.37038 16.1357 9.25499 16.2244L10.683 17.8527ZM14.8426 9.51708L14.1321 10.1401C14.2081 10.2014 14.2919 10.2523 14.3807 10.2913C14.5343 10.359 14.7041 10.3922 14.8764 10.3846C15.0482 10.3769 15.2141 10.3296 15.3612 10.2482C15.4596 10.1938 15.5498 10.1245 15.6283 10.0428L15.1871 9.53973C15.1431 9.48953 15.0819 9.46187 15.0195 9.45756C14.9573 9.45348 14.8928 9.47306 14.8426 9.51708ZM17.352 13.8116L18.0624 13.1885C18.1126 13.1445 18.1406 13.0831 18.1446 13.0209C18.1487 12.9583 18.129 12.8943 18.085 12.8441L17.6438 12.341C17.5521 12.4081 17.472 12.4885 17.4053 12.579C17.3056 12.7144 17.2368 12.8725 17.2068 13.0418C17.177 13.2119 17.1874 13.3844 17.2347 13.5455C17.2621 13.6386 17.3014 13.728 17.352 13.8116Z" fill="black" stroke="black" stroke-width="0.2"/>
</svg>
