<svg id="Layer_1" data-name="Layer 1" xmlns="http://www.w3.org/2000/svg" viewBox="0 0 124 102.49"><defs><style>.cls-1{fill:#ddfedd;}.cls-2{fill:#ffd6d6;}.cls-3{fill:#baeeba;}.cls-4{fill:#f9fabf;}.cls-5{fill:none;}.cls-6{fill:#94ec98;fill-rule:evenodd;}</style></defs><circle class="cls-1" cx="57.92" cy="50.88" r="50.88"/><circle class="cls-2" cx="115" cy="12.49" r="9"/><circle class="cls-3" cx="14" cy="83.49" r="9"/><circle class="cls-4" cx="119" cy="34.49" r="5"/><circle class="cls-4" cx="5" cy="29.49" r="5"/><circle class="cls-4" cx="28" cy="97.49" r="5"/><rect class="cls-5" x="35" y="27.49" width="47" height="47"/><path class="cls-6" d="M68.53,43.82c-6.82,7.73-12.79,14.29-13.28,14.59S52,56.89,49,54.37c-5.77-4.94-7.52-5.46-10-3s-2,3.73,4.77,12.08c7.66,9.48,9,10.69,11.36,9.93,1.59-.52,26.3-39,27.12-42.29s-2.14-.4-13.75,12.75" transform="translate(-2 -0.95)"/></svg>