<svg width="375" height="543" viewBox="0 0 375 543" fill="none" xmlns="http://www.w3.org/2000/svg">
<g clip-path="url(#clip0_592_1710)">
<g clip-path="url(#clip1_592_1710)">
<path d="M408 -1H-109V555H408V-1Z" fill="url(#paint0_linear_592_1710)"/>
<g clip-path="url(#clip2_592_1710)">
<path d="M30.0319 320.354C30.0319 320.354 33.8521 379.542 33.2887 395L41.739 393.815C41.739 393.815 35.4717 326.191 33.2183 320.54C33.2183 320.54 37.7251 319.788 42.6016 322.804L41.0964 319.974C41.0964 319.974 46.1665 320.354 49.9163 326.199L49.353 322.804C49.353 322.804 54.7928 324.316 59.2996 332.23C59.2996 332.23 59.2996 324.307 54.6079 318.656C49.9163 313.005 34.3362 316.392 33.0247 317.338C33.0247 317.338 34.8996 313.571 40.9115 311.493L36.9681 310.927C36.9681 310.927 39.2215 306.214 50.4797 307.531L47.2932 305.453C47.2932 305.453 57.2398 302.438 64 309.415C64 309.415 57.6183 298.67 47.2932 296.212C36.9769 293.762 30.9649 312.996 30.9649 312.996C30.9649 312.996 23.4566 301.872 16.5115 301.491C9.56652 301.12 3 312.625 3 312.625C3 312.625 7.31313 309.415 11.0717 308.858L9.94502 312.254C9.94502 312.254 14.2582 309.238 20.0765 310.175L16.6964 312.439C16.6964 312.439 22.6996 311.688 27.9545 317.904C27.9545 317.904 16.133 319.222 12.1896 324.696C8.24618 330.161 12.3745 337.333 12.3745 337.333C12.3745 337.333 13.5012 331.107 15.0063 329.038L15.3848 333.937C15.3848 333.937 17.4534 328.278 20.8247 326.014L21.388 330.161C21.3968 330.161 25.71 321.291 30.0319 320.354Z" fill="#BADE93"/>
<path d="M37.8306 377.765C37.8306 377.765 42.0382 379.286 44.5644 385.706C44.5644 385.706 44.2299 377.933 40.3569 372.689C40.3569 372.689 45.0661 375.395 46.0784 381.479L46.7474 367.957C46.7474 367.957 50.1099 375.059 48.5959 382.151C48.5959 382.151 56.1659 371.84 61.0423 370.823C61.0423 370.823 53.6396 379.277 51.1133 384.848C51.1133 384.848 55.4881 380.621 63.5598 379.604C63.5598 379.604 53.9741 384.848 53.1291 387.89C53.1291 387.89 58.8506 386.033 63.727 386.705C63.727 386.705 54.4758 390.083 52.284 392.789L41.7653 393.886C41.7653 393.886 39.8288 388.058 36.8008 386.192C36.8008 386.192 41.3428 387.209 42.355 389.234C43.3673 391.259 42.6895 389.906 42.6895 389.906C42.6895 389.906 39.0102 379.79 37.8306 377.765Z" fill="#BADE93"/>
</g>
<path d="M230.272 324H157V387H230.272V324Z" fill="url(#paint1_linear_592_1710)"/>
<path d="M230.272 340.721H157V347.169H230.272V340.721Z" fill="#D0F4D4"/>
<path d="M230.272 341.903H157V345.986H230.272V341.903Z" fill="url(#paint2_linear_592_1710)"/>
<path d="M230.272 349.336H226.47V355.783H230.272V349.336Z" fill="#D0F4D4"/>
<path d="M230.272 350.517H226.47V354.6H230.272V350.517Z" fill="url(#paint3_linear_592_1710)"/>
<path d="M160.821 349.336H157.019V355.783H160.821V349.336Z" fill="#D0F4D4"/>
<path d="M160.821 350.517H157.019V354.6H160.821V350.517Z" fill="url(#paint4_linear_592_1710)"/>
<path d="M221.107 349.336H187.978V355.783H221.107V349.336Z" fill="#D0F4D4"/>
<path d="M221.107 350.517H187.978V354.6H221.107V350.517Z" fill="url(#paint5_linear_592_1710)"/>
<path d="M182.251 349.336H166.413V378.555H182.251V349.336Z" fill="url(#paint6_linear_592_1710)"/>
<path d="M180.961 350.517H167.702V377.372H180.961V350.517Z" fill="#BDE9B9"/>
<path d="M164.29 352.278C164.404 352.142 164.475 351.969 164.475 351.778C164.475 351.348 164.127 350.997 163.695 350.997C163.266 350.997 162.916 351.346 162.916 351.778C162.916 351.97 162.987 352.142 163.101 352.278C162.684 352.493 162.4 352.929 162.4 353.431C162.4 354.149 162.979 354.73 163.695 354.73C164.411 354.73 164.991 354.149 164.991 353.431C164.991 352.929 164.706 352.495 164.29 352.278Z" fill="#D0F4D4"/>
<path opacity="0.5" d="M180.06 351.419H168.603V376.754H180.06V351.419Z" fill="#E9FCC9"/>
<path d="M170.795 356.055C170.898 355.936 170.963 355.783 170.963 355.615C170.963 355.236 170.647 354.929 170.259 354.929C169.869 354.929 169.555 355.236 169.555 355.615C169.555 355.783 169.619 355.935 169.722 356.055C169.346 356.245 169.088 356.627 169.088 357.068C169.088 357.698 169.613 358.21 170.259 358.21C170.907 358.21 171.43 357.698 171.43 357.068C171.43 356.627 171.172 356.245 170.795 356.055Z" fill="#BADEA6"/>
<path d="M173.565 356.055C173.667 355.936 173.732 355.783 173.732 355.615C173.732 355.236 173.416 354.929 173.028 354.929C172.638 354.929 172.324 355.236 172.324 355.615C172.324 355.783 172.388 355.935 172.491 356.055C172.115 356.245 171.857 356.627 171.857 357.068C171.857 357.698 172.382 358.21 173.028 358.21C173.676 358.21 174.199 357.698 174.199 357.068C174.199 356.627 173.941 356.245 173.565 356.055Z" fill="#BADEA6"/>
<path d="M176.231 356.055C176.333 355.936 176.399 355.783 176.399 355.615C176.399 355.236 176.083 354.929 175.693 354.929C175.303 354.929 174.989 355.236 174.989 355.615C174.989 355.783 175.053 355.935 175.156 356.055C174.78 356.245 174.522 356.627 174.522 357.068C174.522 357.698 175.047 358.21 175.693 358.21C176.341 358.21 176.864 357.698 176.864 357.068C176.865 356.627 176.608 356.245 176.231 356.055Z" fill="#BADEA6"/>
<path d="M178.936 356.055C179.038 355.936 179.104 355.783 179.104 355.615C179.104 355.236 178.788 354.929 178.4 354.929C178.01 354.929 177.694 355.236 177.694 355.615C177.694 355.783 177.758 355.935 177.861 356.055C177.485 356.245 177.227 356.627 177.227 357.068C177.227 357.698 177.752 358.21 178.398 358.21C179.044 358.21 179.569 357.698 179.569 357.068C179.571 356.627 179.313 356.245 178.936 356.055Z" fill="#BADEA6"/>
<path d="M162.875 353.389C162.875 352.934 163.242 352.566 163.696 352.566C164.149 352.566 164.517 352.934 164.517 353.389C164.517 353.844 164.149 354.212 163.696 354.212C163.242 354.212 162.875 353.844 162.875 353.389Z" fill="#A5D389" fill-opacity="0.5"/>
<path d="M167.95 351.615C167.95 351.16 168.317 350.792 168.771 350.792C169.224 350.792 169.592 351.16 169.592 351.615C169.592 352.07 169.224 352.438 168.771 352.438C168.317 352.438 167.95 352.07 167.95 351.615Z" fill="#A5D389"/>
<path d="M179.069 351.615C179.069 351.16 179.437 350.792 179.891 350.792C180.344 350.792 180.712 351.16 180.712 351.615C180.712 352.07 180.344 352.438 179.891 352.438C179.437 352.438 179.069 352.07 179.069 351.615Z" fill="#A5D389"/>
<path d="M168.771 377.098C169.224 377.098 169.592 376.729 169.592 376.274C169.592 375.82 169.224 375.451 168.771 375.451C168.317 375.451 167.95 375.82 167.95 376.274C167.95 376.729 168.317 377.098 168.771 377.098Z" fill="#A5D389"/>
<path d="M169.568 370.955C169.568 370.687 169.785 370.472 170.05 370.472C170.317 370.472 170.532 370.689 170.532 370.955C170.532 371.222 170.315 371.438 170.05 371.438C169.783 371.438 169.568 371.221 169.568 370.955Z" fill="#C1E8AA"/>
<path d="M178.125 370.955C178.125 370.687 178.342 370.472 178.607 370.472C178.874 370.472 179.089 370.689 179.089 370.955C179.089 371.222 178.873 371.438 178.607 371.438C178.342 371.438 178.125 371.221 178.125 370.955Z" fill="#C1E8AA"/>
<path d="M179.891 377.098C180.344 377.098 180.712 376.729 180.712 376.274C180.712 375.82 180.344 375.451 179.891 375.451C179.437 375.451 179.069 375.82 179.069 376.274C179.069 376.729 179.437 377.098 179.891 377.098Z" fill="#A5D389"/>
<path d="M185.519 352.278C185.633 352.142 185.704 351.969 185.704 351.778C185.704 351.348 185.356 350.997 184.924 350.997C184.495 350.997 184.145 351.346 184.145 351.778C184.145 351.97 184.216 352.142 184.33 352.278C183.914 352.493 183.629 352.929 183.629 353.431C183.629 354.149 184.208 354.73 184.924 354.73C185.64 354.73 186.22 354.149 186.22 353.431C186.22 352.929 185.935 352.495 185.519 352.278Z" fill="#D0F4D4"/>
<path d="M184.925 354.212C185.378 354.212 185.746 353.844 185.746 353.389C185.746 352.935 185.378 352.566 184.925 352.566C184.471 352.566 184.104 352.935 184.104 353.389C184.104 353.844 184.471 354.212 184.925 354.212Z" fill="#7FDF7F" fill-opacity="0.5"/>
<path d="M223.89 352.281C224.004 352.146 224.075 351.972 224.075 351.782C224.075 351.351 223.727 351 223.296 351C222.866 351 222.516 351.349 222.516 351.782C222.516 351.973 222.587 352.146 222.701 352.281C222.285 352.496 222 352.932 222 353.434C222 354.152 222.58 354.733 223.296 354.733C224.011 354.733 224.591 354.152 224.591 353.434C224.591 352.932 224.306 352.498 223.89 352.281Z" fill="#D0F4D4"/>
<path d="M223.296 354.216C223.749 354.216 224.117 353.847 224.117 353.392C224.117 352.938 223.749 352.569 223.296 352.569C222.842 352.569 222.475 352.938 222.475 353.392C222.475 353.847 222.842 354.216 223.296 354.216Z" fill="#7FDF7F" fill-opacity="0.5"/>
<path d="M181.176 353.501H167.487V354.401H181.176V353.501Z" fill="#B1DFAD"/>
<path d="M181.176 358.737H167.487V359.638H181.176V358.737Z" fill="#B1DFAD"/>
<path d="M181.176 363.974H167.487V364.874H181.176V363.974Z" fill="#B1DFAD"/>
<path d="M181.176 369.209H167.487V370.109H181.176V369.209Z" fill="#B1DFAD"/>
<path d="M178.611 370.472H170.05V371.438H178.611V370.472Z" fill="#C1E8AA"/>
<path d="M169.568 372.305C169.568 372.038 169.785 371.822 170.05 371.822C170.317 371.822 170.532 372.039 170.532 372.305C170.532 372.573 170.315 372.788 170.05 372.788C169.783 372.788 169.568 372.573 169.568 372.305Z" fill="#C1E8AA"/>
<path d="M178.125 372.305C178.125 372.038 178.342 371.822 178.607 371.822C178.874 371.822 179.089 372.039 179.089 372.305C179.089 372.573 178.873 372.788 178.607 372.788C178.342 372.788 178.125 372.573 178.125 372.305Z" fill="#C1E8AA"/>
<path d="M178.611 371.822H170.05V372.788H178.611V371.822Z" fill="#C1E8AA"/>
<path d="M169.568 373.656C169.568 373.389 169.785 373.173 170.05 373.173C170.317 373.173 170.532 373.39 170.532 373.656C170.532 373.924 170.315 374.139 170.05 374.139C169.783 374.141 169.568 373.924 169.568 373.656Z" fill="#C1E8AA"/>
<path d="M178.125 373.656C178.125 373.389 178.342 373.173 178.607 373.173C178.874 373.173 179.089 373.39 179.089 373.656C179.089 373.924 178.873 374.139 178.607 374.139C178.342 374.141 178.125 373.924 178.125 373.656Z" fill="#C1E8AA"/>
<path d="M178.611 373.173H170.05V374.139H178.611V373.173Z" fill="#C1E8AA"/>
<path d="M181.176 374.445H167.487V375.346H181.176V374.445Z" fill="#C1E8AA"/>
<path d="M169.088 367.056C169.088 365.937 169.994 365.029 171.11 365.029C172.226 365.029 173.132 365.937 173.132 367.056C173.132 368.174 172.226 369.082 171.11 369.082C169.992 369.082 169.088 368.174 169.088 367.056Z" fill="#C1E8AA"/>
<path d="M175.531 367.027C175.531 365.908 176.437 365 177.553 365C178.669 365 179.575 365.908 179.575 367.027C179.575 368.146 178.669 369.054 177.553 369.054C176.437 369.054 175.531 368.146 175.531 367.027Z" fill="#C1E8AA"/>
<path d="M170.492 378.555C170.492 378.555 168.443 387 167.094 387H181.303C181.303 387 178.257 381.313 178.291 378.555H170.492Z" fill="url(#paint7_linear_592_1710)"/>
<path d="M177.891 363.565H170.772L169.088 361.664L170.772 359.933H177.891L179.575 361.749L177.891 363.565Z" fill="#C1E8AA"/>
</g>
<path opacity="0.42" d="M242.698 301.729V406.988H270.778V301.729H242.698ZM248.862 372.437H246.7V368.208H248.862V372.437ZM248.862 309.446H246.7V305.217H248.862V309.446ZM254.212 401.225H252.05V396.996H254.212V401.225ZM254.212 379.634H252.05V375.405H254.212V379.634ZM254.212 372.437H252.05V368.208H254.212V372.437ZM254.212 343.65H252.05V339.421H254.212V343.65ZM254.212 336.453H252.05V332.224H254.212V336.453ZM254.212 329.256H252.05V325.027H254.212V329.256ZM254.212 322.059H252.05V317.83H254.212V322.059ZM260.018 379.634H257.856V375.405H260.018V379.634ZM260.018 372.437H257.856V368.208H260.018V372.437ZM260.018 365.24H257.856V361.011H260.018V365.24ZM260.018 358.044H257.856V353.814H260.018V358.044ZM266.973 401.225H264.811V396.996H266.973V401.225ZM266.973 394.028H264.811V389.799H266.973V394.028ZM266.973 386.831H264.811V382.602H266.973V386.831ZM266.973 379.634H264.811V375.405H266.973V379.634ZM266.973 372.437H264.811V368.208H266.973V372.437ZM266.973 365.24H264.811V361.011H266.973V365.24ZM266.973 358.044H264.811V353.814H266.973V358.044ZM266.973 350.847H264.811V346.617H266.973V350.847ZM266.973 343.65H264.811V339.421H266.973V343.65ZM266.973 336.453H264.811V332.224H266.973V336.453ZM266.973 309.446H264.811V305.217H266.973V309.446Z" fill="url(#paint8_linear_592_1710)"/>
<path opacity="0.61" d="M374.269 267.439V271.421H341.086V267.439H336.354V323.592H341.086H374.269H379V267.439H374.269ZM371.267 313.712H344.088V311.968H371.267V313.712ZM371.267 299.664H344.088V297.921H371.267V299.664ZM371.267 296.672H344.088V294.928H371.267V296.672ZM371.267 293.679H344.088V291.936H371.267V293.679ZM371.267 280.646H344.088V278.902H371.267V280.646ZM371.267 277.641H344.088V275.897H371.267V277.641Z" fill="url(#paint9_linear_592_1710)"/>
<path d="M277.87 271.099V371.374H331.573V271.099H277.87ZM284.48 365.067H282.54V277.406H284.48V365.067ZM288.272 365.067H286.333V277.406H288.272V365.067ZM292.077 365.067H290.138V277.406H292.077V365.067ZM295.87 365.067H293.93V277.406H295.87V365.067ZM299.675 365.067H297.735V277.406H299.675V365.067ZM303.468 365.067H301.528V277.406H303.468V365.067ZM307.273 365.067H305.333V277.406H307.273V365.067ZM311.065 365.067H309.126V277.406H311.065V365.067ZM314.87 365.067H312.931V277.406H314.87V365.067ZM318.663 365.067H316.724V277.406H318.663V365.067ZM322.468 365.067H320.529V277.406H322.468V365.067ZM326.261 365.067H324.321V277.406H326.261V365.067Z" fill="url(#paint10_linear_592_1710)"/>
<path d="M148.022 233C127.946 237.192 107.229 237.192 87.1533 233V404.712H148.022V233ZM97.3825 354.371H91.9714V352.553H97.3825V354.371ZM97.3825 350.043H91.9714V348.225H97.3825V350.043ZM97.3825 345.715H91.9714V343.897H97.3825V345.715ZM97.3825 341.387H91.9714V339.569H97.3825V341.387ZM97.3825 337.059H91.9714V335.241H97.3825V337.059ZM97.3825 332.731H91.9714V330.913H97.3825V332.731ZM97.3825 328.403H91.9714V326.585H97.3825V328.403ZM97.3825 324.075H91.9714V322.257H97.3825V324.075ZM97.3825 319.746H91.9714V317.929H97.3825V319.746ZM97.3825 315.431H91.9714V313.613H97.3825V315.431ZM97.3825 311.103H91.9714V309.285H97.3825V311.103ZM97.3825 306.775H91.9714V304.957H97.3825V306.775ZM106.327 398.158H100.916V396.341H106.327V398.158ZM106.327 393.83H100.916V392.013H106.327V393.83ZM106.327 389.515H100.916V387.697H106.327V389.515ZM106.327 385.187H100.916V383.369H106.327V385.187ZM106.327 380.859H100.916V379.041H106.327V380.859ZM106.327 376.531H100.916V374.713H106.327V376.531ZM106.327 372.202H100.916V370.385H106.327V372.202ZM120.287 389.515H114.876V387.697H120.287V389.515ZM120.287 385.187H114.876V383.369H120.287V385.187ZM120.287 380.859H114.876V379.041H120.287V380.859ZM120.287 354.371H114.876V352.553H120.287V354.371ZM120.287 350.043H114.876V348.225H120.287V350.043ZM120.287 345.715H114.876V343.897H120.287V345.715ZM120.287 341.387H114.876V339.569H120.287V341.387ZM120.287 337.059H114.876V335.241H120.287V337.059ZM120.287 332.731H114.876V330.913H120.287V332.731ZM120.287 328.403H114.876V326.585H120.287V328.403ZM120.287 324.075H114.876V322.257H120.287V324.075ZM112.529 286.198L92.7868 245.551C92.7868 245.551 101.472 242.287 117.594 242.287C133.716 242.287 142.401 245.551 142.401 245.551L122.646 286.198C120.682 290.563 114.493 290.563 112.529 286.198ZM130.442 358.687H125.031V356.869H130.442V358.687ZM130.442 354.371H125.031V352.553H130.442V354.371ZM130.442 350.043H125.031V348.225H130.442V350.043ZM130.442 345.715H125.031V343.897H130.442V345.715ZM130.442 341.387H125.031V339.569H130.442V341.387ZM130.442 337.059H125.031V335.241H130.442V337.059ZM130.442 332.731H125.031V330.913H130.442V332.731ZM130.442 328.403H125.031V326.585H130.442V328.403ZM140.498 305.86H135.087V304.042H140.498V305.86ZM140.498 301.532H135.087V299.714H140.498V301.532ZM140.498 297.204H135.087V295.386H140.498V297.204ZM140.498 292.888H135.087V291.07H140.498V292.888Z" fill="url(#paint11_linear_592_1710)"/>
<path d="M375 379.029V448.006C375 448.006 29.1708 419.824 77.6617 408.97C171.778 387.898 227.42 354.577 272.624 354.006C281.526 353.89 290.019 355.051 298.331 357.815C360.438 378.536 375 379.029 375 379.029Z" fill="url(#paint12_linear_592_1710)"/>
<path d="M375 379.029V394.743C364.801 395.865 363.667 396.15 343.833 394.626C287.582 390.299 274.978 361.545 272.624 354.013C281.526 353.896 290.02 355.057 298.332 357.821C360.438 378.536 375 379.029 375 379.029Z" fill="url(#paint13_linear_592_1710)"/>
<path d="M375 461.022V588H0V375.072C0 375.072 16.665 351.21 28.22 337.566C29.025 336.607 30.065 337.122 31.1 337.278C51.61 340.261 100.275 437.531 216.575 466.856C268.425 479.925 306.625 479.302 333.42 474.259C369.74 467.443 375 461.022 375 461.022Z" fill="url(#paint14_linear_592_1710)"/>
<path d="M398 454C367.218 461.169 317.5 518.818 124.583 442.92C20.1473 401.832 26.891 346.188 28.7923 337.016C55.1639 339.793 116.067 409.062 265.375 433.434C331.941 444.289 363.381 456.593 398 454Z" fill="url(#paint15_linear_592_1710)"/>
<path d="M353.96 485.582C353.517 489.288 352.886 493.082 353.752 496.709C354.195 498.556 355.02 500.383 354.805 502.27C354.597 504.116 353.423 505.709 352.893 507.489C352.557 508.633 352.483 509.837 352.215 510.995C351.94 512.153 351.409 513.33 350.409 513.979C349.396 514.642 348.101 514.648 346.893 514.628C346.081 514.615 345.269 514.602 344.463 514.595C344.322 514.595 344.168 514.588 344.04 514.515C343.698 514.32 343.779 513.805 343.933 513.444C344.946 511.022 346.913 509.155 348.604 507.141C350.289 505.127 351.792 502.671 351.544 500.055C351.396 498.482 350.624 497.05 349.92 495.632C347.195 490.152 345.208 484.176 345.222 478.061C345.222 477.485 345.255 476.863 345.611 476.415C345.913 476.033 346.383 475.832 346.846 475.672C348.926 474.936 352.718 473.457 353.624 476.18C354.618 479.165 354.329 482.51 353.96 485.582Z" fill="url(#paint16_linear_592_1710)"/>
<path d="M326.993 495.143C327.067 495.859 327.148 496.582 327.067 497.298C326.98 498.101 326.685 498.87 326.477 499.653C325.403 503.628 326.443 507.857 327.92 511.698C328.141 512.273 328.376 512.862 328.383 513.477C328.389 514.093 328.128 514.755 327.571 515.036C327.195 515.224 326.752 515.21 326.329 515.19C325.349 515.137 324.369 515.057 323.389 514.949C322.879 514.896 322.329 514.816 321.96 514.461C321.222 513.765 321.618 512.554 321.973 511.604C323.141 508.539 323.403 505.14 322.718 501.935C322.329 500.108 321.638 498.315 321.644 496.448C321.644 495.465 321.846 494.494 321.846 493.511C321.846 491.871 321.309 490.285 320.779 488.733C319.483 484.953 318.483 481.279 317.852 477.325C317.577 475.625 317.416 473.691 318.53 472.38C319.161 471.63 320.108 471.222 321.067 471.015C322.953 470.607 325.141 471.008 326.383 472.48C328.691 475.217 327.389 479.124 327.054 482.209C326.591 486.498 326.564 490.841 326.993 495.143Z" fill="url(#paint17_linear_592_1710)"/>
<path d="M355.879 458.643C354.175 457.686 352.309 457.023 350.658 455.986C348.664 454.735 347.047 452.975 345.356 451.342C343.664 449.71 341.805 448.137 339.564 447.408C337.322 446.679 334.611 446.96 332.973 448.639C332.128 449.509 331.631 450.66 330.846 451.59C330.047 452.533 328.987 453.203 327.993 453.939C325.154 456.066 322.826 458.87 321.262 462.048C320.678 463.233 319.872 464.685 318.55 464.598C317.698 464.544 317.054 463.828 316.523 463.152C314.087 460.041 311.933 456.421 311.96 452.473C311.98 449.783 313.02 447.194 313.174 444.511C313.329 441.827 312.174 438.689 309.57 438C309.564 439.03 309.557 440.068 309.55 441.098C306.557 440.556 303.523 440.188 300.49 440.007C299.02 439.94 297.517 439.9 296.148 440.395C294.423 441.031 293 442.657 293 444.491C293 446.324 294.725 448.077 296.537 447.789C297.101 447.702 297.664 447.441 298.208 447.582C298.544 447.669 298.819 447.896 299.087 448.117C300.678 449.442 302.309 450.807 303.302 452.62C304.389 454.608 304.611 456.936 304.933 459.185C305.611 463.975 306.96 468.914 310.309 472.413C311.517 473.678 312.96 474.715 314.47 475.598C319.805 478.716 326.081 479.954 332.262 480.101C338.443 480.249 344.597 479.352 350.718 478.449C352.503 478.188 354.315 477.92 355.987 477.244C358.779 476.12 364.141 472.366 363.805 468.927C363.409 464.778 359.309 460.57 355.879 458.643Z" fill="url(#paint18_linear_592_1710)"/>
<path d="M363.826 468.238C365.282 473.424 365.383 478.977 364.121 484.217C363.45 486.987 362.403 489.77 362.732 492.601C362.893 493.972 363.376 495.291 363.47 496.669C363.644 499.138 362.551 501.533 362.403 504.003C362.188 507.536 363.879 510.874 364.564 514.347C364.638 514.729 364.685 515.177 364.423 515.465C364.228 515.679 363.913 515.732 363.624 515.772C362.342 515.946 361.047 516.033 359.759 516.02C359.423 516.013 359.074 516 358.792 515.826C358.228 515.478 358.168 514.689 358.235 514.026C358.524 510.908 359.953 507.95 359.98 504.819C360 502.109 358.967 499.419 359.349 496.736C359.517 495.565 359.946 494.447 360.168 493.283C360.819 489.911 359.671 486.425 358.014 483.42C356.611 480.878 354.779 478.415 354.524 475.525C354.208 471.985 356.383 468.646 359.061 466.291C361.363 464.256 363.101 465.642 363.826 468.238Z" fill="url(#paint19_linear_592_1710)"/>
<path d="M337.537 495.143C337.611 495.859 337.691 496.582 337.611 497.298C337.523 498.101 337.228 498.87 337.02 499.653C335.946 503.628 336.987 507.857 338.463 511.698C338.685 512.273 338.919 512.862 338.926 513.477C338.933 514.093 338.671 514.755 338.114 515.036C337.738 515.224 337.295 515.21 336.872 515.19C335.893 515.137 334.913 515.057 333.933 514.949C333.423 514.896 332.872 514.816 332.503 514.461C331.765 513.765 332.161 512.554 332.517 511.604C333.685 508.539 333.946 505.14 333.262 501.935C332.872 500.108 332.181 498.315 332.188 496.448C332.188 495.465 332.389 494.494 332.389 493.511C332.389 491.871 331.852 490.285 331.322 488.733C330.711 486.953 330.101 485.173 329.49 483.387C328.242 479.74 327.919 476.481 329.134 472.694C329.711 470.894 330.631 469.128 332.141 467.977C333.651 466.833 335.846 466.445 337.47 467.421C338.879 468.265 339.611 469.951 339.718 471.59C339.825 473.229 339.409 474.849 338.993 476.441C338.255 479.272 337.188 482.082 337.322 484.999C337.497 488.378 337.201 491.737 337.537 495.143Z" fill="url(#paint20_linear_592_1710)"/>
<path d="M304.222 442.818C304.457 443.547 305.114 444.122 305.866 444.256C306.624 444.39 307.443 444.082 307.913 443.48" stroke="#294C47" stroke-width="0.8978" stroke-miterlimit="10" stroke-linecap="round"/>
<path d="M294.295 447.04C295.275 447.682 296.564 447.676 297.691 447.354C298.765 447.047 299.758 446.471 300.557 445.695" stroke="#294C47" stroke-width="0.8978" stroke-miterlimit="10" stroke-linecap="round"/>
<path d="M294.416 442.771C294.382 442.383 294.476 441.995 294.631 441.633C294.752 441.352 294.913 441.078 295.154 440.884C295.396 440.69 295.718 440.583 296.013 440.656C296.288 440.723 296.503 440.937 296.684 441.152C296.866 441.372 297.027 441.607 297.161 441.861" stroke="#294C47" stroke-width="0.8978" stroke-miterlimit="10" stroke-linecap="round"/>
<path d="M295.409 442.764C295.463 442.65 295.463 442.523 295.503 442.403C295.537 442.282 295.624 442.162 295.745 442.142C295.926 442.115 296.047 442.309 296.121 442.476" stroke="#294C47" stroke-width="0.8978" stroke-miterlimit="10" stroke-linecap="round"/>
<path d="M301.725 440.007C302.51 442.296 302.611 444.818 302.014 447.16C301.779 448.07 301.416 448.994 300.718 449.629" stroke="#294C47" stroke-width="0.8978" stroke-miterlimit="10" stroke-linecap="round"/>
<path d="M303.624 453.611C306.302 452.446 309.268 451.951 312.181 452.179" stroke="#294C47" stroke-width="0.8978" stroke-miterlimit="10" stroke-linecap="round"/>
<path d="M302.054 447.127C303.691 454.842 301.879 463.119 304.43 470.58C304.866 471.858 305.436 473.109 306.336 474.119C307.235 475.123 308.497 475.866 309.846 475.906C311.148 475.946 312.409 475.337 313.362 474.447C314.315 473.557 314.987 472.42 315.544 471.242C316.544 469.114 317.181 466.826 317.436 464.491C317.503 463.875 317.53 463.213 317.201 462.691C316.873 462.169 316.04 461.935 315.624 462.396" stroke="#294C47" stroke-width="0.8978" stroke-miterlimit="10" stroke-linecap="round"/>
<path d="M323.765 512.179C323.423 513.022 323.262 513.939 323.289 514.856" stroke="#294C47" stroke-width="0.8978" stroke-miterlimit="10" stroke-linecap="round"/>
<path d="M334.738 512.126C334.369 512.962 334.362 513.906 334.369 514.816" stroke="#294C47" stroke-width="0.8978" stroke-miterlimit="10" stroke-linecap="round"/>
<path d="M346.845 511.785C346.228 512.608 345.819 513.584 345.671 514.602" stroke="#294C47" stroke-width="0.8978" stroke-miterlimit="10" stroke-linecap="round"/>
<path d="M361.906 512.601C362.061 513.611 362.094 514.642 362.007 515.665" stroke="#294C47" stroke-width="0.8978" stroke-miterlimit="10" stroke-linecap="round"/>
<path opacity="0.59" d="M67 143.366C69.3448 133.627 63.0717 123.896 52.9885 121.632C42.9054 119.367 32.8306 125.426 30.4859 135.165C28.1411 144.904 34.4142 154.635 44.4973 156.899C54.5804 159.164 64.6552 153.105 67 143.366Z" fill="#FCD554"/>
<path opacity="0.59" d="M65.0549 142.93C67.1505 134.23 61.5472 125.536 52.5396 123.512C43.532 121.488 34.5311 126.9 32.4355 135.6C30.3399 144.3 35.9432 152.994 44.9508 155.018C53.9583 157.042 62.9593 151.63 65.0549 142.93Z" fill="#FCD554"/>
<path d="M282.817 123.336H375V104.428C375 104.428 365.168 104.009 359.67 112.757C359.67 112.757 354.171 109.427 348.173 111.301C342.175 113.176 340.175 115.881 340.175 115.881C340.175 115.881 335.342 112.339 330.178 114.838C325.015 117.337 328.344 119.006 321.181 119.006C314.018 119.006 312.519 119.006 310.184 119.631C307.85 120.255 277.194 122.336 277.194 122.336C277.194 122.336 271.446 122.874 282.817 123.336Z" fill="#CDE4CE"/>
<path opacity="0.41" d="M176.229 149.418H260.539C260.539 149.418 250.542 146.918 243.879 146.918C237.216 146.918 234.882 141.501 229.548 141.501C224.215 141.501 228.548 146.918 222.55 142.75C216.552 138.583 210.219 136.083 205.555 137.333C200.892 138.583 202.556 144.831 198.557 144C194.559 143.169 188.225 137.751 185.896 140.251C183.562 142.75 183.562 146.081 179.898 144.831C176.234 143.581 171.236 144.831 170.566 146.081C169.901 147.331 152.906 148.162 156.235 148.999C159.564 149.836 176.229 149.418 176.229 149.418Z" fill="#CDE4CE"/>
<path d="M0.111264 96.9296H99.7467C99.7467 96.9296 93.4136 93.5992 85.7508 94.0116C78.0881 94.4302 75.4189 88.5941 70.9202 87.3443C66.4216 86.0946 63.0876 89.2189 63.0876 89.2189C63.0876 89.2189 54.925 80.4709 49.5916 79.6399C44.2582 78.8088 41.0941 82.3455 41.0941 82.3455C41.0941 82.3455 35.2608 73.5975 24.2641 71.3043C13.2674 69.0111 6.10449 81.5082 6.10449 81.5082C6.10449 81.5082 0.771068 82.7579 0.106266 84.4263C0.111264 84.4325 -0.138662 97.2421 0.111264 96.9296Z" fill="#CDE4CE"/>
<path d="M209.243 65.7708H357.699C357.699 65.7708 338.704 59.5222 326.708 59.5222C314.711 59.5222 316.711 50.7742 306.714 50.7742C296.717 50.7742 303.465 56.3979 290.219 48.5872C276.973 40.7765 270.225 47.65 265.476 51.0867C260.728 54.5234 250.231 45.463 241.733 48.2748C233.236 51.0867 234.235 56.7104 228.237 56.7104C222.239 56.7104 217.49 54.5234 214.241 57.3352C210.992 60.1471 213.242 59.5222 201.995 61.3968C190.748 63.2714 185 64.5211 185 64.5211C185 64.5211 185.5 67.0205 209.243 65.7708Z" fill="#CDE4CE"/>
<path opacity="0.41" d="M56.4298 185.659H120.411C120.411 185.659 113.913 183.785 108.749 182.954C103.586 182.122 102.416 177.124 99.2521 177.33C96.088 177.536 96.253 178.373 92.4191 175.661C88.5852 172.956 85.2562 174.83 84.4215 176.286C83.5867 177.742 79.0881 175.455 76.0889 176.286C73.0898 177.117 74.9243 181.079 70.9255 180.242C66.9267 179.411 64.9273 179.617 63.0928 180.867C61.2583 182.116 56.7597 183.366 52.9308 183.785C49.097 184.203 45.0981 185.659 56.4298 185.659Z" fill="#CDE4CE"/>
<path opacity="0.41" d="M259.284 183.578H309.019C309.019 183.578 303.771 182.954 296.523 180.142C289.275 177.33 288.026 174.206 286.026 174.518C284.027 174.83 281.777 177.955 280.028 177.017C278.279 176.08 274.78 176.08 272.78 177.33C270.781 178.58 266.032 179.829 263.533 179.204C261.034 178.58 260.534 177.955 259.534 179.517C258.534 181.079 253.036 183.266 252.036 183.266C251.037 183.266 256.285 183.891 259.284 183.578Z" fill="#CDE4CE"/>
<path d="M81.4919 53.677C81.432 53.2521 81.6619 52.846 82.0018 52.7772C82.3417 52.7022 82.6666 52.9897 82.7216 53.4146C82.7766 53.8395 82.5516 54.2456 82.2117 54.3144C81.8718 54.3893 81.5519 54.1019 81.4919 53.677Z" fill="#ABF2AB"/>
<path d="M71.8599 35.8249C71.7799 35.2313 72.0998 34.6627 72.5747 34.5627C73.0496 34.4627 73.5044 34.8626 73.5844 35.4562C73.6644 36.0498 73.3445 36.6185 72.8696 36.7184C72.3898 36.8247 71.9399 36.4248 71.8599 35.8249Z" fill="#ABF2AB"/>
<path d="M66.7911 58.3635C66.7461 58.0261 66.926 57.7011 67.2009 57.6449C67.4709 57.5887 67.7308 57.8136 67.7758 58.1573C67.8208 58.4947 67.6408 58.8196 67.3659 58.8759C67.096 58.9321 66.841 58.7009 66.7911 58.3635Z" fill="#ABF2AB"/>
<path d="M56.8892 46.51C56.8442 46.1725 57.0242 45.8476 57.2991 45.7914C57.569 45.7351 57.8289 45.9601 57.8739 46.3038C57.9189 46.6412 57.734 46.9661 57.464 47.0223C57.1941 47.0786 56.9392 46.8536 56.8892 46.51Z" fill="#ABF2AB"/>
<path d="M90.2094 26.727C90.1644 26.3896 90.3493 26.0647 90.6193 26.0084C90.8892 25.9522 91.1491 26.1834 91.1941 26.5208C91.2391 26.8582 91.0591 27.1832 90.7842 27.2394C90.5143 27.2956 90.2544 27.0644 90.2094 26.727Z" fill="#ABF2AB"/>
<path d="M68.4608 47.716C68.4159 47.3785 68.6008 47.0536 68.8707 46.9974C69.1406 46.9411 69.4006 47.1661 69.4455 47.5098C69.4905 47.8472 69.3056 48.1721 69.0357 48.2283C68.7658 48.2846 68.5058 48.0534 68.4608 47.716Z" fill="#ABF2AB"/>
<path d="M61.9527 31.9008C61.9077 31.5634 62.0876 31.2385 62.3626 31.1823C62.6325 31.126 62.8924 31.3572 62.9374 31.6946C62.9824 32.0321 62.7974 32.357 62.5275 32.4132C62.2526 32.4695 61.9977 32.2383 61.9527 31.9008Z" fill="#ABF2AB"/>
<path d="M89.0044 42.6609C88.9595 42.3234 89.1394 41.9985 89.4143 41.9423C89.6842 41.886 89.9442 42.1172 89.9892 42.4546C90.0341 42.7921 89.8542 43.117 89.5793 43.1732C89.3094 43.2357 89.0494 43.0045 89.0044 42.6609Z" fill="#ABF2AB"/>
<path d="M28.5029 59.1571C28.4479 58.7321 28.6728 58.326 29.0127 58.2573C29.3526 58.1823 29.6775 58.4697 29.7325 58.8946C29.7925 59.3195 29.5626 59.7257 29.2227 59.7944C28.8828 59.8694 28.5579 59.582 28.5029 59.1571Z" fill="#ABF2AB"/>
<path d="M18.8658 41.3112C18.7858 40.7176 19.1057 40.149 19.5806 40.049C20.0554 39.949 20.5103 40.3489 20.5903 40.9426C20.6702 41.5362 20.3503 42.1048 19.8755 42.2048C19.3956 42.3047 18.9457 41.9048 18.8658 41.3112Z" fill="#ABF2AB"/>
<path d="M13.7974 63.8497C13.7524 63.5123 13.9324 63.1874 14.2073 63.1312C14.4772 63.0749 14.7371 63.2999 14.7821 63.6435C14.8271 63.981 14.6472 64.3059 14.3722 64.3621C14.1023 64.4184 13.8474 64.1872 13.7974 63.8497Z" fill="#ABF2AB"/>
<path d="M3.89507 51.9962C3.85008 51.6588 4.03003 51.3339 4.30495 51.2776C4.57487 51.2214 4.83479 51.4464 4.87978 51.79C4.92476 52.1275 4.74482 52.4524 4.4699 52.5086C4.19998 52.5649 3.94505 52.3337 3.89507 51.9962Z" fill="#ABF2AB"/>
<path d="M37.2154 32.207C37.1704 31.8696 37.3503 31.5446 37.6253 31.4884C37.8952 31.4322 38.1551 31.6634 38.2001 32.0008C38.2451 32.3382 38.0601 32.6631 37.7902 32.7194C37.5203 32.7756 37.2604 32.5507 37.2154 32.207Z" fill="#ABF2AB"/>
<path d="M15.4668 53.1959C15.4219 52.8585 15.6018 52.5336 15.8767 52.4774C16.1466 52.4211 16.4066 52.6461 16.4516 52.9897C16.4965 53.3272 16.3166 53.6521 16.0417 53.7083C15.7718 53.7646 15.5118 53.5396 15.4668 53.1959Z" fill="#ABF2AB"/>
<path d="M8.95854 37.3808C8.91356 37.0434 9.0935 36.7185 9.36842 36.6622C9.63834 36.606 9.89826 36.8309 9.94325 37.1746C9.98824 37.512 9.80829 37.837 9.53337 37.8932C9.25845 37.9494 9.00353 37.7245 8.95854 37.3808Z" fill="#ABF2AB"/>
<path d="M36.0106 48.1471C35.9657 47.8097 36.1506 47.4848 36.4205 47.4285C36.6904 47.3723 36.9504 47.5972 36.9954 47.9409C37.0403 48.2783 36.8554 48.6033 36.5855 48.6595C36.3156 48.7157 36.0556 48.4908 36.0106 48.1471Z" fill="#ABF2AB"/>
<path d="M55.5551 69.9232C55.5002 69.4983 55.7251 69.0922 56.065 69.0235C56.4049 68.9547 56.7298 69.2359 56.7848 69.6608C56.8398 70.0857 56.6148 70.4919 56.2749 70.5606C55.935 70.6356 55.6151 70.3481 55.5551 69.9232Z" fill="#ABF2AB"/>
<path d="M45.9175 52.0774C45.8376 51.4838 46.1575 50.9152 46.6323 50.8152C47.1072 50.7152 47.562 51.1151 47.642 51.7087C47.722 52.3023 47.4021 52.871 46.9272 52.9709C46.4524 53.0709 46.0025 52.671 45.9175 52.0774Z" fill="#ABF2AB"/>
<path d="M40.8545 74.6097C40.8096 74.2723 40.9895 73.9473 41.2644 73.8911C41.5343 73.8349 41.7943 74.0598 41.8392 74.4035C41.8842 74.7409 41.7043 75.0658 41.4294 75.1221C41.1594 75.1846 40.8995 74.9534 40.8545 74.6097Z" fill="#ABF2AB"/>
<path d="M30.9522 62.7624C30.9072 62.425 31.0872 62.1001 31.3621 62.0438C31.632 61.9876 31.8919 62.2125 31.9369 62.5562C31.9819 62.8936 31.8019 63.2186 31.527 63.2748C31.2571 63.331 30.9972 63.0998 30.9522 62.7624Z" fill="#ABF2AB"/>
<path d="M64.2725 42.9732C64.2275 42.6358 64.4075 42.3109 64.6824 42.2546C64.9523 42.1984 65.2122 42.4233 65.2572 42.767C65.3022 43.1044 65.1223 43.4294 64.8473 43.4856C64.5724 43.5418 64.3175 43.3169 64.2725 42.9732Z" fill="#ABF2AB"/>
<path d="M42.519 63.9621C42.474 63.6247 42.6589 63.2998 42.9288 63.2435C43.1987 63.1873 43.4587 63.4122 43.5037 63.7559C43.5486 64.0933 43.3637 64.4183 43.0938 64.4745C42.8239 64.5307 42.5639 64.3058 42.519 63.9621Z" fill="#ABF2AB"/>
<path d="M36.0106 48.1471C35.9657 47.8096 36.1506 47.4847 36.4205 47.4285C36.6904 47.3722 36.9504 47.5972 36.9954 47.9408C37.0403 48.2783 36.8554 48.6032 36.5855 48.6594C36.3156 48.7157 36.0556 48.4907 36.0106 48.1471Z" fill="#ABF2AB"/>
<path d="M63.0679 58.9133C63.0229 58.5759 63.2029 58.2509 63.4778 58.1947C63.7477 58.1385 64.0076 58.3634 64.0526 58.7071C64.0976 59.0445 63.9177 59.3694 63.6427 59.4257C63.3678 59.4819 63.1129 59.2507 63.0679 58.9133Z" fill="#ABF2AB"/>
<path d="M82.6069 80.6896C82.5519 80.2647 82.7768 79.8585 83.1167 79.7898C83.4566 79.7148 83.7816 80.0022 83.8365 80.4271C83.8965 80.852 83.6666 81.2582 83.3267 81.3269C82.9868 81.4019 82.6669 81.1145 82.6069 80.6896Z" fill="#ABF2AB"/>
<path d="M72.9747 62.8437C72.8947 62.2501 73.2146 61.6815 73.6894 61.5815C74.1643 61.4815 74.6192 61.8814 74.6991 62.475C74.7791 63.0686 74.4592 63.6373 73.9844 63.7372C73.5045 63.8372 73.0546 63.4373 72.9747 62.8437Z" fill="#ABF2AB"/>
<path d="M67.9062 85.3761C67.8612 85.0386 68.0461 84.7137 68.316 84.6575C68.586 84.6012 68.8459 84.8324 68.8909 85.1699C68.9359 85.5073 68.7559 85.8322 68.481 85.8884C68.2111 85.9447 67.9561 85.7197 67.9062 85.3761Z" fill="#ABF2AB"/>
<path d="M58.0043 73.5287C57.9593 73.1913 58.1443 72.8664 58.4142 72.8101C58.6841 72.7539 58.944 72.9851 58.989 73.3225C59.034 73.6599 58.8541 73.9849 58.5791 74.0411C58.3092 74.0973 58.0543 73.8661 58.0043 73.5287Z" fill="#ABF2AB"/>
<path d="M91.3243 53.7396C91.2793 53.4022 91.4592 53.0772 91.7341 53.021C92.0041 52.9648 92.264 53.1897 92.309 53.5334C92.354 53.8708 92.174 54.1957 91.8991 54.252C91.6292 54.3082 91.3693 54.077 91.3243 53.7396Z" fill="#ABF2AB"/>
<path d="M69.5757 74.7285C69.5307 74.3911 69.7107 74.0661 69.9856 74.0099C70.2555 73.9537 70.5155 74.1786 70.5604 74.5223C70.6054 74.8597 70.4255 75.1846 70.1506 75.2409C69.8756 75.2971 69.6207 75.0659 69.5757 74.7285Z" fill="#ABF2AB"/>
<path d="M63.0679 58.9133C63.0229 58.5759 63.2029 58.251 63.4778 58.1948C63.7477 58.1385 64.0076 58.3635 64.0526 58.7071C64.0976 59.0446 63.9177 59.3695 63.6427 59.4257C63.3678 59.482 63.1129 59.2508 63.0679 58.9133Z" fill="#ABF2AB"/>
<path d="M90.1197 69.6796C90.0747 69.3422 90.2546 69.0172 90.5296 68.961C90.7995 68.9048 91.0594 69.1297 91.1044 69.4734C91.1494 69.8108 90.9694 70.1357 90.6945 70.192C90.4246 70.2482 90.1647 70.017 90.1197 69.6796Z" fill="#ABF2AB"/>
<path d="M109.664 91.4558C109.609 91.0309 109.834 90.6248 110.174 90.556C110.514 90.4873 110.839 90.7685 110.894 91.1934C110.949 91.6183 110.724 92.0245 110.384 92.0932C110.044 92.1682 109.719 91.8807 109.664 91.4558Z" fill="#ABF2AB"/>
<path d="M100.027 73.6037C99.9469 73.0101 100.267 72.4415 100.742 72.3415C101.217 72.2415 101.671 72.6414 101.751 73.235C101.831 73.8286 101.511 74.3973 101.037 74.4972C100.562 74.6035 100.107 74.2036 100.027 73.6037Z" fill="#ABF2AB"/>
<path d="M94.9629 96.1423C94.918 95.8049 95.0979 95.48 95.3728 95.4237C95.6427 95.3675 95.9027 95.5987 95.9476 95.9361C95.9926 96.2735 95.8127 96.5984 95.5378 96.6547C95.2679 96.7109 95.0079 96.4797 94.9629 96.1423Z" fill="#ABF2AB"/>
<path d="M85.0611 84.2888C85.0161 83.9514 85.196 83.6264 85.471 83.5702C85.7409 83.514 86.0008 83.7389 86.0458 84.0826C86.0908 84.42 85.9108 84.7449 85.6359 84.8012C85.366 84.8636 85.1061 84.6324 85.0611 84.2888Z" fill="#ABF2AB"/>
<path d="M118.381 64.5058C118.336 64.1684 118.516 63.8435 118.791 63.7872C119.061 63.731 119.321 63.9559 119.366 64.2996C119.411 64.637 119.231 64.962 118.956 65.0182C118.681 65.0744 118.426 64.8432 118.381 64.5058Z" fill="#ABF2AB"/>
<path d="M96.6278 85.4947C96.5829 85.1573 96.7678 84.8324 97.0377 84.7761C97.3076 84.7199 97.5676 84.9448 97.6125 85.2885C97.6575 85.6259 97.4776 85.9509 97.2027 86.0071C96.9328 86.0633 96.6728 85.8321 96.6278 85.4947Z" fill="#ABF2AB"/>
<path d="M90.1197 69.6796C90.0747 69.3422 90.2546 69.0172 90.5296 68.961C90.7995 68.9048 91.0594 69.1297 91.1044 69.4734C91.1494 69.8108 90.9694 70.1357 90.6945 70.192C90.4246 70.2482 90.1647 70.017 90.1197 69.6796Z" fill="#ABF2AB"/>
<path d="M117.171 80.4396C117.126 80.1022 117.306 79.7773 117.581 79.7211C117.851 79.6648 118.111 79.8898 118.156 80.2335C118.201 80.5709 118.021 80.8958 117.746 80.952C117.476 81.0145 117.221 80.7833 117.171 80.4396Z" fill="#ABF2AB"/>
<path d="M136.716 102.222C136.661 101.797 136.886 101.391 137.226 101.322C137.566 101.254 137.89 101.535 137.945 101.96C138 102.385 137.775 102.791 137.436 102.859C137.096 102.928 136.776 102.647 136.716 102.222Z" fill="#ABF2AB"/>
<path d="M127.084 84.37C127.004 83.7764 127.324 83.2078 127.799 83.1078C128.274 83.0078 128.729 83.4077 128.809 84.0013C128.888 84.5949 128.569 85.1636 128.094 85.2635C127.614 85.3698 127.164 84.9636 127.084 84.37Z" fill="#ABF2AB"/>
<path d="M122.015 106.909C121.97 106.571 122.15 106.246 122.425 106.19C122.695 106.134 122.955 106.359 123 106.702C123.045 107.04 122.865 107.365 122.59 107.421C122.32 107.477 122.06 107.246 122.015 106.909Z" fill="#ABF2AB"/>
<path d="M112.113 95.0551C112.068 94.7176 112.253 94.3927 112.523 94.3365C112.793 94.2802 113.053 94.5052 113.098 94.8489C113.143 95.1863 112.958 95.5112 112.688 95.5674C112.418 95.6237 112.158 95.3987 112.113 95.0551Z" fill="#ABF2AB"/>
<path d="M145.433 75.2658C145.388 74.9284 145.568 74.6035 145.843 74.5472C146.113 74.491 146.373 74.716 146.418 75.0596C146.463 75.397 146.283 75.722 146.008 75.7782C145.738 75.8407 145.478 75.6095 145.433 75.2658Z" fill="#ABF2AB"/>
<path d="M123.685 96.2547C123.64 95.9173 123.82 95.5924 124.095 95.5361C124.365 95.4799 124.625 95.7111 124.67 96.0485C124.715 96.3859 124.535 96.7109 124.26 96.7671C123.985 96.8296 123.73 96.5984 123.685 96.2547Z" fill="#ABF2AB"/>
<path d="M117.172 80.4396C117.127 80.1022 117.307 79.7773 117.582 79.7211C117.852 79.6648 118.112 79.8898 118.157 80.2335C118.202 80.5709 118.022 80.8958 117.747 80.952C117.477 81.0145 117.222 80.7833 117.172 80.4396Z" fill="#ABF2AB"/>
<path d="M144.229 91.2059C144.184 90.8685 144.364 90.5435 144.638 90.4873C144.908 90.4311 145.168 90.6623 145.213 90.9997C145.258 91.3371 145.078 91.662 144.803 91.7183C144.533 91.7745 144.274 91.5496 144.229 91.2059Z" fill="#ABF2AB"/>
<path d="M176.994 54.3824C177.038 53.9546 176.796 53.563 176.454 53.5077C176.112 53.4524 175.799 53.7545 175.754 54.1823C175.71 54.6101 175.952 55.0018 176.294 55.057C176.636 55.1123 176.95 54.8103 176.994 54.3824Z" fill="#ABF2AB"/>
<path d="M166.122 36.5747C166.042 35.9811 166.362 35.4125 166.836 35.3125C167.311 35.2125 167.766 35.6124 167.846 36.206C167.926 36.7997 167.606 37.3683 167.131 37.4683C166.656 37.5682 166.202 37.1683 166.122 36.5747Z" fill="#ABF2AB"/>
<path d="M161.058 59.107C161.013 58.7696 161.193 58.4447 161.468 58.3884C161.738 58.3322 161.998 58.5571 162.043 58.9008C162.088 59.2382 161.908 59.5632 161.633 59.6194C161.358 59.6756 161.103 59.4507 161.058 59.107Z" fill="#ABF2AB"/>
<path d="M151.156 47.2598C151.111 46.9224 151.291 46.5974 151.566 46.5412C151.836 46.485 152.096 46.7099 152.141 47.0536C152.186 47.391 152.006 47.7159 151.731 47.7722C151.456 47.8284 151.201 47.5972 151.156 47.2598Z" fill="#ABF2AB"/>
<path d="M184.471 27.4706C184.426 27.1332 184.606 26.8083 184.881 26.752C185.151 26.6958 185.411 26.9207 185.456 27.2644C185.501 27.6018 185.321 27.9267 185.046 27.983C184.776 28.0392 184.521 27.808 184.471 27.4706Z" fill="#ABF2AB"/>
<path d="M162.723 48.4595C162.678 48.1221 162.858 47.7971 163.133 47.7409C163.402 47.6847 163.662 47.9096 163.707 48.2533C163.752 48.5907 163.572 48.9156 163.298 48.9719C163.028 49.0281 162.768 48.7969 162.723 48.4595Z" fill="#ABF2AB"/>
<path d="M156.215 32.6444C156.17 32.307 156.35 31.982 156.625 31.9258C156.895 31.8696 157.155 32.1007 157.2 32.4382C157.245 32.7756 157.065 33.1005 156.79 33.1568C156.52 33.213 156.26 32.9818 156.215 32.6444Z" fill="#ABF2AB"/>
<path d="M183.267 43.4106C183.222 43.0732 183.402 42.7483 183.677 42.692C183.946 42.6358 184.206 42.867 184.251 43.2044C184.296 43.5418 184.116 43.8668 183.841 43.923C183.572 43.9792 183.312 43.748 183.267 43.4106Z" fill="#ABF2AB"/>
<path d="M122.765 59.9068C122.705 59.4819 122.935 59.0757 123.275 59.007C123.615 58.932 123.94 59.2195 123.995 59.6444C124.05 60.0693 123.825 60.4754 123.485 60.5442C123.145 60.6191 122.82 60.3317 122.765 59.9068Z" fill="#ABF2AB"/>
<path d="M113.127 42.0547C113.048 41.4611 113.367 40.8925 113.842 40.7925C114.317 40.6925 114.772 41.0924 114.852 41.686C114.932 42.2796 114.612 42.8483 114.137 42.9482C113.662 43.0545 113.207 42.6545 113.127 42.0547Z" fill="#ABF2AB"/>
<path d="M108.065 64.5933C108.02 64.2559 108.199 63.9309 108.474 63.8747C108.744 63.8185 109.004 64.0434 109.049 64.3871C109.094 64.7245 108.914 65.0494 108.639 65.1057C108.369 65.1619 108.109 64.9307 108.065 64.5933Z" fill="#ABF2AB"/>
<path d="M98.1622 52.7397C98.1172 52.4023 98.2971 52.0774 98.572 52.0211C98.842 51.9649 99.1019 52.1898 99.1469 52.5335C99.1919 52.8709 99.0119 53.1958 98.737 53.2521C98.4671 53.3083 98.2071 53.0834 98.1622 52.7397Z" fill="#ABF2AB"/>
<path d="M131.482 32.9568C131.437 32.6194 131.617 32.2945 131.892 32.2382C132.162 32.182 132.422 32.4132 132.467 32.7506C132.512 33.088 132.332 33.413 132.057 33.4692C131.782 33.5254 131.527 33.2942 131.482 32.9568Z" fill="#ABF2AB"/>
<path d="M109.729 53.9458C109.684 53.6083 109.864 53.2834 110.138 53.2272C110.408 53.1709 110.668 53.3959 110.713 53.7396C110.758 54.077 110.573 54.4019 110.303 54.4581C110.033 54.5144 109.774 54.2832 109.729 53.9458Z" fill="#ABF2AB"/>
<path d="M103.221 38.1306C103.176 37.7931 103.361 37.4682 103.63 37.412C103.9 37.3557 104.16 37.5807 104.205 37.9244C104.25 38.2618 104.07 38.5867 103.795 38.643C103.526 38.6992 103.266 38.468 103.221 38.1306Z" fill="#ABF2AB"/>
<path d="M130.273 48.8906C130.228 48.5532 130.407 48.2283 130.682 48.1721C130.952 48.1158 131.212 48.3408 131.257 48.6844C131.302 49.0219 131.122 49.3468 130.847 49.403C130.577 49.4655 130.322 49.2343 130.273 48.8906Z" fill="#ABF2AB"/>
<path d="M149.817 70.6669C149.762 70.242 149.987 69.8358 150.327 69.7671C150.667 69.6984 150.992 69.9796 151.046 70.4045C151.101 70.8294 150.877 71.2355 150.537 71.3043C150.197 71.3792 149.877 71.098 149.817 70.6669Z" fill="#ABF2AB"/>
<path d="M140.185 52.821C140.105 52.2274 140.425 51.6588 140.899 51.5588C141.374 51.4588 141.829 51.8587 141.909 52.4523C141.989 53.0459 141.669 53.6146 141.194 53.7145C140.714 53.8208 140.265 53.4146 140.185 52.821Z" fill="#ABF2AB"/>
<path d="M135.116 75.3595C135.071 75.0221 135.251 74.6972 135.526 74.6409C135.796 74.5847 136.056 74.8096 136.101 75.1533C136.146 75.497 135.966 75.8157 135.691 75.8719C135.421 75.9281 135.161 75.6969 135.116 75.3595Z" fill="#ABF2AB"/>
<path d="M125.214 63.5061C125.169 63.1686 125.354 62.8437 125.624 62.7875C125.894 62.7312 126.154 62.9562 126.199 63.2999C126.244 63.6373 126.059 63.9622 125.789 64.0184C125.519 64.0747 125.259 63.8497 125.214 63.5061Z" fill="#ABF2AB"/>
<path d="M158.534 43.7168C158.489 43.3794 158.669 43.0545 158.944 42.9982C159.214 42.942 159.474 43.1669 159.519 43.5106C159.564 43.848 159.384 44.173 159.109 44.2292C158.839 44.2917 158.579 44.0605 158.534 43.7168Z" fill="#ABF2AB"/>
<path d="M136.786 64.7057C136.741 64.3683 136.921 64.0434 137.196 63.9871C137.465 63.9309 137.725 64.1558 137.77 64.4995C137.815 64.8369 137.635 65.1619 137.361 65.2181C137.086 65.2806 136.831 65.0494 136.786 64.7057Z" fill="#ABF2AB"/>
<path d="M130.273 48.8906C130.228 48.5532 130.407 48.2283 130.682 48.1721C130.952 48.1158 131.212 48.3408 131.257 48.6844C131.302 49.0219 131.122 49.3468 130.847 49.403C130.577 49.4655 130.322 49.2343 130.273 48.8906Z" fill="#ABF2AB"/>
<path d="M157.33 59.6569C157.285 59.3195 157.465 58.9945 157.74 58.9383C158.009 58.8821 158.269 59.107 158.314 59.4507C158.359 59.7881 158.179 60.113 157.904 60.1693C157.635 60.2255 157.375 60.0005 157.33 59.6569Z" fill="#ABF2AB"/>
<path d="M176.874 81.4331C176.819 81.0082 177.044 80.6021 177.384 80.5333C177.724 80.4583 178.049 80.7458 178.104 81.1707C178.159 81.5956 177.934 82.0017 177.594 82.0705C177.254 82.1454 176.929 81.858 176.874 81.4331Z" fill="#ABF2AB"/>
<path d="M167.237 63.5873C167.157 62.9937 167.477 62.425 167.952 62.3251C168.427 62.2251 168.881 62.625 168.961 63.2186C169.041 63.8122 168.721 64.3808 168.247 64.4808C167.772 64.5808 167.317 64.1809 167.237 63.5873Z" fill="#ABF2AB"/>
<path d="M162.173 86.1195C162.128 85.7821 162.308 85.4572 162.583 85.4009C162.853 85.3447 163.113 85.5759 163.158 85.9133C163.203 86.2508 163.018 86.5757 162.748 86.6319C162.473 86.6944 162.218 86.4632 162.173 86.1195Z" fill="#ABF2AB"/>
<path d="M152.271 74.2723C152.226 73.9349 152.406 73.61 152.681 73.5537C152.951 73.4975 153.211 73.7287 153.256 74.0661C153.301 74.4035 153.121 74.7284 152.846 74.7847C152.571 74.8409 152.316 74.6097 152.271 74.2723Z" fill="#ABF2AB"/>
<path d="M185.586 54.4831C185.541 54.1456 185.721 53.8207 185.996 53.7645C186.266 53.7082 186.526 53.9394 186.571 54.2769C186.616 54.6143 186.436 54.9392 186.161 54.9954C185.891 55.0517 185.636 54.8267 185.586 54.4831Z" fill="#ABF2AB"/>
<path d="M163.837 75.472C163.792 75.1346 163.972 74.8097 164.247 74.7534C164.517 74.6972 164.777 74.9221 164.822 75.2658C164.867 75.6032 164.687 75.9281 164.412 75.9844C164.142 76.0406 163.882 75.8157 163.837 75.472Z" fill="#ABF2AB"/>
<path d="M157.33 59.6569C157.285 59.3195 157.465 58.9945 157.74 58.9383C158.009 58.8821 158.269 59.107 158.314 59.4507C158.359 59.7881 158.179 60.113 157.904 60.1693C157.635 60.2255 157.375 60.0005 157.33 59.6569Z" fill="#ABF2AB"/>
<path d="M184.381 70.4232C184.336 70.0858 184.516 69.7608 184.791 69.7046C185.061 69.6484 185.321 69.8733 185.366 70.217C185.411 70.5544 185.231 70.8793 184.956 70.9356C184.686 70.9918 184.426 70.7606 184.381 70.4232Z" fill="#ABF2AB"/>
<path d="M203.926 92.1994C203.871 91.7745 204.096 91.3684 204.436 91.2996C204.775 91.2309 205.1 91.5121 205.155 91.937C205.21 92.3619 204.985 92.768 204.646 92.8368C204.306 92.9118 203.986 92.6243 203.926 92.1994Z" fill="#ABF2AB"/>
<path d="M194.294 74.3535C194.214 73.7599 194.534 73.1913 195.009 73.0913C195.484 72.9913 195.938 73.3912 196.018 73.9849C196.098 74.5785 195.779 75.1471 195.304 75.2471C194.824 75.347 194.374 74.9471 194.294 74.3535Z" fill="#ABF2AB"/>
<path d="M189.225 96.8859C189.18 96.5485 189.36 96.2235 189.635 96.1673C189.905 96.1111 190.165 96.3423 190.21 96.6797C190.255 97.0171 190.075 97.342 189.8 97.3983C189.53 97.4545 189.27 97.2296 189.225 96.8859Z" fill="#ABF2AB"/>
<path d="M179.323 85.0385C179.278 84.7011 179.463 84.3762 179.733 84.3199C180.003 84.2637 180.263 84.4887 180.308 84.8323C180.353 85.1698 180.173 85.4947 179.898 85.5509C179.628 85.6071 179.368 85.376 179.323 85.0385Z" fill="#ABF2AB"/>
<path d="M212.643 65.2494C212.598 64.912 212.778 64.5871 213.053 64.5308C213.323 64.4746 213.583 64.6995 213.628 65.0432C213.673 65.3806 213.493 65.7056 213.218 65.7618C212.948 65.818 212.688 65.5868 212.643 65.2494Z" fill="#ABF2AB"/>
<path d="M190.89 86.2383C190.845 85.9009 191.025 85.576 191.3 85.5197C191.569 85.4635 191.829 85.6884 191.874 86.0321C191.919 86.3695 191.739 86.6944 191.465 86.7507C191.195 86.8069 190.94 86.5757 190.89 86.2383Z" fill="#ABF2AB"/>
<path d="M184.382 70.4232C184.337 70.0858 184.517 69.7608 184.792 69.7046C185.062 69.6484 185.322 69.8733 185.367 70.217C185.412 70.5544 185.232 70.8793 184.957 70.9356C184.687 70.9918 184.427 70.7606 184.382 70.4232Z" fill="#ABF2AB"/>
<path d="M211.438 81.1894C211.393 80.852 211.578 80.5271 211.848 80.4708C212.118 80.4146 212.378 80.6395 212.423 80.9832C212.468 81.3206 212.288 81.6456 212.013 81.7018C211.743 81.758 211.483 81.5268 211.438 81.1894Z" fill="#ABF2AB"/>
<path d="M230.983 102.966C230.928 102.541 231.153 102.135 231.493 102.066C231.833 101.997 232.158 102.278 232.213 102.703C232.267 103.128 232.043 103.534 231.703 103.603C231.363 103.678 231.038 103.391 230.983 102.966Z" fill="#ABF2AB"/>
<path d="M221.346 85.1135C221.266 84.5199 221.586 83.9513 222.061 83.8513C222.536 83.7513 222.991 84.1512 223.071 84.7449C223.151 85.3385 222.831 85.9071 222.356 86.0071C221.876 86.1133 221.426 85.7134 221.346 85.1135Z" fill="#ABF2AB"/>
<path d="M216.278 107.652C216.233 107.315 216.413 106.99 216.688 106.934C216.958 106.877 217.218 107.102 217.263 107.446C217.308 107.783 217.123 108.108 216.853 108.164C216.583 108.221 216.328 107.996 216.278 107.652Z" fill="#ABF2AB"/>
<path d="M206.38 95.7986C206.335 95.4612 206.515 95.1363 206.79 95.08C207.06 95.0238 207.32 95.2487 207.365 95.5924C207.41 95.9298 207.23 96.2547 206.955 96.311C206.68 96.3735 206.425 96.1423 206.38 95.7986Z" fill="#ABF2AB"/>
<path d="M239.695 76.0156C239.65 75.6782 239.83 75.3533 240.105 75.2971C240.375 75.2408 240.635 75.4658 240.68 75.8094C240.725 76.1469 240.545 76.4718 240.27 76.528C240 76.5843 239.74 76.3531 239.695 76.0156Z" fill="#ABF2AB"/>
<path d="M217.947 97.0045C217.902 96.6671 218.082 96.3422 218.357 96.286C218.627 96.2297 218.887 96.4609 218.932 96.7983C218.977 97.1358 218.797 97.4607 218.522 97.5169C218.252 97.5732 217.992 97.342 217.947 97.0045Z" fill="#ABF2AB"/>
<path d="M211.439 81.1894C211.394 80.852 211.579 80.5271 211.849 80.4708C212.119 80.4146 212.379 80.6395 212.424 80.9832C212.469 81.3206 212.289 81.6456 212.014 81.7018C211.744 81.758 211.484 81.5268 211.439 81.1894Z" fill="#ABF2AB"/>
<path d="M238.491 91.9557C238.446 91.6183 238.626 91.2934 238.901 91.2371C239.171 91.1809 239.431 91.4121 239.476 91.7495C239.521 92.0869 239.341 92.4119 239.066 92.4681C238.796 92.5243 238.536 92.2931 238.491 91.9557Z" fill="#ABF2AB"/>
<path d="M273.445 55.6579C273.39 55.233 273.615 54.8268 273.955 54.7581C274.295 54.6893 274.62 54.9705 274.675 55.3954C274.73 55.8203 274.505 56.2265 274.165 56.2952C273.825 56.3702 273.505 56.0828 273.445 55.6579Z" fill="#ABF2AB"/>
<path d="M263.813 37.812C263.733 37.2184 264.053 36.6498 264.528 36.5498C265.003 36.4498 265.458 36.8497 265.537 37.4433C265.617 38.037 265.298 38.6056 264.823 38.7056C264.348 38.8055 263.893 38.4056 263.813 37.812Z" fill="#ABF2AB"/>
<path d="M258.744 60.3505C258.699 60.0131 258.879 59.6882 259.154 59.632C259.424 59.5757 259.684 59.8007 259.729 60.1443C259.774 60.4818 259.589 60.8067 259.319 60.8629C259.049 60.9192 258.789 60.688 258.744 60.3505Z" fill="#ABF2AB"/>
<path d="M248.842 48.497C248.797 48.1595 248.977 47.8346 249.252 47.7784C249.522 47.7222 249.782 47.9533 249.827 48.2908C249.872 48.6282 249.692 48.9531 249.417 49.0094C249.147 49.0656 248.887 48.8344 248.842 48.497Z" fill="#ABF2AB"/>
<path d="M282.163 28.7078C282.118 28.3704 282.302 28.0455 282.572 27.9893C282.842 27.933 283.102 28.1642 283.147 28.5016C283.192 28.8391 283.012 29.164 282.737 29.2202C282.467 29.2765 282.207 29.0515 282.163 28.7078Z" fill="#ABF2AB"/>
<path d="M260.409 49.6968C260.364 49.3594 260.544 49.0344 260.819 48.9782C261.089 48.922 261.348 49.1469 261.393 49.4906C261.438 49.828 261.258 50.1529 260.984 50.2092C260.714 50.2654 260.459 50.0405 260.409 49.6968Z" fill="#ABF2AB"/>
<path d="M253.901 33.8816C253.856 33.5442 254.036 33.2193 254.311 33.163C254.581 33.1068 254.841 33.3317 254.886 33.6754C254.931 34.0128 254.751 34.3378 254.476 34.394C254.206 34.4502 253.946 34.2253 253.901 33.8816Z" fill="#ABF2AB"/>
<path d="M280.958 44.6479C280.913 44.3105 281.093 43.9856 281.367 43.9293C281.637 43.8731 281.897 44.098 281.942 44.4417C281.987 44.7791 281.802 45.104 281.532 45.1603C281.257 45.2165 281.003 44.9916 280.958 44.6479Z" fill="#ABF2AB"/>
<path d="M220.451 61.1441C220.396 60.7192 220.621 60.3131 220.96 60.2443C221.3 60.1756 221.625 60.4568 221.68 60.8817C221.735 61.3066 221.51 61.7128 221.17 61.7815C220.831 61.8565 220.511 61.569 220.451 61.1441Z" fill="#ABF2AB"/>
<path d="M210.818 43.2982C210.738 42.7045 211.058 42.1359 211.533 42.0359C212.008 41.936 212.463 42.3359 212.543 42.9295C212.623 43.5231 212.303 44.0917 211.828 44.1917C211.353 44.2917 210.898 43.8918 210.818 43.2982Z" fill="#ABF2AB"/>
<path d="M205.75 65.8305C205.705 65.4931 205.885 65.1682 206.16 65.1119C206.43 65.0557 206.69 65.2806 206.735 65.6243C206.78 65.9617 206.6 66.2867 206.325 66.3429C206.055 66.3991 205.795 66.1742 205.75 65.8305Z" fill="#ABF2AB"/>
<path d="M195.848 53.9832C195.803 53.6458 195.988 53.3208 196.258 53.2646C196.528 53.2084 196.788 53.4396 196.833 53.777C196.878 54.1144 196.698 54.4393 196.423 54.4956C196.153 54.5518 195.893 54.3206 195.848 53.9832Z" fill="#ABF2AB"/>
<path d="M229.168 34.194C229.123 33.8566 229.303 33.5317 229.578 33.4755C229.848 33.4192 230.108 33.6442 230.153 33.9878C230.198 34.3253 230.013 34.6502 229.743 34.7064C229.473 34.7627 229.213 34.5315 229.168 34.194Z" fill="#ABF2AB"/>
<path d="M207.419 55.1829C207.374 54.8455 207.554 54.5206 207.829 54.4644C208.099 54.4081 208.359 54.6331 208.404 54.9767C208.449 55.3142 208.269 55.6391 207.994 55.6953C207.719 55.7516 207.464 55.5204 207.419 55.1829Z" fill="#ABF2AB"/>
<path d="M200.907 39.3678C200.862 39.0304 201.042 38.7055 201.317 38.6492C201.587 38.593 201.847 38.8179 201.891 39.1616C201.936 39.499 201.757 39.824 201.482 39.8802C201.212 39.9364 200.957 39.7052 200.907 39.3678Z" fill="#ABF2AB"/>
<path d="M227.963 50.1341C227.918 49.7966 228.098 49.4717 228.373 49.4155C228.643 49.3592 228.903 49.5842 228.948 49.9278C228.993 50.2653 228.813 50.5902 228.538 50.6464C228.268 50.7027 228.008 50.4715 227.963 50.1341Z" fill="#ABF2AB"/>
<path d="M247.508 71.9104C247.448 71.4855 247.678 71.0793 248.018 71.0106C248.358 70.9418 248.683 71.223 248.738 71.6479C248.793 72.0728 248.568 72.479 248.228 72.5477C247.888 72.6227 247.563 72.3353 247.508 71.9104Z" fill="#ABF2AB"/>
<path d="M237.871 54.0583C237.791 53.4647 238.111 52.8961 238.586 52.7961C239.061 52.6961 239.516 53.096 239.596 53.6896C239.676 54.2832 239.356 54.8519 238.881 54.9518C238.406 55.0581 237.951 54.6582 237.871 54.0583Z" fill="#ABF2AB"/>
<path d="M232.808 76.5968C232.763 76.2594 232.943 75.9345 233.218 75.8782C233.487 75.822 233.747 76.0532 233.792 76.3906C233.837 76.728 233.657 77.053 233.382 77.1092C233.108 77.1654 232.853 76.9342 232.808 76.5968Z" fill="#ABF2AB"/>
<path d="M222.905 64.7433C222.86 64.4059 223.04 64.081 223.315 64.0247C223.585 63.9685 223.845 64.1997 223.89 64.5371C223.935 64.8745 223.755 65.1995 223.48 65.2557C223.205 65.3182 222.95 65.087 222.905 64.7433Z" fill="#ABF2AB"/>
<path d="M256.221 44.9603C256.176 44.6229 256.361 44.298 256.63 44.2418C256.9 44.1855 257.16 44.4105 257.205 44.7541C257.25 45.0916 257.07 45.4165 256.795 45.4727C256.526 45.529 256.271 45.2978 256.221 44.9603Z" fill="#ABF2AB"/>
<path d="M234.472 65.9492C234.427 65.6118 234.612 65.2869 234.881 65.2307C235.151 65.1744 235.411 65.3994 235.456 65.743C235.501 66.0805 235.321 66.4054 235.046 66.4616C234.777 66.5179 234.517 66.2867 234.472 65.9492Z" fill="#ABF2AB"/>
<path d="M227.964 50.1341C227.919 49.7967 228.099 49.4718 228.374 49.4155C228.644 49.3593 228.904 49.5842 228.949 49.9279C228.994 50.2653 228.814 50.5903 228.539 50.6465C228.269 50.7027 228.009 50.4715 227.964 50.1341Z" fill="#ABF2AB"/>
<path d="M255.016 60.8942C254.971 60.5568 255.151 60.2318 255.426 60.1756C255.695 60.1194 255.955 60.3443 256 60.688C256.045 61.0254 255.865 61.3503 255.59 61.4066C255.321 61.469 255.061 61.2379 255.016 60.8942Z" fill="#ABF2AB"/>
<path d="M274.56 82.6766C274.505 82.2517 274.729 81.8455 275.069 81.7768C275.409 81.7081 275.734 81.9893 275.789 82.4142C275.844 82.8391 275.619 83.2452 275.279 83.314C274.939 83.3889 274.62 83.1015 274.56 82.6766Z" fill="#ABF2AB"/>
<path d="M264.928 64.8245C264.848 64.2309 265.168 63.6623 265.643 63.5623C266.117 63.4623 266.572 63.8622 266.652 64.4559C266.732 65.0495 266.412 65.6181 265.937 65.7181C265.458 65.8243 265.008 65.4181 264.928 64.8245Z" fill="#ABF2AB"/>
<path d="M259.859 87.3631C259.814 87.0256 259.994 86.7007 260.269 86.6445C260.539 86.5882 260.799 86.8194 260.844 87.1569C260.889 87.4943 260.709 87.8192 260.434 87.8754C260.164 87.9317 259.904 87.7005 259.859 87.3631Z" fill="#ABF2AB"/>
<path d="M249.957 75.5095C249.912 75.1721 250.092 74.8472 250.367 74.791C250.637 74.7347 250.897 74.9597 250.942 75.3033C250.987 75.6408 250.802 75.9657 250.532 76.0219C250.262 76.0782 250.002 75.8532 249.957 75.5095Z" fill="#ABF2AB"/>
<path d="M283.277 55.7266C283.232 55.3892 283.412 55.0642 283.687 55.008C283.957 54.9518 284.217 55.1767 284.262 55.5204C284.307 55.8578 284.122 56.1827 283.852 56.239C283.582 56.2952 283.322 56.064 283.277 55.7266Z" fill="#ABF2AB"/>
<path d="M261.524 76.7092C261.479 76.3718 261.659 76.0469 261.934 75.9907C262.204 75.9344 262.464 76.1594 262.509 76.503C262.554 76.8405 262.374 77.1654 262.099 77.2216C261.829 77.2841 261.574 77.0529 261.524 76.7092Z" fill="#ABF2AB"/>
<path d="M255.016 60.8942C254.971 60.5568 255.151 60.2318 255.426 60.1756C255.695 60.1194 255.955 60.3443 256 60.688C256.045 61.0254 255.865 61.3503 255.59 61.4066C255.321 61.469 255.061 61.2379 255.016 60.8942Z" fill="#ABF2AB"/>
<path d="M282.073 71.6604C282.028 71.323 282.213 70.9981 282.483 70.9418C282.752 70.8856 283.012 71.1105 283.057 71.4542C283.102 71.7916 282.922 72.1166 282.648 72.1728C282.373 72.229 282.118 72.0041 282.073 71.6604Z" fill="#ABF2AB"/>
<path d="M302.864 93.4015C302.902 92.9727 302.654 92.5866 302.311 92.5391C301.968 92.4915 301.66 92.8006 301.622 93.2293C301.584 93.6581 301.831 94.0442 302.174 94.0917C302.517 94.1392 302.826 93.8302 302.864 93.4015Z" fill="#ABF2AB"/>
<path d="M291.98 75.5908C291.9 74.9971 292.22 74.4285 292.695 74.3286C293.17 74.2286 293.625 74.6285 293.705 75.2221C293.784 75.8157 293.465 76.3843 292.99 76.4843C292.51 76.5843 292.06 76.1844 291.98 75.5908Z" fill="#ABF2AB"/>
<path d="M286.912 98.1293C286.867 97.7919 287.047 97.4669 287.322 97.4107C287.591 97.3545 287.851 97.5794 287.896 97.9231C287.941 98.2605 287.756 98.5854 287.487 98.6417C287.217 98.6979 286.962 98.4667 286.912 98.1293Z" fill="#ABF2AB"/>
<path d="M277.009 86.2758C276.964 85.9384 277.144 85.6135 277.419 85.5573C277.689 85.501 277.949 85.726 277.994 86.0696C278.039 86.4071 277.859 86.732 277.584 86.7882C277.314 86.8445 277.059 86.6133 277.009 86.2758Z" fill="#ABF2AB"/>
<path d="M310.33 66.4867C310.285 66.1492 310.465 65.8243 310.739 65.7681C311.009 65.7118 311.269 65.9368 311.314 66.2804C311.359 66.6179 311.179 66.9428 310.904 66.999C310.635 67.0553 310.375 66.8303 310.33 66.4867Z" fill="#ABF2AB"/>
<path d="M288.581 87.4756C288.536 87.1381 288.716 86.8132 288.991 86.757C289.261 86.7007 289.521 86.9319 289.566 87.2693C289.611 87.6068 289.431 87.9317 289.156 87.9879C288.886 88.0442 288.626 87.8192 288.581 87.4756Z" fill="#ABF2AB"/>
<path d="M282.073 71.6604C282.028 71.323 282.213 70.9981 282.483 70.9418C282.752 70.8856 283.012 71.1105 283.057 71.4542C283.102 71.7916 282.922 72.1166 282.648 72.1728C282.373 72.229 282.118 72.0041 282.073 71.6604Z" fill="#ABF2AB"/>
<path d="M309.125 82.4267C309.08 82.0892 309.26 81.7643 309.535 81.7081C309.805 81.6518 310.065 81.883 310.11 82.2205C310.155 82.5579 309.975 82.8828 309.7 82.939C309.43 82.9953 309.17 82.7703 309.125 82.4267Z" fill="#ABF2AB"/>
<path d="M328.668 104.203C328.613 103.778 328.838 103.372 329.178 103.303C329.518 103.234 329.843 103.516 329.898 103.941C329.953 104.365 329.728 104.772 329.388 104.84C329.048 104.915 328.728 104.628 328.668 104.203Z" fill="#ABF2AB"/>
<path d="M319.031 86.3571C318.951 85.7634 319.271 85.1948 319.746 85.0948C320.221 84.9949 320.676 85.3948 320.756 85.9884C320.836 86.582 320.516 87.1506 320.041 87.2506C319.566 87.3506 319.116 86.9507 319.031 86.3571Z" fill="#ABF2AB"/>
<path d="M313.968 108.889C313.923 108.552 314.108 108.227 314.378 108.171C314.647 108.115 314.907 108.339 314.952 108.683C314.997 109.027 314.817 109.346 314.543 109.402C314.273 109.464 314.013 109.233 313.968 108.889Z" fill="#ABF2AB"/>
<path d="M304.066 97.0421C304.021 96.7046 304.206 96.3797 304.476 96.3235C304.746 96.2672 305.006 96.4922 305.051 96.8359C305.096 97.1733 304.916 97.4982 304.641 97.5544C304.371 97.6107 304.111 97.3795 304.066 97.0421Z" fill="#ABF2AB"/>
<path d="M337.386 77.2529C337.341 76.9155 337.521 76.5905 337.796 76.5343C338.066 76.4781 338.326 76.7093 338.371 77.0467C338.416 77.3841 338.231 77.709 337.961 77.7653C337.686 77.8215 337.431 77.5966 337.386 77.2529Z" fill="#ABF2AB"/>
<path d="M315.632 98.2418C315.587 97.9044 315.767 97.5794 316.042 97.5232C316.312 97.467 316.572 97.6982 316.617 98.0356C316.662 98.373 316.482 98.6979 316.207 98.7542C315.937 98.8104 315.677 98.5855 315.632 98.2418Z" fill="#ABF2AB"/>
<path d="M309.125 82.4267C309.08 82.0892 309.26 81.7643 309.534 81.7081C309.804 81.6518 310.064 81.883 310.109 82.2205C310.154 82.5579 309.974 82.8828 309.699 82.939C309.429 82.9953 309.17 82.7703 309.125 82.4267Z" fill="#ABF2AB"/>
<path d="M336.181 93.193C336.136 92.8555 336.321 92.5306 336.591 92.4744C336.861 92.4181 337.121 92.6493 337.166 92.9868C337.211 93.3242 337.026 93.6491 336.756 93.7053C336.481 93.7616 336.226 93.5304 336.181 93.193Z" fill="#ABF2AB"/>
<path d="M351.567 56.5388C351.512 56.1139 351.737 55.7078 352.077 55.6391C352.417 55.5703 352.742 55.8515 352.797 56.2764C352.852 56.7013 352.627 57.1075 352.287 57.1762C351.947 57.2512 351.622 56.97 351.567 56.5388Z" fill="#ABF2AB"/>
<path d="M341.93 38.693C341.85 38.0994 342.17 37.5308 342.645 37.4308C343.12 37.3308 343.575 37.7307 343.655 38.3243C343.735 38.9179 343.415 39.4866 342.94 39.5865C342.46 39.6928 342.01 39.2866 341.93 38.693Z" fill="#ABF2AB"/>
<path d="M336.861 61.2315C336.816 60.8941 336.996 60.5692 337.271 60.5129C337.541 60.4567 337.801 60.6816 337.846 61.0253C337.891 61.3627 337.711 61.6877 337.436 61.7439C337.166 61.8001 336.911 61.5689 336.861 61.2315Z" fill="#ABF2AB"/>
<path d="M326.959 49.3781C326.914 49.0406 327.099 48.7157 327.369 48.6595C327.639 48.6032 327.899 48.8282 327.944 49.1719C327.989 49.5093 327.809 49.8342 327.534 49.8905C327.264 49.9467 327.009 49.7217 326.959 49.3781Z" fill="#ABF2AB"/>
<path d="M360.28 29.5888C360.235 29.2514 360.42 28.9265 360.69 28.8702C360.959 28.814 361.219 29.039 361.264 29.3826C361.309 29.72 361.129 30.045 360.855 30.1012C360.585 30.1637 360.325 29.9325 360.28 29.5888Z" fill="#ABF2AB"/>
<path d="M338.531 50.5777C338.486 50.2403 338.666 49.9154 338.941 49.8591C339.211 49.8029 339.471 50.0278 339.516 50.3715C339.561 50.7089 339.376 51.0339 339.106 51.0901C338.836 51.1526 338.576 50.9214 338.531 50.5777Z" fill="#ABF2AB"/>
<path d="M332.023 34.7627C331.978 34.4252 332.158 34.1003 332.433 34.0441C332.703 33.9878 332.963 34.2128 333.008 34.5564C333.053 34.8939 332.868 35.2188 332.598 35.275C332.323 35.3375 332.068 35.1063 332.023 34.7627Z" fill="#ABF2AB"/>
<path d="M359.075 45.5289C359.03 45.1915 359.215 44.8665 359.484 44.8103C359.754 44.7541 360.014 44.979 360.059 45.3227C360.104 45.6601 359.924 45.985 359.649 46.0413C359.38 46.0975 359.12 45.8726 359.075 45.5289Z" fill="#ABF2AB"/>
<path d="M298.573 62.0251C298.513 61.6002 298.742 61.1941 299.082 61.1253C299.422 61.0566 299.747 61.3378 299.802 61.7627C299.857 62.1876 299.632 62.5937 299.292 62.6625C298.952 62.7374 298.627 62.45 298.573 62.0251Z" fill="#ABF2AB"/>
<path d="M288.935 44.1792C288.855 43.5856 289.175 43.017 289.65 42.917C290.125 42.817 290.58 43.2169 290.66 43.8105C290.74 44.4041 290.42 44.9728 289.945 45.0727C289.47 45.1727 289.015 44.7728 288.935 44.1792Z" fill="#ABF2AB"/>
<path d="M283.872 66.7115C283.827 66.3741 284.007 66.0492 284.282 65.9929C284.551 65.9367 284.811 66.1616 284.856 66.5053C284.901 66.8427 284.716 67.1676 284.446 67.2239C284.172 67.2801 283.917 67.0552 283.872 66.7115Z" fill="#ABF2AB"/>
<path d="M273.97 54.8643C273.925 54.5269 274.105 54.2019 274.38 54.1457C274.65 54.0895 274.91 54.3144 274.954 54.6581C274.999 54.9955 274.815 55.3204 274.545 55.3767C274.27 55.4329 274.015 55.2017 273.97 54.8643Z" fill="#ABF2AB"/>
<path d="M307.285 35.075C307.24 34.7376 307.425 34.4127 307.694 34.3564C307.964 34.3002 308.224 34.5252 308.269 34.8688C308.314 35.2062 308.134 35.5312 307.859 35.5874C307.589 35.6436 307.335 35.4187 307.285 35.075Z" fill="#ABF2AB"/>
<path d="M285.536 56.064C285.491 55.7266 285.676 55.4016 285.946 55.3454C286.216 55.2892 286.476 55.5141 286.521 55.8578C286.566 56.1952 286.381 56.5201 286.111 56.5764C285.841 56.6326 285.581 56.4014 285.536 56.064Z" fill="#ABF2AB"/>
<path d="M279.028 40.2489C278.983 39.9114 279.168 39.5865 279.438 39.5303C279.708 39.474 279.968 39.699 280.013 40.0427C280.058 40.3801 279.873 40.705 279.603 40.7612C279.333 40.8175 279.073 40.5863 279.028 40.2489Z" fill="#ABF2AB"/>
<path d="M306.08 51.0151C306.035 50.6777 306.215 50.3527 306.49 50.2965C306.76 50.2403 307.02 50.4652 307.065 50.8089C307.11 51.1463 306.93 51.4712 306.655 51.5275C306.38 51.5837 306.125 51.3525 306.08 51.0151Z" fill="#ABF2AB"/>
<path d="M325.624 72.7915C325.569 72.3666 325.794 71.9604 326.134 71.8917C326.474 71.8229 326.799 72.1041 326.854 72.529C326.909 72.9539 326.684 73.3601 326.344 73.4288C326.004 73.5038 325.684 73.2164 325.624 72.7915Z" fill="#ABF2AB"/>
<path d="M315.993 54.9393C315.913 54.3457 316.233 53.777 316.708 53.6771C317.182 53.5771 317.637 53.977 317.717 54.5706C317.797 55.1642 317.477 55.7328 317.002 55.8328C316.523 55.939 316.073 55.5391 315.993 54.9393Z" fill="#ABF2AB"/>
<path d="M310.924 77.4779C310.879 77.1404 311.059 76.8155 311.334 76.7593C311.604 76.703 311.864 76.928 311.909 77.2717C311.954 77.6091 311.774 77.934 311.499 77.9902C311.229 78.0465 310.969 77.8215 310.924 77.4779Z" fill="#ABF2AB"/>
<path d="M301.022 65.6306C300.977 65.2931 301.157 64.9682 301.432 64.912C301.702 64.8557 301.962 65.0807 302.007 65.4244C302.052 65.7618 301.872 66.0867 301.597 66.143C301.327 66.1992 301.067 65.968 301.022 65.6306Z" fill="#ABF2AB"/>
<path d="M334.342 45.8414C334.297 45.504 334.477 45.179 334.752 45.1228C335.022 45.0666 335.282 45.2978 335.327 45.6352C335.372 45.9726 335.192 46.2975 334.917 46.3538C334.647 46.41 334.387 46.1788 334.342 45.8414Z" fill="#ABF2AB"/>
<path d="M312.589 66.8303C312.544 66.4929 312.724 66.1679 312.999 66.1117C313.269 66.0555 313.529 66.2867 313.574 66.6241C313.619 66.9615 313.439 67.2864 313.164 67.3427C312.894 67.3989 312.639 67.1677 312.589 66.8303Z" fill="#ABF2AB"/>
<path d="M306.081 51.0152C306.036 50.6777 306.216 50.3528 306.49 50.2966C306.76 50.2403 307.02 50.4653 307.065 50.809C307.11 51.1464 306.93 51.4713 306.655 51.5275C306.381 51.5838 306.126 51.3526 306.081 51.0152Z" fill="#ABF2AB"/>
<path d="M333.137 61.7815C333.092 61.4441 333.272 61.1192 333.547 61.0629C333.817 61.0067 334.077 61.2316 334.122 61.5753C334.167 61.9127 333.987 62.2377 333.712 62.2939C333.437 62.3501 333.182 62.1189 333.137 61.7815Z" fill="#ABF2AB"/>
<path d="M352.682 83.5577C352.627 83.1328 352.852 82.7266 353.192 82.6579C353.532 82.5829 353.857 82.8703 353.912 83.2952C353.967 83.7201 353.742 84.1263 353.402 84.195C353.062 84.27 352.737 83.9826 352.682 83.5577Z" fill="#ABF2AB"/>
<path d="M343.045 65.7056C342.965 65.112 343.285 64.5433 343.76 64.4434C344.235 64.3434 344.689 64.7433 344.769 65.3369C344.849 65.9305 344.53 66.4991 344.055 66.5991C343.575 66.7053 343.125 66.3054 343.045 65.7056Z" fill="#ABF2AB"/>
<path d="M337.977 88.2441C337.932 87.9067 338.112 87.5817 338.386 87.5255C338.661 87.4693 338.916 87.6942 338.961 88.0379C339.006 88.3753 338.821 88.7002 338.551 88.7565C338.282 88.8127 338.027 88.5815 337.977 88.2441Z" fill="#ABF2AB"/>
<path d="M328.074 76.3906C328.029 76.0532 328.209 75.7282 328.484 75.672C328.754 75.6158 329.014 75.847 329.059 76.1844C329.104 76.5218 328.919 76.8467 328.649 76.903C328.379 76.9592 328.124 76.7343 328.074 76.3906Z" fill="#ABF2AB"/>
<path d="M361.395 56.6076C361.35 56.2702 361.53 55.9453 361.804 55.889C362.074 55.8328 362.334 56.064 362.379 56.4014C362.424 56.7388 362.244 57.0638 361.969 57.12C361.7 57.1762 361.44 56.9451 361.395 56.6076Z" fill="#ABF2AB"/>
<path d="M339.646 77.5966C339.601 77.2592 339.781 76.9342 340.056 76.878C340.326 76.8218 340.586 77.0467 340.631 77.3904C340.676 77.7278 340.496 78.0527 340.221 78.109C339.951 78.1652 339.691 77.934 339.646 77.5966Z" fill="#ABF2AB"/>
<path d="M333.138 61.7815C333.093 61.444 333.273 61.1191 333.548 61.0629C333.818 61.0066 334.077 61.2316 334.122 61.5752C334.167 61.9127 333.988 62.2376 333.713 62.2938C333.438 62.3501 333.183 62.1189 333.138 61.7815Z" fill="#ABF2AB"/>
<path d="M360.19 72.5415C360.145 72.204 360.325 71.8791 360.6 71.8229C360.87 71.7666 361.13 71.9916 361.175 72.3353C361.22 72.6727 361.04 72.9976 360.765 73.0538C360.495 73.1163 360.235 72.8851 360.19 72.5415Z" fill="#ABF2AB"/>
<path d="M370.096 76.4718C370.016 75.8782 370.336 75.3096 370.811 75.2096C371.286 75.1096 371.741 75.5095 371.821 76.1031C371.901 76.6968 371.581 77.2654 371.106 77.3653C370.631 77.4716 370.181 77.0654 370.096 76.4718Z" fill="#ABF2AB"/>
<path d="M365.033 99.0103C364.988 98.6729 365.173 98.348 365.442 98.2918C365.712 98.2355 365.972 98.4667 366.017 98.8041C366.062 99.1416 365.882 99.4665 365.607 99.5227C365.338 99.579 365.078 99.3478 365.033 99.0103Z" fill="#ABF2AB"/>
<path d="M355.131 87.1568C355.086 86.8194 355.271 86.4945 355.541 86.4382C355.811 86.382 356.071 86.6069 356.115 86.9506C356.16 87.288 355.981 87.613 355.706 87.6692C355.436 87.7254 355.176 87.5005 355.131 87.1568Z" fill="#ABF2AB"/>
<path d="M366.697 88.3565C366.652 88.0191 366.832 87.6942 367.107 87.6379C367.377 87.5817 367.637 87.8066 367.682 88.1503C367.727 88.4877 367.547 88.8127 367.272 88.8689C367.002 88.9314 366.742 88.7002 366.697 88.3565Z" fill="#ABF2AB"/>
<path d="M360.19 72.5415C360.145 72.204 360.324 71.8791 360.599 71.8229C360.869 71.7666 361.129 71.9916 361.174 72.3353C361.219 72.6727 361.039 72.9976 360.764 73.0538C360.494 73.1163 360.234 72.8851 360.19 72.5415Z" fill="#ABF2AB"/>
<path d="M263.227 385.538L262.105 389.766C263.93 397.823 268.972 424.339 266.038 460.996H271.818C272.088 453.493 272.599 422.688 264.707 389.124L263.227 385.538Z" fill="url(#paint21_linear_592_1710)"/>
<path d="M258.879 380.992C255.862 380.503 252.737 380.695 249.803 381.543C249.677 380.848 249.463 380.167 249.166 379.529C248.782 380.11 248.476 380.743 248.267 381.407C246.543 381.735 244.879 382.368 243.369 383.263C243.413 382.77 243.33 382.263 243.133 381.805C242.714 382.364 242.426 383.019 242.299 383.704C241.488 383.805 240.732 384.281 240.291 384.971C240.252 384.626 240.213 384.281 240.178 383.936C239.44 385.259 238.327 386.377 237 387.119C237.637 385.119 238.567 383.202 239.864 381.556C240.68 380.521 241.64 379.591 242.732 378.857C244.015 377.992 245.464 377.403 246.94 376.94C249.638 376.093 252.492 375.652 255.299 375.953C257.312 376.171 259.324 376.791 260.922 378.04C262.519 379.285 263.65 381.215 263.646 383.237C263.646 382.918 262.127 382.071 261.808 381.883C260.944 381.359 259.861 381.15 258.879 380.992Z" fill="url(#paint22_linear_592_1710)"/>
<path d="M244.238 367.289C248.075 366.145 252.335 366.839 255.845 368.765C257.102 369.455 258.285 370.306 259.193 371.42C260.167 372.612 260.778 374.062 261.201 375.542C261.76 377.503 262 379.591 261.577 381.586C261.555 381.695 259.717 380.652 259.564 380.473C259.189 380.032 259.219 379.647 259.08 379.119C258.704 377.678 257.504 376.442 256.526 375.35C254.409 372.988 251.89 370.983 249.123 369.437C247.569 368.573 245.932 367.848 244.238 367.289Z" fill="url(#paint23_linear_592_1710)"/>
<path d="M257.277 364.917C257.421 363.184 257.762 361.385 258.831 360.013C259.132 360.192 259.407 360.415 259.639 360.677C259.228 359.529 260.176 358.367 261.114 357.585C262.315 356.585 263.62 355.716 265.008 355C263.131 358.149 262.969 361.996 262.978 365.664C262.629 365.712 262.284 365.83 261.978 366.005C262.315 366.276 262.686 366.503 263.078 366.682C263.009 369.948 263.362 373.223 264.126 376.403C264.571 378.254 265.161 380.119 265.052 382.019C265.034 382.281 265.004 382.556 264.846 382.761C264.619 383.058 264.187 383.141 263.825 383.045C263.463 382.949 263.157 382.713 262.873 382.468C258.015 378.263 256.766 371.022 257.277 364.917Z" fill="url(#paint24_linear_592_1710)"/>
<path d="M267.335 367.765C271.303 363.786 277.562 362.066 282.844 363.979C280.304 364.682 278.239 366.494 276.27 368.254C275.489 368.953 274.712 369.647 273.931 370.346C273.752 370.503 273.568 370.669 273.341 370.747C272.774 370.953 272.154 370.577 271.556 370.634C271.665 371.119 271.848 371.586 272.093 372.018C271.329 372.154 270.547 372.215 269.77 372.197C270.059 372.612 270.386 372.996 270.748 373.346C269.312 375.031 267.872 376.73 266.754 378.639C265.637 380.551 264.855 382.709 264.855 384.923C264.855 384.827 262.642 383.739 262.384 383.15C261.93 382.11 262.149 380.529 262.227 379.438C262.428 376.691 263.188 373.975 264.51 371.555C265.274 370.167 266.221 368.883 267.335 367.765Z" fill="url(#paint25_linear_592_1710)"/>
<path d="M264.449 378.311C265.933 377.735 267.539 377.56 269.133 377.494C272.415 377.359 275.742 377.673 278.863 378.713C281.98 379.752 284.887 381.538 287.004 384.054C284.926 384.006 282.844 384.123 280.784 384.403C280.242 384.477 279.688 384.56 279.147 384.473C278.605 384.385 278.064 384.097 277.824 383.608C277.549 384.006 277.379 384.477 277.339 384.958C276.899 385.119 276.44 385.281 275.973 385.228C275.506 385.18 275.035 384.853 274.982 384.385C274.891 384.765 274.799 385.145 274.707 385.521C269.875 384.809 264.877 385.272 260.254 386.857C260.114 386.905 260.027 384.385 260.044 384.18C260.132 383.259 260.376 382.329 260.791 381.499C261.541 379.992 262.895 378.918 264.449 378.311Z" fill="url(#paint26_linear_592_1710)"/>
<path d="M274.013 386.386C277.3 388.752 279.352 392.67 279.688 396.705C277.981 395.548 276.161 394.561 274.258 393.757C273.9 393.604 273.524 393.451 273.267 393.154C273.013 392.857 272.931 392.373 273.197 392.089C272.848 392.368 272.494 392.648 272.145 392.927C268.709 390.215 264.51 388.486 260.158 388.001C260.219 388.01 262.135 385.316 262.528 385.019C263.423 384.337 264.68 384.185 265.771 384.093C268.674 383.857 271.656 384.687 274.013 386.386Z" fill="url(#paint27_linear_592_1710)"/>
<path d="M260.756 390.757C260.428 391.277 260.145 391.84 259.665 392.224C259.184 392.609 258.438 392.744 257.98 392.338C258.381 393.211 258.18 394.259 257.739 395.115C257.299 395.971 256.648 396.696 256.089 397.482C255.081 398.906 254.391 400.552 254.077 402.268C253.75 399.15 253.806 395.989 254.247 392.884C254.509 391.023 254.928 389.137 255.928 387.543C256.927 385.949 258.599 384.682 260.476 384.591C261.961 384.521 264.143 385.394 264.584 386.931C263.069 387.578 261.616 389.39 260.756 390.757Z" fill="url(#paint28_linear_592_1710)"/>
<path d="M262.855 382.228C261.808 381.416 260.45 381.093 259.123 381.071C256.6 381.027 254.16 381.984 251.955 383.206C249.781 384.412 247.725 385.923 246.293 387.953C244.892 389.949 244.163 392.355 243.818 394.77C245.805 392.019 248.934 390.368 251.955 388.818C252.139 387.905 252.361 387.001 252.632 386.115C252.894 386.678 253.151 387.246 253.413 387.809C253.182 387.307 256.565 385.814 256.927 385.696C258.307 385.241 259.787 385.093 261.227 385.276C261.934 385.368 262.628 385.534 263.296 385.787C263.82 385.984 264.305 386.49 264.549 386.006C264.702 385.704 264.313 384.403 264.209 384.093C263.955 383.355 263.467 382.7 262.855 382.228Z" fill="url(#paint29_linear_592_1710)"/>
<g clip-path="url(#clip3_592_1710)">
<path d="M209 220.145C208.59 219.787 185.721 199.406 188.178 185.133C190.524 171.568 207.086 172 209 172C210.928 172 227.475 171.575 229.813 185.14C232.278 199.413 209.409 219.787 209 220.145Z" fill="url(#paint30_linear_592_1710)"/>
<path d="M209 220.145C208.709 219.787 192.468 199.413 194.218 185.14C195.871 171.568 207.644 172 209 172C210.37 172 222.121 171.575 223.782 185.14C225.532 199.413 209.29 219.787 209 220.145Z" fill="url(#paint31_linear_592_1710)"/>
<path d="M209 220.145C208.903 219.787 203.727 199.406 204.286 185.133C204.815 171.568 208.568 172 209 172C209.439 172 213.185 171.575 213.713 185.141C214.272 199.413 209.089 219.787 209 220.145Z" fill="url(#paint32_linear_592_1710)"/>
<path d="M209 219.981C208.992 219.981 208.992 219.988 208.992 219.988C208.992 219.988 208.992 219.981 208.992 219.973C209 219.973 209 219.981 209 219.981Z" fill="url(#paint33_linear_592_1710)"/>
<path d="M209.008 219.973C209.008 219.981 209.008 219.988 209.008 219.988C209.008 219.988 209.008 219.988 209 219.981C209 219.981 209 219.973 209.008 219.973Z" fill="url(#paint34_linear_592_1710)"/>
<path d="M205.313 225.218L209 219.981L212.671 225.113" fill="url(#paint35_linear_592_1710)"/>
<path d="M212.284 230H205.716C205.083 230 204.569 229.486 204.569 228.853V224.368C204.569 224.234 204.681 224.123 204.815 224.123H213.192C213.326 224.123 213.438 224.234 213.438 224.368V228.853C213.431 229.479 212.917 230 212.284 230Z" fill="url(#paint36_linear_592_1710)"/>
</g>
<g clip-path="url(#clip4_592_1710)">
<path d="M32.4247 477.215C32.4247 477.215 31.1284 484.233 33.0757 487.303C35.023 490.373 41.0801 489.713 41.731 490.373C42.382 491.033 42.1613 502 42.1613 502H47.3522L48.0032 483.355C48.0032 483.355 52.7639 482.695 54.7112 480.721C56.6585 478.747 59.2568 469.094 57.3095 468.658C55.3622 468.222 53.8451 477.651 52.3337 478.311C50.8166 478.971 46.922 478.747 46.922 478.747C46.922 478.747 48.8693 459.442 46.4918 459.006C44.1142 458.57 42.382 486.867 42.382 486.867C42.382 486.867 36.325 487.527 35.674 484.457C35.023 481.387 35.023 478.093 34.1569 476.997C33.2908 475.895 32.4247 477.215 32.4247 477.215Z" fill="#9ABF70"/>
</g>
<g clip-path="url(#clip5_592_1710)">
<path d="M98.9602 510.12C96.3902 504.17 90.4802 500 83.5902 500C76.7002 500 70.7802 504.17 68.2202 510.12H98.9602Z" fill="url(#paint37_linear_592_1710)"/>
<path d="M321.71 511.82C319.15 505.87 313.23 501.7 306.34 501.7C299.45 501.7 293.53 505.87 290.97 511.82H321.71Z" fill="url(#paint38_linear_592_1710)"/>
<path d="M203.11 518.55C200.98 513.6 196.06 510.13 190.32 510.13C184.58 510.13 179.66 513.6 177.53 518.55H203.11Z" fill="url(#paint39_linear_592_1710)"/>
<path d="M109.93 513.49C108.23 509.54 104.3 506.76 99.7198 506.76C95.1398 506.76 91.2098 509.53 89.5098 513.49H109.93Z" fill="url(#paint40_linear_592_1710)"/>
<path d="M288.43 521.91C287 518.59 283.7 516.27 279.86 516.27C276.02 516.27 272.72 518.6 271.29 521.91H288.43Z" fill="url(#paint41_linear_592_1710)"/>
<path d="M367.25 521.91C365.82 518.59 362.52 516.27 358.68 516.27C354.84 516.27 351.54 518.6 350.11 521.91H367.25Z" fill="url(#paint42_linear_592_1710)"/>
<path d="M24.14 521.91C22.71 518.59 19.41 516.27 15.57 516.27C11.73 516.27 8.43 518.59 7 521.91H24.14Z" fill="url(#paint43_linear_592_1710)"/>
</g>
</g>
<defs>
<linearGradient id="paint0_linear_592_1710" x1="149.498" y1="443.1" x2="149.498" y2="96.8521" gradientUnits="userSpaceOnUse">
<stop stop-color="white"/>
<stop offset="1" stop-color="#DCF2DD"/>
</linearGradient>
<linearGradient id="paint1_linear_592_1710" x1="193.636" y1="324" x2="193.636" y2="387" gradientUnits="userSpaceOnUse">
<stop stop-color="#BDD09B"/>
<stop offset="1" stop-color="#BDD09B" stop-opacity="0"/>
</linearGradient>
<linearGradient id="paint2_linear_592_1710" x1="193.636" y1="341.903" x2="155" y2="355" gradientUnits="userSpaceOnUse">
<stop stop-color="#BDD09B"/>
<stop offset="1" stop-color="#BDD09B" stop-opacity="0"/>
</linearGradient>
<linearGradient id="paint3_linear_592_1710" x1="228.371" y1="350.517" x2="225.848" y2="349.259" gradientUnits="userSpaceOnUse">
<stop stop-color="#BDD09B"/>
<stop offset="1" stop-color="#BDD09B" stop-opacity="0"/>
</linearGradient>
<linearGradient id="paint4_linear_592_1710" x1="158.92" y1="350.517" x2="156.686" y2="350.556" gradientUnits="userSpaceOnUse">
<stop stop-color="#BDD09B"/>
<stop offset="1" stop-color="#BDD09B" stop-opacity="0"/>
</linearGradient>
<linearGradient id="paint5_linear_592_1710" x1="204.542" y1="350.517" x2="185.513" y2="353.433" gradientUnits="userSpaceOnUse">
<stop stop-color="#BDD09B"/>
<stop offset="1" stop-color="#BDD09B" stop-opacity="0"/>
</linearGradient>
<linearGradient id="paint6_linear_592_1710" x1="174.332" y1="349.336" x2="174.332" y2="378.555" gradientUnits="userSpaceOnUse">
<stop stop-color="#D0F4D4"/>
<stop offset="1" stop-color="#D6EBB2"/>
</linearGradient>
<linearGradient id="paint7_linear_592_1710" x1="174.199" y1="378.555" x2="174.199" y2="387" gradientUnits="userSpaceOnUse">
<stop stop-color="#51AA51" stop-opacity="0"/>
<stop offset="1" stop-color="#ECF3E5"/>
</linearGradient>
<linearGradient id="paint8_linear_592_1710" x1="256.744" y1="301.735" x2="256.744" y2="406.996" gradientUnits="userSpaceOnUse">
<stop stop-color="#BDD09B"/>
<stop offset="1" stop-color="#BDD09B" stop-opacity="0"/>
</linearGradient>
<linearGradient id="paint9_linear_592_1710" x1="357.675" y1="267.438" x2="357.675" y2="323.593" gradientUnits="userSpaceOnUse">
<stop stop-color="#BDD09B"/>
<stop offset="1" stop-color="#BDD09B" stop-opacity="0"/>
</linearGradient>
<linearGradient id="paint10_linear_592_1710" x1="304.717" y1="271.104" x2="304.717" y2="371.373" gradientUnits="userSpaceOnUse">
<stop stop-color="#BDD09B"/>
<stop offset="1" stop-color="#BDD09B" stop-opacity="0"/>
</linearGradient>
<linearGradient id="paint11_linear_592_1710" x1="117.587" y1="233" x2="117.587" y2="404.717" gradientUnits="userSpaceOnUse">
<stop stop-color="#BDD09B"/>
<stop offset="1" stop-color="#BDD09B" stop-opacity="0"/>
</linearGradient>
<linearGradient id="paint12_linear_592_1710" x1="224.002" y1="372.841" x2="224.002" y2="441.356" gradientUnits="userSpaceOnUse">
<stop stop-color="#BDD09B"/>
<stop offset="1" stop-color="#BDD09B" stop-opacity="0"/>
</linearGradient>
<linearGradient id="paint13_linear_592_1710" x1="323.813" y1="362.358" x2="323.813" y2="392.73" gradientUnits="userSpaceOnUse">
<stop stop-color="#90A963"/>
<stop offset="1" stop-color="#BFDA8E"/>
</linearGradient>
<linearGradient id="paint14_linear_592_1710" x1="187.502" y1="387.31" x2="187.502" y2="570.244" gradientUnits="userSpaceOnUse">
<stop stop-color="#BDD09B"/>
<stop offset="1" stop-color="#BDD09B" stop-opacity="0"/>
</linearGradient>
<linearGradient id="paint15_linear_592_1710" x1="26.5918" y1="396.846" x2="324.713" y2="408.085" gradientUnits="userSpaceOnUse">
<stop offset="0.00572087" stop-color="#87A05A"/>
<stop offset="1" stop-color="#CDE79F"/>
</linearGradient>
<linearGradient id="paint16_linear_592_1710" x1="348.538" y1="474.378" x2="349.416" y2="511.906" gradientUnits="userSpaceOnUse">
<stop stop-color="#BDD09B"/>
<stop offset="0.1695" stop-color="#AFC989"/>
<stop offset="0.5049" stop-color="#97BE6C"/>
<stop offset="0.7935" stop-color="#89B759"/>
<stop offset="1" stop-color="#84B553"/>
</linearGradient>
<linearGradient id="paint17_linear_592_1710" x1="322.376" y1="474.122" x2="326.066" y2="508.021" gradientUnits="userSpaceOnUse">
<stop stop-color="#BDD09B"/>
<stop offset="0.1695" stop-color="#AFC989"/>
<stop offset="0.5049" stop-color="#97BE6C"/>
<stop offset="0.7935" stop-color="#89B759"/>
<stop offset="1" stop-color="#84B553"/>
</linearGradient>
<linearGradient id="paint18_linear_592_1710" x1="333.337" y1="447.418" x2="319.357" y2="474.461" gradientUnits="userSpaceOnUse">
<stop stop-color="#BDD09B"/>
<stop offset="0.1695" stop-color="#AFC989"/>
<stop offset="0.5049" stop-color="#97BE6C"/>
<stop offset="0.7935" stop-color="#89B759"/>
<stop offset="1" stop-color="#84B553"/>
</linearGradient>
<linearGradient id="paint19_linear_592_1710" x1="363.772" y1="506.528" x2="355.338" y2="458.772" gradientUnits="userSpaceOnUse">
<stop stop-color="#BDD09B"/>
<stop offset="0.1695" stop-color="#AFC989"/>
<stop offset="0.5049" stop-color="#97BE6C"/>
<stop offset="0.7935" stop-color="#89B759"/>
<stop offset="1" stop-color="#84B553"/>
</linearGradient>
<linearGradient id="paint20_linear_592_1710" x1="336.581" y1="511.41" x2="332.892" y2="457.319" gradientUnits="userSpaceOnUse">
<stop stop-color="#BDD09B"/>
<stop offset="0.1695" stop-color="#AFC989"/>
<stop offset="0.5049" stop-color="#97BE6C"/>
<stop offset="0.7935" stop-color="#89B759"/>
<stop offset="1" stop-color="#84B553"/>
</linearGradient>
<linearGradient id="paint21_linear_592_1710" x1="265.024" y1="392.573" x2="269.195" y2="455.641" gradientUnits="userSpaceOnUse">
<stop stop-color="#294C47"/>
<stop offset="1" stop-color="#57824D"/>
</linearGradient>
<linearGradient id="paint22_linear_592_1710" x1="237" y1="381.486" x2="263.649" y2="381.486" gradientUnits="userSpaceOnUse">
<stop stop-color="#BDD09B"/>
<stop offset="0.1695" stop-color="#AFC989"/>
<stop offset="0.5049" stop-color="#97BE6C"/>
<stop offset="0.7935" stop-color="#89B759"/>
<stop offset="1" stop-color="#84B553"/>
</linearGradient>
<linearGradient id="paint23_linear_592_1710" x1="253.154" y1="369.683" x2="252.938" y2="375.627" gradientUnits="userSpaceOnUse">
<stop stop-color="#BDD09B"/>
<stop offset="0.1695" stop-color="#AFC989"/>
<stop offset="0.5049" stop-color="#97BE6C"/>
<stop offset="0.7935" stop-color="#89B759"/>
<stop offset="1" stop-color="#84B553"/>
</linearGradient>
<linearGradient id="paint24_linear_592_1710" x1="260.948" y1="362.843" x2="265.272" y2="376.675" gradientUnits="userSpaceOnUse">
<stop stop-color="#BDD09B"/>
<stop offset="0.1695" stop-color="#AFC989"/>
<stop offset="0.5049" stop-color="#97BE6C"/>
<stop offset="0.7935" stop-color="#89B759"/>
<stop offset="1" stop-color="#84B553"/>
</linearGradient>
<linearGradient id="paint25_linear_592_1710" x1="273.819" y1="367.497" x2="267.604" y2="379.328" gradientUnits="userSpaceOnUse">
<stop stop-color="#BDD09B"/>
<stop offset="0.1695" stop-color="#AFC989"/>
<stop offset="0.5049" stop-color="#97BE6C"/>
<stop offset="0.7935" stop-color="#89B759"/>
<stop offset="1" stop-color="#84B553"/>
</linearGradient>
<linearGradient id="paint26_linear_592_1710" x1="283.091" y1="381.122" x2="262.398" y2="382.304" gradientUnits="userSpaceOnUse">
<stop stop-color="#BDD09B"/>
<stop offset="0.1695" stop-color="#AFC989"/>
<stop offset="0.5049" stop-color="#97BE6C"/>
<stop offset="0.7935" stop-color="#89B759"/>
<stop offset="1" stop-color="#84B553"/>
</linearGradient>
<linearGradient id="paint27_linear_592_1710" x1="274.476" y1="388.191" x2="269.154" y2="392.414" gradientUnits="userSpaceOnUse">
<stop stop-color="#BDD09B"/>
<stop offset="0.1695" stop-color="#AFC989"/>
<stop offset="0.5049" stop-color="#97BE6C"/>
<stop offset="0.7935" stop-color="#89B759"/>
<stop offset="1" stop-color="#84B553"/>
</linearGradient>
<linearGradient id="paint28_linear_592_1710" x1="253.867" y1="393.426" x2="264.581" y2="393.426" gradientUnits="userSpaceOnUse">
<stop stop-color="#BDD09B"/>
<stop offset="0.1695" stop-color="#AFC989"/>
<stop offset="0.5049" stop-color="#97BE6C"/>
<stop offset="0.7935" stop-color="#89B759"/>
<stop offset="1" stop-color="#84B553"/>
</linearGradient>
<linearGradient id="paint29_linear_592_1710" x1="243.821" y1="387.919" x2="264.583" y2="387.919" gradientUnits="userSpaceOnUse">
<stop stop-color="#BDD09B"/>
<stop offset="0.1695" stop-color="#AFC989"/>
<stop offset="0.5049" stop-color="#97BE6C"/>
<stop offset="0.7935" stop-color="#89B759"/>
<stop offset="1" stop-color="#84B553"/>
</linearGradient>
<linearGradient id="paint30_linear_592_1710" x1="207.317" y1="239.096" x2="208.919" y2="189.88" gradientUnits="userSpaceOnUse">
<stop stop-color="#A9BA8A"/>
<stop offset="1" stop-color="#DCF2DD"/>
</linearGradient>
<linearGradient id="paint31_linear_592_1710" x1="207.317" y1="239.096" x2="208.92" y2="189.881" gradientUnits="userSpaceOnUse">
<stop stop-color="#C6D7A7"/>
<stop offset="1" stop-color="#DCF2DD"/>
</linearGradient>
<linearGradient id="paint32_linear_592_1710" x1="207.321" y1="239.096" x2="208.923" y2="189.881" gradientUnits="userSpaceOnUse">
<stop stop-color="#D3E2B6"/>
<stop offset="1" stop-color="#DCF2DD"/>
</linearGradient>
<linearGradient id="paint33_linear_592_1710" x1="208.369" y1="239.21" x2="209.967" y2="189.791" gradientUnits="userSpaceOnUse">
<stop stop-color="white"/>
<stop offset="1" stop-color="#DCF2DD"/>
</linearGradient>
<linearGradient id="paint34_linear_592_1710" x1="208.376" y1="239.21" x2="209.974" y2="189.791" gradientUnits="userSpaceOnUse">
<stop stop-color="white"/>
<stop offset="1" stop-color="#DCF2DD"/>
</linearGradient>
<linearGradient id="paint35_linear_592_1710" x1="208.538" y1="239.131" x2="210.14" y2="189.926" gradientUnits="userSpaceOnUse">
<stop stop-color="white"/>
<stop offset="1" stop-color="#DCF2DD"/>
</linearGradient>
<linearGradient id="paint36_linear_592_1710" x1="208.59" y1="239.243" x2="210.204" y2="189.657" gradientUnits="userSpaceOnUse">
<stop stop-color="white"/>
<stop offset="1" stop-color="#DCF2DD"/>
</linearGradient>
<linearGradient id="paint37_linear_592_1710" x1="83.5857" y1="502.029" x2="83.5857" y2="509.407" gradientUnits="userSpaceOnUse">
<stop stop-color="#BDD09B"/>
<stop offset="1" stop-color="#BDD09B" stop-opacity="0"/>
</linearGradient>
<linearGradient id="paint38_linear_592_1710" x1="306.34" y1="503.728" x2="306.34" y2="511.105" gradientUnits="userSpaceOnUse">
<stop stop-color="#BDD09B"/>
<stop offset="1" stop-color="#BDD09B" stop-opacity="0"/>
</linearGradient>
<linearGradient id="paint39_linear_592_1710" x1="190.321" y1="511.812" x2="190.321" y2="517.951" gradientUnits="userSpaceOnUse">
<stop stop-color="#BDD09B"/>
<stop offset="1" stop-color="#BDD09B" stop-opacity="0"/>
</linearGradient>
<linearGradient id="paint40_linear_592_1710" x1="99.7169" y1="508.108" x2="99.7169" y2="513.01" gradientUnits="userSpaceOnUse">
<stop stop-color="#BDD09B"/>
<stop offset="1" stop-color="#BDD09B" stop-opacity="0"/>
</linearGradient>
<linearGradient id="paint41_linear_592_1710" x1="279.858" y1="517.397" x2="279.858" y2="521.511" gradientUnits="userSpaceOnUse">
<stop stop-color="#BDD09B"/>
<stop offset="1" stop-color="#BDD09B" stop-opacity="0"/>
</linearGradient>
<linearGradient id="paint42_linear_592_1710" x1="358.676" y1="517.397" x2="358.676" y2="521.511" gradientUnits="userSpaceOnUse">
<stop stop-color="#BDD09B"/>
<stop offset="1" stop-color="#BDD09B" stop-opacity="0"/>
</linearGradient>
<linearGradient id="paint43_linear_592_1710" x1="15.5697" y1="517.397" x2="15.5697" y2="521.511" gradientUnits="userSpaceOnUse">
<stop stop-color="#BDD09B"/>
<stop offset="1" stop-color="#BDD09B" stop-opacity="0"/>
</linearGradient>
<clipPath id="clip0_592_1710">
<rect width="375" height="543" fill="white"/>
</clipPath>
<clipPath id="clip1_592_1710">
<rect width="517" height="556" fill="white" transform="translate(-109 -1)"/>
</clipPath>
<clipPath id="clip2_592_1710">
<rect width="61" height="99" fill="white" transform="translate(3 296)"/>
</clipPath>
<clipPath id="clip3_592_1710">
<rect width="42" height="58" fill="white" transform="translate(188 172)"/>
</clipPath>
<clipPath id="clip4_592_1710">
<rect width="26" height="43" fill="white" transform="translate(32 459)"/>
</clipPath>
<clipPath id="clip5_592_1710">
<rect width="360.25" height="21.91" fill="white" transform="translate(7 500)"/>
</clipPath>
</defs>
</svg>
