<svg width="375" height="812" viewBox="0 0 375 812" fill="none" xmlns="http://www.w3.org/2000/svg">
<g clip-path="url(#clip0_41_3139)">
<rect width="375" height="812" fill="#90EE90"/>
<g clip-path="url(#clip1_41_3139)">
<g opacity="0.46">
<path d="M248.043 61.3919L169.669 64.1734L165.426 -9.5562L248.043 61.3919ZM244.952 60.3047L166.776 -6.82984L170.792 62.9417L244.952 60.3047Z" fill="url(#paint0_linear_41_3139)"/>
<path d="M251.652 61.1743L170.262 67.1601L163.293 -10.9478L251.652 61.1743ZM248.579 60.2035L164.732 -8.23633L171.347 65.8827L248.579 60.2035Z" fill="url(#paint1_linear_41_3139)"/>
<path d="M255.404 60.8068L170.983 70.3086L161.023 -12.3438L255.404 60.8068ZM252.353 59.9526L162.548 -9.65027L172.028 68.9942L252.353 59.9526Z" fill="url(#paint2_linear_41_3139)"/>
<path d="M259.293 60.2746L171.845 73.6309L158.619 -13.7412L259.293 60.2746ZM256.272 59.5312L160.225 -11.0777L172.844 72.2734L256.272 59.5312Z" fill="url(#paint3_linear_41_3139)"/>
<path d="M263.331 59.5629L172.852 77.1272L156.066 -15.1257L263.331 59.5629ZM260.337 58.9274L157.754 -12.4982L173.808 75.7297L260.337 58.9274Z" fill="url(#paint4_linear_41_3139)"/>
<path d="M267.509 58.6511L174.023 80.8102L153.362 -16.5002L267.509 58.6511ZM264.55 58.1265L155.131 -13.9146L174.936 79.3667L264.55 58.1265Z" fill="url(#paint5_linear_41_3139)"/>
<path d="M271.828 57.5268L175.37 84.6741L150.5 -17.8652L271.828 57.5268ZM268.9 57.1103L152.344 -15.3157L176.233 83.1904L268.9 57.1103Z" fill="url(#paint6_linear_41_3139)"/>
<path d="M276.284 56.1636L176.903 88.7253L147.479 -19.2026L276.284 56.1636ZM273.401 55.8554L149.397 -16.6982L177.726 87.2046L273.401 55.8554Z" fill="url(#paint7_linear_41_3139)"/>
<path d="M280.882 54.5465L178.642 92.9763L144.288 -20.5069L280.882 54.5465ZM278.034 54.3435L146.273 -18.0538L179.409 91.4152L278.034 54.3435Z" fill="url(#paint8_linear_41_3139)"/>
<path d="M285.614 52.6547L180.599 97.4305L140.924 -21.7694L285.614 52.6547ZM282.81 52.5541L142.976 -19.3735L181.321 95.8263L282.81 52.5541Z" fill="url(#paint9_linear_41_3139)"/>
<path d="M290.473 50.4639L182.788 102.082L137.374 -22.9845L290.473 50.4639ZM287.716 50.4629L139.493 -20.6459L183.46 100.438L287.716 50.4629Z" fill="url(#paint10_linear_41_3139)"/>
<path d="M294.348 47.4509L295.461 47.9448L185.232 106.945L133.646 -24.1371L294.348 47.4509ZM292.749 48.0462L135.821 -21.862L185.849 105.266L292.749 48.0462Z" fill="url(#paint11_linear_41_3139)"/>
<path d="M300.568 45.0849L187.943 112.023L129.721 -25.2189L300.568 45.0849ZM297.906 45.2771L131.951 -23.0133L188.504 110.298L297.906 45.2771Z" fill="url(#paint12_linear_41_3139)"/>
<path d="M305.787 41.8426L191.519 116.929L190.94 117.311L125.603 -26.2238L305.787 41.8426ZM303.176 42.1315L127.882 -24.0878L191.444 115.548L303.176 42.1315Z" fill="url(#paint13_linear_41_3139)"/>
<path d="M311.11 38.2027L194.243 122.819L121.28 -27.1285L311.11 38.2027ZM308.55 38.5823L123.606 -25.0653L194.691 121.021L308.55 38.5823Z" fill="url(#paint14_linear_41_3139)"/>
<path d="M315.451 33.791L316.528 34.1233L197.872 128.545L116.749 -27.9242L315.451 33.791ZM314.021 34.5968L119.116 -25.9398L198.262 126.711L314.021 34.5968Z" fill="url(#paint15_linear_41_3139)"/>
<path d="M322.028 29.5861L201.847 134.488L112.002 -28.5992L322.028 29.5861ZM319.578 30.1446L114.414 -26.6965L202.176 132.619L319.578 30.1446Z" fill="url(#paint16_linear_41_3139)"/>
<path d="M327.601 24.5493L206.193 140.654L107.044 -29.1326L327.601 24.5493ZM325.201 25.1927L109.488 -27.3121L206.461 138.75L325.201 25.1927Z" fill="url(#paint17_linear_41_3139)"/>
<path d="M333.228 18.9827L210.933 147.038L101.861 -29.5129L333.228 18.9827ZM330.886 19.7111L104.337 -27.7745L211.136 145.102L330.886 19.7111Z" fill="url(#paint18_linear_41_3139)"/>
<path d="M338.9 12.8501L216.09 153.647L96.4583 -29.7104L338.9 12.8501ZM336.611 13.6605L98.9553 -28.0663L216.223 151.673L336.611 13.6605Z" fill="url(#paint19_linear_41_3139)"/>
<path d="M344.591 6.11233L221.684 160.468L90.8241 -29.7193L344.591 6.11233ZM342.356 6.99869L93.3418 -28.1637L221.753 158.463L342.356 6.99869Z" fill="url(#paint20_linear_41_3139)"/>
<path d="M349.26 -1.37785L350.287 -1.27L227.749 167.498L84.9601 -29.513L349.26 -1.37785ZM348.109 -0.30453L87.4924 -28.046L227.744 165.469L348.109 -0.30453Z" fill="url(#paint21_linear_41_3139)"/>
<path d="M355.96 -9.33325L234.3 174.74L78.8575 -29.0709L355.96 -9.33325ZM353.839 -8.28867L81.4044 -27.6925L234.228 172.683L353.839 -8.28867Z" fill="url(#paint22_linear_41_3139)"/>
<path d="M360.575 -18.1618L361.587 -18.1258L241.374 182.184L72.5265 -28.363L360.575 -18.1618ZM359.526 -17.005L75.0794 -27.0825L241.232 180.1L359.526 -17.005Z" fill="url(#paint23_linear_41_3139)"/>
<path d="M367.147 -27.6898L248.998 189.82L65.955 -27.3719L367.147 -27.6898ZM365.14 -26.4929L68.5138 -26.1832L248.778 187.716L365.14 -26.4929Z" fill="url(#paint24_linear_41_3139)"/>
<path d="M371.605 -38.0294L372.604 -38.068L257.194 197.645L59.148 -26.0617L371.605 -38.0294ZM370.654 -36.7981L61.7098 -24.968L256.907 195.523L370.654 -36.7981Z" fill="url(#paint25_linear_41_3139)"/>
<path d="M377.928 -49.3121L266.006 205.641L52.1104 -24.4145L377.928 -49.3121ZM376.035 -47.9689L54.6661 -23.4131L265.643 203.499L376.035 -47.9689Z" fill="url(#paint26_linear_41_3139)"/>
<path d="M382.094 -61.3544L383.081 -61.4677L275.452 213.803L44.8379 -22.3859L382.094 -61.3544ZM381.246 -60.0573L47.3878 -21.4827L275.014 211.65L381.246 -60.0573Z" fill="url(#paint27_linear_41_3139)"/>
<path d="M387.045 -74.4374L388.024 -74.5895L285.57 222.113L37.3364 -19.9578L387.045 -74.4374ZM386.252 -73.1058L39.8773 -19.144L285.058 219.948L386.252 -73.1058Z" fill="url(#paint28_linear_41_3139)"/>
<path d="M392.72 -88.7294L296.391 230.552L30.4706 -16.2881L29.6162 -17.0824L392.72 -88.7294ZM391.005 -87.1785L32.1363 -16.3643L295.799 228.382L391.005 -87.1785Z" fill="url(#paint29_linear_41_3139)"/>
<path d="M396.15 -103.71L397.116 -103.943L307.951 239.104L21.667 -13.7333L396.15 -103.71ZM395.462 -102.315L24.1751 -13.1077L307.285 236.929L395.462 -102.315Z" fill="url(#paint30_linear_41_3139)"/>
<path d="M401.171 -120.281L320.283 247.75L13.5146 -9.86505L401.171 -120.281ZM399.58 -118.586L16.002 -9.33521L319.54 245.572L399.58 -118.586Z" fill="url(#paint31_linear_41_3139)"/>
<path d="M403.872 -137.492L404.826 -137.805L333.597 255.481L333.418 256.461L5.16064 -5.44495L403.872 -137.492ZM403.292 -136.043L7.62109 -5.00509L332.601 254.284L403.292 -136.043Z" fill="url(#paint32_linear_41_3139)"/>
<path d="M408.021 -156.58L347.395 265.211L-3.3877 -0.422302L408.021 -156.58ZM406.553 -154.748L-0.951263 -0.0693754L346.504 263.04L406.553 -154.748Z" fill="url(#paint33_linear_41_3139)"/>
<path d="M410.696 -176.659L362.252 273.972L-12.1133 5.24506L410.696 -176.659ZM409.294 -174.756L-9.70374 5.50799L361.286 271.814L409.294 -174.756Z" fill="url(#paint34_linear_41_3139)"/>
<path d="M412.787 -198.108L378.018 282.71L-21 11.6052L412.787 -198.108ZM411.451 -196.135L-18.6204 11.781L376.983 280.564L411.451 -196.135Z" fill="url(#paint35_linear_41_3139)"/>
</g>
</g>
<g clip-path="url(#clip2_41_3139)">
<g opacity="0.46">
<path d="M104.075 155.815L136.277 227.321L69.6229 259.121L104.075 155.815ZM104.237 159.087L71.6369 256.841L134.713 226.747L104.237 159.087Z" fill="url(#paint36_linear_41_3139)"/>
<path d="M102.509 152.555L138.818 225.643L69.1411 261.622L102.509 152.555ZM102.772 155.768L71.1074 259.265L137.225 225.121L102.772 155.768Z" fill="url(#paint37_linear_41_3139)"/>
<path d="M100.751 149.221L141.461 223.785L68.7069 264.252L100.751 149.221ZM101.113 152.368L70.6238 261.821L139.849 223.315L101.113 152.368Z" fill="url(#paint38_linear_41_3139)"/>
<path d="M98.7881 145.821L144.211 221.732L68.3222 267.005L98.7881 145.821ZM99.242 148.899L70.1806 264.511L142.577 221.32L99.242 148.899Z" fill="url(#paint39_linear_41_3139)"/>
<path d="M96.6024 142.352L147.067 219.477L68.005 269.892L96.6024 142.352ZM97.1462 145.365L69.7994 267.336L145.412 219.121L97.1462 145.365Z" fill="url(#paint40_linear_41_3139)"/>
<path d="M94.1792 138.829L150.034 217.001L67.7552 272.915L94.1792 138.829ZM94.8125 141.767L69.4801 270.3L148.353 216.702L94.8125 141.767Z" fill="url(#paint41_linear_41_3139)"/>
<path d="M91.5059 135.256L153.102 214.294L67.5735 276.081L91.5059 135.256ZM92.227 138.124L69.2364 273.409L151.402 214.056L92.227 138.124Z" fill="url(#paint42_linear_41_3139)"/>
<path d="M88.5591 131.646L156.273 211.343L67.4771 279.383L88.5591 131.646ZM89.3638 134.431L69.0706 276.661L154.554 211.156L89.3638 134.431Z" fill="url(#paint43_linear_41_3139)"/>
<path d="M85.3239 128L159.551 208.126L67.4757 282.83L85.3239 128ZM86.2125 130.713L68.9965 280.065L157.816 208.006L86.2125 130.713Z" fill="url(#paint44_linear_41_3139)"/>
<path d="M81.784 124.335L162.935 204.63L67.5789 286.422L81.784 124.335ZM82.7507 126.969L69.0213 283.617L161.177 204.569L82.7507 126.969Z" fill="url(#paint45_linear_41_3139)"/>
<path d="M77.9187 120.664L166.414 200.845L67.7958 290.168L77.9187 120.664ZM78.9597 123.216L69.1599 287.322L164.638 200.844L78.9597 123.216Z" fill="url(#paint46_linear_41_3139)"/>
<path d="M73.6644 118.215L73.7008 116.998L169.992 196.744L68.1379 294.054L73.6644 118.215ZM74.8199 119.47L69.4222 291.181L168.205 196.808L74.8199 119.47Z" fill="url(#paint47_linear_41_3139)"/>
<path d="M69.1228 113.352L173.669 192.315L68.6203 298.098L69.1228 113.352ZM70.3068 115.743L69.8193 295.199L171.86 192.447L70.3068 115.743Z" fill="url(#paint48_linear_41_3139)"/>
<path d="M64.1479 109.746L176.858 187.149L177.431 187.541L69.2464 302.29L64.1479 109.746ZM65.4023 112.054L70.362 299.372L175.608 187.741L65.4023 112.054Z" fill="url(#paint49_linear_41_3139)"/>
<path d="M58.7659 106.193L181.282 182.401L70.0433 306.634L58.7659 106.193ZM60.0853 108.42L71.074 303.7L179.448 182.666L60.0853 108.42Z" fill="url(#paint50_linear_41_3139)"/>
<path d="M53.0403 103.842L52.9409 102.72L185.212 176.877L71.0194 311.13L53.0403 103.842ZM54.3269 104.861L71.9615 308.188L183.365 177.209L54.3269 104.861Z" fill="url(#paint51_linear_41_3139)"/>
<path d="M46.6612 99.3427L189.211 170.95L72.1886 315.779L46.6612 99.3427ZM48.1045 101.4L73.0384 312.827L187.356 171.352L48.1045 101.4Z" fill="url(#paint52_linear_41_3139)"/>
<path d="M39.8919 96.0879L193.277 164.596L73.5694 320.571L39.8919 96.0879ZM41.3945 98.066L74.331 317.621L191.413 165.068L41.3945 98.066Z" fill="url(#paint53_linear_41_3139)"/>
<path d="M32.611 92.9824L197.395 157.794L75.1766 325.514L32.611 92.9824ZM34.1709 94.8757L75.85 322.564L195.526 158.338L34.1709 94.8757Z" fill="url(#paint54_linear_41_3139)"/>
<path d="M24.7892 90.0496L201.563 150.522L77.036 330.59L24.7892 90.0496ZM26.4046 91.8621L77.6141 327.657L199.685 151.145L26.4046 91.8621Z" fill="url(#paint55_linear_41_3139)"/>
<path d="M16.4 87.3281L205.764 142.764L79.1575 335.809L16.4 87.3281ZM18.0653 89.0618L79.646 332.891L203.881 143.459L18.0653 89.0618Z" fill="url(#paint56_linear_41_3139)"/>
<path d="M7.70105 85.8372L7.41256 84.8454L209.98 134.492L81.5655 341.16L7.70105 85.8372ZM9.1296 86.4965L81.9664 338.261L208.103 135.263L9.1296 86.4965Z" fill="url(#paint57_linear_41_3139)"/>
<path d="M-2.1968 82.6415L214.208 125.689L84.2819 346.643L-2.1968 82.6415ZM-0.428038 84.21L84.5952 343.764L212.33 126.534L-0.428038 84.21Z" fill="url(#paint58_linear_41_3139)"/>
<path d="M-12.1151 81.7058L-12.4642 80.7555L218.425 116.326L87.3305 352.236L-12.1151 81.7058ZM-10.6475 82.2396L87.5509 349.389L216.55 117.246L-10.6475 82.2396Z" fill="url(#paint59_linear_41_3139)"/>
<path d="M-23.4201 79.224L222.613 106.382L90.7322 357.946L-23.4201 79.224ZM-21.5535 80.6294L90.8654 355.127L220.748 107.38L-21.5535 80.6294Z" fill="url(#paint60_linear_41_3139)"/>
<path d="M-34.6777 79.0054L-35.0912 78.095L226.758 95.8352L94.5185 363.752L-34.6777 79.0054ZM-33.1785 79.4198L94.5626 360.967L224.903 96.9029L-33.1785 79.4198Z" fill="url(#paint61_linear_41_3139)"/>
<path d="M-47.5135 77.4166L230.83 84.6543L98.7037 369.645L-47.5135 77.4166ZM-45.5546 78.661L98.6647 366.9L228.985 85.8006L-45.5546 78.661Z" fill="url(#paint62_linear_41_3139)"/>
<path d="M-60.2377 78.1115L-60.7156 77.2408L234.816 72.8241L103.331 375.611L-60.2377 78.1115ZM-58.7162 78.4067L103.203 372.909L232.988 74.0431L-58.7162 78.4067Z" fill="url(#paint63_linear_41_3139)"/>
<path d="M-74.2211 78.4738L-74.732 77.625L238.684 60.3158L108.415 381.638L-74.2211 78.4738ZM-72.6885 78.7047L108.207 378.978L236.873 61.6075L-72.6885 78.7047Z" fill="url(#paint64_linear_41_3139)"/>
<path d="M-89.5978 78.623L242.406 47.1076L114.407 386.607L113.995 387.698L-89.5978 78.623ZM-87.5137 79.6243L113.707 385.094L240.621 48.4755L-87.5137 79.6243Z" fill="url(#paint65_linear_41_3139)"/>
<path d="M-104.763 81.1105L-105.344 80.3036L245.954 33.1724L120.101 393.792L-104.763 81.1105ZM-103.212 81.2205L119.732 391.233L244.192 34.611L-103.212 81.2205Z" fill="url(#paint66_linear_41_3139)"/>
<path d="M-122.003 82.7261L249.296 18.4869L126.764 399.877L-122.003 82.7261ZM-119.832 83.559L126.314 397.374L247.561 19.9978L-119.832 83.559Z" fill="url(#paint67_linear_41_3139)"/>
<path d="M-138.958 86.732L-139.608 85.967L251.42 3.23825L252.395 3.03354L134.014 405.94L-138.958 86.732ZM-137.397 86.7214L133.491 403.496L250.688 4.613L-137.397 86.7214Z" fill="url(#paint68_linear_41_3139)"/>
<path d="M-158.198 90.1064L255.212 -13.2145L141.895 411.955L-158.198 90.1064ZM-155.947 90.773L141.301 409.566L253.54 -11.5686L-155.947 90.773Z" fill="url(#paint69_linear_41_3139)"/>
<path d="M-177.798 95.2205L257.707 -30.2804L150.44 417.891L-177.798 95.2205ZM-175.506 95.7992L149.773 415.561L256.074 -28.5699L-175.506 95.7992Z" fill="url(#paint70_linear_41_3139)"/>
<path d="M-198.445 101.393L259.836 -48.1794L159.688 423.714L-198.445 101.393ZM-196.114 101.884L158.951 421.444L258.241 -46.4102L-196.114 101.884Z" fill="url(#paint71_linear_41_3139)"/>
</g>
</g>
<g clip-path="url(#clip3_41_3139)">
<g opacity="0.46">
<path d="M4.04288 664.392L-74.3306 667.173L-78.5736 593.444L4.04288 664.392ZM0.952196 663.305L-77.2243 596.17L-73.2079 665.942L0.952196 663.305Z" fill="url(#paint72_linear_41_3139)"/>
<path d="M7.65247 664.174L-73.738 670.16L-80.7074 592.052L7.65247 664.174ZM4.57895 663.204L-79.2685 594.764L-72.6525 668.883L4.57895 663.204Z" fill="url(#paint73_linear_41_3139)"/>
<path d="M11.4036 663.807L-73.0166 673.309L-82.9774 590.656L11.4036 663.807ZM8.35315 662.953L-81.4518 593.35L-71.9715 671.994L8.35315 662.953Z" fill="url(#paint74_linear_41_3139)"/>
<path d="M15.2934 663.275L-72.1553 676.631L-85.3813 589.259L15.2934 663.275ZM12.2721 662.531L-83.7745 591.922L-71.1564 675.273L12.2721 662.531Z" fill="url(#paint75_linear_41_3139)"/>
<path d="M19.3314 662.563L-71.1478 680.127L-87.9339 587.874L19.3314 662.563ZM16.3365 661.927L-86.2458 590.502L-70.1922 678.73L16.3365 661.927Z" fill="url(#paint76_linear_41_3139)"/>
<path d="M23.5094 661.651L-69.9768 683.81L-90.6383 586.5L23.5094 661.651ZM20.5496 661.127L-88.8688 589.085L-69.0644 682.367L20.5496 661.127Z" fill="url(#paint77_linear_41_3139)"/>
<path d="M27.8277 660.527L-68.6304 687.674L-93.5005 585.135L27.8277 660.527ZM24.9002 660.11L-91.6555 587.684L-67.7671 686.19L24.9002 660.11Z" fill="url(#paint78_linear_41_3139)"/>
<path d="M32.2842 659.164L-67.0967 691.725L-96.5209 583.798L32.2842 659.164ZM29.4008 658.855L-94.6032 586.302L-66.2739 690.205L29.4008 658.855Z" fill="url(#paint79_linear_41_3139)"/>
<path d="M36.8821 657.547L-65.3584 695.976L-99.7118 582.493L36.8821 657.547ZM34.0341 657.344L-97.7272 584.946L-64.5908 694.415L34.0341 657.344Z" fill="url(#paint80_linear_41_3139)"/>
<path d="M41.6136 655.655L-63.4007 700.431L-103.076 581.231L41.6136 655.655ZM38.8098 655.554L-101.024 583.627L-62.6793 698.826L38.8098 655.554Z" fill="url(#paint81_linear_41_3139)"/>
<path d="M46.4728 653.464L-61.2119 705.082L-106.626 580.016L46.4728 653.464ZM43.7165 653.463L-104.507 582.354L-60.5396 703.438L43.7165 653.463Z" fill="url(#paint82_linear_41_3139)"/>
<path d="M50.3481 650.451L51.4613 650.945L-58.7681 709.945L-110.354 578.863L50.3481 650.451ZM48.7493 651.046L-108.179 581.138L-58.1512 708.266L48.7493 651.046Z" fill="url(#paint83_linear_41_3139)"/>
<path d="M56.5678 648.085L-56.0574 715.023L-114.279 577.781L56.5678 648.085ZM53.9064 648.277L-112.049 579.987L-55.4955 713.298L53.9064 648.277Z" fill="url(#paint84_linear_41_3139)"/>
<path d="M61.7866 644.843L-52.4805 719.929L-53.0598 720.311L-118.397 576.776L61.7866 644.843ZM59.1757 645.132L-116.118 578.912L-52.5562 718.548L59.1757 645.132Z" fill="url(#paint85_linear_41_3139)"/>
<path d="M67.1102 641.203L-49.757 725.819L-122.72 575.872L67.1102 641.203ZM64.5499 641.582L-120.394 577.935L-49.3087 724.022L64.5499 641.582Z" fill="url(#paint86_linear_41_3139)"/>
<path d="M71.4515 636.791L72.5282 637.123L-46.1279 731.545L-127.251 575.076L71.4515 636.791ZM70.0213 637.597L-124.884 577.06L-45.7379 729.711L70.0213 637.597Z" fill="url(#paint87_linear_41_3139)"/>
<path d="M78.0281 632.586L-42.1528 737.488L-131.998 574.401L78.0281 632.586ZM75.578 633.145L-129.586 576.304L-41.8241 735.619L75.578 633.145Z" fill="url(#paint88_linear_41_3139)"/>
<path d="M83.6007 627.549L-37.8068 743.654L-136.956 573.867L83.6007 627.549ZM81.2014 628.193L-134.512 575.688L-37.5393 741.75L81.2014 628.193Z" fill="url(#paint89_linear_41_3139)"/>
<path d="M89.2281 621.983L-33.0671 750.038L-142.139 573.487L89.2281 621.983ZM86.8856 622.711L-139.663 575.226L-32.864 748.102L86.8856 622.711Z" fill="url(#paint90_linear_41_3139)"/>
<path d="M94.9 615.85L-27.9096 756.647L-147.542 573.29L94.9 615.85ZM92.6113 616.661L-145.045 574.934L-27.7766 754.673L92.6113 616.661Z" fill="url(#paint91_linear_41_3139)"/>
<path d="M100.591 609.112L-22.3161 763.468L-153.176 573.281L100.591 609.112ZM98.3563 609.999L-150.658 574.836L-22.2474 761.463L98.3563 609.999Z" fill="url(#paint92_linear_41_3139)"/>
<path d="M105.26 601.622L106.287 601.73L-16.2513 770.498L-159.04 573.487L105.26 601.622ZM104.109 602.696L-156.508 574.954L-16.2561 768.469L104.109 602.696Z" fill="url(#paint93_linear_41_3139)"/>
<path d="M111.96 593.667L-9.69956 777.74L-165.143 573.929L111.96 593.667ZM109.839 594.711L-162.596 575.308L-9.77182 775.683L109.839 594.711Z" fill="url(#paint94_linear_41_3139)"/>
<path d="M116.575 584.838L117.587 584.874L-2.6257 785.184L-171.474 574.637L116.575 584.838ZM115.526 585.995L-168.921 575.918L-2.76843 783.1L115.526 585.995Z" fill="url(#paint95_linear_41_3139)"/>
<path d="M123.147 575.31L4.99762 792.82L-178.045 575.628L123.147 575.31ZM121.14 576.507L-175.486 576.817L4.7783 790.716L121.14 576.507Z" fill="url(#paint96_linear_41_3139)"/>
<path d="M127.605 564.971L128.604 564.932L13.1945 800.645L-184.852 576.938L127.605 564.971ZM126.654 566.202L-182.29 578.032L12.9074 798.524L126.654 566.202Z" fill="url(#paint97_linear_41_3139)"/>
<path d="M133.928 553.688L22.0064 808.641L-191.89 578.586L133.928 553.688ZM132.035 555.031L-189.334 579.587L21.6427 806.499L132.035 555.031Z" fill="url(#paint98_linear_41_3139)"/>
<path d="M138.094 541.646L139.081 541.532L31.4516 816.804L-199.162 580.614L138.094 541.646ZM137.246 542.943L-196.612 581.517L31.014 814.651L137.246 542.943Z" fill="url(#paint99_linear_41_3139)"/>
<path d="M143.045 528.563L144.024 528.411L41.5697 825.113L-206.664 583.042L143.045 528.563ZM142.252 529.894L-204.123 583.856L41.0582 822.948L142.252 529.894Z" fill="url(#paint100_linear_41_3139)"/>
<path d="M148.72 514.271L52.3909 833.552L-213.529 586.712L-214.384 585.918L148.72 514.271ZM147.005 515.822L-211.864 586.636L51.7994 831.382L147.005 515.822Z" fill="url(#paint101_linear_41_3139)"/>
<path d="M152.15 499.29L153.116 499.058L63.9508 842.104L-222.333 589.267L152.15 499.29ZM151.462 500.685L-219.825 589.892L63.2852 839.929L151.462 500.685Z" fill="url(#paint102_linear_41_3139)"/>
<path d="M157.171 482.719L76.2832 850.75L-230.485 593.135L157.171 482.719ZM155.58 484.414L-227.998 593.665L75.5405 848.572L155.58 484.414Z" fill="url(#paint103_linear_41_3139)"/>
<path d="M159.872 465.508L160.826 465.195L89.5975 858.481L89.4183 859.461L-238.839 597.555L159.872 465.508ZM159.292 466.957L-236.379 597.995L88.6013 857.284L159.292 466.957Z" fill="url(#paint104_linear_41_3139)"/>
<path d="M164.021 446.42L103.395 868.211L-247.388 602.578L164.021 446.42ZM162.553 448.252L-244.951 602.931L102.504 866.04L162.553 448.252Z" fill="url(#paint105_linear_41_3139)"/>
<path d="M166.696 426.341L118.252 876.972L-256.113 608.245L166.696 426.341ZM165.294 428.244L-253.704 608.508L117.286 874.814L165.294 428.244Z" fill="url(#paint106_linear_41_3139)"/>
<path d="M168.787 404.892L134.018 885.71L-265 614.605L168.787 404.892ZM167.451 406.866L-262.62 614.781L132.983 883.564L167.451 406.866Z" fill="url(#paint107_linear_41_3139)"/>
</g>
</g>
<g clip-path="url(#clip4_41_3139)">
<g opacity="0.46">
<path d="M245.043 650.392L166.669 653.173L162.426 579.444L245.043 650.392ZM241.952 649.305L163.776 582.17L167.792 651.942L241.952 649.305Z" fill="url(#paint108_linear_41_3139)"/>
<path d="M248.652 650.174L167.262 656.16L160.293 578.052L248.652 650.174ZM245.579 649.204L161.732 580.764L168.347 654.883L245.579 649.204Z" fill="url(#paint109_linear_41_3139)"/>
<path d="M252.404 649.807L167.983 659.309L158.023 576.656L252.404 649.807ZM249.353 648.953L159.548 579.35L169.028 657.994L249.353 648.953Z" fill="url(#paint110_linear_41_3139)"/>
<path d="M256.293 649.275L168.845 662.631L155.619 575.259L256.293 649.275ZM253.272 648.531L157.225 577.922L169.844 661.273L253.272 648.531Z" fill="url(#paint111_linear_41_3139)"/>
<path d="M260.331 648.563L169.852 666.127L153.066 573.874L260.331 648.563ZM257.337 647.927L154.754 576.502L170.808 664.73L257.337 647.927Z" fill="url(#paint112_linear_41_3139)"/>
<path d="M264.509 647.651L171.023 669.81L150.362 572.5L264.509 647.651ZM261.55 647.127L152.131 575.085L171.936 668.367L261.55 647.127Z" fill="url(#paint113_linear_41_3139)"/>
<path d="M268.828 646.527L172.37 673.674L147.5 571.135L268.828 646.527ZM265.9 646.11L149.344 573.684L173.233 672.19L265.9 646.11Z" fill="url(#paint114_linear_41_3139)"/>
<path d="M273.284 645.164L173.903 677.725L144.479 569.798L273.284 645.164ZM270.401 644.855L146.397 572.302L174.726 676.205L270.401 644.855Z" fill="url(#paint115_linear_41_3139)"/>
<path d="M277.882 643.547L175.642 681.976L141.288 568.493L277.882 643.547ZM275.034 643.344L143.273 570.946L176.409 680.415L275.034 643.344Z" fill="url(#paint116_linear_41_3139)"/>
<path d="M282.614 641.655L177.599 686.431L137.924 567.231L282.614 641.655ZM279.81 641.554L139.976 569.627L178.321 684.826L279.81 641.554Z" fill="url(#paint117_linear_41_3139)"/>
<path d="M287.473 639.464L179.788 691.082L134.374 566.016L287.473 639.464ZM284.716 639.463L136.493 568.354L180.46 689.438L284.716 639.463Z" fill="url(#paint118_linear_41_3139)"/>
<path d="M291.348 636.451L292.461 636.945L182.232 695.945L130.646 564.863L291.348 636.451ZM289.749 637.046L132.821 567.138L182.849 694.266L289.749 637.046Z" fill="url(#paint119_linear_41_3139)"/>
<path d="M297.568 634.085L184.943 701.023L126.721 563.781L297.568 634.085ZM294.906 634.277L128.951 565.987L185.504 699.298L294.906 634.277Z" fill="url(#paint120_linear_41_3139)"/>
<path d="M302.787 630.843L188.519 705.929L187.94 706.311L122.603 562.776L302.787 630.843ZM300.176 631.132L124.882 564.912L188.444 704.548L300.176 631.132Z" fill="url(#paint121_linear_41_3139)"/>
<path d="M308.11 627.203L191.243 711.819L118.28 561.872L308.11 627.203ZM305.55 627.582L120.606 563.935L191.691 710.022L305.55 627.582Z" fill="url(#paint122_linear_41_3139)"/>
<path d="M312.451 622.791L313.528 623.123L194.872 717.545L113.749 561.076L312.451 622.791ZM311.021 623.597L116.116 563.06L195.262 715.711L311.021 623.597Z" fill="url(#paint123_linear_41_3139)"/>
<path d="M319.028 618.586L198.847 723.488L109.002 560.401L319.028 618.586ZM316.578 619.145L111.414 562.304L199.176 721.619L316.578 619.145Z" fill="url(#paint124_linear_41_3139)"/>
<path d="M324.601 613.549L203.193 729.654L104.044 559.867L324.601 613.549ZM322.201 614.193L106.488 561.688L203.461 727.75L322.201 614.193Z" fill="url(#paint125_linear_41_3139)"/>
<path d="M330.228 607.983L207.933 736.038L98.861 559.487L330.228 607.983ZM327.886 608.711L101.337 561.226L208.136 734.102L327.886 608.711Z" fill="url(#paint126_linear_41_3139)"/>
<path d="M335.9 601.85L213.09 742.647L93.4583 559.29L335.9 601.85ZM333.611 602.661L95.9553 560.934L213.223 740.673L333.611 602.661Z" fill="url(#paint127_linear_41_3139)"/>
<path d="M341.591 595.112L218.684 749.468L87.8241 559.281L341.591 595.112ZM339.356 595.999L90.3418 560.836L218.753 747.463L339.356 595.999Z" fill="url(#paint128_linear_41_3139)"/>
<path d="M346.26 587.622L347.287 587.73L224.749 756.498L81.9601 559.487L346.26 587.622ZM345.109 588.696L84.4924 560.954L224.744 754.469L345.109 588.696Z" fill="url(#paint129_linear_41_3139)"/>
<path d="M352.96 579.667L231.3 763.74L75.8575 559.929L352.96 579.667ZM350.839 580.711L78.4044 561.308L231.228 761.683L350.839 580.711Z" fill="url(#paint130_linear_41_3139)"/>
<path d="M357.575 570.838L358.587 570.874L238.374 771.184L69.5265 560.637L357.575 570.838ZM356.526 571.995L72.0794 561.918L238.232 769.1L356.526 571.995Z" fill="url(#paint131_linear_41_3139)"/>
<path d="M364.147 561.31L245.998 778.82L62.955 561.628L364.147 561.31ZM362.14 562.507L65.5138 562.817L245.778 776.716L362.14 562.507Z" fill="url(#paint132_linear_41_3139)"/>
<path d="M368.605 550.971L369.604 550.932L254.194 786.645L56.148 562.938L368.605 550.971ZM367.654 552.202L58.7098 564.032L253.907 784.524L367.654 552.202Z" fill="url(#paint133_linear_41_3139)"/>
<path d="M374.928 539.688L263.006 794.641L49.1104 564.586L374.928 539.688ZM373.035 541.031L51.6661 565.587L262.643 792.499L373.035 541.031Z" fill="url(#paint134_linear_41_3139)"/>
<path d="M379.094 527.646L380.081 527.532L272.452 802.804L41.8379 566.614L379.094 527.646ZM378.246 528.943L44.3878 567.517L272.014 800.651L378.246 528.943Z" fill="url(#paint135_linear_41_3139)"/>
<path d="M384.045 514.563L385.024 514.411L282.57 811.113L34.3364 569.042L384.045 514.563ZM383.252 515.894L36.8773 569.856L282.058 808.948L383.252 515.894Z" fill="url(#paint136_linear_41_3139)"/>
<path d="M389.72 500.271L293.391 819.552L27.4706 572.712L26.6162 571.918L389.72 500.271ZM388.005 501.822L29.1363 572.636L292.799 817.382L388.005 501.822Z" fill="url(#paint137_linear_41_3139)"/>
<path d="M393.15 485.29L394.116 485.058L304.951 828.104L18.667 575.267L393.15 485.29ZM392.462 486.685L21.1751 575.892L304.285 825.929L392.462 486.685Z" fill="url(#paint138_linear_41_3139)"/>
<path d="M398.171 468.719L317.283 836.75L10.5146 579.135L398.171 468.719ZM396.58 470.414L13.002 579.665L316.54 834.572L396.58 470.414Z" fill="url(#paint139_linear_41_3139)"/>
<path d="M400.872 451.508L401.826 451.195L330.597 844.481L330.418 845.461L2.16064 583.555L400.872 451.508ZM400.292 452.957L4.62109 583.995L329.601 843.284L400.292 452.957Z" fill="url(#paint140_linear_41_3139)"/>
<path d="M405.021 432.42L344.395 854.211L-6.3877 588.578L405.021 432.42ZM403.553 434.252L-3.95126 588.931L343.504 852.04L403.553 434.252Z" fill="url(#paint141_linear_41_3139)"/>
<path d="M407.696 412.341L359.252 862.972L-15.1133 594.245L407.696 412.341ZM406.294 414.244L-12.7037 594.508L358.286 860.814L406.294 414.244Z" fill="url(#paint142_linear_41_3139)"/>
<path d="M409.787 390.892L375.018 871.71L-24 600.605L409.787 390.892ZM408.451 392.866L-21.6204 600.781L373.983 869.564L408.451 392.866Z" fill="url(#paint143_linear_41_3139)"/>
</g>
</g>
<path d="M131.58 405.46L146.4 388.84H153.18L139.74 403.42L148.86 427H135.78L130.5 410.26L126.96 427H114L122.1 388.9H135.12L131.58 405.46ZM183.744 427H169.704L168.864 417.46H157.764L153.504 427H147.684L165.384 388.9H179.604L183.744 427ZM159.744 413.08H168.444L167.064 396.76L159.744 413.08ZM204.178 405.46L218.998 388.84H225.778L212.338 403.42L221.458 427H208.378L203.098 410.26L199.558 427H186.598L194.698 388.9H207.718L204.178 405.46ZM256.342 427H242.302L241.462 417.46H230.362L226.102 427H220.282L237.982 388.9H252.202L256.342 427ZM232.342 413.08H241.042L239.662 396.76L232.342 413.08Z" fill="white"/>
</g>
<defs>
<linearGradient id="paint0_linear_41_3139" x1="152.434" y1="2.63121" x2="226.503" y2="81.5962" gradientUnits="userSpaceOnUse">
<stop stop-color="#90EE90"/>
<stop offset="1" stop-color="#B3FCB3" stop-opacity="0.5"/>
</linearGradient>
<linearGradient id="paint1_linear_41_3139" x1="151.167" y1="0.425897" x2="228.511" y2="82.8811" gradientUnits="userSpaceOnUse">
<stop stop-color="#90EE90"/>
<stop offset="1" stop-color="#B3FCB3" stop-opacity="0.5"/>
</linearGradient>
<linearGradient id="paint2_linear_41_3139" x1="149.904" y1="-1.91444" x2="230.579" y2="84.0923" gradientUnits="userSpaceOnUse">
<stop stop-color="#90EE90"/>
<stop offset="1" stop-color="#B3FCB3" stop-opacity="0.5"/>
</linearGradient>
<linearGradient id="paint3_linear_41_3139" x1="148.649" y1="-4.38968" x2="232.702" y2="85.2177" gradientUnits="userSpaceOnUse">
<stop stop-color="#90EE90"/>
<stop offset="1" stop-color="#B3FCB3" stop-opacity="0.5"/>
</linearGradient>
<linearGradient id="paint4_linear_41_3139" x1="147.411" y1="-7.007" x2="234.884" y2="86.2469" gradientUnits="userSpaceOnUse">
<stop stop-color="#90EE90"/>
<stop offset="1" stop-color="#B3FCB3" stop-opacity="0.5"/>
</linearGradient>
<linearGradient id="paint5_linear_41_3139" x1="146.191" y1="-9.77363" x2="237.116" y2="87.1606" gradientUnits="userSpaceOnUse">
<stop stop-color="#90EE90"/>
<stop offset="1" stop-color="#B3FCB3" stop-opacity="0.5"/>
</linearGradient>
<linearGradient id="paint6_linear_41_3139" x1="144.993" y1="-12.7" x2="239.399" y2="87.9451" gradientUnits="userSpaceOnUse">
<stop stop-color="#90EE90"/>
<stop offset="1" stop-color="#B3FCB3" stop-opacity="0.5"/>
</linearGradient>
<linearGradient id="paint7_linear_41_3139" x1="143.835" y1="-15.784" x2="241.727" y2="88.5782" gradientUnits="userSpaceOnUse">
<stop stop-color="#90EE90"/>
<stop offset="1" stop-color="#B3FCB3" stop-opacity="0.5"/>
</linearGradient>
<linearGradient id="paint8_linear_41_3139" x1="142.718" y1="-19.0344" x2="244.101" y2="89.0479" gradientUnits="userSpaceOnUse">
<stop stop-color="#90EE90"/>
<stop offset="1" stop-color="#B3FCB3" stop-opacity="0.5"/>
</linearGradient>
<linearGradient id="paint9_linear_41_3139" x1="141.654" y1="-22.4539" x2="246.511" y2="89.3331" gradientUnits="userSpaceOnUse">
<stop stop-color="#90EE90"/>
<stop offset="1" stop-color="#B3FCB3" stop-opacity="0.5"/>
</linearGradient>
<linearGradient id="paint10_linear_41_3139" x1="140.646" y1="-26.0543" x2="248.953" y2="89.41" gradientUnits="userSpaceOnUse">
<stop stop-color="#90EE90"/>
<stop offset="1" stop-color="#B3FCB3" stop-opacity="0.5"/>
</linearGradient>
<linearGradient id="paint11_linear_41_3139" x1="139.719" y1="-29.8332" x2="251.423" y2="89.2531" gradientUnits="userSpaceOnUse">
<stop stop-color="#90EE90"/>
<stop offset="1" stop-color="#B3FCB3" stop-opacity="0.5"/>
</linearGradient>
<linearGradient id="paint12_linear_41_3139" x1="138.868" y1="-33.7983" x2="253.912" y2="88.8488" gradientUnits="userSpaceOnUse">
<stop stop-color="#90EE90"/>
<stop offset="1" stop-color="#B3FCB3" stop-opacity="0.5"/>
</linearGradient>
<linearGradient id="paint13_linear_41_3139" x1="138.114" y1="-37.9591" x2="256.412" y2="88.1568" gradientUnits="userSpaceOnUse">
<stop stop-color="#90EE90"/>
<stop offset="1" stop-color="#B3FCB3" stop-opacity="0.5"/>
</linearGradient>
<linearGradient id="paint14_linear_41_3139" x1="137.467" y1="-42.3126" x2="258.915" y2="87.1619" gradientUnits="userSpaceOnUse">
<stop stop-color="#90EE90"/>
<stop offset="1" stop-color="#B3FCB3" stop-opacity="0.5"/>
</linearGradient>
<linearGradient id="paint15_linear_41_3139" x1="136.945" y1="-46.8684" x2="261.411" y2="85.8236" gradientUnits="userSpaceOnUse">
<stop stop-color="#90EE90"/>
<stop offset="1" stop-color="#B3FCB3" stop-opacity="0.5"/>
</linearGradient>
<linearGradient id="paint16_linear_41_3139" x1="136.556" y1="-51.6307" x2="263.891" y2="84.1195" gradientUnits="userSpaceOnUse">
<stop stop-color="#90EE90"/>
<stop offset="1" stop-color="#B3FCB3" stop-opacity="0.5"/>
</linearGradient>
<linearGradient id="paint17_linear_41_3139" x1="136.325" y1="-56.5988" x2="267.452" y2="83.1932" gradientUnits="userSpaceOnUse">
<stop stop-color="#90EE90"/>
<stop offset="1" stop-color="#B3FCB3" stop-opacity="0.5"/>
</linearGradient>
<linearGradient id="paint18_linear_41_3139" x1="136.263" y1="-61.7826" x2="275.409" y2="86.559" gradientUnits="userSpaceOnUse">
<stop stop-color="#90EE90"/>
<stop offset="1" stop-color="#B3FCB3" stop-opacity="0.5"/>
</linearGradient>
<linearGradient id="paint19_linear_41_3139" x1="136.398" y1="-67.1739" x2="283.882" y2="90.0573" gradientUnits="userSpaceOnUse">
<stop stop-color="#90EE90"/>
<stop offset="1" stop-color="#B3FCB3" stop-opacity="0.5"/>
</linearGradient>
<linearGradient id="paint20_linear_41_3139" x1="136.737" y1="-72.7857" x2="292.884" y2="93.6815" gradientUnits="userSpaceOnUse">
<stop stop-color="#90EE90"/>
<stop offset="1" stop-color="#B3FCB3" stop-opacity="0.5"/>
</linearGradient>
<linearGradient id="paint21_linear_41_3139" x1="137.311" y1="-78.6185" x2="302.447" y2="97.4308" gradientUnits="userSpaceOnUse">
<stop stop-color="#90EE90"/>
<stop offset="1" stop-color="#B3FCB3" stop-opacity="0.5"/>
</linearGradient>
<linearGradient id="paint22_linear_41_3139" x1="138.132" y1="-84.6706" x2="312.583" y2="101.31" gradientUnits="userSpaceOnUse">
<stop stop-color="#90EE90"/>
<stop offset="1" stop-color="#B3FCB3" stop-opacity="0.5"/>
</linearGradient>
<linearGradient id="paint23_linear_41_3139" x1="139.236" y1="-90.9376" x2="323.323" y2="105.315" gradientUnits="userSpaceOnUse">
<stop stop-color="#90EE90"/>
<stop offset="1" stop-color="#B3FCB3" stop-opacity="0.5"/>
</linearGradient>
<linearGradient id="paint24_linear_41_3139" x1="140.642" y1="-97.4294" x2="334.689" y2="109.441" gradientUnits="userSpaceOnUse">
<stop stop-color="#90EE90"/>
<stop offset="1" stop-color="#B3FCB3" stop-opacity="0.5"/>
</linearGradient>
<linearGradient id="paint25_linear_41_3139" x1="142.379" y1="-104.133" x2="346.699" y2="113.689" gradientUnits="userSpaceOnUse">
<stop stop-color="#90EE90"/>
<stop offset="1" stop-color="#B3FCB3" stop-opacity="0.5"/>
</linearGradient>
<linearGradient id="paint26_linear_41_3139" x1="144.477" y1="-111.055" x2="359.383" y2="118.053" gradientUnits="userSpaceOnUse">
<stop stop-color="#90EE90"/>
<stop offset="1" stop-color="#B3FCB3" stop-opacity="0.5"/>
</linearGradient>
<linearGradient id="paint27_linear_41_3139" x1="144.553" y1="-115.92" x2="370.344" y2="124.793" gradientUnits="userSpaceOnUse">
<stop stop-color="#90EE90"/>
<stop offset="1" stop-color="#B3FCB3" stop-opacity="0.5"/>
</linearGradient>
<linearGradient id="paint28_linear_41_3139" x1="144.241" y1="-120.236" x2="381.214" y2="132.398" gradientUnits="userSpaceOnUse">
<stop stop-color="#90EE90"/>
<stop offset="1" stop-color="#B3FCB3" stop-opacity="0.5"/>
</linearGradient>
<linearGradient id="paint29_linear_41_3139" x1="144.069" y1="-124.44" x2="392.495" y2="140.405" gradientUnits="userSpaceOnUse">
<stop stop-color="#90EE90"/>
<stop offset="1" stop-color="#B3FCB3" stop-opacity="0.5"/>
</linearGradient>
<linearGradient id="paint30_linear_41_3139" x1="144.034" y1="-128.515" x2="404.188" y2="148.832" gradientUnits="userSpaceOnUse">
<stop stop-color="#90EE90"/>
<stop offset="1" stop-color="#B3FCB3" stop-opacity="0.5"/>
</linearGradient>
<linearGradient id="paint31_linear_41_3139" x1="144.17" y1="-132.421" x2="416.296" y2="157.689" gradientUnits="userSpaceOnUse">
<stop stop-color="#90EE90"/>
<stop offset="1" stop-color="#B3FCB3" stop-opacity="0.5"/>
</linearGradient>
<linearGradient id="paint32_linear_41_3139" x1="144.485" y1="-136.132" x2="428.81" y2="166.983" gradientUnits="userSpaceOnUse">
<stop stop-color="#90EE90"/>
<stop offset="1" stop-color="#B3FCB3" stop-opacity="0.5"/>
</linearGradient>
<linearGradient id="paint33_linear_41_3139" x1="144.997" y1="-139.609" x2="441.725" y2="176.729" gradientUnits="userSpaceOnUse">
<stop stop-color="#90EE90"/>
<stop offset="1" stop-color="#B3FCB3" stop-opacity="0.5"/>
</linearGradient>
<linearGradient id="paint34_linear_41_3139" x1="145.727" y1="-142.811" x2="455.036" y2="186.94" gradientUnits="userSpaceOnUse">
<stop stop-color="#90EE90"/>
<stop offset="1" stop-color="#B3FCB3" stop-opacity="0.5"/>
</linearGradient>
<linearGradient id="paint35_linear_41_3139" x1="146.698" y1="-145.697" x2="468.732" y2="197.619" gradientUnits="userSpaceOnUse">
<stop stop-color="#90EE90"/>
<stop offset="1" stop-color="#B3FCB3" stop-opacity="0.5"/>
</linearGradient>
<linearGradient id="paint36_linear_41_3139" x1="85.8176" y1="266.542" x2="130.923" y2="168.118" gradientUnits="userSpaceOnUse">
<stop stop-color="#90EE90"/>
<stop offset="1" stop-color="#B3FCB3" stop-opacity="0.5"/>
</linearGradient>
<linearGradient id="paint37_linear_41_3139" x1="84.2545" y1="268.548" x2="131.353" y2="165.774" gradientUnits="userSpaceOnUse">
<stop stop-color="#90EE90"/>
<stop offset="1" stop-color="#B3FCB3" stop-opacity="0.5"/>
</linearGradient>
<linearGradient id="paint38_linear_41_3139" x1="82.5654" y1="270.603" x2="131.693" y2="163.401" gradientUnits="userSpaceOnUse">
<stop stop-color="#90EE90"/>
<stop offset="1" stop-color="#B3FCB3" stop-opacity="0.5"/>
</linearGradient>
<linearGradient id="paint39_linear_41_3139" x1="80.7485" y1="272.7" x2="131.933" y2="161.011" gradientUnits="userSpaceOnUse">
<stop stop-color="#90EE90"/>
<stop offset="1" stop-color="#B3FCB3" stop-opacity="0.5"/>
</linearGradient>
<linearGradient id="paint40_linear_41_3139" x1="78.7932" y1="274.836" x2="132.06" y2="158.601" gradientUnits="userSpaceOnUse">
<stop stop-color="#90EE90"/>
<stop offset="1" stop-color="#B3FCB3" stop-opacity="0.5"/>
</linearGradient>
<linearGradient id="paint41_linear_41_3139" x1="76.6936" y1="277.011" x2="132.063" y2="156.19" gradientUnits="userSpaceOnUse">
<stop stop-color="#90EE90"/>
<stop offset="1" stop-color="#B3FCB3" stop-opacity="0.5"/>
</linearGradient>
<linearGradient id="paint42_linear_41_3139" x1="74.437" y1="279.226" x2="131.926" y2="153.779" gradientUnits="userSpaceOnUse">
<stop stop-color="#90EE90"/>
<stop offset="1" stop-color="#B3FCB3" stop-opacity="0.5"/>
</linearGradient>
<linearGradient id="paint43_linear_41_3139" x1="72.0196" y1="281.465" x2="131.632" y2="151.385" gradientUnits="userSpaceOnUse">
<stop stop-color="#90EE90"/>
<stop offset="1" stop-color="#B3FCB3" stop-opacity="0.5"/>
</linearGradient>
<linearGradient id="paint44_linear_41_3139" x1="69.4323" y1="283.727" x2="131.169" y2="149.01" gradientUnits="userSpaceOnUse">
<stop stop-color="#90EE90"/>
<stop offset="1" stop-color="#B3FCB3" stop-opacity="0.5"/>
</linearGradient>
<linearGradient id="paint45_linear_41_3139" x1="66.6692" y1="286.005" x2="130.522" y2="146.67" gradientUnits="userSpaceOnUse">
<stop stop-color="#90EE90"/>
<stop offset="1" stop-color="#B3FCB3" stop-opacity="0.5"/>
</linearGradient>
<linearGradient id="paint46_linear_41_3139" x1="63.7166" y1="288.299" x2="129.67" y2="144.38" gradientUnits="userSpaceOnUse">
<stop stop-color="#90EE90"/>
<stop offset="1" stop-color="#B3FCB3" stop-opacity="0.5"/>
</linearGradient>
<linearGradient id="paint47_linear_41_3139" x1="60.5688" y1="290.586" x2="128.591" y2="142.153" gradientUnits="userSpaceOnUse">
<stop stop-color="#90EE90"/>
<stop offset="1" stop-color="#B3FCB3" stop-opacity="0.5"/>
</linearGradient>
<linearGradient id="paint48_linear_41_3139" x1="57.2199" y1="292.873" x2="127.276" y2="140.002" gradientUnits="userSpaceOnUse">
<stop stop-color="#90EE90"/>
<stop offset="1" stop-color="#B3FCB3" stop-opacity="0.5"/>
</linearGradient>
<linearGradient id="paint49_linear_41_3139" x1="53.6524" y1="295.144" x2="125.69" y2="137.949" gradientUnits="userSpaceOnUse">
<stop stop-color="#90EE90"/>
<stop offset="1" stop-color="#B3FCB3" stop-opacity="0.5"/>
</linearGradient>
<linearGradient id="paint50_linear_41_3139" x1="49.8667" y1="297.388" x2="123.823" y2="136.007" gradientUnits="userSpaceOnUse">
<stop stop-color="#90EE90"/>
<stop offset="1" stop-color="#B3FCB3" stop-opacity="0.5"/>
</linearGradient>
<linearGradient id="paint51_linear_41_3139" x1="45.8463" y1="299.594" x2="121.64" y2="134.203" gradientUnits="userSpaceOnUse">
<stop stop-color="#90EE90"/>
<stop offset="1" stop-color="#B3FCB3" stop-opacity="0.5"/>
</linearGradient>
<linearGradient id="paint52_linear_41_3139" x1="41.5842" y1="301.754" x2="119.125" y2="132.551" gradientUnits="userSpaceOnUse">
<stop stop-color="#90EE90"/>
<stop offset="1" stop-color="#B3FCB3" stop-opacity="0.5"/>
</linearGradient>
<linearGradient id="paint53_linear_41_3139" x1="37.0723" y1="303.846" x2="116.922" y2="129.605" gradientUnits="userSpaceOnUse">
<stop stop-color="#90EE90"/>
<stop offset="1" stop-color="#B3FCB3" stop-opacity="0.5"/>
</linearGradient>
<linearGradient id="paint54_linear_41_3139" x1="32.2966" y1="305.863" x2="117.03" y2="120.965" gradientUnits="userSpaceOnUse">
<stop stop-color="#90EE90"/>
<stop offset="1" stop-color="#B3FCB3" stop-opacity="0.5"/>
</linearGradient>
<linearGradient id="paint55_linear_41_3139" x1="27.2544" y1="307.776" x2="117.065" y2="111.799" gradientUnits="userSpaceOnUse">
<stop stop-color="#90EE90"/>
<stop offset="1" stop-color="#B3FCB3" stop-opacity="0.5"/>
</linearGradient>
<linearGradient id="paint56_linear_41_3139" x1="21.9308" y1="309.584" x2="117.017" y2="102.094" gradientUnits="userSpaceOnUse">
<stop stop-color="#90EE90"/>
<stop offset="1" stop-color="#B3FCB3" stop-opacity="0.5"/>
</linearGradient>
<linearGradient id="paint57_linear_41_3139" x1="16.3139" y1="311.257" x2="116.874" y2="91.824" gradientUnits="userSpaceOnUse">
<stop stop-color="#90EE90"/>
<stop offset="1" stop-color="#B3FCB3" stop-opacity="0.5"/>
</linearGradient>
<linearGradient id="paint58_linear_41_3139" x1="10.4009" y1="312.785" x2="116.634" y2="80.9732" gradientUnits="userSpaceOnUse">
<stop stop-color="#90EE90"/>
<stop offset="1" stop-color="#B3FCB3" stop-opacity="0.5"/>
</linearGradient>
<linearGradient id="paint59_linear_41_3139" x1="4.18118" y1="314.131" x2="116.281" y2="69.5165" gradientUnits="userSpaceOnUse">
<stop stop-color="#90EE90"/>
<stop offset="1" stop-color="#B3FCB3" stop-opacity="0.5"/>
</linearGradient>
<linearGradient id="paint60_linear_41_3139" x1="-2.36042" y1="315.284" x2="115.805" y2="57.4343" gradientUnits="userSpaceOnUse">
<stop stop-color="#90EE90"/>
<stop offset="1" stop-color="#B3FCB3" stop-opacity="0.5"/>
</linearGradient>
<linearGradient id="paint61_linear_41_3139" x1="-9.22314" y1="316.211" x2="115.198" y2="44.7101" gradientUnits="userSpaceOnUse">
<stop stop-color="#90EE90"/>
<stop offset="1" stop-color="#B3FCB3" stop-opacity="0.5"/>
</linearGradient>
<linearGradient id="paint62_linear_41_3139" x1="-16.4249" y1="316.885" x2="114.443" y2="31.3173" gradientUnits="userSpaceOnUse">
<stop stop-color="#90EE90"/>
<stop offset="1" stop-color="#B3FCB3" stop-opacity="0.5"/>
</linearGradient>
<linearGradient id="paint63_linear_41_3139" x1="-20.9576" y1="318.653" x2="116.539" y2="18.621" gradientUnits="userSpaceOnUse">
<stop stop-color="#90EE90"/>
<stop offset="1" stop-color="#B3FCB3" stop-opacity="0.5"/>
</linearGradient>
<linearGradient id="paint64_linear_41_3139" x1="-24.8349" y1="320.573" x2="119.47" y2="5.68356" gradientUnits="userSpaceOnUse">
<stop stop-color="#90EE90"/>
<stop offset="1" stop-color="#B3FCB3" stop-opacity="0.5"/>
</linearGradient>
<linearGradient id="paint65_linear_41_3139" x1="-28.6618" y1="322.323" x2="122.619" y2="-7.78766" gradientUnits="userSpaceOnUse">
<stop stop-color="#90EE90"/>
<stop offset="1" stop-color="#B3FCB3" stop-opacity="0.5"/>
</linearGradient>
<linearGradient id="paint66_linear_41_3139" x1="-32.4215" y1="323.895" x2="126" y2="-21.7989" gradientUnits="userSpaceOnUse">
<stop stop-color="#90EE90"/>
<stop offset="1" stop-color="#B3FCB3" stop-opacity="0.5"/>
</linearGradient>
<linearGradient id="paint67_linear_41_3139" x1="-36.0889" y1="325.246" x2="129.623" y2="-36.3559" gradientUnits="userSpaceOnUse">
<stop stop-color="#90EE90"/>
<stop offset="1" stop-color="#B3FCB3" stop-opacity="0.5"/>
</linearGradient>
<linearGradient id="paint68_linear_41_3139" x1="-39.6443" y1="326.357" x2="133.496" y2="-51.4545" gradientUnits="userSpaceOnUse">
<stop stop-color="#90EE90"/>
<stop offset="1" stop-color="#B3FCB3" stop-opacity="0.5"/>
</linearGradient>
<linearGradient id="paint69_linear_41_3139" x1="-43.0565" y1="327.197" x2="137.637" y2="-67.096" gradientUnits="userSpaceOnUse">
<stop stop-color="#90EE90"/>
<stop offset="1" stop-color="#B3FCB3" stop-opacity="0.5"/>
</linearGradient>
<linearGradient id="paint70_linear_41_3139" x1="-46.2966" y1="327.732" x2="142.058" y2="-83.2792" gradientUnits="userSpaceOnUse">
<stop stop-color="#90EE90"/>
<stop offset="1" stop-color="#B3FCB3" stop-opacity="0.5"/>
</linearGradient>
<linearGradient id="paint71_linear_41_3139" x1="-49.3362" y1="327.924" x2="146.767" y2="-99.9957" gradientUnits="userSpaceOnUse">
<stop stop-color="#90EE90"/>
<stop offset="1" stop-color="#B3FCB3" stop-opacity="0.5"/>
</linearGradient>
<linearGradient id="paint72_linear_41_3139" x1="-91.5665" y1="605.631" x2="-17.4966" y2="684.596" gradientUnits="userSpaceOnUse">
<stop stop-color="#90EE90"/>
<stop offset="1" stop-color="#B3FCB3" stop-opacity="0.5"/>
</linearGradient>
<linearGradient id="paint73_linear_41_3139" x1="-92.8327" y1="603.426" x2="-15.4889" y2="685.881" gradientUnits="userSpaceOnUse">
<stop stop-color="#90EE90"/>
<stop offset="1" stop-color="#B3FCB3" stop-opacity="0.5"/>
</linearGradient>
<linearGradient id="paint74_linear_41_3139" x1="-94.096" y1="601.086" x2="-13.4208" y2="687.092" gradientUnits="userSpaceOnUse">
<stop stop-color="#90EE90"/>
<stop offset="1" stop-color="#B3FCB3" stop-opacity="0.5"/>
</linearGradient>
<linearGradient id="paint75_linear_41_3139" x1="-95.3508" y1="598.61" x2="-11.2982" y2="688.218" gradientUnits="userSpaceOnUse">
<stop stop-color="#90EE90"/>
<stop offset="1" stop-color="#B3FCB3" stop-opacity="0.5"/>
</linearGradient>
<linearGradient id="paint76_linear_41_3139" x1="-96.5892" y1="595.993" x2="-9.11605" y2="689.247" gradientUnits="userSpaceOnUse">
<stop stop-color="#90EE90"/>
<stop offset="1" stop-color="#B3FCB3" stop-opacity="0.5"/>
</linearGradient>
<linearGradient id="paint77_linear_41_3139" x1="-97.8095" y1="593.226" x2="-6.88424" y2="690.161" gradientUnits="userSpaceOnUse">
<stop stop-color="#90EE90"/>
<stop offset="1" stop-color="#B3FCB3" stop-opacity="0.5"/>
</linearGradient>
<linearGradient id="paint78_linear_41_3139" x1="-99.007" y1="590.3" x2="-4.6009" y2="690.945" gradientUnits="userSpaceOnUse">
<stop stop-color="#90EE90"/>
<stop offset="1" stop-color="#B3FCB3" stop-opacity="0.5"/>
</linearGradient>
<linearGradient id="paint79_linear_41_3139" x1="-100.165" y1="587.216" x2="-2.27263" y2="691.578" gradientUnits="userSpaceOnUse">
<stop stop-color="#90EE90"/>
<stop offset="1" stop-color="#B3FCB3" stop-opacity="0.5"/>
</linearGradient>
<linearGradient id="paint80_linear_41_3139" x1="-101.282" y1="583.966" x2="0.100665" y2="692.048" gradientUnits="userSpaceOnUse">
<stop stop-color="#90EE90"/>
<stop offset="1" stop-color="#B3FCB3" stop-opacity="0.5"/>
</linearGradient>
<linearGradient id="paint81_linear_41_3139" x1="-102.346" y1="580.546" x2="2.5111" y2="692.333" gradientUnits="userSpaceOnUse">
<stop stop-color="#90EE90"/>
<stop offset="1" stop-color="#B3FCB3" stop-opacity="0.5"/>
</linearGradient>
<linearGradient id="paint82_linear_41_3139" x1="-103.354" y1="576.946" x2="4.95295" y2="692.41" gradientUnits="userSpaceOnUse">
<stop stop-color="#90EE90"/>
<stop offset="1" stop-color="#B3FCB3" stop-opacity="0.5"/>
</linearGradient>
<linearGradient id="paint83_linear_41_3139" x1="-104.281" y1="573.167" x2="7.42306" y2="692.253" gradientUnits="userSpaceOnUse">
<stop stop-color="#90EE90"/>
<stop offset="1" stop-color="#B3FCB3" stop-opacity="0.5"/>
</linearGradient>
<linearGradient id="paint84_linear_41_3139" x1="-105.132" y1="569.202" x2="9.91169" y2="691.849" gradientUnits="userSpaceOnUse">
<stop stop-color="#90EE90"/>
<stop offset="1" stop-color="#B3FCB3" stop-opacity="0.5"/>
</linearGradient>
<linearGradient id="paint85_linear_41_3139" x1="-105.886" y1="565.041" x2="12.4117" y2="691.157" gradientUnits="userSpaceOnUse">
<stop stop-color="#90EE90"/>
<stop offset="1" stop-color="#B3FCB3" stop-opacity="0.5"/>
</linearGradient>
<linearGradient id="paint86_linear_41_3139" x1="-106.533" y1="560.687" x2="14.9155" y2="690.162" gradientUnits="userSpaceOnUse">
<stop stop-color="#90EE90"/>
<stop offset="1" stop-color="#B3FCB3" stop-opacity="0.5"/>
</linearGradient>
<linearGradient id="paint87_linear_41_3139" x1="-107.055" y1="556.132" x2="17.4111" y2="688.824" gradientUnits="userSpaceOnUse">
<stop stop-color="#90EE90"/>
<stop offset="1" stop-color="#B3FCB3" stop-opacity="0.5"/>
</linearGradient>
<linearGradient id="paint88_linear_41_3139" x1="-107.444" y1="551.369" x2="19.8908" y2="687.12" gradientUnits="userSpaceOnUse">
<stop stop-color="#90EE90"/>
<stop offset="1" stop-color="#B3FCB3" stop-opacity="0.5"/>
</linearGradient>
<linearGradient id="paint89_linear_41_3139" x1="-107.675" y1="546.401" x2="23.4517" y2="686.193" gradientUnits="userSpaceOnUse">
<stop stop-color="#90EE90"/>
<stop offset="1" stop-color="#B3FCB3" stop-opacity="0.5"/>
</linearGradient>
<linearGradient id="paint90_linear_41_3139" x1="-107.737" y1="541.217" x2="31.4091" y2="689.559" gradientUnits="userSpaceOnUse">
<stop stop-color="#90EE90"/>
<stop offset="1" stop-color="#B3FCB3" stop-opacity="0.5"/>
</linearGradient>
<linearGradient id="paint91_linear_41_3139" x1="-107.602" y1="535.826" x2="39.882" y2="693.057" gradientUnits="userSpaceOnUse">
<stop stop-color="#90EE90"/>
<stop offset="1" stop-color="#B3FCB3" stop-opacity="0.5"/>
</linearGradient>
<linearGradient id="paint92_linear_41_3139" x1="-107.263" y1="530.214" x2="48.8845" y2="696.681" gradientUnits="userSpaceOnUse">
<stop stop-color="#90EE90"/>
<stop offset="1" stop-color="#B3FCB3" stop-opacity="0.5"/>
</linearGradient>
<linearGradient id="paint93_linear_41_3139" x1="-106.689" y1="524.382" x2="58.4469" y2="700.431" gradientUnits="userSpaceOnUse">
<stop stop-color="#90EE90"/>
<stop offset="1" stop-color="#B3FCB3" stop-opacity="0.5"/>
</linearGradient>
<linearGradient id="paint94_linear_41_3139" x1="-105.868" y1="518.329" x2="68.5834" y2="704.31" gradientUnits="userSpaceOnUse">
<stop stop-color="#90EE90"/>
<stop offset="1" stop-color="#B3FCB3" stop-opacity="0.5"/>
</linearGradient>
<linearGradient id="paint95_linear_41_3139" x1="-104.764" y1="512.062" x2="79.3231" y2="708.315" gradientUnits="userSpaceOnUse">
<stop stop-color="#90EE90"/>
<stop offset="1" stop-color="#B3FCB3" stop-opacity="0.5"/>
</linearGradient>
<linearGradient id="paint96_linear_41_3139" x1="-103.358" y1="505.571" x2="90.6889" y2="712.441" gradientUnits="userSpaceOnUse">
<stop stop-color="#90EE90"/>
<stop offset="1" stop-color="#B3FCB3" stop-opacity="0.5"/>
</linearGradient>
<linearGradient id="paint97_linear_41_3139" x1="-101.621" y1="498.867" x2="102.699" y2="716.689" gradientUnits="userSpaceOnUse">
<stop stop-color="#90EE90"/>
<stop offset="1" stop-color="#B3FCB3" stop-opacity="0.5"/>
</linearGradient>
<linearGradient id="paint98_linear_41_3139" x1="-99.5229" y1="491.945" x2="115.383" y2="721.053" gradientUnits="userSpaceOnUse">
<stop stop-color="#90EE90"/>
<stop offset="1" stop-color="#B3FCB3" stop-opacity="0.5"/>
</linearGradient>
<linearGradient id="paint99_linear_41_3139" x1="-99.4468" y1="487.08" x2="126.344" y2="727.793" gradientUnits="userSpaceOnUse">
<stop stop-color="#90EE90"/>
<stop offset="1" stop-color="#B3FCB3" stop-opacity="0.5"/>
</linearGradient>
<linearGradient id="paint100_linear_41_3139" x1="-99.7587" y1="482.765" x2="137.214" y2="735.398" gradientUnits="userSpaceOnUse">
<stop stop-color="#90EE90"/>
<stop offset="1" stop-color="#B3FCB3" stop-opacity="0.5"/>
</linearGradient>
<linearGradient id="paint101_linear_41_3139" x1="-99.9314" y1="478.56" x2="148.495" y2="743.405" gradientUnits="userSpaceOnUse">
<stop stop-color="#90EE90"/>
<stop offset="1" stop-color="#B3FCB3" stop-opacity="0.5"/>
</linearGradient>
<linearGradient id="paint102_linear_41_3139" x1="-99.9659" y1="474.485" x2="160.188" y2="751.832" gradientUnits="userSpaceOnUse">
<stop stop-color="#90EE90"/>
<stop offset="1" stop-color="#B3FCB3" stop-opacity="0.5"/>
</linearGradient>
<linearGradient id="paint103_linear_41_3139" x1="-99.8302" y1="470.579" x2="172.296" y2="760.689" gradientUnits="userSpaceOnUse">
<stop stop-color="#90EE90"/>
<stop offset="1" stop-color="#B3FCB3" stop-opacity="0.5"/>
</linearGradient>
<linearGradient id="paint104_linear_41_3139" x1="-99.5151" y1="466.868" x2="184.81" y2="769.983" gradientUnits="userSpaceOnUse">
<stop stop-color="#90EE90"/>
<stop offset="1" stop-color="#B3FCB3" stop-opacity="0.5"/>
</linearGradient>
<linearGradient id="paint105_linear_41_3139" x1="-99.0028" y1="463.391" x2="197.725" y2="779.729" gradientUnits="userSpaceOnUse">
<stop stop-color="#90EE90"/>
<stop offset="1" stop-color="#B3FCB3" stop-opacity="0.5"/>
</linearGradient>
<linearGradient id="paint106_linear_41_3139" x1="-98.2729" y1="460.189" x2="211.036" y2="789.94" gradientUnits="userSpaceOnUse">
<stop stop-color="#90EE90"/>
<stop offset="1" stop-color="#B3FCB3" stop-opacity="0.5"/>
</linearGradient>
<linearGradient id="paint107_linear_41_3139" x1="-97.3017" y1="457.303" x2="224.732" y2="800.619" gradientUnits="userSpaceOnUse">
<stop stop-color="#90EE90"/>
<stop offset="1" stop-color="#B3FCB3" stop-opacity="0.5"/>
</linearGradient>
<linearGradient id="paint108_linear_41_3139" x1="149.434" y1="591.631" x2="223.503" y2="670.596" gradientUnits="userSpaceOnUse">
<stop stop-color="#90EE90"/>
<stop offset="1" stop-color="#B3FCB3" stop-opacity="0.5"/>
</linearGradient>
<linearGradient id="paint109_linear_41_3139" x1="148.167" y1="589.426" x2="225.511" y2="671.881" gradientUnits="userSpaceOnUse">
<stop stop-color="#90EE90"/>
<stop offset="1" stop-color="#B3FCB3" stop-opacity="0.5"/>
</linearGradient>
<linearGradient id="paint110_linear_41_3139" x1="146.904" y1="587.086" x2="227.579" y2="673.092" gradientUnits="userSpaceOnUse">
<stop stop-color="#90EE90"/>
<stop offset="1" stop-color="#B3FCB3" stop-opacity="0.5"/>
</linearGradient>
<linearGradient id="paint111_linear_41_3139" x1="145.649" y1="584.61" x2="229.702" y2="674.218" gradientUnits="userSpaceOnUse">
<stop stop-color="#90EE90"/>
<stop offset="1" stop-color="#B3FCB3" stop-opacity="0.5"/>
</linearGradient>
<linearGradient id="paint112_linear_41_3139" x1="144.411" y1="581.993" x2="231.884" y2="675.247" gradientUnits="userSpaceOnUse">
<stop stop-color="#90EE90"/>
<stop offset="1" stop-color="#B3FCB3" stop-opacity="0.5"/>
</linearGradient>
<linearGradient id="paint113_linear_41_3139" x1="143.191" y1="579.226" x2="234.116" y2="676.161" gradientUnits="userSpaceOnUse">
<stop stop-color="#90EE90"/>
<stop offset="1" stop-color="#B3FCB3" stop-opacity="0.5"/>
</linearGradient>
<linearGradient id="paint114_linear_41_3139" x1="141.993" y1="576.3" x2="236.399" y2="676.945" gradientUnits="userSpaceOnUse">
<stop stop-color="#90EE90"/>
<stop offset="1" stop-color="#B3FCB3" stop-opacity="0.5"/>
</linearGradient>
<linearGradient id="paint115_linear_41_3139" x1="140.835" y1="573.216" x2="238.727" y2="677.578" gradientUnits="userSpaceOnUse">
<stop stop-color="#90EE90"/>
<stop offset="1" stop-color="#B3FCB3" stop-opacity="0.5"/>
</linearGradient>
<linearGradient id="paint116_linear_41_3139" x1="139.718" y1="569.966" x2="241.101" y2="678.048" gradientUnits="userSpaceOnUse">
<stop stop-color="#90EE90"/>
<stop offset="1" stop-color="#B3FCB3" stop-opacity="0.5"/>
</linearGradient>
<linearGradient id="paint117_linear_41_3139" x1="138.654" y1="566.546" x2="243.511" y2="678.333" gradientUnits="userSpaceOnUse">
<stop stop-color="#90EE90"/>
<stop offset="1" stop-color="#B3FCB3" stop-opacity="0.5"/>
</linearGradient>
<linearGradient id="paint118_linear_41_3139" x1="137.646" y1="562.946" x2="245.953" y2="678.41" gradientUnits="userSpaceOnUse">
<stop stop-color="#90EE90"/>
<stop offset="1" stop-color="#B3FCB3" stop-opacity="0.5"/>
</linearGradient>
<linearGradient id="paint119_linear_41_3139" x1="136.719" y1="559.167" x2="248.423" y2="678.253" gradientUnits="userSpaceOnUse">
<stop stop-color="#90EE90"/>
<stop offset="1" stop-color="#B3FCB3" stop-opacity="0.5"/>
</linearGradient>
<linearGradient id="paint120_linear_41_3139" x1="135.868" y1="555.202" x2="250.912" y2="677.849" gradientUnits="userSpaceOnUse">
<stop stop-color="#90EE90"/>
<stop offset="1" stop-color="#B3FCB3" stop-opacity="0.5"/>
</linearGradient>
<linearGradient id="paint121_linear_41_3139" x1="135.114" y1="551.041" x2="253.412" y2="677.157" gradientUnits="userSpaceOnUse">
<stop stop-color="#90EE90"/>
<stop offset="1" stop-color="#B3FCB3" stop-opacity="0.5"/>
</linearGradient>
<linearGradient id="paint122_linear_41_3139" x1="134.467" y1="546.687" x2="255.915" y2="676.162" gradientUnits="userSpaceOnUse">
<stop stop-color="#90EE90"/>
<stop offset="1" stop-color="#B3FCB3" stop-opacity="0.5"/>
</linearGradient>
<linearGradient id="paint123_linear_41_3139" x1="133.945" y1="542.132" x2="258.411" y2="674.824" gradientUnits="userSpaceOnUse">
<stop stop-color="#90EE90"/>
<stop offset="1" stop-color="#B3FCB3" stop-opacity="0.5"/>
</linearGradient>
<linearGradient id="paint124_linear_41_3139" x1="133.556" y1="537.369" x2="260.891" y2="673.12" gradientUnits="userSpaceOnUse">
<stop stop-color="#90EE90"/>
<stop offset="1" stop-color="#B3FCB3" stop-opacity="0.5"/>
</linearGradient>
<linearGradient id="paint125_linear_41_3139" x1="133.325" y1="532.401" x2="264.452" y2="672.193" gradientUnits="userSpaceOnUse">
<stop stop-color="#90EE90"/>
<stop offset="1" stop-color="#B3FCB3" stop-opacity="0.5"/>
</linearGradient>
<linearGradient id="paint126_linear_41_3139" x1="133.263" y1="527.217" x2="272.409" y2="675.559" gradientUnits="userSpaceOnUse">
<stop stop-color="#90EE90"/>
<stop offset="1" stop-color="#B3FCB3" stop-opacity="0.5"/>
</linearGradient>
<linearGradient id="paint127_linear_41_3139" x1="133.398" y1="521.826" x2="280.882" y2="679.057" gradientUnits="userSpaceOnUse">
<stop stop-color="#90EE90"/>
<stop offset="1" stop-color="#B3FCB3" stop-opacity="0.5"/>
</linearGradient>
<linearGradient id="paint128_linear_41_3139" x1="133.737" y1="516.214" x2="289.884" y2="682.681" gradientUnits="userSpaceOnUse">
<stop stop-color="#90EE90"/>
<stop offset="1" stop-color="#B3FCB3" stop-opacity="0.5"/>
</linearGradient>
<linearGradient id="paint129_linear_41_3139" x1="134.311" y1="510.382" x2="299.447" y2="686.431" gradientUnits="userSpaceOnUse">
<stop stop-color="#90EE90"/>
<stop offset="1" stop-color="#B3FCB3" stop-opacity="0.5"/>
</linearGradient>
<linearGradient id="paint130_linear_41_3139" x1="135.132" y1="504.329" x2="309.583" y2="690.31" gradientUnits="userSpaceOnUse">
<stop stop-color="#90EE90"/>
<stop offset="1" stop-color="#B3FCB3" stop-opacity="0.5"/>
</linearGradient>
<linearGradient id="paint131_linear_41_3139" x1="136.236" y1="498.062" x2="320.323" y2="694.315" gradientUnits="userSpaceOnUse">
<stop stop-color="#90EE90"/>
<stop offset="1" stop-color="#B3FCB3" stop-opacity="0.5"/>
</linearGradient>
<linearGradient id="paint132_linear_41_3139" x1="137.642" y1="491.571" x2="331.689" y2="698.441" gradientUnits="userSpaceOnUse">
<stop stop-color="#90EE90"/>
<stop offset="1" stop-color="#B3FCB3" stop-opacity="0.5"/>
</linearGradient>
<linearGradient id="paint133_linear_41_3139" x1="139.379" y1="484.867" x2="343.699" y2="702.689" gradientUnits="userSpaceOnUse">
<stop stop-color="#90EE90"/>
<stop offset="1" stop-color="#B3FCB3" stop-opacity="0.5"/>
</linearGradient>
<linearGradient id="paint134_linear_41_3139" x1="141.477" y1="477.945" x2="356.383" y2="707.053" gradientUnits="userSpaceOnUse">
<stop stop-color="#90EE90"/>
<stop offset="1" stop-color="#B3FCB3" stop-opacity="0.5"/>
</linearGradient>
<linearGradient id="paint135_linear_41_3139" x1="141.553" y1="473.08" x2="367.344" y2="713.793" gradientUnits="userSpaceOnUse">
<stop stop-color="#90EE90"/>
<stop offset="1" stop-color="#B3FCB3" stop-opacity="0.5"/>
</linearGradient>
<linearGradient id="paint136_linear_41_3139" x1="141.241" y1="468.765" x2="378.214" y2="721.398" gradientUnits="userSpaceOnUse">
<stop stop-color="#90EE90"/>
<stop offset="1" stop-color="#B3FCB3" stop-opacity="0.5"/>
</linearGradient>
<linearGradient id="paint137_linear_41_3139" x1="141.069" y1="464.56" x2="389.495" y2="729.405" gradientUnits="userSpaceOnUse">
<stop stop-color="#90EE90"/>
<stop offset="1" stop-color="#B3FCB3" stop-opacity="0.5"/>
</linearGradient>
<linearGradient id="paint138_linear_41_3139" x1="141.034" y1="460.485" x2="401.188" y2="737.832" gradientUnits="userSpaceOnUse">
<stop stop-color="#90EE90"/>
<stop offset="1" stop-color="#B3FCB3" stop-opacity="0.5"/>
</linearGradient>
<linearGradient id="paint139_linear_41_3139" x1="141.17" y1="456.579" x2="413.296" y2="746.689" gradientUnits="userSpaceOnUse">
<stop stop-color="#90EE90"/>
<stop offset="1" stop-color="#B3FCB3" stop-opacity="0.5"/>
</linearGradient>
<linearGradient id="paint140_linear_41_3139" x1="141.485" y1="452.868" x2="425.81" y2="755.983" gradientUnits="userSpaceOnUse">
<stop stop-color="#90EE90"/>
<stop offset="1" stop-color="#B3FCB3" stop-opacity="0.5"/>
</linearGradient>
<linearGradient id="paint141_linear_41_3139" x1="141.997" y1="449.391" x2="438.725" y2="765.729" gradientUnits="userSpaceOnUse">
<stop stop-color="#90EE90"/>
<stop offset="1" stop-color="#B3FCB3" stop-opacity="0.5"/>
</linearGradient>
<linearGradient id="paint142_linear_41_3139" x1="142.727" y1="446.189" x2="452.036" y2="775.94" gradientUnits="userSpaceOnUse">
<stop stop-color="#90EE90"/>
<stop offset="1" stop-color="#B3FCB3" stop-opacity="0.5"/>
</linearGradient>
<linearGradient id="paint143_linear_41_3139" x1="143.698" y1="443.303" x2="465.732" y2="786.619" gradientUnits="userSpaceOnUse">
<stop stop-color="#90EE90"/>
<stop offset="1" stop-color="#B3FCB3" stop-opacity="0.5"/>
</linearGradient>
<clipPath id="clip0_41_3139">
<rect width="375" height="812" fill="white"/>
</clipPath>
<clipPath id="clip1_41_3139">
<rect width="459.856" height="470.718" fill="white" transform="translate(-21 11.6052) rotate(-43.1679)"/>
</clipPath>
<clipPath id="clip2_41_3139">
<rect width="459.856" height="470.718" fill="white" transform="translate(159.688 423.714) rotate(-155.379)"/>
</clipPath>
<clipPath id="clip3_41_3139">
<rect width="459.856" height="470.718" fill="white" transform="translate(-265 614.605) rotate(-43.1679)"/>
</clipPath>
<clipPath id="clip4_41_3139">
<rect width="459.856" height="470.718" fill="white" transform="translate(-24 600.605) rotate(-43.1679)"/>
</clipPath>
</defs>
</svg>
