<svg width="407" height="409" viewBox="0 0 407 409" fill="none" xmlns="http://www.w3.org/2000/svg">
<g opacity="0.2" clip-path="url(#clip0_724_186)">
<path d="M-7.62769e-05 0.000206286V2.59989C1.45369 1.6378 2.91666 0.778065 4.34283 0.000206286H-7.62769e-05ZM404.957 244.862C405.703 243.378 406.383 241.914 407 240.471V234.852C404.414 227.677 403.467 222.14 403.439 221.987L403.071 219.715L401.728 221.475C401.636 221.598 398.314 225.886 392.84 230.656C393.815 222.99 395.499 217.647 395.545 217.494L396.244 215.324L394.293 216.102C394.164 216.153 389.362 218.026 382.461 219.111C386.758 213.011 390.613 209.316 390.723 209.224L392.306 207.729L390.263 207.32C390.125 207.289 385.129 206.235 378.67 203.349H378.697C385.147 200.473 390.125 199.419 390.263 199.388L392.306 198.978L390.723 197.484C390.613 197.382 386.758 193.687 382.461 187.597C389.352 188.682 394.155 190.555 394.293 190.606L396.244 191.384L395.545 189.214C395.499 189.071 393.815 183.728 392.84 176.052C398.323 180.832 401.645 185.12 401.737 185.243L403.08 187.004L403.448 184.731C403.476 184.578 404.414 179.041 407.009 171.866V166.247C406.393 164.804 405.721 163.34 404.967 161.856C402.05 156.084 398.636 151.263 394.79 147.445C396.98 140.741 400.771 134.385 407 129.422V126.771L406.945 126.812C405.141 125.604 398.912 120.701 398.912 110.61V109.525H397.937C388.773 109.525 384.457 102.637 383.381 100.61L383.436 100.528L383.399 100.467C384.494 98.4402 388.901 91.5521 397.955 91.5521H398.931V90.4774C398.931 80.2527 405.169 75.4422 406.963 74.2754L407.009 74.3062V71.6553C400.771 66.6811 396.989 60.3252 394.799 53.6315C398.645 49.8139 402.059 45.0034 404.976 39.2206C405.721 37.7366 406.402 36.273 407.018 34.8298V29.2108C404.433 22.0361 403.485 16.499 403.458 16.3455L403.089 14.0733L401.746 15.8337C401.654 15.9565 398.333 20.245 392.858 25.0145C393.833 17.3485 395.517 12.0058 395.563 11.8523L396.262 9.6825L394.312 10.4604C394.183 10.5115 389.38 12.3845 382.479 13.4694C386.776 7.36939 390.631 3.67456 390.742 3.58245L392.324 2.08814L390.282 1.67874C390.19 1.65827 387.899 1.17723 384.457 -0.0100287H378.44C382.534 1.77086 386.012 2.8353 388.037 3.36751C386.242 5.25075 383.022 8.8944 379.7 13.8481C373.48 14.5543 366.018 14.4725 358.832 12.0672C363.359 6.70412 368.898 2.78412 374.06 -0.0100287H369.717C364.528 3.23446 360.194 7.03164 356.762 11.2996C351.425 9.14004 346.337 5.5885 342.142 -0.0100287H339.676C343.761 5.93649 349.052 10.3375 355.41 13.0907C351.177 18.9452 348.564 25.6388 347.681 32.9773L325.874 8.74088C333.327 7.87091 337.486 2.78412 339.225 0.000206286H336.777C334.689 2.79436 330.539 6.70412 323.638 6.70412H322.663V7.78903C322.663 17.9831 316.452 22.8037 314.63 23.991L314.575 23.9501L314.52 23.991C312.717 22.7833 306.487 17.891 306.487 7.78903V6.70412H305.512C298.611 6.70412 294.462 2.79436 292.373 0.000206286H289.926C291.665 2.78412 295.823 7.87091 303.276 8.74088L281.479 32.9568C280.586 25.6286 277.973 18.9554 273.759 13.101C280.108 10.358 285.399 5.93649 289.484 0.000206286H287.018C282.822 5.59874 277.725 9.16051 272.398 11.3099C268.966 7.03164 264.641 3.23446 259.442 0.000206286H255.1C260.261 2.80459 265.791 6.71435 270.327 12.0775C263.15 14.4827 255.688 14.5646 249.468 13.8584C246.147 8.8944 242.927 5.26099 241.132 3.37775C243.157 2.84553 246.625 1.78109 250.729 0.000206286H244.712C241.27 1.18746 238.988 1.66851 238.887 1.68898L236.845 2.09838L238.427 3.59268C238.538 3.69503 242.393 7.38986 246.69 13.4797C239.798 12.3948 234.995 10.5218 234.857 10.4706L232.907 9.69273L233.606 11.8625C233.652 12.0058 235.336 17.3485 236.311 25.0247C230.827 20.245 227.506 15.9565 227.423 15.8337L226.079 14.0733L225.711 16.3455C225.684 16.499 224.736 22.0566 222.141 29.2415V29.2006C219.556 22.0259 218.608 16.4888 218.58 16.3352L218.212 14.0631L216.869 15.8235C216.777 15.9463 213.455 20.2348 207.981 25.0043C208.956 17.3383 210.64 11.9956 210.686 11.8421L211.385 9.67226L209.435 10.4501C209.306 10.5013 204.503 12.3743 197.602 13.4592C201.899 7.35916 205.754 3.66433 205.865 3.57221L207.447 2.07791L205.405 1.66851C205.313 1.64804 203.021 1.16699 199.58 -0.0202637H193.563C197.657 1.76062 201.135 2.82506 203.159 3.35728C201.365 5.24052 198.145 8.88417 194.823 13.8379C188.603 14.5441 181.141 14.4622 173.955 12.057C178.482 6.69388 184.021 2.77389 189.183 -0.0202637H184.84C179.651 3.22422 175.317 7.0214 171.885 11.2894C166.539 9.16051 161.451 5.59874 157.255 0.000206286H154.789C158.875 5.94673 164.165 10.3478 170.523 13.101C166.291 18.9554 163.678 25.6491 162.794 32.9875L141.006 8.74088C148.459 7.87091 152.618 2.78412 154.357 0.000206286H151.91C149.821 2.79436 145.671 6.70412 138.77 6.70412H137.795V7.78903C137.795 17.9831 131.584 22.8037 129.763 23.991L129.707 23.9501L129.652 23.991C127.849 22.7833 121.62 17.891 121.62 7.78903V6.70412H120.644C113.744 6.70412 109.594 2.79436 107.505 0.000206286H105.058C106.797 2.78412 110.956 7.87091 118.408 8.74088L96.6111 32.9568C95.7186 25.6286 93.1055 18.9554 88.8822 13.101C95.231 10.358 100.522 5.93649 104.607 0.000206286H102.141C97.9453 5.59874 92.8479 9.16051 87.5205 11.3099C84.0885 7.04187 79.7548 3.24469 74.5654 0.000206286H70.2225C75.3843 2.80459 80.9141 6.71435 85.4502 12.0775C78.2734 14.4827 70.8113 14.5646 64.5914 13.8584C61.2698 8.8944 58.0495 5.26099 56.2552 3.37775C58.2795 2.84553 61.7483 1.78109 65.852 0.000206286H59.8345C56.3933 1.18746 54.1114 1.66851 54.0102 1.68898L51.9675 2.09838L53.5501 3.59268C53.6605 3.69503 57.5158 7.38986 61.8127 13.4797C54.9211 12.3948 50.1181 10.5218 49.9801 10.4706L48.0295 9.69273L48.7288 11.8625C48.7748 12.0058 50.4586 17.3485 51.4339 25.0247C45.9501 20.245 42.6285 15.9565 42.5457 15.8337L41.2023 14.0733L40.8343 16.3455C40.8067 16.499 39.8681 22.0156 37.2918 29.1699C34.7155 22.0156 33.7678 16.499 33.7494 16.3455L33.3814 14.0733L32.038 15.8337C31.946 15.9565 28.6244 20.245 23.1498 25.0145C24.1251 17.3485 25.8089 12.0058 25.8549 11.8523L26.5542 9.6825L24.6036 10.4604C24.4748 10.5115 19.6718 12.3845 12.771 13.4694C17.0679 7.36939 20.9232 3.67456 21.0336 3.58245L22.6161 2.08814L20.5735 1.67874C20.4815 1.65827 18.1996 1.17723 14.7492 -0.0100287H8.73174C12.8262 1.77086 16.3042 2.8353 18.3284 3.36751C16.5342 5.25075 13.3139 8.8944 9.99228 13.8481C6.90072 14.2166 3.50553 14.3701 -7.62769e-05 14.1449V16.3864C1.05805 16.4478 2.13457 16.499 3.2295 16.499C3.47793 16.499 3.72636 16.499 3.96558 16.499C5.50216 16.4785 6.99273 16.3966 8.4281 16.2636C7.60921 17.5839 6.79951 18.9759 6.01742 20.4497C3.07308 25.9766 1.06725 31.5035 -0.00927734 36.9382V55.1258C0.39557 57.05 0.910829 58.9435 1.57331 60.8062C1.05805 60.5708 0.533586 60.3764 -7.62769e-05 60.1717V62.4643C0.809618 62.7918 1.62851 63.1603 2.43821 63.5697C2.08857 67.5408 1.23287 71.1435 -7.62769e-05 74.4187V79.352C2.18058 75.0021 3.61594 70.294 4.22321 65.2789L26.0021 89.5153C18.2732 90.4262 14.0776 95.8713 12.449 98.5733C9.10898 93.6093 4.92249 89.7303 -7.62769e-05 86.9361V89.3823C4.19561 91.9103 8.10606 95.513 11.3448 100.549C8.09686 105.584 4.19561 109.187 -7.62769e-05 111.715V114.161C4.91329 111.377 9.09978 107.488 12.4398 102.534C14.0592 105.226 18.2456 110.681 25.9837 111.592L4.22321 135.788C3.61594 130.783 2.18058 126.085 -7.62769e-05 121.745V126.679C1.23287 129.954 2.08857 133.556 2.43821 137.528C1.61931 137.937 0.809618 138.305 -7.62769e-05 138.633V140.926C0.533586 140.721 1.05805 140.526 1.58251 140.291C0.92003 142.154 0.404771 144.047 -7.62769e-05 145.971V164.159C1.07645 169.604 3.07308 175.131 6.02662 180.648C6.80871 182.121 7.61841 183.513 8.4373 184.834C7.00194 184.711 5.51136 184.619 3.97479 184.598C2.62223 184.578 1.29727 184.619 -7.62769e-05 184.701V186.952C3.50553 186.727 6.90072 186.881 9.98308 187.239C13.3047 192.203 16.525 195.836 18.3192 197.72C15.9178 198.354 11.4921 199.715 6.38546 202.162C4.31522 201.128 2.16217 199.91 -7.62769e-05 198.497V201.097C1.33408 201.926 2.64983 202.684 3.94718 203.369H3.97479C2.66823 204.055 1.34328 204.812 -7.62769e-05 205.652V208.251C2.16217 206.839 4.32443 205.621 6.38546 204.587C11.4921 207.033 15.9178 208.395 18.3192 209.029C16.525 210.912 13.3047 214.556 9.98308 219.51C6.90072 219.858 3.50553 220.022 -7.62769e-05 219.796V222.038C1.05805 222.099 2.13457 222.15 3.2295 222.15C3.47793 222.15 3.72636 222.15 3.96558 222.15C5.50216 222.13 6.99273 222.048 8.4281 221.915C7.60921 223.235 6.79951 224.627 6.01742 226.101C3.07308 231.628 1.06725 237.155 -0.00927734 242.59V260.777C0.39557 262.701 0.910829 264.595 1.57331 266.458C1.04885 266.222 0.515183 266.028 -0.00927734 265.823V268.116C0.800417 268.443 1.61931 268.812 2.42901 269.221C2.07936 273.192 1.22367 276.795 -0.00927734 280.07V285.003C2.17138 280.654 3.60674 275.945 4.21401 270.93L25.9929 295.167C18.264 296.078 14.0684 301.523 12.4398 304.225C9.10898 299.261 4.92249 295.371 -7.62769e-05 292.577V295.023C4.19561 297.552 8.10606 301.154 11.3448 306.19C8.10606 311.225 4.19561 314.828 -7.62769e-05 317.356V319.802C4.91329 317.018 9.09978 313.129 12.4398 308.175C14.0592 310.867 18.2456 316.322 25.9837 317.233L4.22321 341.429C3.61594 336.424 2.18058 331.726 -7.62769e-05 327.386V332.32C1.23287 335.595 2.08857 339.198 2.43821 343.169C1.61931 343.578 0.809618 343.947 -7.62769e-05 344.274V346.567C0.533586 346.362 1.05805 346.168 1.58251 345.932C0.92003 347.795 0.404771 349.689 -7.62769e-05 351.613V369.8C1.07645 375.245 3.07308 380.772 6.02662 386.289C6.80871 387.763 7.61841 389.155 8.4373 390.475C7.00194 390.352 5.51136 390.26 3.97479 390.239C2.62223 390.219 1.29727 390.26 -7.62769e-05 390.342V392.594C3.50553 392.368 6.90072 392.522 9.98308 392.88C13.3047 397.844 16.525 401.478 18.3192 403.361C15.9178 403.995 11.4921 405.357 6.38546 407.803C4.31522 406.769 2.16217 405.551 -7.62769e-05 404.139V406.738C1.33408 407.567 2.64983 408.325 3.94718 409.01H8.99857C15.4485 406.134 20.4263 405.08 20.5643 405.05L22.6069 404.64L21.0244 403.146C20.9139 403.043 17.0587 399.349 12.7618 393.259C19.6534 394.344 24.4564 396.217 24.5944 396.268L26.545 397.046L25.8457 394.876C25.7997 394.733 24.1159 389.39 23.1406 381.714C28.6244 386.493 31.946 390.782 32.0288 390.905L33.3722 392.665L33.7402 390.393C33.7678 390.239 34.7063 384.723 37.2826 377.569C39.8589 384.723 40.8067 390.239 40.8251 390.393L41.1931 392.665L42.5365 390.905C42.6285 390.782 45.9501 386.493 51.4247 381.714C50.4494 389.38 48.7656 394.722 48.7196 394.876L48.0203 397.046L49.9709 396.268C50.0997 396.217 54.9027 394.344 61.8035 393.259C57.5066 399.359 53.6513 403.054 53.5409 403.146L51.9583 404.64L54.001 405.05C54.139 405.08 59.126 406.124 65.5759 409.01H70.6089C71.9063 408.325 73.222 407.567 74.5562 406.738C79.7456 403.494 84.0793 399.697 87.5113 395.429C93.538 397.865 99.2518 402.071 103.714 409.01H106.097L106.07 408.959C107.165 406.933 111.572 400.045 120.626 400.045H121.601V398.96C121.601 388.735 127.84 383.925 129.634 382.758L129.689 382.799L129.735 382.768C131.557 383.955 137.777 388.755 137.777 398.96V400.045H138.752C147.925 400.045 152.241 406.963 153.308 408.99L153.29 409.021H155.673C160.144 402.081 165.858 397.875 171.876 395.439C175.308 399.717 179.632 403.514 184.831 406.749C186.165 407.578 187.481 408.335 188.778 409.021H193.83C200.28 406.145 205.257 405.09 205.395 405.06L207.438 404.65L205.855 403.156C205.745 403.054 201.89 399.359 197.593 393.269C204.484 394.354 209.287 396.227 209.425 396.278L211.376 397.056L210.677 394.886C210.631 394.743 208.947 389.4 207.972 381.724C213.455 386.504 216.777 390.792 216.869 390.915L218.212 392.675L218.58 390.403C218.608 390.25 219.547 384.713 222.141 377.538V377.497C224.736 384.682 225.684 390.25 225.711 390.403L226.079 392.675L227.423 390.915C227.515 390.792 230.836 386.504 236.311 381.724C235.336 389.39 233.652 394.733 233.606 394.886L232.907 397.056L234.857 396.278C234.986 396.227 239.789 394.354 246.69 393.269C242.393 399.369 238.538 403.064 238.427 403.156L236.845 404.65L238.887 405.06C239.025 405.09 244.012 406.134 250.471 409.021H255.504C256.802 408.335 258.117 407.578 259.452 406.749C264.641 403.504 268.975 399.707 272.407 395.439C278.433 397.875 284.147 402.081 288.61 409.021H290.993L290.965 408.969C292.06 406.943 296.468 400.055 305.521 400.055H306.497V398.97C306.497 388.745 312.735 383.935 314.529 382.768L314.584 382.809L314.63 382.778C316.452 383.965 322.672 388.766 322.672 398.97V400.055H323.647C332.821 400.055 337.136 406.974 338.204 409L338.185 409.031H340.568C345.04 402.092 350.754 397.885 356.771 395.449C360.203 399.727 364.528 403.525 369.726 406.759C371.061 407.588 372.376 408.345 373.674 409.031H378.725C385.175 406.155 390.153 405.101 390.291 405.07L392.333 404.661L390.751 403.166C390.64 403.064 386.785 399.369 382.488 393.279C389.38 394.364 394.183 396.237 394.321 396.288L396.271 397.066L395.572 394.896C395.526 394.753 393.842 389.41 392.867 381.734C398.351 386.514 401.673 390.802 401.765 390.925L403.108 392.686L403.476 390.413C403.504 390.26 404.442 384.723 407.037 377.548V371.929C406.42 370.486 405.749 369.022 404.994 367.538C402.077 361.766 398.664 356.945 394.818 353.127C397.008 346.424 400.798 340.068 407.028 335.104V332.453L406.972 332.494C405.169 331.286 398.94 326.383 398.94 316.292V315.207H397.964C388.8 315.207 384.485 308.319 383.408 306.292L383.464 306.21L383.427 306.149C384.522 304.122 388.929 297.234 397.983 297.234H398.958V296.149C398.958 285.925 405.197 281.114 406.991 279.947L407.037 279.978V277.327C400.798 272.353 397.017 265.997 394.827 259.303C398.627 255.455 402.041 250.645 404.957 244.862ZM393.106 218.824C392.398 221.454 391.248 226.398 390.594 232.539C385.525 236.612 379.029 240.696 371.723 242.6C373.434 234.484 377.106 227.247 380.768 221.608C386.298 220.902 390.742 219.612 393.106 218.824ZM390.337 376.903C389.15 375.992 387.899 375.092 386.574 374.222C381.449 370.844 376.333 368.572 371.291 367.405C370.177 360.384 370.601 352.769 373.766 344.991C381.412 345.82 387.549 349.228 392.462 353.813C390.852 359.248 390.052 365.317 390.125 371.939C390.153 373.638 390.226 375.296 390.337 376.903ZM369.211 366.975C362.688 365.86 356.32 366.617 350.294 369.278C352.686 362.564 353.367 355.492 352.364 348.235C358.888 349.351 365.255 348.593 371.281 345.932C368.898 352.636 368.208 359.719 369.211 366.975ZM257.851 345.932C263.877 348.593 270.244 349.351 276.768 348.235C275.765 355.492 276.446 362.574 278.838 369.278C272.802 366.617 266.444 365.86 259.921 366.975C260.924 359.719 260.243 352.636 257.851 345.932ZM236.67 353.803C241.583 349.207 247.72 345.809 255.366 344.98C258.541 352.759 258.964 360.374 257.841 367.395C252.799 368.562 247.674 370.834 242.558 374.212C241.234 375.081 239.982 375.982 238.795 376.893C238.906 375.296 238.988 373.638 239.007 371.929C239.071 365.307 238.28 359.248 236.67 353.803ZM205.469 376.903C204.282 375.992 203.031 375.092 201.706 374.222C196.581 370.844 191.465 368.572 186.423 367.405C185.309 360.384 185.733 352.769 188.898 344.991C196.544 345.82 202.681 349.228 207.594 353.813C205.984 359.248 205.184 365.317 205.257 371.939C205.285 373.638 205.359 375.296 205.469 376.903ZM184.343 366.975C177.82 365.86 171.453 366.617 165.426 369.278C167.818 362.564 168.499 355.492 167.496 348.235C174.02 349.351 180.387 348.593 186.414 345.932C184.021 352.636 183.34 359.719 184.343 366.975ZM72.9828 345.932C79.0187 348.593 85.3766 349.351 91.9002 348.235C90.8973 355.492 91.5781 362.574 93.9704 369.278C87.9345 366.617 81.5766 365.86 75.053 366.975C76.0559 359.719 75.3751 352.636 72.9828 345.932ZM51.7927 353.803C56.7061 349.207 62.8432 345.809 70.4893 344.98C73.6637 352.759 74.0869 360.374 72.9644 367.395C67.9222 368.562 62.7972 370.834 57.6814 374.212C56.3565 375.081 55.1051 375.982 53.9182 376.893C54.0286 375.296 54.1114 373.638 54.1298 371.929C54.2034 365.307 53.4121 359.248 51.7927 353.803ZM35.2584 244.862C36.0037 243.388 36.6662 241.935 37.2826 240.502C37.8991 241.935 38.5708 243.388 39.3069 244.862C42.2236 250.634 45.6372 255.455 49.4833 259.273C47.2934 265.966 43.5118 272.322 37.2826 277.286C31.0535 272.322 27.2719 265.966 25.082 259.273C28.9281 255.455 32.3417 250.645 35.2584 244.862ZM24.4012 256.97C22.2389 248.987 22.1653 240.686 22.8002 233.767C27.2627 230.072 30.5291 226.49 32.2221 224.494C32.7925 227.166 34.0163 232.089 36.2153 237.769C33.6574 244.104 29.8666 251.259 24.4012 256.97ZM35.2584 161.877C32.3417 156.104 28.9281 151.283 25.082 147.466C27.2719 140.772 31.0535 134.416 37.2826 129.452C43.5118 134.416 47.2934 140.772 49.4833 147.466C45.6372 151.283 42.2236 156.094 39.3161 161.877C38.5708 163.35 37.9083 164.804 37.2918 166.237C36.6662 164.794 35.9945 163.34 35.2584 161.877ZM36.2153 168.98C34.0163 174.66 32.7925 179.583 32.2221 182.254C30.5291 180.259 27.2535 176.666 22.8002 172.982C22.1653 166.063 22.2389 157.762 24.4012 149.779C29.8666 155.48 33.6574 162.634 36.2153 168.98ZM53.9274 29.8352C55.1143 30.7461 56.3657 31.6468 57.6906 32.5167C62.8156 35.8943 67.9314 38.1664 72.9736 39.3332C74.0869 46.3544 73.6637 53.9795 70.4985 61.7478C62.8524 60.9188 56.7153 57.5106 51.8019 52.9253C53.4121 47.4905 54.2126 41.4212 54.139 34.7991C54.1114 33.0899 54.0378 31.4318 53.9274 29.8352ZM75.053 39.7631C81.5766 40.8787 87.9437 40.1213 93.9704 37.4602C91.5781 44.1744 90.8973 51.2467 91.9002 58.5033C85.3766 57.3877 79.0095 58.1451 72.9828 60.8062C75.3751 54.1023 76.0559 47.0197 75.053 39.7631ZM186.414 60.8062C180.378 58.1451 174.01 57.3877 167.496 58.5033C168.499 51.2467 167.818 44.1641 165.426 37.4602C171.453 40.1213 177.82 40.8787 184.343 39.7631C183.34 47.0197 184.021 54.1023 186.414 60.8062ZM207.594 52.9355C202.681 57.531 196.544 60.929 188.898 61.7581C185.723 53.9795 185.3 46.3647 186.423 39.3435C191.465 38.1767 196.59 35.9045 201.706 32.527C203.031 31.657 204.282 30.7563 205.469 29.8454C205.359 31.4421 205.276 33.1001 205.257 34.8094C205.193 41.4212 205.984 47.4905 207.594 52.9355ZM222.187 74.2652C224.009 75.4525 230.22 80.2527 230.22 90.4569V91.5419H231.195C240.359 91.5419 244.684 98.4505 245.751 100.477L245.714 100.538L245.751 100.6C244.684 102.626 240.359 109.514 231.195 109.514H230.22V110.599C230.22 120.793 224.009 125.614 222.187 126.801L222.132 126.76V126.771L222.077 126.812C220.273 125.604 214.044 120.701 214.044 110.61V109.525H213.069C203.905 109.525 199.589 102.637 198.513 100.61L198.568 100.528L198.531 100.467C199.626 98.4402 204.034 91.5521 213.087 91.5521H214.063V90.4774C214.063 80.2527 220.301 75.4422 222.095 74.2754L222.141 74.3062V74.3164L222.187 74.2652ZM238.795 29.8352C239.982 30.7461 241.234 31.6468 242.558 32.5167C247.683 35.8943 252.799 38.1664 257.841 39.3332C258.955 46.3544 258.532 53.9795 255.366 61.7478C247.72 60.9188 241.583 57.5106 236.67 52.9253C238.28 47.4905 239.08 41.4212 239.007 34.7991C238.988 33.0899 238.906 31.4318 238.795 29.8352ZM259.921 39.7631C266.444 40.8787 272.812 40.1213 278.838 37.4602C276.446 44.1744 275.765 51.2467 276.768 58.5033C270.244 57.3877 263.877 58.1451 257.851 60.8062C260.243 54.1023 260.924 47.0197 259.921 39.7631ZM371.281 60.8062C365.245 58.1451 358.878 57.3877 352.364 58.5033C353.367 51.2467 352.686 44.1641 350.294 37.4602C356.32 40.1213 362.688 40.8787 369.211 39.7631C368.208 47.0197 368.898 54.1023 371.281 60.8062ZM392.471 52.9355C387.558 57.531 381.421 60.929 373.775 61.7581C370.601 53.9795 370.177 46.3647 371.3 39.3435C376.342 38.1767 381.467 35.9045 386.583 32.527C387.908 31.657 389.159 30.7563 390.346 29.8454C390.236 31.4421 390.153 33.1001 390.134 34.8094C390.061 41.4212 390.852 47.4905 392.471 52.9355ZM372.137 63.5697C371.392 72.0647 368.337 78.9017 364.206 84.3569C359.522 82.6374 354.305 81.7572 348.638 81.7572C348.389 81.7572 348.141 81.7572 347.901 81.7572C346.365 81.7777 344.874 81.8596 343.439 81.9926C344.258 80.6723 345.068 79.2803 345.85 77.8065C348.886 72.1056 350.929 66.415 351.978 60.8062C358.299 59.5678 365.144 60.0488 372.137 63.5697ZM390.337 171.262C389.15 170.351 387.899 169.451 386.574 168.581C381.449 165.203 376.333 162.931 371.291 161.764C370.177 154.743 370.601 147.128 373.766 139.349C381.412 140.178 387.549 143.587 392.462 148.172C390.852 153.607 390.052 159.676 390.125 166.298C390.153 167.997 390.226 169.655 390.337 171.262ZM350.294 243.101C356.32 245.763 362.688 246.52 369.211 245.404C368.208 252.661 368.889 259.743 371.281 266.447C365.245 263.786 358.878 263.029 352.364 264.145C353.367 256.888 352.686 249.805 350.294 243.101ZM333.557 311.85C335.958 311.215 340.384 309.854 345.491 307.408C351.195 310.253 357.627 314.47 362.761 320.55C355.584 322.955 348.113 323.037 341.893 322.33C338.581 317.377 335.351 313.733 333.557 311.85ZM349.843 345.431C342.546 343.527 336.041 339.443 330.972 335.37C330.327 329.229 329.168 324.285 328.46 321.655C330.824 322.443 335.268 323.733 340.789 324.449C344.46 330.078 348.132 337.314 349.843 345.431ZM333.557 300.53C335.351 298.647 338.572 295.003 341.893 290.049C348.113 289.343 355.575 289.425 362.761 291.83C357.627 297.91 351.195 302.137 345.491 304.972C340.384 302.526 335.958 301.164 333.557 300.53ZM340.798 287.931C335.278 288.647 330.833 289.937 328.469 290.725C329.177 288.094 330.327 283.151 330.981 277.01C336.051 272.936 342.546 268.853 349.852 266.949C348.132 275.065 344.46 282.301 340.798 287.931ZM209.913 259.273C213.759 255.455 217.173 250.645 220.089 244.862C220.835 243.378 221.516 241.914 222.132 240.471V240.44C222.749 241.894 223.429 243.368 224.184 244.862C227.101 250.634 230.514 255.455 234.36 259.273C232.17 265.977 228.38 272.333 222.132 277.307V277.296C215.894 272.322 212.103 265.977 209.913 259.273ZM53.9274 235.476C55.1143 236.387 56.3657 237.288 57.6906 238.158C62.8156 241.535 67.9314 243.808 72.9736 244.974C74.0869 251.996 73.6637 259.621 70.4985 267.399C62.8524 266.57 56.7153 263.162 51.8019 258.577C53.4121 253.142 54.2126 247.073 54.139 240.451C54.1114 238.741 54.0378 237.073 53.9274 235.476ZM51.7927 148.162C56.7061 143.566 62.8432 140.168 70.4893 139.339C73.6637 147.118 74.0869 154.733 72.9644 161.754C67.9222 162.921 62.7972 165.193 57.6814 168.57C56.3565 169.44 55.1051 170.341 53.9182 171.252C54.0286 169.655 54.1114 167.997 54.1298 166.288C54.2034 159.666 53.4121 153.597 51.7927 148.162ZM362.761 114.908C355.584 117.314 348.113 117.395 341.893 116.689C338.572 111.725 335.351 108.092 333.557 106.209C335.958 105.574 340.384 104.213 345.491 101.767C351.195 104.612 357.627 108.829 362.761 114.908ZM333.557 94.8887C335.351 93.0055 338.572 89.3618 341.893 84.4081C348.113 83.7019 355.575 83.7837 362.761 86.189C357.627 92.2685 351.195 96.4956 345.491 99.3307C340.384 96.8743 335.958 95.5233 333.557 94.8887ZM349.843 139.79C342.546 137.886 336.041 133.802 330.972 129.729C330.327 123.588 329.168 118.644 328.46 116.014C330.824 116.802 335.268 118.091 340.789 118.808C344.46 124.437 348.132 131.663 349.843 139.79ZM352.364 142.584C358.888 143.699 365.255 142.942 371.281 140.281C368.889 146.995 368.208 154.067 369.211 161.324C362.688 160.208 356.32 160.966 350.294 163.627C352.686 156.923 353.367 149.84 352.364 142.584ZM347.809 164.589C340.163 163.76 334.026 160.352 329.113 155.766C330.723 150.332 331.524 144.262 331.45 137.64C331.432 135.931 331.358 134.273 331.238 132.676C332.425 133.587 333.677 134.488 335.002 135.358C340.127 138.735 345.242 141.008 350.285 142.174C351.398 149.196 350.975 156.81 347.809 164.589ZM297.903 274.072C296.716 273.162 295.455 272.261 294.14 271.391C289.015 268.013 283.899 265.741 278.857 264.574C277.743 257.553 278.167 249.938 281.332 242.16C288.978 242.989 295.115 246.397 300.028 250.982C298.418 256.417 297.618 262.486 297.691 269.109C297.71 270.818 297.783 272.476 297.903 274.072ZM264.926 290.008C260.804 284.543 257.749 277.716 256.995 269.221C263.988 265.69 270.833 265.219 277.145 266.468C278.194 272.077 280.237 277.778 283.273 283.468C284.055 284.942 284.865 286.334 285.684 287.654C284.248 287.531 282.758 287.439 281.221 287.419C280.973 287.419 280.724 287.419 280.485 287.419C274.827 287.409 269.61 288.289 264.926 290.008ZM277.256 303.907C278.599 304.747 279.924 305.504 281.231 306.19C279.924 306.876 278.599 307.633 277.256 308.472C272.066 311.717 267.733 315.514 264.301 319.782C258.274 317.346 252.551 313.129 248.088 306.18C252.56 299.23 258.274 295.023 264.301 292.577C267.733 296.866 272.066 300.663 277.256 303.907ZM218.571 221.987L218.203 219.715L216.86 221.475C216.768 221.598 213.446 225.886 207.972 230.656C208.947 222.99 210.631 217.647 210.677 217.494L211.376 215.324L209.425 216.102C209.297 216.153 204.494 218.026 197.593 219.111C201.89 213.011 205.745 209.316 205.855 209.224L207.438 207.729L205.395 207.32C205.257 207.289 200.261 206.235 193.802 203.349H193.83C200.27 200.473 205.257 199.419 205.395 199.388L207.438 198.978L205.855 197.484C205.745 197.382 201.89 193.687 197.593 187.597C204.484 188.682 209.287 190.555 209.425 190.606L211.376 191.384L210.677 189.214C210.631 189.071 208.947 183.728 207.972 176.052C213.455 180.832 216.777 185.12 216.86 185.243L218.203 187.004L218.571 184.731C218.599 184.578 219.537 179.041 222.132 171.866V171.825C224.736 179.01 225.674 184.578 225.702 184.731L226.07 187.004L227.413 185.243C227.506 185.12 230.827 180.832 236.302 176.052C235.326 183.718 233.643 189.061 233.597 189.214L232.897 191.384L234.848 190.606C234.977 190.555 239.78 188.682 246.681 187.597C242.384 193.697 238.528 197.392 238.418 197.484L236.835 198.978L238.878 199.388C239.016 199.419 244.003 200.463 250.453 203.349H250.471C244.012 206.235 239.016 207.289 238.878 207.32L236.835 207.729L238.418 209.224C238.528 209.326 242.384 213.021 246.681 219.111C239.789 218.026 234.986 216.153 234.848 216.102L232.897 215.324L233.597 217.494C233.643 217.637 235.326 222.979 236.302 230.656C230.818 225.876 227.496 221.588 227.413 221.465L226.07 219.704L225.702 221.976C225.674 222.13 224.727 227.688 222.132 234.883V234.842C219.537 227.688 218.59 222.14 218.571 221.987ZM179.338 290.008C174.655 288.289 169.438 287.409 163.77 287.409C163.521 287.409 163.273 287.409 163.034 287.409C161.497 287.429 160.006 287.511 158.571 287.644C159.39 286.324 160.2 284.932 160.982 283.458C164.018 277.757 166.061 272.066 167.11 266.458C173.422 265.219 180.276 265.69 187.269 269.211C186.524 277.716 183.469 284.543 179.338 290.008ZM179.964 292.588C185.99 295.023 191.704 299.24 196.176 306.19C191.704 313.139 185.99 317.346 179.964 319.792C176.532 315.514 172.207 311.717 167.008 308.482C165.665 307.643 164.34 306.886 163.034 306.2C164.34 305.514 165.665 304.757 167.008 303.918C172.198 300.663 176.532 296.866 179.964 292.588ZM144.236 250.972C149.149 246.377 155.286 242.979 162.932 242.15C166.107 249.928 166.53 257.543 165.408 264.564C160.365 265.731 155.24 268.003 150.125 271.381C148.8 272.251 147.548 273.151 146.361 274.062C146.472 272.466 146.555 270.808 146.573 269.098C146.647 262.476 145.855 256.417 144.236 250.972ZM113.026 274.072C111.839 273.162 110.588 272.261 109.263 271.391C104.138 268.013 99.0218 265.741 93.9796 264.574C92.8663 257.553 93.2895 249.938 96.4547 242.16C104.101 242.989 110.238 246.397 115.151 250.982C113.541 256.417 112.741 262.486 112.814 269.109C112.842 270.818 112.915 272.476 113.026 274.072ZM91.9002 264.145C85.3766 263.029 79.0095 263.786 72.9828 266.447C75.3751 259.733 76.0559 252.661 75.053 245.404C81.5766 246.52 87.9437 245.763 93.9704 243.101C91.5781 249.805 90.8973 256.888 91.9002 264.145ZM72.9828 140.281C79.0095 142.942 85.3766 143.699 91.9002 142.584C90.8973 149.84 91.5781 156.923 93.9704 163.627C87.9345 160.966 81.5766 160.208 75.053 161.324C76.0559 154.078 75.3751 146.995 72.9828 140.281ZM93.9796 142.164C99.0218 140.997 104.147 138.725 109.263 135.348C110.588 134.478 111.839 133.577 113.026 132.666C112.915 134.263 112.833 135.921 112.814 137.63C112.741 144.252 113.541 150.321 115.151 155.756C110.238 160.352 104.101 163.75 96.4547 164.579C93.2895 156.81 92.8663 149.195 93.9796 142.164ZM115.86 157.977C118.372 165.172 122.439 171.15 127.932 175.725C125.512 177.516 120.589 182.173 119.77 190.811L97.9913 166.575C104.588 165.582 110.597 162.675 115.86 157.977ZM96.6111 168.11L118.39 192.346C110.661 193.257 106.465 198.702 104.837 201.404C100.724 195.294 95.3598 190.77 88.8914 187.976C93.1147 182.121 95.7186 175.438 96.6111 168.11ZM104.837 205.324C106.456 208.016 110.643 213.481 118.39 214.382L96.6111 238.598C95.7186 231.27 93.1055 224.597 88.8914 218.742C95.3506 215.948 100.733 211.434 104.837 205.324ZM97.9729 240.164L119.77 215.928C120.589 224.545 125.502 229.213 127.932 231.014C122.439 235.589 118.381 241.566 115.86 248.761C110.597 244.053 104.579 241.147 97.9729 240.164ZM121.61 213.43V212.345H120.635C111.471 212.345 107.146 205.447 106.079 203.431L106.116 203.369H106.107L106.079 203.318C107.174 201.292 111.581 194.393 120.635 194.393H121.61V193.308C121.61 183.084 127.849 178.273 129.643 177.106L129.698 177.147L129.744 177.117C131.566 178.304 137.786 183.104 137.786 193.308V194.393H138.761C147.935 194.393 152.25 201.312 153.317 203.339L153.299 203.369H153.29L153.327 203.431C152.259 205.457 147.935 212.345 138.77 212.345H137.795V213.43C137.795 223.624 131.584 228.445 129.763 229.632L129.707 229.591L129.652 229.632C127.849 228.435 121.61 223.532 121.61 213.43ZM146.37 132.666C147.557 133.577 148.809 134.478 150.134 135.348C155.259 138.725 160.375 140.997 165.417 142.164C166.53 149.185 166.107 156.81 162.942 164.589C155.296 163.76 149.158 160.352 144.245 155.766C145.855 150.332 146.656 144.262 146.582 137.64C146.555 135.921 146.481 134.263 146.37 132.666ZM165.426 243.101C171.462 245.763 177.82 246.52 184.343 245.404C183.34 252.661 184.021 259.743 186.414 266.447C180.378 263.786 174.02 263.029 167.496 264.145C168.499 256.888 167.809 249.805 165.426 243.101ZM164.57 240.338C165.315 231.843 168.37 225.006 172.502 219.551C177.185 221.27 182.402 222.15 188.07 222.15C188.318 222.15 188.567 222.15 188.806 222.15C190.342 222.13 191.833 222.048 193.268 221.915C192.449 223.235 191.64 224.627 190.858 226.101C187.821 231.802 185.779 237.493 184.73 243.101C178.409 244.33 171.563 243.859 164.57 240.338ZM167.496 142.584C174.02 143.699 180.387 142.942 186.414 140.281C184.021 146.995 183.34 154.067 184.343 161.324C177.82 160.208 171.453 160.966 165.426 163.627C167.809 156.923 168.499 149.84 167.496 142.584ZM184.721 163.647C185.769 169.256 187.812 174.957 190.848 180.648C191.631 182.121 192.44 183.513 193.259 184.834C191.824 184.711 190.333 184.619 188.797 184.598C182.834 184.516 177.378 185.397 172.492 187.188C168.37 181.722 165.315 174.896 164.561 166.39C171.563 162.869 178.409 162.399 184.721 163.647ZM184.831 201.087C186.165 201.916 187.481 202.673 188.778 203.359H188.806C187.499 204.045 186.174 204.802 184.831 205.641C179.642 208.886 175.308 212.683 171.876 216.961C165.849 214.525 160.135 210.309 155.664 203.359H155.673C160.144 196.42 165.858 192.213 171.876 189.777C175.308 194.055 179.632 197.853 184.831 201.087ZM170.505 187.976C164.027 190.78 158.654 195.304 154.541 201.425C152.922 198.723 148.735 193.247 140.979 192.346L162.776 168.11C163.669 175.438 166.282 182.121 170.505 187.976ZM154.55 205.324C158.663 211.434 164.037 215.948 170.514 218.742C166.282 224.597 163.668 231.29 162.785 238.629L141.006 214.392C148.744 213.481 152.94 208.016 154.55 205.324ZM195.909 221.618C201.43 220.902 205.874 219.612 208.238 218.824C207.53 221.454 206.38 226.398 205.727 232.539C200.657 236.612 194.161 240.696 186.855 242.6C188.576 234.484 192.247 227.247 195.909 221.618ZM194.814 219.5C188.594 220.206 181.132 220.124 173.946 217.719C179.08 211.639 185.512 207.422 191.217 204.577C196.323 207.023 200.749 208.384 203.15 209.019C201.356 210.902 198.126 214.546 194.814 219.5ZM191.217 202.162C185.512 199.316 179.08 195.099 173.946 189.02C181.123 186.615 188.585 186.533 194.805 187.239C198.126 192.203 201.347 195.836 203.141 197.72C200.749 198.344 196.323 199.705 191.217 202.162ZM186.864 164.128C194.161 166.032 200.666 170.116 205.736 174.189C206.38 180.33 207.539 185.274 208.248 187.904C205.883 187.116 201.439 185.837 195.918 185.11C192.247 179.481 188.576 172.255 186.864 164.128ZM209.223 149.769C214.688 155.48 218.488 162.634 221.037 168.98C218.838 174.66 217.614 179.583 217.044 182.254C215.351 180.259 212.075 176.666 207.622 172.982C206.987 166.053 207.061 157.752 209.223 149.769ZM205.257 166.288C205.276 167.997 205.349 169.655 205.469 171.252C204.282 170.341 203.031 169.44 201.706 168.57C196.581 165.193 191.465 162.921 186.423 161.754C185.309 154.733 185.733 147.118 188.898 139.339C196.544 140.168 202.681 143.576 207.594 148.162C205.984 153.597 205.193 159.666 205.257 166.288ZM167.11 140.271C166.061 134.662 164.018 128.971 160.982 123.27C160.2 121.796 159.39 120.404 158.571 119.084C160.006 119.207 161.497 119.299 163.034 119.32C163.282 119.32 163.53 119.32 163.77 119.32C169.438 119.32 174.645 118.439 179.338 116.72C183.46 122.185 186.515 129.012 187.269 137.517C180.276 141.048 173.431 141.519 167.11 140.271ZM161.396 166.575L139.608 190.801C138.789 182.193 133.866 177.536 131.446 175.745C136.949 171.17 141.015 165.193 143.527 157.987C148.8 162.675 154.808 165.582 161.396 166.575ZM139.617 215.928L161.396 240.164C154.799 241.157 148.79 244.053 143.527 248.761C141.015 241.566 136.949 235.589 131.456 231.014C133.885 229.213 138.807 224.545 139.617 215.928ZM186.423 244.985C191.465 243.818 196.59 241.546 201.706 238.168C203.031 237.298 204.282 236.398 205.469 235.487C205.359 237.083 205.276 238.741 205.257 240.451C205.184 247.073 205.984 253.142 207.594 258.577C202.681 263.172 196.544 266.57 188.898 267.399C185.733 259.621 185.309 252.006 186.423 244.985ZM207.622 233.757C212.085 230.062 215.351 226.48 217.044 224.484C217.614 227.155 218.838 232.078 221.037 237.759C218.479 244.104 214.688 251.259 209.223 256.97C207.061 248.976 206.987 240.676 207.622 233.757ZM300.028 155.756C295.115 160.352 288.978 163.75 281.332 164.579C278.157 156.8 277.734 149.185 278.857 142.164C283.899 140.997 289.024 138.725 294.14 135.348C295.465 134.478 296.716 133.577 297.903 132.666C297.792 134.263 297.71 135.921 297.691 137.63C297.618 144.252 298.418 150.321 300.028 155.756ZM276.768 264.145C270.244 263.029 263.877 263.786 257.851 266.447C260.243 259.733 260.924 252.661 259.921 245.404C266.444 246.52 272.812 245.763 278.838 243.101C276.455 249.805 275.765 256.888 276.768 264.145ZM259.544 243.091C258.495 237.482 256.452 231.782 253.416 226.091C252.634 224.617 251.824 223.225 251.005 221.905C252.44 222.028 253.931 222.12 255.468 222.14C261.421 222.222 266.877 221.332 271.763 219.541C275.894 225.006 278.949 231.843 279.694 240.338C272.701 243.859 265.856 244.33 259.544 243.091ZM278.847 163.637C272.812 160.976 266.454 160.219 259.93 161.334C260.933 154.078 260.252 146.995 257.86 140.291C263.887 142.952 270.254 143.71 276.777 142.594C275.765 149.84 276.455 156.923 278.847 163.637ZM279.694 166.401C278.949 174.896 275.894 181.732 271.763 187.198C266.877 185.407 261.421 184.516 255.458 184.609C253.922 184.629 252.431 184.711 250.996 184.844C251.815 183.524 252.624 182.132 253.407 180.658C256.443 174.957 258.486 169.266 259.534 163.658C265.856 162.399 272.701 162.869 279.694 166.401ZM272.388 189.777C278.415 192.213 284.129 196.42 288.591 203.359H288.601C284.129 210.309 278.415 214.515 272.388 216.961C268.956 212.683 264.632 208.886 259.433 205.652C258.09 204.812 256.765 204.055 255.458 203.369H255.486C256.783 202.684 258.099 201.926 259.433 201.097C264.632 197.853 268.956 194.055 272.388 189.777ZM248.355 185.12C242.835 185.837 238.39 187.126 236.026 187.914C236.734 185.284 237.894 180.341 238.538 174.2C243.607 170.126 250.103 166.042 257.409 164.139C255.688 172.255 252.026 179.481 248.355 185.12ZM249.45 187.229C255.67 186.522 263.132 186.604 270.309 189.01C265.175 195.089 258.743 199.306 253.038 202.151C247.932 199.705 243.506 198.344 241.105 197.709C242.908 195.836 246.138 192.193 249.45 187.229ZM253.048 204.577C258.752 207.422 265.184 211.639 270.318 217.719C263.141 220.124 255.679 220.206 249.459 219.5C246.138 214.536 242.917 210.902 241.123 209.019C243.515 208.384 247.95 207.023 253.048 204.577ZM257.409 242.6C250.113 240.696 243.607 236.612 238.538 232.539C237.894 226.398 236.734 221.454 236.026 218.824C238.39 219.612 242.835 220.902 248.355 221.618C252.026 227.247 255.688 234.484 257.409 242.6ZM273.759 218.742C280.228 215.948 285.601 211.424 289.714 205.314C291.333 208.006 295.52 213.471 303.267 214.372L281.488 238.588C280.586 231.27 277.983 224.597 273.759 218.742ZM289.714 201.404C285.601 195.294 280.237 190.77 273.768 187.976C277.992 182.121 280.596 175.438 281.488 168.11L303.267 192.346C295.529 193.257 291.333 198.702 289.714 201.404ZM282.868 166.575C289.465 165.582 295.474 162.685 300.737 157.977C303.249 165.172 307.316 171.15 312.809 175.725C310.389 177.516 305.466 182.173 304.647 190.811L282.868 166.575ZM277.154 140.281C270.843 141.519 263.988 141.048 257.004 137.528C257.749 129.033 260.804 122.196 264.935 116.74C269.619 118.46 274.836 119.34 280.504 119.34C280.752 119.34 280.991 119.34 281.24 119.34C282.776 119.32 284.267 119.238 285.702 119.105C284.883 120.425 284.074 121.817 283.292 123.291C280.246 128.971 278.203 134.672 277.154 140.281ZM257.841 161.754C252.799 162.921 247.674 165.193 242.558 168.57C241.234 169.44 239.982 170.341 238.795 171.252C238.906 169.655 238.988 167.997 239.007 166.288C239.08 159.666 238.28 153.597 236.67 148.162C241.583 143.566 247.72 140.168 255.366 139.339C258.541 147.118 258.964 154.733 257.841 161.754ZM236.642 172.971C232.18 176.666 228.913 180.248 227.22 182.244C226.65 179.573 225.426 174.65 223.227 168.969C225.785 162.624 229.576 155.47 235.041 149.758C237.203 157.752 237.277 166.053 236.642 172.971ZM227.211 224.484C228.904 226.48 232.18 230.062 236.633 233.757C237.268 240.676 237.194 248.976 235.032 256.96C229.567 251.248 225.776 244.094 223.218 237.749C225.426 232.078 226.65 227.155 227.211 224.484ZM239.007 240.44C238.988 238.731 238.915 237.073 238.795 235.476C239.982 236.387 241.234 237.288 242.558 238.158C247.683 241.535 252.799 243.808 257.841 244.974C258.955 251.996 258.532 259.621 255.366 267.399C247.72 266.57 241.583 263.162 236.67 258.577C238.28 253.132 239.071 247.073 239.007 240.44ZM282.841 240.164L304.638 215.928C305.457 224.545 310.37 229.213 312.799 231.014C307.306 235.589 303.249 241.566 300.728 248.761C295.465 244.053 289.447 241.147 282.841 240.164ZM306.478 213.43V212.345H305.503C296.339 212.345 292.014 205.447 290.947 203.431L290.984 203.369H290.974L290.947 203.318C292.042 201.292 296.449 194.393 305.503 194.393H306.478V193.308C306.478 183.084 312.717 178.273 314.511 177.106L314.566 177.147L314.612 177.117C316.434 178.304 322.654 183.104 322.654 193.308V194.393H323.629C332.803 194.393 337.118 201.312 338.185 203.339L338.167 203.369H338.158L338.194 203.431C337.127 205.457 332.803 212.345 323.638 212.345H322.663V213.43C322.663 223.624 316.452 228.445 314.63 229.632L314.575 229.591L314.52 229.632C312.717 228.435 306.478 223.532 306.478 213.43ZM316.323 175.735C321.826 171.16 325.893 165.183 328.404 157.977C333.667 162.675 339.676 165.582 346.273 166.575L324.485 190.801C323.666 182.183 318.743 177.536 316.323 175.735ZM324.494 215.928L346.273 240.164C339.676 241.157 333.667 244.053 328.404 248.761C325.893 241.566 321.826 235.589 316.333 231.014C318.752 229.213 323.675 224.545 324.494 215.928ZM325.874 214.382C333.621 213.471 337.808 208.016 339.427 205.324C343.54 211.434 348.914 215.948 355.391 218.742C351.159 224.597 348.546 231.29 347.662 238.629L325.874 214.382ZM339.418 201.425C337.799 198.723 333.612 193.247 325.856 192.346L347.653 168.11C348.546 175.438 351.149 182.121 355.373 187.976C348.895 190.78 343.522 195.304 339.418 201.425ZM327.484 154.149C322.019 148.438 318.219 141.284 315.67 134.938C317.869 129.258 319.093 124.335 319.663 121.663C321.356 123.659 324.632 127.241 329.085 130.936C329.72 137.865 329.647 146.166 327.484 154.149ZM316.618 142.051C319.535 147.824 322.948 152.645 326.794 156.462C324.604 163.166 320.814 169.522 314.566 174.496C308.318 169.522 304.537 163.166 302.338 156.462C306.184 152.645 309.597 147.834 312.505 142.051C313.259 140.557 313.94 139.083 314.557 137.63C315.192 139.083 315.873 140.557 316.618 142.051ZM301.657 154.149C299.495 146.166 299.421 137.865 300.056 130.947C304.518 127.252 307.785 123.669 309.478 121.674C310.048 124.345 311.272 129.268 313.471 134.948C310.913 141.294 307.122 148.438 301.657 154.149ZM298.161 129.729C293.091 133.802 286.595 137.886 279.289 139.79C281.001 131.673 284.672 124.437 288.334 118.798C293.854 118.081 298.299 116.792 300.663 116.003C299.955 118.634 298.805 123.588 298.161 129.729ZM287.239 116.689C281.019 117.395 273.557 117.314 266.38 114.908C271.514 108.829 277.946 104.612 283.65 101.767C288.757 104.213 293.183 105.574 295.584 106.209C293.781 108.092 290.56 111.725 287.239 116.689ZM266.38 86.1787C273.557 83.7735 281.019 83.6916 287.239 84.3978C290.56 89.3618 293.781 92.9952 295.575 94.8785C293.174 95.513 288.748 96.8743 283.641 99.3204C277.937 96.4854 271.514 92.2583 266.38 86.1787ZM277.256 98.2662C278.599 99.1055 279.924 99.8629 281.231 100.549C279.924 101.234 278.599 101.992 277.256 102.831C272.066 106.076 267.733 109.873 264.301 114.141C258.274 111.705 252.551 107.488 248.088 100.538C252.56 93.5889 258.274 89.3823 264.301 86.9361C267.733 91.2246 272.066 95.0218 277.256 98.2662ZM246.984 98.5835C245.365 95.8815 241.178 90.4058 233.431 89.5051L255.219 65.2891C256.112 72.6276 258.725 79.3111 262.948 85.1757C256.47 87.9596 251.097 92.4732 246.984 98.5835ZM262.948 115.922C258.716 121.776 256.102 128.47 255.219 135.808L233.44 111.572C241.187 110.661 245.374 105.206 246.993 102.514C251.097 108.624 256.47 113.127 262.948 115.922ZM253.83 137.354C247.233 138.346 241.224 141.243 235.961 145.951C233.449 138.756 229.383 132.779 223.889 128.204C226.309 126.402 231.232 121.735 232.051 113.117L253.83 137.354ZM234.351 147.466C230.505 151.283 227.091 156.094 224.184 161.877C223.429 163.371 222.749 164.845 222.132 166.298V166.267C221.516 164.824 220.844 163.361 220.089 161.877C217.173 156.104 213.759 151.283 209.913 147.466C212.103 140.762 215.894 134.406 222.123 129.442V129.432C228.37 134.396 232.161 140.762 234.351 147.466ZM208.303 145.941C203.031 141.233 197.013 138.326 190.416 137.343L212.204 113.117C213.023 121.735 217.936 126.402 220.365 128.204C214.872 132.779 210.815 138.756 208.303 145.941ZM189.054 135.788C188.162 128.459 185.549 121.776 181.325 115.932C187.794 113.138 193.167 108.634 197.28 102.534C198.899 105.226 203.086 110.681 210.824 111.592L189.054 135.788ZM181.325 85.1655C185.558 79.3111 188.171 72.6174 189.054 65.2789L210.833 89.5153C203.104 90.4262 198.909 95.8713 197.28 98.5733C193.167 92.4732 187.794 87.9596 181.325 85.1655ZM196.176 100.549C191.704 107.498 185.99 111.705 179.964 114.151C176.532 109.873 172.207 106.076 167.008 102.841C165.665 102.002 164.34 101.245 163.034 100.559C164.34 99.8731 165.665 99.1157 167.008 98.2765C172.198 95.032 176.532 91.2348 179.964 86.9566C185.99 89.3823 191.704 93.5991 196.176 100.549ZM160.623 99.3307C155.516 96.8845 151.091 95.5233 148.689 94.8887C150.483 93.0055 153.704 89.3618 157.025 84.4081C163.245 83.7019 170.707 83.7837 177.893 86.189C172.75 92.2583 166.328 96.4854 160.623 99.3307ZM177.884 114.908C170.707 117.314 163.236 117.395 157.016 116.689C153.695 111.725 150.474 108.092 148.68 106.209C151.081 105.574 155.507 104.213 160.614 101.767C166.328 104.612 172.75 108.829 177.884 114.908ZM164.975 139.79C157.679 137.886 151.173 133.802 146.104 129.729C145.46 123.588 144.3 118.644 143.592 116.014C145.956 116.802 150.401 118.091 155.921 118.808C159.592 124.437 163.264 131.663 164.975 139.79ZM142.607 154.149C137.142 148.438 133.351 141.284 130.793 134.938C132.992 129.258 134.216 124.335 134.786 121.663C136.479 123.659 139.755 127.241 144.208 130.936C144.852 137.865 144.779 146.166 142.607 154.149ZM131.75 142.051C134.667 147.824 138.08 152.645 141.926 156.462C139.737 163.166 135.946 169.522 129.698 174.496C123.451 169.522 119.669 163.166 117.47 156.462C121.316 152.645 124.73 147.834 127.637 142.051C128.392 140.557 129.072 139.083 129.689 137.63C130.315 139.083 130.996 140.557 131.75 142.051ZM116.789 154.149C114.627 146.166 114.553 137.865 115.188 130.947C119.651 127.252 122.917 123.669 124.61 121.674C125.18 124.345 126.404 129.268 128.603 134.948C126.045 141.294 122.245 148.438 116.789 154.149ZM113.283 129.729C108.214 133.802 101.718 137.886 94.4121 139.79C96.1235 131.673 99.7947 124.437 103.457 118.798C108.977 118.081 113.421 116.792 115.786 116.003C115.087 118.634 113.928 123.588 113.283 129.729ZM102.371 116.689C96.1511 117.395 88.689 117.314 81.5122 114.908C86.6464 108.829 93.0779 104.612 98.7826 101.767C103.889 104.213 108.315 105.574 110.716 106.209C108.913 108.092 105.683 111.725 102.371 116.689ZM81.503 86.1787C88.6798 83.7735 96.1419 83.6916 102.362 84.3978C105.683 89.3618 108.904 92.9952 110.698 94.8785C108.296 95.513 103.871 96.8743 98.7642 99.3204C93.0687 96.4854 86.6372 92.2583 81.503 86.1787ZM92.3878 98.2662C93.7312 99.1055 95.0562 99.8629 96.3627 100.549C95.0562 101.234 93.7312 101.992 92.3878 102.831C87.1984 106.076 82.8647 109.873 79.4327 114.141C73.406 111.705 67.683 107.488 63.2205 100.538C67.6922 93.5889 73.406 89.3823 79.4327 86.9361C82.8647 91.2246 87.1892 95.0218 92.3878 98.2662ZM80.0584 116.73C84.7418 118.45 89.9588 119.33 95.6266 119.33C95.875 119.33 96.1143 119.33 96.3627 119.33C97.8993 119.309 99.3899 119.227 100.825 119.094C100.006 120.415 99.1966 121.807 98.4145 123.281C95.3782 128.981 93.3356 134.672 92.2866 140.281C85.9747 141.519 79.1199 141.048 72.1363 137.528C72.8724 129.022 75.9271 122.196 80.0584 116.73ZM74.6758 163.647C80.9877 162.409 87.8333 162.88 94.8261 166.401C94.0808 174.896 91.0261 181.732 86.8948 187.198C82.009 185.407 76.5528 184.516 70.5905 184.609C69.0539 184.629 67.5634 184.711 66.128 184.844C66.9469 183.524 67.7566 182.132 68.5387 180.658C71.5842 174.947 73.6269 169.256 74.6758 163.647ZM87.5205 189.777C93.5472 192.213 99.261 196.42 103.724 203.359H103.733C99.261 210.309 93.5472 214.515 87.5205 216.961C84.0885 212.683 79.764 208.886 74.5654 205.652C73.222 204.812 71.8971 204.055 70.5905 203.369H70.6181C71.9155 202.684 73.2312 201.926 74.5654 201.097C79.7548 197.853 84.0885 194.055 87.5205 189.777ZM86.8948 219.53C91.0261 224.996 94.0808 231.833 94.8261 240.328C87.8333 243.859 80.9877 244.33 74.6758 243.081C73.6269 237.472 71.5842 231.771 68.5479 226.081C67.7658 224.607 66.9561 223.215 66.1372 221.895C67.5726 222.017 69.0631 222.109 70.5997 222.13C76.5436 222.212 81.9998 221.332 86.8948 219.53ZM92.2774 266.458C93.3264 272.066 95.369 277.767 98.4053 283.458C99.1874 284.932 99.9971 286.324 100.816 287.644C99.3807 287.521 97.8901 287.429 96.3535 287.409C96.1051 287.409 95.8566 287.409 95.6174 287.409C89.9496 287.409 84.7418 288.289 80.0492 290.008C75.9271 284.543 72.8724 277.716 72.1179 269.221C79.1199 265.69 85.9655 265.219 92.2774 266.458ZM92.3878 303.907C93.7312 304.747 95.0562 305.504 96.3627 306.19C95.0562 306.876 93.7312 307.633 92.3878 308.472C87.1984 311.717 82.8647 315.514 79.4327 319.782C73.406 317.346 67.683 313.129 63.2205 306.18C67.6922 299.23 73.406 295.023 79.4327 292.577C82.8647 296.866 87.1984 300.663 92.3878 303.907ZM80.0584 322.371C84.7418 324.091 89.9588 324.971 95.6266 324.971C95.875 324.971 96.1143 324.971 96.3627 324.971C97.8993 324.951 99.3899 324.869 100.825 324.736C100.006 326.056 99.1966 327.448 98.4145 328.922C95.3782 334.623 93.3356 340.313 92.2866 345.922C85.9747 347.16 79.1291 346.69 72.1363 343.169C72.8724 334.664 75.9271 327.837 80.0584 322.371ZM103.466 324.439C108.987 323.722 113.431 322.433 115.795 321.645C115.087 324.275 113.937 329.219 113.283 335.36C108.214 339.433 101.718 343.517 94.4121 345.421C96.1327 337.314 99.8039 330.078 103.466 324.439ZM102.371 322.33C96.1511 323.037 88.689 322.955 81.5122 320.55C86.6464 314.47 93.0779 310.253 98.7826 307.408C103.889 309.854 108.315 311.215 110.716 311.85C108.913 313.733 105.693 317.377 102.371 322.33ZM81.503 291.83C88.6798 289.425 96.1419 289.343 102.362 290.049C105.683 295.013 108.904 298.647 110.698 300.53C108.296 301.164 103.871 302.526 98.7642 304.972C93.0687 302.127 86.6372 297.91 81.503 291.83ZM94.4213 266.949C101.718 268.853 108.223 272.936 113.293 277.01C113.937 283.151 115.096 288.094 115.805 290.725C113.44 289.937 108.996 288.647 103.475 287.931C99.8039 282.301 96.1327 275.065 94.4213 266.949ZM116.789 252.579C122.255 258.29 126.045 265.444 128.603 271.79C126.404 277.47 125.18 282.394 124.61 285.065C122.917 283.069 119.641 279.487 115.188 275.792C114.544 268.873 114.618 260.573 116.789 252.579ZM127.646 264.687C124.73 258.914 121.316 254.094 117.479 250.276C119.669 243.572 123.46 237.216 129.707 232.242C135.955 237.216 139.737 243.572 141.936 250.276C138.09 254.094 134.676 258.904 131.759 264.687C131.005 266.181 130.324 267.655 129.707 269.109C129.082 267.655 128.401 266.181 127.646 264.687ZM142.607 252.579C144.77 260.562 144.843 268.863 144.208 275.782C139.746 279.477 136.479 283.059 134.786 285.055C134.216 282.383 132.992 277.46 130.793 271.78C133.351 265.444 137.142 258.29 142.607 252.579ZM146.104 277.01C151.173 272.936 157.669 268.853 164.975 266.949C163.264 275.065 159.592 282.301 155.93 287.941C150.41 288.657 145.966 289.947 143.601 290.735C144.309 288.094 145.46 283.151 146.104 277.01ZM157.025 290.049C163.245 289.343 170.707 289.425 177.893 291.83C172.759 297.91 166.328 302.137 160.623 304.972C155.516 302.526 151.091 301.164 148.689 300.53C150.483 298.647 153.704 295.003 157.025 290.049ZM177.884 320.55C170.707 322.955 163.236 323.037 157.016 322.33C153.695 317.366 150.474 313.733 148.68 311.85C151.081 311.215 155.507 309.854 160.614 307.408C166.328 310.253 172.75 314.47 177.884 320.55ZM164.975 345.431C157.679 343.527 151.173 339.443 146.104 335.37C145.46 329.229 144.3 324.285 143.592 321.655C145.956 322.443 150.401 323.733 155.921 324.449C159.592 330.078 163.264 337.314 164.975 345.431ZM160.982 328.922C160.2 327.448 159.39 326.056 158.571 324.736C160.006 324.858 161.497 324.951 163.034 324.971C163.282 324.971 163.53 324.971 163.77 324.971C169.438 324.971 174.645 324.091 179.338 322.371C183.46 327.837 186.515 334.664 187.269 343.169C180.276 346.7 173.431 347.171 167.11 345.922C166.07 340.313 164.018 334.612 160.982 328.922ZM181.325 321.573C187.794 318.779 193.167 314.275 197.28 308.175C198.899 310.867 203.086 316.322 210.824 317.233L189.054 341.439C188.162 334.101 185.549 327.417 181.325 321.573ZM181.325 290.807C185.558 284.952 188.171 278.259 189.054 270.92L210.833 295.157C203.104 296.067 198.909 301.512 197.28 304.214C193.167 298.114 187.794 293.601 181.325 290.807ZM190.434 269.385C197.032 268.392 203.04 265.496 208.303 260.787C210.815 267.983 214.882 273.96 220.375 278.535C217.955 280.326 213.032 284.983 212.213 293.621L190.434 269.385ZM235.961 260.787C241.224 265.485 247.233 268.392 253.83 269.385L232.051 293.591C231.232 284.983 226.319 280.326 223.889 278.535C229.383 273.97 233.449 267.993 235.961 260.787ZM255.21 270.92C256.102 278.259 258.716 284.942 262.939 290.807C256.47 293.601 251.088 298.114 246.975 304.225C245.356 301.523 241.169 296.047 233.422 295.146L255.21 270.92ZM262.948 321.573C258.716 327.427 256.102 334.121 255.219 341.46L233.44 317.223C241.187 316.312 245.374 310.857 246.993 308.165C251.097 314.265 256.47 318.769 262.948 321.573ZM264.926 322.371C269.61 324.091 274.827 324.971 280.494 324.971C280.743 324.971 280.982 324.971 281.231 324.971C282.767 324.951 284.258 324.869 285.693 324.736C284.874 326.056 284.064 327.448 283.282 328.922C280.246 334.623 278.203 340.313 277.154 345.922C270.843 347.16 263.988 346.69 257.004 343.169C257.749 334.664 260.804 327.837 264.926 322.371ZM288.334 324.439C293.854 323.722 298.299 322.433 300.663 321.645C299.955 324.275 298.805 329.219 298.151 335.36C293.082 339.433 286.586 343.517 279.28 345.421C281.001 337.314 284.672 330.078 288.334 324.439ZM287.239 322.33C281.019 323.037 273.557 322.955 266.38 320.55C271.514 314.47 277.946 310.253 283.65 307.408C288.757 309.854 293.183 311.215 295.584 311.85C293.781 313.733 290.56 317.377 287.239 322.33ZM266.38 291.83C273.557 289.425 281.019 289.343 287.239 290.049C290.56 295.013 293.781 298.647 295.575 300.53C293.174 301.164 288.748 302.526 283.641 304.972C277.937 302.127 271.514 297.91 266.38 291.83ZM279.289 266.949C286.586 268.853 293.091 272.936 298.161 277.01C298.805 283.151 299.964 288.094 300.672 290.725C298.308 289.937 293.864 288.647 288.343 287.931C284.672 282.301 281.001 275.065 279.289 266.949ZM301.657 252.579C307.122 258.29 310.913 265.444 313.471 271.79C311.272 277.47 310.048 282.394 309.478 285.065C307.785 283.069 304.509 279.487 300.056 275.792C299.412 268.873 299.485 260.573 301.657 252.579ZM312.514 264.687C309.597 258.914 306.184 254.094 302.347 250.276C304.537 243.572 308.328 237.216 314.575 232.242C320.823 237.216 324.604 243.572 326.803 250.276C322.957 254.094 319.544 258.904 316.627 264.687C315.873 266.181 315.192 267.655 314.575 269.109C313.95 267.655 313.269 266.181 312.514 264.687ZM327.484 252.579C329.647 260.562 329.72 268.863 329.085 275.782C324.623 279.477 321.356 283.059 319.663 285.055C319.093 282.383 317.869 277.46 315.67 271.78C318.219 265.444 322.019 258.29 327.484 252.579ZM335.002 271.391C333.677 272.261 332.425 273.162 331.238 274.072C331.349 272.476 331.432 270.818 331.45 269.109C331.524 262.486 330.723 256.417 329.113 250.982C334.026 246.387 340.163 242.989 347.809 242.16C350.984 249.938 351.407 257.553 350.285 264.574C345.242 265.731 340.127 268.003 335.002 271.391ZM349.438 240.338C350.183 231.843 353.238 225.006 357.369 219.551C362.053 221.27 367.27 222.15 372.938 222.15C373.186 222.15 373.434 222.15 373.674 222.15C375.21 222.13 376.701 222.048 378.136 221.915C377.317 223.235 376.508 224.627 375.726 226.101C372.689 231.802 370.647 237.493 369.598 243.101C363.276 244.33 356.431 243.859 349.438 240.338ZM356.744 216.961C350.717 214.525 345.003 210.309 340.531 203.359H340.541C345.012 196.42 350.726 192.213 356.744 189.777C360.176 194.045 364.5 197.853 369.699 201.087C371.033 201.916 372.349 202.673 373.646 203.359H373.674C372.367 204.045 371.042 204.802 369.699 205.641C364.509 208.886 360.176 212.683 356.744 216.961ZM357.369 187.198C353.247 181.732 350.193 174.906 349.438 166.401C356.431 162.869 363.276 162.399 369.598 163.647C370.647 169.256 372.689 174.957 375.726 180.648C376.508 182.121 377.317 183.513 378.136 184.834C376.701 184.711 375.21 184.619 373.674 184.598C367.711 184.516 362.255 185.397 357.369 187.198ZM351.987 140.271C350.938 134.662 348.895 128.971 345.859 123.27C345.077 121.796 344.267 120.404 343.448 119.084C344.884 119.207 346.374 119.299 347.911 119.32C348.159 119.32 348.408 119.32 348.647 119.32C354.315 119.32 359.522 118.439 364.215 116.72C368.337 122.185 371.392 129.012 372.146 137.517C365.144 141.048 358.299 141.519 351.987 140.271ZM351.876 102.831C350.533 101.992 349.208 101.234 347.901 100.549C349.208 99.8629 350.533 99.1055 351.876 98.2662C357.066 95.0218 361.399 91.2246 364.831 86.9463C370.858 89.3823 376.581 93.5991 381.044 100.549C376.572 107.498 370.858 111.705 364.831 114.151C361.399 109.873 357.075 106.076 351.876 102.831ZM340.798 82.2894C335.278 83.0059 330.833 84.2955 328.469 85.0836C329.177 82.4532 330.327 77.5097 330.981 71.3687C336.051 67.2952 342.546 63.2114 349.852 61.3077C348.132 69.4241 344.46 76.6602 340.798 82.2894ZM329.085 70.1508C324.623 73.8456 321.356 77.4278 319.663 79.4236C319.093 76.7523 317.869 71.8293 315.67 66.1489C318.228 59.8032 322.019 52.6489 327.484 46.9378C329.647 54.9211 329.72 63.2319 329.085 70.1508ZM318.136 81.921L318.504 84.1931L319.847 82.4327C319.939 82.3099 323.261 78.0214 328.736 73.2417C327.76 80.9077 326.077 86.2504 326.031 86.4039L325.331 88.5737L327.282 87.7959C327.411 87.7447 332.214 85.8717 339.114 84.7868C334.818 90.8868 330.962 94.5816 330.852 94.6738L329.269 96.1681L331.312 96.5775C331.45 96.6082 336.446 97.6624 342.915 100.549C336.455 103.435 331.45 104.489 331.312 104.52L329.269 104.929L330.852 106.424C330.962 106.526 334.818 110.221 339.114 116.311C332.223 115.215 327.42 113.353 327.282 113.301L325.331 112.524L326.031 114.693C326.077 114.837 327.76 120.179 328.736 127.856C323.252 123.076 319.93 118.787 319.847 118.665L318.504 116.904L318.136 119.176C318.108 119.33 317.161 124.887 314.566 132.083C311.962 124.898 311.024 119.33 310.996 119.176L310.628 116.904L309.285 118.665C309.193 118.787 305.871 123.076 300.396 127.856C301.372 120.19 303.055 114.847 303.101 114.693L303.801 112.524L301.85 113.301C301.721 113.353 296.918 115.226 290.018 116.311C294.314 110.21 298.17 106.516 298.28 106.424L299.863 104.929L297.82 104.52C297.682 104.489 292.686 103.435 286.227 100.549C292.686 97.6521 297.691 96.6082 297.82 96.5775L299.863 96.1681L298.28 94.6738C298.17 94.5714 294.314 90.8766 290.018 84.7868C296.909 85.8717 301.712 87.7447 301.85 87.7959L303.801 88.5737L303.101 86.4039C303.055 86.2606 301.372 80.9179 300.396 73.2417C305.88 78.0214 309.202 82.3099 309.285 82.4327L310.628 84.1931L310.996 81.921C311.024 81.7675 311.971 76.2099 314.566 69.0147C317.17 76.1996 318.118 81.7675 318.136 81.921ZM309.478 79.4236C307.785 77.4278 304.509 73.8456 300.056 70.1508C299.421 63.2319 299.495 54.9313 301.657 46.9481C307.122 52.6592 310.913 59.8134 313.471 66.1591C311.272 71.8293 310.048 76.7523 309.478 79.4236ZM300.663 85.0836C298.299 84.2955 293.854 83.0059 288.334 82.2894C284.672 76.65 281.001 69.4241 279.289 61.2975C286.586 63.2012 293.091 67.285 298.161 71.3585C298.805 77.5097 299.955 82.4532 300.663 85.0836ZM283.282 77.8167C284.064 79.2906 284.874 80.6825 285.693 82.0029C284.258 81.88 282.767 81.7879 281.231 81.7675C280.982 81.7675 280.734 81.7675 280.494 81.7675C274.827 81.7675 269.619 82.6477 264.926 84.3671C260.804 78.9017 257.749 72.0749 256.995 63.5799C263.988 60.0488 270.833 59.578 277.145 60.8267C278.203 66.4252 280.246 72.1159 283.282 77.8167ZM253.83 63.7437L232.051 87.9494C231.232 79.3418 226.319 74.6848 223.889 72.8937C229.383 68.3187 233.44 62.3415 235.961 55.1463C241.224 59.8544 247.233 62.7509 253.83 63.7437ZM212.213 87.9801L190.434 63.7437C197.032 62.7509 203.04 59.8544 208.303 55.1463C210.815 62.3415 214.882 68.3187 220.375 72.8937C217.964 74.6848 213.032 79.352 212.213 87.9801ZM187.269 63.5697C186.524 72.0647 183.469 78.9017 179.338 84.3569C174.655 82.6374 169.438 81.7572 163.77 81.7572C163.521 81.7572 163.273 81.7572 163.034 81.7572C161.497 81.7777 160.006 81.8596 158.571 81.9926C159.39 80.6723 160.2 79.2803 160.982 77.8065C164.018 72.1056 166.061 66.415 167.11 60.8062C173.431 59.5678 180.276 60.0488 187.269 63.5697ZM155.93 82.2894C150.41 83.0059 145.966 84.2955 143.601 85.0836C144.309 82.4532 145.46 77.5097 146.113 71.3687C151.183 67.2952 157.679 63.2114 164.984 61.3077C163.264 69.4241 159.592 76.6602 155.93 82.2894ZM144.208 70.1508C139.746 73.8456 136.479 77.4278 134.786 79.4236C134.216 76.7523 132.992 71.8293 130.793 66.1489C133.351 59.8032 137.142 52.6489 142.607 46.9378C144.779 54.9211 144.852 63.2319 144.208 70.1508ZM133.268 81.921L133.636 84.1931L134.98 82.4327C135.072 82.3099 138.393 78.0214 143.868 73.2417C142.892 80.9077 141.209 86.2504 141.163 86.4039L140.463 88.5737L142.414 87.7959C142.543 87.7447 147.346 85.8717 154.247 84.7868C149.95 90.8868 146.094 94.5816 145.984 94.6738L144.401 96.1681L146.444 96.5775C146.582 96.6082 151.578 97.6624 158.047 100.549C151.588 103.435 146.582 104.489 146.444 104.52L144.401 104.929L145.984 106.424C146.094 106.526 149.95 110.221 154.247 116.311C147.355 115.215 142.552 113.353 142.414 113.301L140.463 112.524L141.163 114.693C141.209 114.837 142.892 120.179 143.868 127.856C138.384 123.076 135.062 118.787 134.98 118.665L133.636 116.904L133.268 119.176C133.241 119.33 132.293 124.887 129.698 132.083C127.094 124.898 126.156 119.33 126.128 119.176L125.76 116.904L124.417 118.665C124.325 118.787 121.003 123.076 115.529 127.856C116.504 120.19 118.188 114.847 118.234 114.693L118.933 112.524L116.982 113.301C116.853 113.353 112.051 115.226 105.15 116.311C109.447 110.21 113.302 106.516 113.412 106.424L114.995 104.929L112.952 104.52C112.814 104.489 107.818 103.435 101.35 100.549C107.809 97.6521 112.814 96.6082 112.952 96.5775L114.995 96.1681L113.412 94.6738C113.302 94.5714 109.447 90.8766 105.15 84.7868C112.051 85.8717 116.844 87.7447 116.982 87.7959L118.933 88.5737L118.234 86.4039C118.188 86.2606 116.504 80.9179 115.529 73.2417C121.012 78.0214 124.334 82.3099 124.417 82.4327L125.76 84.1931L126.128 81.921C126.156 81.7675 127.103 76.2099 129.698 69.0147C132.293 76.1996 133.241 81.7675 133.268 81.921ZM124.61 79.4236C122.917 77.4278 119.641 73.8456 115.188 70.1508C114.553 63.2319 114.627 54.9313 116.789 46.9481C122.255 52.6592 126.055 59.8134 128.603 66.1591C126.404 71.8293 125.18 76.7523 124.61 79.4236ZM115.795 85.0836C113.431 84.2955 108.987 83.0059 103.466 82.2894C99.8039 76.65 96.1327 69.4241 94.4213 61.2975C101.727 63.2012 108.223 67.285 113.293 71.3585C113.928 77.5097 115.087 82.4532 115.795 85.0836ZM98.4145 77.8167C99.1966 79.2906 100.006 80.6825 100.825 82.0029C99.3899 81.88 97.8993 81.7879 96.3627 81.7675C96.1143 81.7675 95.8658 81.7675 95.6266 81.7675C89.9588 81.7675 84.751 82.6477 80.0584 84.3671C75.9363 78.9017 72.8816 72.0749 72.1271 63.5799C79.1199 60.0488 85.9655 59.578 92.2774 60.8267C93.3264 66.4252 95.369 72.1159 98.4145 77.8167ZM68.9619 63.7437L47.183 87.9494C46.3641 79.3418 41.4507 74.6848 39.0216 72.8937C44.5147 68.3187 48.5724 62.3415 51.0934 55.1463C56.3565 59.8544 62.3648 62.7509 68.9619 63.7437ZM70.3421 65.2789C71.2346 72.6174 73.8477 79.3008 78.071 85.1655C71.6026 87.9596 66.22 92.4732 62.1071 98.5835C60.4877 95.8815 56.3013 90.4058 48.554 89.5051L70.3421 65.2789ZM78.071 115.922C73.8385 121.776 71.2254 128.47 70.3421 135.808L48.5632 111.572C56.3105 110.661 60.4969 105.206 62.1163 102.514C66.22 108.624 71.6026 113.127 78.071 115.922ZM68.9619 137.354C62.3648 138.346 56.3565 141.243 51.0934 145.951C48.5816 138.756 44.5147 132.779 39.0216 128.204C41.4415 126.402 46.3641 121.735 47.183 113.117L68.9619 137.354ZM50.1641 149.769C52.3264 157.752 52.4 166.053 51.7651 172.971C47.3026 176.666 44.0362 180.248 42.3432 182.244C41.7728 179.573 40.549 174.65 38.35 168.969C40.9079 162.634 44.6987 155.48 50.1641 149.769ZM53.6697 174.189C58.7395 170.116 65.2355 166.032 72.5411 164.128C70.8297 172.245 67.1585 179.481 63.4965 185.12C57.9759 185.837 53.5317 187.126 51.1671 187.914C51.8663 185.284 53.0165 180.33 53.6697 174.189ZM64.5822 187.229C70.8021 186.522 78.2642 186.604 85.441 189.01C80.3068 195.089 73.8753 199.306 68.1706 202.151C63.064 199.705 58.6383 198.344 56.2368 197.709C58.0403 195.836 61.2606 192.193 64.5822 187.229ZM68.1798 204.577C73.8845 207.422 80.316 211.639 85.4502 217.719C78.2734 220.124 70.8113 220.206 64.5914 219.5C61.2698 214.536 58.0495 210.902 56.2552 209.019C58.6475 208.384 63.0732 207.023 68.1798 204.577ZM72.5319 242.6C65.2355 240.696 58.7303 236.612 53.6605 232.539C53.0165 226.398 51.8571 221.454 51.1487 218.824C53.5133 219.612 57.9574 220.902 63.4781 221.618C67.1493 227.247 70.8205 234.484 72.5319 242.6ZM50.1733 256.97C44.7079 251.259 40.9079 244.104 38.3592 237.759C40.5582 232.078 41.782 227.155 42.3524 224.484C44.0454 226.48 47.321 230.062 51.7743 233.757C52.4092 240.676 52.3356 248.976 50.1733 256.97ZM51.0934 260.787C56.3565 265.485 62.3648 268.392 68.9619 269.385L47.183 293.591C46.3641 284.983 41.4507 280.326 39.0216 278.535C44.5147 273.97 48.5724 267.993 51.0934 260.787ZM70.3421 270.92C71.2346 278.259 73.8477 284.942 78.071 290.807C71.6026 293.601 66.22 298.114 62.1071 304.225C60.4877 301.523 56.3013 296.047 48.554 295.146L70.3421 270.92ZM78.071 321.573C73.8385 327.427 71.2254 334.121 70.3421 341.46L48.5632 317.223C56.3105 316.312 60.4969 310.857 62.1163 308.165C66.22 314.265 71.6026 318.769 78.071 321.573ZM68.9619 342.995C62.3648 343.988 56.3565 346.884 51.0934 351.592C48.5816 344.397 44.5147 338.42 39.0216 333.845C41.4415 332.043 46.3641 327.376 47.183 318.758L68.9619 342.995ZM93.9796 347.815C99.0218 346.649 104.147 344.377 109.263 340.999C110.588 340.129 111.839 339.228 113.026 338.317C112.915 339.914 112.833 341.572 112.814 343.281C112.741 349.903 113.541 355.973 115.151 361.408C110.238 366.003 104.101 369.401 96.4547 370.23C93.2895 362.452 92.8663 354.837 93.9796 347.815ZM115.188 336.588C119.651 332.893 122.917 329.311 124.61 327.315C125.18 329.986 126.404 334.909 128.603 340.59C126.045 346.935 122.255 354.09 116.789 359.801C114.618 351.807 114.544 343.507 115.188 336.588ZM126.128 324.817L125.76 322.545L124.417 324.306C124.325 324.429 121.003 328.717 115.529 333.497C116.504 325.831 118.188 320.488 118.234 320.335L118.933 318.165L116.982 318.943C116.853 318.994 112.051 320.867 105.15 321.952C109.447 315.852 113.302 312.157 113.412 312.065L114.995 310.57L112.952 310.161C112.814 310.13 107.818 309.076 101.359 306.19C107.818 303.293 112.814 302.249 112.952 302.219L114.995 301.809L113.412 300.315C113.302 300.213 109.447 296.518 105.15 290.428C112.041 291.513 116.853 293.386 116.982 293.437L118.933 294.215L118.234 292.045C118.188 291.902 116.504 286.559 115.529 278.883C121.012 283.663 124.334 287.951 124.417 288.074L125.76 289.834L126.128 287.562C126.156 287.409 127.103 281.851 129.698 274.656C132.293 281.841 133.241 287.409 133.268 287.562L133.636 289.834L134.98 288.074C135.072 287.951 138.393 283.663 143.868 278.883C142.892 286.549 141.209 291.892 141.163 292.045L140.463 294.215L142.414 293.437C142.543 293.386 147.346 291.513 154.247 290.428C149.95 296.528 146.094 300.223 145.984 300.315L144.401 301.809L146.444 302.219C146.582 302.249 151.578 303.304 158.047 306.19C151.588 309.076 146.582 310.13 146.444 310.161L144.401 310.57L145.984 312.065C146.094 312.167 149.95 315.862 154.247 321.952C147.355 320.867 142.552 318.994 142.414 318.943L140.463 318.165L141.163 320.335C141.209 320.478 142.892 325.821 143.868 333.497C138.384 328.717 135.062 324.429 134.98 324.306L133.636 322.545L133.268 324.817C133.241 324.971 132.293 330.529 129.698 337.724C127.094 330.529 126.147 324.971 126.128 324.817ZM134.786 327.315C136.479 329.311 139.755 332.893 144.208 336.588C144.843 343.507 144.77 351.807 142.607 359.79C137.142 354.079 133.342 346.925 130.793 340.579C132.992 334.909 134.216 329.986 134.786 327.315ZM146.573 343.271C146.555 341.562 146.481 339.904 146.361 338.307C147.548 339.218 148.8 340.119 150.125 340.989C155.25 344.366 160.365 346.638 165.408 347.805C166.521 354.826 166.098 362.452 162.932 370.23C155.286 369.401 149.149 365.993 144.236 361.408C145.855 355.963 146.647 349.893 146.573 343.271ZM190.416 342.985L212.204 318.758C213.023 327.376 217.936 332.043 220.365 333.845C214.882 338.42 210.824 344.387 208.312 351.582C203.031 346.884 197.013 343.977 190.416 342.985ZM214.035 316.271V315.186H213.06C203.896 315.186 199.58 308.298 198.504 306.272L198.559 306.19L198.522 306.128C199.617 304.102 204.024 297.214 213.078 297.214H214.054V296.129C214.054 285.904 220.292 281.094 222.086 279.927L222.132 279.958V279.968L222.187 279.927C224.009 281.114 230.22 285.914 230.22 296.119V297.204H231.195C240.359 297.204 244.684 304.112 245.751 306.139L245.714 306.2L245.751 306.261C244.684 308.288 240.359 315.176 231.195 315.176H230.22V316.261C230.22 326.455 224.009 331.276 222.187 332.463L222.132 332.422V332.432L222.077 332.473C220.264 331.266 214.035 326.373 214.035 316.271ZM232.051 318.748L253.83 342.985C247.233 343.977 241.224 346.874 235.961 351.582C233.449 344.387 229.383 338.41 223.889 333.835C226.319 332.043 231.232 327.376 232.051 318.748ZM278.847 347.815C283.89 346.649 289.015 344.377 294.13 340.999C295.455 340.129 296.707 339.228 297.894 338.317C297.783 339.914 297.7 341.572 297.682 343.281C297.608 349.903 298.409 355.973 300.019 361.408C295.106 366.003 288.969 369.401 281.323 370.23C278.157 362.452 277.734 354.837 278.847 347.815ZM300.056 336.588C304.518 332.893 307.785 329.311 309.478 327.315C310.048 329.986 311.272 334.909 313.471 340.59C310.913 346.935 307.122 354.09 301.657 359.801C299.485 351.807 299.412 343.507 300.056 336.588ZM310.996 324.817L310.628 322.545L309.285 324.306C309.193 324.429 305.871 328.717 300.396 333.497C301.372 325.831 303.055 320.488 303.101 320.335L303.801 318.165L301.85 318.943C301.721 318.994 296.918 320.867 290.018 321.952C294.314 315.852 298.17 312.157 298.28 312.065L299.863 310.57L297.82 310.161C297.682 310.13 292.686 309.076 286.227 306.19C292.686 303.293 297.682 302.249 297.82 302.219L299.863 301.809L298.28 300.315C298.17 300.213 294.314 296.518 290.018 290.428C296.909 291.513 301.712 293.386 301.85 293.437L303.801 294.215L303.101 292.045C303.055 291.902 301.372 286.559 300.396 278.883C305.88 283.663 309.202 287.951 309.285 288.074L310.628 289.834L310.996 287.562C311.024 287.409 311.971 281.851 314.566 274.656C317.17 281.841 318.108 287.409 318.136 287.562L318.504 289.834L319.847 288.074C319.939 287.951 323.261 283.663 328.736 278.883C327.76 286.549 326.077 291.892 326.031 292.045L325.331 294.215L327.282 293.437C327.411 293.386 332.214 291.513 339.114 290.428C334.818 296.528 330.962 300.223 330.852 300.315L329.269 301.809L331.312 302.219C331.45 302.249 336.446 303.304 342.915 306.19C336.455 309.076 331.45 310.13 331.312 310.161L329.269 310.57L330.852 312.065C330.962 312.167 334.818 315.862 339.114 321.952C332.223 320.867 327.42 318.994 327.282 318.943L325.331 318.165L326.031 320.335C326.077 320.478 327.76 325.821 328.736 333.497C323.252 328.717 319.93 324.429 319.847 324.306L318.504 322.545L318.136 324.817C318.108 324.971 317.161 330.529 314.566 337.724C311.971 330.529 311.024 324.971 310.996 324.817ZM319.654 327.315C321.347 329.311 324.623 332.893 329.076 336.588C329.711 343.507 329.637 351.807 327.475 359.79C322.01 354.079 318.21 346.925 315.661 340.579C317.869 334.909 319.084 329.986 319.654 327.315ZM331.45 343.271C331.432 341.562 331.358 339.904 331.238 338.307C332.425 339.218 333.677 340.119 335.002 340.989C340.127 344.366 345.242 346.638 350.285 347.805C351.398 354.826 350.975 362.452 347.809 370.23C340.163 369.401 334.026 365.993 329.113 361.408C330.723 355.963 331.514 349.893 331.45 343.271ZM351.987 345.922C350.938 340.313 348.895 334.623 345.859 328.922C345.077 327.448 344.267 326.056 343.448 324.736C344.884 324.858 346.374 324.951 347.911 324.971C348.159 324.971 348.408 324.971 348.647 324.971C354.315 324.971 359.522 324.091 364.215 322.371C368.337 327.837 371.392 334.664 372.146 343.169C365.144 346.69 358.299 347.16 351.987 345.922ZM351.876 308.472C350.533 307.633 349.208 306.876 347.901 306.19C349.208 305.504 350.533 304.747 351.876 303.907C357.066 300.663 361.399 296.866 364.831 292.588C370.858 295.023 376.581 299.24 381.044 306.19C376.572 313.139 370.858 317.346 364.831 319.792C361.399 315.514 357.075 311.717 351.876 308.472ZM364.215 290.008C359.532 288.289 354.315 287.409 348.647 287.409C348.398 287.409 348.15 287.409 347.911 287.409C346.374 287.429 344.884 287.511 343.448 287.644C344.267 286.324 345.077 284.932 345.859 283.458C348.895 277.757 350.938 272.066 351.987 266.458C358.299 265.219 365.153 265.69 372.146 269.211C371.392 277.716 368.337 284.543 364.215 290.008ZM371.291 244.985C376.333 243.818 381.458 241.546 386.574 238.168C387.899 237.298 389.15 236.398 390.337 235.487C390.226 237.083 390.144 238.741 390.125 240.451C390.052 247.073 390.852 253.142 392.462 258.577C387.549 263.172 381.412 266.57 373.766 267.399C370.601 259.621 370.177 252.006 371.291 244.985ZM388.018 209.019C386.224 210.902 383.004 214.546 379.682 219.5C373.462 220.206 366 220.124 358.823 217.719C363.957 211.639 370.389 207.422 376.094 204.577C381.191 207.023 385.617 208.384 388.018 209.019ZM388.018 197.709C385.617 198.344 381.191 199.705 376.084 202.151C370.38 199.306 363.948 195.089 358.814 189.01C365.991 186.604 373.462 186.522 379.682 187.229C383.004 192.193 386.224 195.836 388.018 197.709ZM393.106 187.914C390.742 187.126 386.298 185.847 380.777 185.12C377.115 179.481 373.444 172.255 371.732 164.128C379.029 166.032 385.534 170.116 390.604 174.189C391.248 180.33 392.398 185.284 393.106 187.914ZM405.914 168.98C403.715 174.66 402.491 179.583 401.921 182.254C400.228 180.259 396.952 176.666 392.499 172.982C391.864 166.063 391.938 157.762 394.1 149.779C399.565 155.48 403.356 162.634 405.914 168.98ZM405.233 128.204C399.75 132.779 395.692 138.746 393.18 145.941C387.908 141.233 381.89 138.326 375.293 137.343L397.081 113.117C397.891 121.735 402.804 126.402 405.233 128.204ZM395.692 111.582L373.922 135.788C373.03 128.459 370.416 121.776 366.193 115.932C372.662 113.138 378.035 108.634 382.148 102.534C383.758 105.226 387.945 110.681 395.692 111.582ZM382.148 98.5835C378.035 92.4732 372.662 87.9698 366.193 85.1655C370.426 79.3111 373.039 72.6174 373.922 65.2789L395.701 89.5153C387.972 90.4262 383.776 95.8713 382.148 98.5835ZM405.252 72.8937C402.832 74.6848 397.909 79.3418 397.09 87.9801L375.311 63.7437C381.909 62.7509 387.917 59.8544 393.18 55.1463C395.692 62.3517 399.749 68.3289 405.252 72.8937ZM401.921 18.8428C402.491 21.5141 403.715 26.4372 405.914 32.1176C403.356 38.4633 399.565 45.6175 394.1 51.3286C391.938 43.3453 391.864 35.0448 392.499 28.1259C396.952 24.4209 400.228 20.8386 401.921 18.8428ZM380.777 15.9668C386.298 15.2503 390.742 13.9607 393.106 13.1726C392.398 15.803 391.248 20.7465 390.594 26.8875C385.525 30.961 379.029 35.0448 371.723 36.9485C373.444 28.8321 377.115 21.6062 380.777 15.9668ZM357.369 13.8993C362.053 15.6188 367.27 16.499 372.938 16.499C373.186 16.499 373.434 16.499 373.674 16.499C375.21 16.4785 376.701 16.3966 378.136 16.2636C377.317 17.5839 376.508 18.9759 375.726 20.4497C372.689 26.1506 370.647 31.8412 369.598 37.45C363.276 38.6884 356.431 38.2176 349.438 34.6968C350.183 26.1915 353.238 19.3648 357.369 13.8993ZM347.809 36.5084C350.984 44.287 351.407 51.9018 350.285 58.923C345.242 60.0898 340.117 62.3619 335.002 65.7395C333.677 66.6095 332.425 67.5101 331.238 68.421C331.349 66.8244 331.432 65.1663 331.45 63.4571C331.524 56.835 330.723 50.7657 329.113 45.3309C334.017 40.7354 340.163 37.3374 347.809 36.5084ZM324.494 10.2761L346.273 34.5126C339.676 35.5054 333.667 38.4018 328.404 43.1099C325.893 35.9147 321.826 29.9375 316.333 25.3625C318.752 23.5611 323.675 18.9042 324.494 10.2761ZM314.566 26.6009C320.814 31.5751 324.595 37.931 326.794 44.635C322.948 48.4526 319.535 53.263 316.618 59.0458C315.863 60.5401 315.182 62.0139 314.566 63.4673C313.95 62.0139 313.269 60.5401 312.514 59.0458C309.597 53.2733 306.184 48.4526 302.347 44.635C304.537 37.931 308.328 31.5751 314.566 26.6009ZM304.647 10.2761C305.466 18.894 310.38 23.5611 312.809 25.3625C307.316 29.9375 303.258 35.9147 300.737 43.1099C295.465 38.4018 289.447 35.4951 282.85 34.5126L304.647 10.2761ZM300.028 45.3309C298.418 50.7657 297.618 56.835 297.691 63.4571C297.71 65.1663 297.783 66.8244 297.903 68.421C296.716 67.5101 295.465 66.6095 294.14 65.7395C289.015 62.3619 283.899 60.0898 278.857 58.923C277.743 51.9018 278.167 44.287 281.332 36.5084C288.969 37.3374 295.115 40.7354 300.028 45.3309ZM255.468 16.4888C261.421 16.5706 266.877 15.6802 271.763 13.8891C275.894 19.3546 278.949 26.1915 279.694 34.6866C272.701 38.2176 265.856 38.6884 259.544 37.4398C258.495 31.831 256.452 26.1301 253.416 20.4395C252.634 18.9656 251.824 17.5737 251.005 16.2534C252.44 16.3864 253.931 16.4683 255.468 16.4888ZM236.026 13.1829C238.39 13.971 242.835 15.2606 248.355 15.977C252.017 21.6165 255.688 28.8424 257.4 36.969C250.103 35.0652 243.598 30.9815 238.528 26.908C237.894 20.7567 236.734 15.8132 236.026 13.1829ZM227.211 18.8428C228.904 20.8386 232.18 24.4209 236.633 28.1157C237.268 35.0345 237.194 43.3351 235.032 51.3184C229.567 45.6073 225.767 38.453 223.218 32.1073C225.426 26.4372 226.65 21.5141 227.211 18.8428ZM222.123 34.7991C222.739 36.2525 223.42 37.7263 224.175 39.2206C227.091 44.9932 230.505 49.8139 234.342 53.6315C232.152 60.3354 228.361 66.6913 222.114 71.6655V71.6553C215.875 66.6811 212.094 60.3252 209.904 53.6315C213.75 49.8139 217.164 45.0034 220.08 39.2206C220.826 37.7366 221.506 36.273 222.123 34.8298V34.7991ZM217.053 18.8428C217.624 21.5141 218.847 26.4372 221.046 32.1176C218.488 38.4633 214.698 45.6175 209.232 51.3286C207.07 43.3453 206.996 35.0448 207.631 28.1259C212.085 24.4209 215.36 20.8386 217.053 18.8428ZM195.909 15.9668C201.43 15.2503 205.874 13.9607 208.238 13.1726C207.53 15.803 206.38 20.7465 205.727 26.8875C200.657 30.961 194.161 35.0448 186.855 36.9485C188.576 28.8321 192.247 21.6062 195.909 15.9668ZM172.492 13.8993C177.176 15.6188 182.393 16.499 188.061 16.499C188.309 16.499 188.557 16.499 188.797 16.499C190.333 16.4785 191.824 16.3966 193.259 16.2636C192.44 17.5839 191.631 18.9759 190.848 20.4497C187.812 26.1506 185.769 31.8412 184.721 37.45C178.399 38.6884 171.554 38.2176 164.561 34.6968C165.315 26.1915 168.37 19.3648 172.492 13.8993ZM162.932 36.5084C166.107 44.287 166.53 51.9018 165.408 58.923C160.365 60.0898 155.24 62.3619 150.125 65.7395C148.8 66.6095 147.548 67.5101 146.361 68.421C146.472 66.8244 146.555 65.1663 146.573 63.4571C146.647 56.835 145.846 50.7657 144.236 45.3309C149.149 40.7354 155.296 37.3374 162.932 36.5084ZM139.617 10.2761L161.396 34.5126C154.799 35.5054 148.79 38.4018 143.527 43.1099C141.015 35.9147 136.949 29.9375 131.456 25.3625C133.885 23.5611 138.807 18.9042 139.617 10.2761ZM129.698 26.6009C135.946 31.5751 139.727 37.931 141.926 44.635C138.08 48.4526 134.667 53.263 131.75 59.0458C130.996 60.5401 130.315 62.0139 129.698 63.4673C129.082 62.0139 128.401 60.5401 127.646 59.0458C124.73 53.2733 121.316 48.4526 117.479 44.635C119.66 37.931 123.451 31.5751 129.698 26.6009ZM119.77 10.2761C120.589 18.894 125.502 23.5611 127.932 25.3625C122.439 29.9375 118.381 35.9147 115.86 43.1099C110.588 38.4018 104.57 35.4951 97.9729 34.5126L119.77 10.2761ZM115.16 45.3309C113.55 50.7657 112.75 56.835 112.823 63.4571C112.842 65.1663 112.915 66.8244 113.035 68.421C111.848 67.5101 110.597 66.6095 109.272 65.7395C104.147 62.3619 99.031 60.0898 93.9888 58.923C92.8755 51.9018 93.2987 44.287 96.4639 36.5084C104.101 37.3374 110.247 40.7354 115.16 45.3309ZM70.5905 16.4888C76.5436 16.5706 81.9998 15.6802 86.8856 13.8891C91.0169 19.3546 94.0716 26.1915 94.8169 34.6866C87.8241 38.2176 80.9785 38.6884 74.6666 37.4398C73.6177 31.831 71.575 26.1301 68.5387 20.4395C67.7566 18.9656 66.9469 17.5737 66.128 16.2534C67.5634 16.3864 69.0539 16.4683 70.5905 16.4888ZM51.1579 13.1829C53.5225 13.971 57.9666 15.2503 63.4873 15.9668C67.1493 21.6062 70.8205 28.8321 72.5319 36.9587C65.2355 35.055 58.7303 30.9713 53.6605 26.8977C53.0165 20.7567 51.8663 15.8132 51.1579 13.1829ZM42.3432 18.8428C44.0362 20.8386 47.3118 24.4209 51.7651 28.1157C52.4 35.0345 52.3264 43.3351 50.1641 51.3184C44.6987 45.6073 40.9079 38.453 38.35 32.1073C40.549 26.4372 41.7728 21.5141 42.3432 18.8428ZM39.3069 39.2206C42.2236 44.9932 45.6372 49.8139 49.4741 53.6315C47.2934 60.3252 43.5118 66.6709 37.2826 71.6451C31.0535 66.6811 27.2719 60.3252 25.082 53.6315C28.9281 49.8139 32.3417 45.0034 35.2584 39.2206C36.0037 37.7468 36.6662 36.2934 37.2826 34.8605C37.8991 36.2934 38.5708 37.7468 39.3069 39.2206ZM32.2221 18.8428C32.7925 21.5141 34.0163 26.4372 36.2153 32.1176C33.6574 38.4633 29.8666 45.6175 24.4012 51.3286C22.2389 43.3453 22.1653 35.0448 22.8002 28.1259C27.2535 24.4209 30.5291 20.8386 32.2221 18.8428ZM11.078 15.9668C16.5986 15.2503 21.0428 13.9607 23.4074 13.1726C22.699 15.803 21.5488 20.7465 20.8955 26.8875C15.8258 30.961 9.32981 35.0448 2.02416 36.9485C3.74476 28.8321 7.41598 21.6062 11.078 15.9668ZM4.076 61.7581C0.901628 53.9795 0.478379 46.3647 1.60091 39.3435C6.64309 38.1767 11.7681 35.9045 16.8839 32.527C18.2088 31.657 19.4602 30.7563 20.6471 29.8454C20.5367 31.4421 20.4539 33.1001 20.4355 34.8094C20.3619 41.4314 21.1624 47.5007 22.7726 52.9355C17.8592 57.5208 11.7129 60.9188 4.076 61.7581ZM5.60337 63.7437C12.2005 62.7509 18.2088 59.8544 23.4718 55.1463C25.9837 62.3415 30.0506 68.3187 35.5436 72.8937C33.1238 74.6848 28.2012 79.3418 27.3823 87.9801L5.60337 63.7437ZM13.6727 100.631L13.7279 100.549L13.6911 100.487C14.786 98.4607 19.1934 91.5726 28.2472 91.5726H29.2225V90.4774C29.2225 80.2527 35.4608 75.4422 37.255 74.2754V74.3164L37.2826 74.2959L37.301 74.3062V74.2857L37.3195 74.2754C39.1413 75.4627 45.352 80.2629 45.352 90.4672V91.5521H46.3273C55.4916 91.5521 59.8161 98.4607 60.8834 100.487L60.8466 100.549L60.8834 100.61C59.8161 102.637 55.4916 109.525 46.3273 109.525H45.352V110.61C45.352 120.804 39.1413 125.624 37.3195 126.812L37.301 126.801V126.781L37.2826 126.791L37.255 126.771V126.812L37.2366 126.822C35.4332 125.614 29.2041 120.712 29.2041 110.62V109.535H28.2288C19.0737 109.545 14.7492 102.657 13.6727 100.631ZM27.3731 113.117C28.192 121.735 33.1054 126.402 35.5344 128.204C30.0506 132.779 25.9929 138.746 23.481 145.941C18.2088 141.233 12.1913 138.326 5.59417 137.343L27.3731 113.117ZM4.076 139.339C11.7221 140.168 17.8592 143.576 22.7726 148.162C21.1624 153.597 20.3619 159.666 20.4355 166.288C20.4539 167.997 20.5275 169.655 20.6471 171.252C19.4602 170.341 18.2088 169.44 16.8839 168.57C11.7589 165.193 6.64309 162.921 1.60091 161.754C0.478379 154.733 0.901628 147.118 4.076 139.339ZM2.03336 164.128C9.32981 166.032 15.835 170.116 20.9047 174.189C21.5488 180.33 22.7082 185.274 23.4166 187.904C21.052 187.116 16.6079 185.837 11.0872 185.11C7.41598 179.481 3.74476 172.255 2.03336 164.128ZM21.0244 209.234L22.6069 207.74L20.5643 207.33C20.4263 207.299 15.4301 206.245 8.97096 203.359H8.99857C15.4485 200.483 20.4263 199.429 20.5643 199.398L22.6069 198.989L21.0244 197.494C20.9139 197.392 17.0587 193.697 12.7618 187.607C19.6534 188.692 24.4564 190.565 24.5944 190.616L26.545 191.394L25.8457 189.225C25.7997 189.081 24.1159 183.739 23.1406 176.062C28.6244 180.842 31.946 185.131 32.0288 185.253L33.3722 187.014L33.7402 184.742C33.7678 184.588 34.7063 179.071 37.2826 171.917C39.8589 179.071 40.8067 184.588 40.8251 184.742L41.1931 187.014L42.5365 185.253C42.6285 185.131 45.9501 180.842 51.4247 176.062C50.4494 183.728 48.7656 189.071 48.7196 189.225L48.0203 191.394L49.9709 190.616C50.0997 190.565 54.9027 188.692 61.8035 187.607C57.5066 193.707 53.6513 197.402 53.5409 197.494L51.9583 198.989L54.001 199.398C54.139 199.429 59.126 200.473 65.5851 203.359H65.6035C59.1444 206.245 54.1482 207.299 54.0102 207.33L51.9675 207.74L53.5501 209.234C53.6605 209.336 57.5158 213.031 61.8127 219.121C54.9211 218.036 50.1181 216.163 49.9801 216.112L48.0295 215.334L48.7288 217.504C48.7748 217.647 50.4586 222.99 51.4339 230.666C45.9501 225.886 42.6285 221.598 42.5457 221.475L41.2023 219.715L40.8343 221.987C40.8067 222.14 39.8681 227.657 37.2918 234.811C34.7155 227.657 33.7678 222.14 33.7494 221.987L33.3814 219.715L32.038 221.475C31.946 221.598 28.6244 225.886 23.1498 230.656C24.1251 222.99 25.8089 217.647 25.8549 217.494L26.5542 215.324L24.6036 216.102C24.4748 216.153 19.6718 218.026 12.771 219.111C17.0587 213.031 20.9139 209.336 21.0244 209.234ZM11.078 221.618C16.5986 220.902 21.0428 219.612 23.4074 218.824C22.699 221.454 21.5488 226.398 20.8955 232.539C15.8258 236.612 9.32981 240.696 2.02416 242.6C3.74476 234.484 7.41598 227.247 11.078 221.618ZM4.076 267.399C0.901628 259.621 0.478379 252.006 1.60091 244.985C6.64309 243.818 11.7681 241.546 16.8839 238.168C18.2088 237.298 19.4602 236.398 20.6471 235.487C20.5367 237.083 20.4539 238.741 20.4355 240.451C20.3619 247.073 21.1624 253.142 22.7726 258.577C17.8592 263.162 11.7129 266.57 4.076 267.399ZM5.60337 269.385C12.2005 268.392 18.2088 265.496 23.4718 260.787C25.9837 267.983 30.0506 273.96 35.5436 278.535C33.1238 280.326 28.2012 284.983 27.3823 293.621L5.60337 269.385ZM13.6727 306.272L13.7279 306.19L13.6911 306.128C14.786 304.102 19.1934 297.214 28.2472 297.214H29.2225V296.129C29.2225 285.904 35.4608 281.094 37.255 279.927V279.968L37.2826 279.947L37.301 279.958V279.937L37.3195 279.927C39.1413 281.114 45.352 285.914 45.352 296.119V297.204H46.3273C55.4916 297.204 59.8161 304.112 60.8834 306.139L60.8466 306.2L60.8834 306.261C59.8161 308.288 55.4916 315.176 46.3273 315.176H45.352V316.261C45.352 326.455 39.1413 331.276 37.3195 332.463L37.301 332.453V332.432L37.2826 332.443L37.255 332.422V332.463L37.2366 332.473C35.4332 331.266 29.2041 326.363 29.2041 316.271V315.186H28.2288C19.0737 315.186 14.7492 308.298 13.6727 306.272ZM27.3731 318.769C28.192 327.386 33.1054 332.054 35.5344 333.855C30.0506 338.43 25.9929 344.397 23.481 351.592C18.2088 346.884 12.1913 343.977 5.59417 342.995L27.3731 318.769ZM4.076 344.98C11.7221 345.809 17.8592 349.218 22.7726 353.803C21.1624 359.238 20.3619 365.307 20.4355 371.929C20.4539 373.638 20.5275 375.296 20.6471 376.893C19.4602 375.982 18.2088 375.081 16.8839 374.212C11.7589 370.834 6.64309 368.562 1.60091 367.395C0.478379 360.374 0.901628 352.759 4.076 344.98ZM23.4074 393.556C21.0428 392.768 16.5986 391.488 11.078 390.761C7.41598 385.122 3.74476 377.896 2.03336 369.77C9.32981 371.673 15.835 375.757 20.9047 379.831C21.5488 385.982 22.699 390.925 23.4074 393.556ZM32.2221 387.896C30.5291 385.9 27.2535 382.318 22.8002 378.623C22.1653 371.704 22.2389 363.403 24.4012 355.42C29.8666 361.131 33.6666 368.285 36.2153 374.631C34.0163 380.301 32.7925 385.224 32.2221 387.896ZM35.2584 367.518C32.3417 361.745 28.9281 356.925 25.082 353.107C27.2719 346.413 31.0535 340.057 37.2826 335.093C43.5118 340.057 47.2934 346.413 49.4833 353.107C45.6372 356.925 42.2236 361.735 39.3069 367.518C38.5616 368.992 37.8991 370.445 37.2826 371.878C36.6662 370.445 35.9945 368.981 35.2584 367.518ZM42.3432 387.896C41.7728 385.224 40.549 380.301 38.35 374.621C40.9079 368.275 44.6987 361.121 50.1641 355.41C52.3264 363.393 52.4 371.694 51.7651 378.613C47.3118 382.307 44.0362 385.9 42.3432 387.896ZM51.1579 393.556C51.8663 390.925 53.0257 385.982 53.6697 379.841C58.7395 375.767 65.2355 371.683 72.5411 369.78C70.8297 377.896 67.1585 385.132 63.4965 390.772C57.9667 391.478 53.5225 392.768 51.1579 393.556ZM68.1798 407.803C63.0732 405.357 58.6475 403.995 56.246 403.361C58.0403 401.478 61.2606 397.834 64.5822 392.88C70.8021 392.174 78.2642 392.256 85.441 394.661C80.316 400.73 73.8845 404.957 68.1798 407.803ZM86.8948 392.839C82.009 391.048 76.5528 390.158 70.5905 390.25C69.0539 390.27 67.5634 390.352 66.128 390.485C66.9469 389.165 67.7566 387.773 68.5387 386.299C71.575 380.598 73.6177 374.907 74.6666 369.299C80.9785 368.06 87.8241 368.531 94.8169 372.052C94.0808 380.547 91.0261 387.374 86.8948 392.839ZM104.837 407.056C100.724 400.945 95.3598 396.421 88.8914 393.627C93.1147 387.773 95.7186 381.089 96.6111 373.761L118.39 397.998C110.661 398.898 106.465 404.354 104.837 407.056ZM119.77 396.452L97.9913 372.216C104.588 371.223 110.597 368.326 115.86 363.618C118.372 370.813 122.439 376.791 127.932 381.366C125.521 383.157 120.589 387.824 119.77 396.452ZM129.698 380.138C123.451 375.163 119.669 368.807 117.47 362.104C121.316 358.286 124.73 353.475 127.637 347.693C128.392 346.198 129.072 344.725 129.689 343.271C130.305 344.725 130.986 346.198 131.741 347.693C134.658 353.465 138.071 358.286 141.917 362.104C139.727 368.807 135.946 375.163 129.698 380.138ZM131.446 381.376C136.949 376.801 141.015 370.824 143.527 363.618C148.79 368.316 154.799 371.223 161.396 372.216L139.608 396.442C138.789 387.824 133.875 383.177 131.446 381.376ZM154.541 407.066C152.922 404.364 148.735 398.888 140.979 397.977L162.776 373.741C163.669 381.069 166.272 387.752 170.496 393.607C164.027 396.421 158.654 400.956 154.541 407.066ZM172.502 392.839C168.379 387.374 165.325 380.547 164.57 372.042C171.563 368.511 178.409 368.04 184.73 369.288C185.779 374.897 187.821 380.598 190.858 386.289C191.64 387.763 192.449 389.155 193.268 390.475C191.833 390.352 190.342 390.26 188.806 390.239C182.844 390.158 177.387 391.048 172.502 392.839ZM203.15 403.361C200.749 403.995 196.323 405.357 191.217 407.803C185.512 404.957 179.08 400.741 173.946 394.661C181.123 392.256 188.594 392.174 194.814 392.88C198.126 397.834 201.356 401.478 203.15 403.361ZM208.238 393.556C205.874 392.768 201.43 391.488 195.909 390.761C192.247 385.122 188.576 377.896 186.864 369.77C194.161 371.673 200.666 375.757 205.736 379.831C206.371 385.982 207.53 390.925 208.238 393.556ZM217.053 387.896C215.36 385.9 212.085 382.318 207.631 378.623C206.996 371.704 207.07 363.403 209.232 355.42C214.698 361.131 218.498 368.285 221.046 374.631C218.847 380.301 217.624 385.224 217.053 387.896ZM220.089 367.518C217.173 361.745 213.759 356.925 209.913 353.107C212.103 346.403 215.894 340.047 222.123 335.083V335.073C228.37 340.047 232.152 346.403 234.351 353.107C230.505 356.925 227.091 361.735 224.175 367.518C223.42 369.012 222.739 370.486 222.123 371.939V371.909C221.506 370.466 220.835 368.992 220.089 367.518ZM227.211 387.896C226.641 385.224 225.417 380.301 223.218 374.621C225.776 368.275 229.567 361.121 235.032 355.41C237.194 363.393 237.268 371.694 236.633 378.613C232.18 382.307 228.904 385.9 227.211 387.896ZM236.026 393.556C236.734 390.925 237.894 385.982 238.538 379.841C243.607 375.767 250.103 371.683 257.409 369.78C255.698 377.896 252.026 385.132 248.364 390.772C242.834 391.478 238.39 392.768 236.026 393.556ZM253.048 407.803C247.941 405.357 243.515 403.995 241.114 403.361C242.908 401.478 246.128 397.834 249.45 392.88C255.67 392.174 263.132 392.256 270.309 394.661C265.184 400.73 258.752 404.957 253.048 407.803ZM271.772 392.839C266.886 391.048 261.43 390.158 255.468 390.25C253.931 390.27 252.44 390.352 251.005 390.485C251.824 389.165 252.634 387.773 253.416 386.299C256.452 380.598 258.495 374.907 259.544 369.299C265.856 368.06 272.701 368.531 279.694 372.052C278.949 380.547 275.894 387.374 271.772 392.839ZM289.714 407.056C285.601 400.945 280.237 396.421 273.768 393.627C277.992 387.773 280.596 381.089 281.488 373.761L303.267 397.998C295.529 398.898 291.333 404.354 289.714 407.056ZM304.647 396.452L282.868 372.216C289.465 371.223 295.474 368.326 300.737 363.618C303.249 370.813 307.316 376.791 312.809 381.366C310.389 383.157 305.466 387.824 304.647 396.452ZM314.566 380.138C308.318 375.163 304.537 368.807 302.338 362.104C306.184 358.286 309.597 353.475 312.505 347.693C313.259 346.198 313.94 344.725 314.557 343.271C315.173 344.725 315.854 346.198 316.609 347.693C319.525 353.465 322.939 358.286 326.785 362.104C324.604 368.807 320.814 375.163 314.566 380.138ZM316.323 381.376C321.826 376.801 325.893 370.824 328.404 363.618C333.667 368.316 339.676 371.223 346.273 372.216L324.485 396.442C323.666 387.824 318.743 383.177 316.323 381.376ZM339.418 407.066C337.799 404.364 333.612 398.888 325.856 397.977L347.653 373.741C348.546 381.069 351.149 387.752 355.373 393.607C348.904 396.421 343.531 400.956 339.418 407.066ZM357.369 392.839C353.247 387.374 350.193 380.547 349.438 372.042C356.431 368.511 363.276 368.04 369.598 369.288C370.647 374.897 372.689 380.598 375.726 386.289C376.508 387.763 377.317 389.155 378.136 390.475C376.701 390.352 375.21 390.26 373.674 390.239C367.711 390.158 362.255 391.048 357.369 392.839ZM388.018 403.361C385.617 403.995 381.191 405.357 376.084 407.803C370.38 404.957 363.948 400.741 358.814 394.661C365.991 392.256 373.462 392.174 379.682 392.88C383.004 397.834 386.224 401.478 388.018 403.361ZM393.106 393.556C390.742 392.768 386.298 391.488 380.777 390.761C377.115 385.122 373.444 377.896 371.732 369.77C379.029 371.673 385.534 375.757 390.604 379.831C391.248 385.982 392.398 390.925 393.106 393.556ZM405.914 374.621C403.715 380.301 402.491 385.224 401.921 387.896C400.228 385.9 396.952 382.318 392.499 378.623C391.864 371.704 391.938 363.403 394.1 355.42C399.565 361.121 403.356 368.275 405.914 374.621ZM405.233 333.855C399.75 338.43 395.692 344.397 393.18 351.592C387.908 346.884 381.89 343.977 375.293 342.995L397.081 318.769C397.891 327.386 402.804 332.054 405.233 333.855ZM395.692 317.233L373.922 341.439C373.03 334.111 370.416 327.427 366.193 321.583C372.662 318.789 378.035 314.286 382.148 308.186C383.758 310.867 387.945 316.322 395.692 317.233ZM382.148 304.225C378.035 298.114 372.662 293.611 366.193 290.807C370.426 284.952 373.039 278.259 373.922 270.92L395.701 295.157C387.972 296.067 383.776 301.523 382.148 304.225ZM405.252 278.545C402.832 280.336 397.909 284.993 397.09 293.632L375.311 269.395C381.909 268.402 387.917 265.506 393.18 260.798C395.692 267.993 399.749 273.97 405.252 278.545ZM394.1 256.97C391.938 248.987 391.864 240.686 392.499 233.767C396.962 230.072 400.228 226.49 401.921 224.494C402.491 227.166 403.715 232.089 405.914 237.769C403.356 244.104 399.565 251.259 394.1 256.97Z" fill="url(#paint0_linear_724_186)"/>
</g>
<defs>
<linearGradient id="paint0_linear_724_186" x1="386.074" y1="427.628" x2="-63.3688" y2="0.0703185" gradientUnits="userSpaceOnUse">
<stop stop-color="#EAF2EB"/>
<stop offset="1" stop-color="#90EE90"/>
</linearGradient>
<clipPath id="clip0_724_186">
<rect width="407" height="409" fill="white"/>
</clipPath>
</defs>
</svg>
